<svg width="300" height="84" viewBox="0 0 300 84" fill="none" xmlns="http://www.w3.org/2000/svg">
<g clip-path="url(#clip0_978_3448)">
<path d="M93.6036 38.88L73.0942 3.12C71.9856 1.188 69.9412 0 67.7269 0H26.7081C24.4939 0 22.4465 1.188 21.3409 3.12L0.831462 38.88C-0.277154 40.812 -0.277154 43.188 0.831462 45.12L21.3409 80.88C22.4495 82.812 24.4939 84 26.7081 84H67.7269C69.9412 84 71.9886 82.812 73.0942 80.88L93.6036 45.12C94.7122 43.188 94.7122 40.812 93.6036 38.88Z" fill="#003966"/>
<path d="M20.0176 43.773V40.203C20.0176 39.918 19.8657 39.654 19.6213 39.513L16.5517 37.728C16.3074 37.587 16.0034 37.587 15.759 37.728L12.6895 39.513C12.4451 39.654 12.2931 39.918 12.2931 40.203V43.773C12.2931 44.058 12.4451 44.322 12.6895 44.463L15.759 46.248C16.0034 46.389 16.3074 46.389 16.5517 46.248L19.6213 44.463C19.8657 44.322 20.0176 44.058 20.0176 43.773Z" fill="#0080FF"/>
<path d="M82.1419 43.773V40.203C82.1419 39.918 81.9899 39.654 81.7455 39.513L78.676 37.728C78.4316 37.587 78.1276 37.587 77.8833 37.728L74.8137 39.513C74.5693 39.654 74.4174 39.918 74.4174 40.203V43.773C74.4174 44.058 74.5693 44.322 74.8137 44.463L77.8833 46.248C78.1276 46.389 78.4316 46.389 78.676 46.248L81.7455 44.463C81.9899 44.322 82.1419 44.058 82.1419 43.773Z" fill="#0080FF"/>
<path d="M26.8243 43.974C27.9139 43.974 28.7972 43.0849 28.7972 41.988C28.7972 40.8912 27.9139 40.002 26.8243 40.002C25.7347 40.002 24.8514 40.8912 24.8514 41.988C24.8514 43.0849 25.7347 43.974 26.8243 43.974Z" fill="#CDEBFA"/>
<path d="M33.622 43.974C34.7116 43.974 35.5949 43.0849 35.5949 41.988C35.5949 40.8912 34.7116 40.002 33.622 40.002C32.5325 40.002 31.6492 40.8912 31.6492 41.988C31.6492 43.0849 32.5325 43.974 33.622 43.974Z" fill="#CDEBFA"/>
<path d="M60.8129 43.974C61.9025 43.974 62.7858 43.0849 62.7858 41.988C62.7858 40.8912 61.9025 40.002 60.8129 40.002C59.7234 40.002 58.8401 40.8912 58.8401 41.988C58.8401 43.0849 59.7234 43.974 60.8129 43.974Z" fill="#CDEBFA"/>
<path d="M67.6107 43.974C68.7003 43.974 69.5835 43.0849 69.5835 41.988C69.5835 40.8912 68.7003 40.002 67.6107 40.002C66.5211 40.002 65.6378 40.8912 65.6378 41.988C65.6378 43.0849 66.5211 43.974 67.6107 43.974Z" fill="#CDEBFA"/>
<path d="M35.1539 66.591L32.0843 64.806C31.8399 64.665 31.536 64.665 31.2916 64.806L28.222 66.591C27.9777 66.732 27.8257 66.996 27.8257 67.281V70.851C27.8257 71.136 27.9777 71.4 28.222 71.541L31.2916 73.326C31.536 73.467 31.8399 73.467 32.0843 73.326L35.1539 71.541C35.3982 71.4 35.5502 71.136 35.5502 70.851V67.281C35.5502 66.996 35.3982 66.732 35.1539 66.591Z" fill="#0080FF"/>
<path d="M66.216 12.435L63.1465 10.65C62.9021 10.509 62.5981 10.509 62.3537 10.65L59.2842 12.435C59.0398 12.576 58.8878 12.84 58.8878 13.125V16.695C58.8878 16.98 59.0398 17.244 59.2842 17.385L62.3537 19.17C62.5981 19.311 62.9021 19.311 63.1465 19.17L66.216 17.385C66.4604 17.244 66.6124 16.98 66.6124 16.695V13.125C66.6124 12.84 66.4604 12.576 66.216 12.435Z" fill="#0080FF"/>
<path d="M37.0195 61.752C38.1091 61.752 38.9924 60.8628 38.9924 59.766C38.9924 58.6692 38.1091 57.78 37.0195 57.78C35.9299 57.78 35.0466 58.6692 35.0466 59.766C35.0466 60.8628 35.9299 61.752 37.0195 61.752Z" fill="#CDEBFA"/>
<path d="M40.4198 55.827C41.5093 55.827 42.3926 54.9378 42.3926 53.841C42.3926 52.7442 41.5093 51.855 40.4198 51.855C39.3302 51.855 38.4469 52.7442 38.4469 53.841C38.4469 54.9378 39.3302 55.827 40.4198 55.827Z" fill="#CDEBFA"/>
<path d="M54.0152 32.121C55.1048 32.121 55.9881 31.2318 55.9881 30.135C55.9881 29.0381 55.1048 28.149 54.0152 28.149C52.9256 28.149 52.0424 29.0381 52.0424 30.135C52.0424 31.2318 52.9256 32.121 54.0152 32.121Z" fill="#CDEBFA"/>
<path d="M57.4156 26.196C58.5052 26.196 59.3885 25.3068 59.3885 24.21C59.3885 23.1132 58.5052 22.224 57.4156 22.224C56.326 22.224 55.4427 23.1132 55.4427 24.21C55.4427 25.3068 56.326 26.196 57.4156 26.196Z" fill="#CDEBFA"/>
<path d="M59.2811 66.591C59.0368 66.732 58.8848 66.996 58.8848 67.281V70.851C58.8848 71.136 59.0368 71.4 59.2811 71.541L62.3507 73.326C62.5951 73.467 62.899 73.467 63.1434 73.326L66.213 71.541C66.4573 71.4 66.6093 71.136 66.6093 70.851V67.281C66.6093 66.996 66.4573 66.732 66.213 66.591L63.1434 64.806C62.899 64.665 62.5951 64.665 62.3507 64.806L59.2811 66.591Z" fill="#0080FF"/>
<path d="M28.2191 12.435C27.9747 12.576 27.8228 12.84 27.8228 13.125V16.695C27.8228 16.98 27.9747 17.244 28.2191 17.385L31.2887 19.17C31.533 19.311 31.837 19.311 32.0814 19.17L35.1509 17.385C35.3953 17.244 35.5473 16.98 35.5473 16.695V13.125C35.5473 12.84 35.3953 12.576 35.1509 12.435L32.0814 10.65C31.837 10.509 31.533 10.509 31.2887 10.65L28.2191 12.435Z" fill="#0080FF"/>
<path d="M57.4156 61.752C58.5052 61.752 59.3885 60.8628 59.3885 59.766C59.3885 58.6692 58.5052 57.78 57.4156 57.78C56.326 57.78 55.4427 58.6692 55.4427 59.766C55.4427 60.8628 56.326 61.752 57.4156 61.752Z" fill="#CDEBFA"/>
<path d="M54.0152 55.827C55.1048 55.827 55.9881 54.9378 55.9881 53.841C55.9881 52.7442 55.1048 51.855 54.0152 51.855C52.9256 51.855 52.0424 52.7442 52.0424 53.841C52.0424 54.9378 52.9256 55.827 54.0152 55.827Z" fill="#CDEBFA"/>
<path d="M40.4198 32.121C41.5093 32.121 42.3926 31.2318 42.3926 30.135C42.3926 29.0381 41.5093 28.149 40.4198 28.149C39.3302 28.149 38.4469 29.0381 38.4469 30.135C38.4469 31.2318 39.3302 32.121 40.4198 32.121Z" fill="#CDEBFA"/>
<path d="M37.0195 26.196C38.1091 26.196 38.9924 25.3068 38.9924 24.21C38.9924 23.1132 38.1091 22.224 37.0195 22.224C35.9299 22.224 35.0466 23.1132 35.0466 24.21C35.0466 25.3068 35.9299 26.196 37.0195 26.196Z" fill="#CDEBFA"/>
<path d="M40.7774 37.2C40.3185 37.467 40.0354 37.959 40.0384 38.49V45.165C40.0384 45.699 40.3215 46.191 40.7804 46.455L46.5232 49.794C46.9821 50.061 47.5454 50.061 48.0043 49.794L53.7471 46.455C54.206 46.188 54.4891 45.696 54.4861 45.165V38.49C54.4861 37.956 54.203 37.464 53.7441 37.2L48.0013 33.861C47.5424 33.594 46.9791 33.594 46.5202 33.861L40.7774 37.2Z" fill="#D7D7D7"/>
<path d="M115.415 30.966C115.415 27.777 117.841 25.005 121.912 24.591C126.6 24.093 129.643 24.093 130.712 23.265V22.602C130.712 19.662 128.534 17.925 125.366 17.925C122.404 17.925 119.897 19.539 119.814 22.77H116.154C116.238 17.925 120.309 14.574 125.449 14.574C130.179 14.574 134.25 17.556 134.333 22.77V30.885C134.333 32.625 135.198 33.453 136.884 33.453H137.379V36.681H136.267C134.089 36.681 132.155 35.769 131.249 33.576C129.768 35.811 126.725 37.26 122.94 37.26C118.744 37.26 115.415 35.232 115.415 30.966ZM123.229 33.99C127.22 33.99 130.715 31.464 130.715 28.236V26.538C129.809 27.201 127.136 27.243 122.696 27.657C120.556 27.864 119.158 28.815 119.158 30.846C119.158 32.877 120.762 33.993 123.229 33.993V33.99Z" fill="#CACACA"/>
<path d="M140.049 28.566V7.70099H143.667V28.401C143.667 31.506 145.64 33.453 148.438 33.453H148.933V36.681H147.783C143.628 36.681 140.052 33.411 140.052 28.566H140.049Z" fill="#CACACA"/>
<path d="M154.074 21.072C154.074 22.563 155.06 23.805 157.158 23.805H160.982C165.053 23.805 168.221 26.247 168.221 30.345C168.221 34.443 165.053 36.678 160.982 36.678H151.028V33.45H160.857C163.283 33.45 164.436 32.25 164.436 30.429C164.436 28.773 163.285 27.408 160.857 27.408H156.95C153.248 27.408 150.37 24.882 150.37 21.156C150.37 17.43 153.248 15.111 156.95 15.111H166.984V18.339H157.155C155.057 18.339 154.071 19.581 154.071 21.072H154.074Z" fill="#CACACA"/>
<path d="M173.773 7.49399C175.048 7.49399 176.199 8.61299 176.199 9.97799C176.199 11.343 175.048 12.504 173.773 12.504C172.497 12.504 171.305 11.385 171.305 9.97799C171.305 8.57099 172.456 7.49399 173.773 7.49399ZM175.582 36.681H171.964V15.153H175.582V36.681Z" fill="#CACACA"/>
<path d="M180.311 15.153H183.849V18.549C185.577 15.774 188.125 14.574 190.387 14.574C193.266 14.574 195.817 16.107 197.131 18.837C199.065 15.69 201.944 14.574 204.45 14.574C208.685 14.574 212.1 17.97 212.1 22.977V36.681H208.483V23.763C208.483 19.665 206.343 17.883 203.836 17.883C200.257 17.883 198.079 20.697 198.079 25.791V36.678H194.461V23.76C194.461 19.662 192.282 17.88 189.773 17.88C186.194 17.88 183.932 20.694 183.932 25.788V36.675H180.314V15.153H180.311Z" fill="#CACACA"/>
<path d="M116.598 47.1H129.07C133.761 47.1 137.754 49.833 137.754 54.93C137.754 57.996 135.943 60.069 133.886 61.104C136.437 62.097 138.619 64.293 138.619 67.983C138.619 73.161 134.092 76.104 129.234 76.104H116.598V47.1ZM128.453 59.652C131.457 59.652 133.764 58.575 133.764 55.137C133.764 51.699 131.46 50.58 128.453 50.58H120.508V59.655H128.453V59.652ZM128.945 72.621C132.155 72.621 134.625 71.379 134.625 67.815C134.625 64.251 132.155 63.093 128.945 63.093H120.508V72.621H128.945Z" fill="white"/>
<path d="M142.117 67.98V47.097H145.738V67.812C145.738 70.92 147.714 72.867 150.513 72.867H151.007V76.098H149.854C145.697 76.098 142.117 72.825 142.117 67.977V67.98Z" fill="white"/>
<path d="M153.269 70.383C153.269 67.194 155.698 64.416 159.772 64.002C164.463 63.504 167.508 63.504 168.578 62.676V62.013C168.578 59.07 166.397 57.33 163.229 57.33C160.267 57.33 157.754 58.947 157.674 62.178H154.011C154.095 57.33 158.169 53.973 163.312 53.973C168.045 53.973 172.119 56.955 172.202 62.178V70.299C172.202 72.039 173.066 72.867 174.753 72.867H175.248V76.098H174.136C171.955 76.098 170.021 75.186 169.115 72.99C167.633 75.228 164.588 76.677 160.8 76.677C156.601 76.677 153.269 74.646 153.269 70.38V70.383ZM161.089 73.407C165.082 73.407 168.581 70.881 168.581 67.647V65.949C167.675 66.612 164.999 66.654 160.556 67.068C158.416 67.275 157.015 68.229 157.015 70.257C157.015 72.285 158.622 73.407 161.089 73.407Z" fill="white"/>
<path d="M176.896 65.286C176.896 58.077 181.792 53.976 187.472 53.976C192.783 53.976 197.021 56.709 197.516 62.427H193.853C193.278 58.614 190.643 57.33 187.392 57.33C183.729 57.33 180.642 59.775 180.642 65.325C180.642 70.875 183.688 73.32 187.434 73.32C190.727 73.32 193.319 71.415 193.853 67.602H197.516C197.104 73.401 192.864 76.677 187.514 76.677C181.754 76.677 176.896 72.534 176.896 65.283V65.286Z" fill="white"/>
<path d="M201.22 76.101V47.097H204.841V65.037L215.295 54.555H220.028L211.385 63.255C215.42 66.405 218.546 71.169 219.905 76.098H216.159C214.926 71.955 212.249 68.184 208.956 65.658L204.841 69.801V76.098H201.22V76.101Z" fill="white"/>
<path d="M232.374 47.1H244.846C249.537 47.1 253.53 49.833 253.53 54.93C253.53 57.996 251.719 60.069 249.662 61.104C252.213 62.097 254.395 64.293 254.395 67.983C254.395 73.161 249.868 76.104 245.01 76.104H232.374V47.1ZM244.229 59.652C247.233 59.652 249.54 58.575 249.54 55.137C249.54 51.699 247.236 50.58 244.229 50.58H236.284V59.655H244.229V59.652ZM244.724 72.621C247.934 72.621 250.404 71.379 250.404 67.815C250.404 64.251 247.934 63.093 244.724 63.093H236.287V72.621H244.724Z" fill="white"/>
<path d="M267.895 76.68C262.215 76.68 257.276 72.537 257.276 65.286C257.276 58.035 262.215 53.976 267.895 53.976C273.575 53.976 278.513 58.035 278.513 65.286C278.513 72.537 273.575 76.68 267.895 76.68ZM267.895 73.326C271.599 73.326 274.767 70.674 274.767 65.331C274.767 59.988 271.599 57.336 267.895 57.336C264.19 57.336 261.023 59.781 261.023 65.331C261.023 70.881 264.19 73.326 267.895 73.326Z" fill="white"/>
<path d="M287.65 65.04L280.119 54.558H284.524L289.957 62.139L295.348 54.558H299.627L292.135 65.124L299.997 76.104H295.551L289.79 68.025L284.068 76.104H279.747L287.65 65.043V65.04Z" fill="white"/>
</g>
<defs>
<clipPath id="clip0_978_3448">
<rect width="300" height="84" fill="white"/>
</clipPath>
</defs>
</svg>
