<?xml version="1.0" encoding="UTF-8"?>
<svg id="Logos" xmlns="http://www.w3.org/2000/svg" viewBox="0 0 1006.66 280">
  <defs>
    <style>
      .cls-1 {
        fill: #cdebfa;
      }

      .cls-2 {
        fill: #003966;
      }

      .cls-3 {
        fill: #757575;
      }

      .cls-4 {
        fill: #d7d7d7;
      }

      .cls-5 {
        fill: #2d2d2d;
      }

      .cls-6 {
        fill: #0080ff;
      }
    </style>
  </defs>
  <path class="cls-2" d="M314.09,129.6L245.27,10.4c-3.72-6.44-10.58-10.4-18.01-10.4H89.62c-7.43,0-14.3,3.96-18.01,10.4L2.79,129.6c-3.72,6.44-3.72,14.36,0,20.8l68.82,119.2c3.72,6.44,10.58,10.4,18.01,10.4h137.64c7.43,0,14.3-3.96,18.01-10.4l68.82-119.2c3.72-6.44,3.72-14.36,0-20.8Z"/>
  <path class="cls-6" d="M67.17,145.91v-11.9c0-.95-.51-1.83-1.33-2.3l-10.3-5.95c-.82-.47-1.84-.47-2.66,0l-10.3,5.95c-.82.47-1.33,1.35-1.33,2.3v11.9c0,.95.51,1.83,1.33,2.3l10.3,5.95c.82.47,1.84.47,2.66,0l10.3-5.95c.82-.47,1.33-1.35,1.33-2.3h0Z"/>
  <path class="cls-6" d="M275.63,145.91v-11.9c0-.95-.51-1.83-1.33-2.3l-10.3-5.95c-.82-.47-1.84-.47-2.66,0l-10.3,5.95c-.82.47-1.33,1.35-1.33,2.3v11.9c0,.95.51,1.83,1.33,2.3l10.3,5.95c.82.47,1.84.47,2.66,0l10.3-5.95c.82-.47,1.33-1.35,1.33-2.3h0Z"/>
  <circle class="cls-1" cx="90.01" cy="139.96" r="6.62"/>
  <circle class="cls-1" cx="112.82" cy="139.96" r="6.62"/>
  <circle class="cls-1" cx="204.06" cy="139.96" r="6.62"/>
  <circle class="cls-1" cx="226.87" cy="139.96" r="6.62"/>
  <path class="cls-6" d="M117.96,221.97l-10.3-5.95c-.82-.47-1.84-.47-2.66,0l-10.3,5.95c-.82.47-1.33,1.35-1.33,2.3v11.9c0,.95.51,1.83,1.33,2.3l10.3,5.95c.82.47,1.84.47,2.66,0l10.3-5.95c.82-.47,1.33-1.35,1.33-2.3v-11.9c0-.95-.51-1.83-1.33-2.3h0Z"/>
  <path class="cls-6" d="M222.19,41.45l-10.3-5.95c-.82-.47-1.84-.47-2.66,0l-10.3,5.95c-.82.47-1.33,1.35-1.33,2.3v11.9c0,.95.51,1.83,1.33,2.3l10.3,5.95c.82.47,1.84.47,2.66,0l10.3-5.95c.82-.47,1.33-1.35,1.33-2.3v-11.9c0-.95-.51-1.83-1.33-2.3h0Z"/>
  <circle class="cls-1" cx="124.22" cy="199.22" r="6.62"/>
  <circle class="cls-1" cx="135.63" cy="179.47" r="6.62"/>
  <circle class="cls-1" cx="181.25" cy="100.45" r="6.62"/>
  <circle class="cls-1" cx="192.66" cy="80.7" r="6.62"/>
  <path class="cls-6" d="M198.92,221.97c-.82.47-1.33,1.35-1.33,2.3v11.9c0,.95.51,1.83,1.33,2.3l10.3,5.95c.82.47,1.84.47,2.66,0l10.3-5.95c.82-.47,1.33-1.35,1.33-2.3v-11.9c0-.95-.51-1.83-1.33-2.3l-10.3-5.95c-.82-.47-1.84-.47-2.66,0l-10.3,5.95h0Z"/>
  <path class="cls-6" d="M94.69,41.45c-.82.47-1.33,1.35-1.33,2.3v11.9c0,.95.51,1.83,1.33,2.3l10.3,5.95c.82.47,1.84.47,2.66,0l10.3-5.95c.82-.47,1.33-1.35,1.33-2.3v-11.9c0-.95-.51-1.83-1.33-2.3l-10.3-5.95c-.82-.47-1.84-.47-2.66,0l-10.3,5.95h0Z"/>
  <circle class="cls-1" cx="192.66" cy="199.22" r="6.62"/>
  <circle class="cls-1" cx="181.25" cy="179.47" r="6.62"/>
  <circle class="cls-1" cx="135.63" cy="100.45" r="6.62"/>
  <circle class="cls-1" cx="124.22" cy="80.7" r="6.62"/>
  <path class="cls-4" d="M136.83,124c-1.54.89-2.49,2.53-2.48,4.3v22.25c0,1.78.95,3.42,2.49,4.3l19.27,11.13c1.54.89,3.43.89,4.97,0l19.27-11.13c1.54-.89,2.49-2.53,2.48-4.3v-22.25c0-1.78-.95-3.42-2.49-4.3l-19.27-11.13c-1.54-.89-3.43-.89-4.97,0l-19.27,11.13h0Z"/>
  <path class="cls-3" d="M387.28,103.22c0-10.63,8.14-19.87,21.8-21.25,15.73-1.66,25.94-1.66,29.53-4.42v-2.21c0-9.8-7.31-15.59-17.94-15.59-9.94,0-18.35,5.38-18.63,16.15h-12.28c.28-16.15,13.94-27.32,31.19-27.32,15.87,0,29.53,9.94,29.81,27.32v27.05c0,5.8,2.9,8.56,8.56,8.56h1.66v10.76h-3.73c-7.31,0-13.8-3.04-16.84-10.35-4.97,7.45-15.18,12.28-27.88,12.28-14.08,0-25.25-6.76-25.25-20.98ZM413.5,113.3c13.39,0,25.12-8.42,25.12-19.18v-5.66c-3.04,2.21-12.01,2.35-26.91,3.73-7.18.69-11.87,3.86-11.87,10.63s5.38,10.49,13.66,10.49Z"/>
  <path class="cls-3" d="M469.94,95.22V25.67h12.14v69c0,10.35,6.62,16.84,16.01,16.84h1.66v10.76h-3.86c-13.94,0-25.94-10.9-25.94-27.05Z"/>
  <path class="cls-3" d="M517,70.24c0,4.97,3.31,9.11,10.35,9.11h12.83c13.66,0,24.29,8.14,24.29,21.8s-10.63,21.11-24.29,21.11h-33.4v-10.76h32.98c8.14,0,12.01-4,12.01-10.07,0-5.52-3.86-10.07-12.01-10.07h-13.11c-12.42,0-22.08-8.42-22.08-20.84s9.66-20.15,22.08-20.15h33.67v10.76h-32.98c-7.04,0-10.35,4.14-10.35,9.11Z"/>
  <path class="cls-3" d="M583.1,24.98c4.28,0,8.14,3.73,8.14,8.28s-3.86,8.42-8.14,8.42-8.28-3.73-8.28-8.42,3.86-8.28,8.28-8.28ZM589.17,122.27h-12.14V50.51h12.14v71.76Z"/>
  <path class="cls-3" d="M605.04,50.51h11.87v11.32c5.8-9.25,14.35-13.25,21.94-13.25,9.66,0,18.22,5.11,22.63,14.21,6.49-10.49,16.15-14.21,24.56-14.21,14.21,0,25.67,11.32,25.67,28.01v45.68h-12.14v-43.06c0-13.66-7.18-19.6-15.59-19.6-12.01,0-19.32,9.38-19.32,26.36v36.29h-12.14v-43.06c0-13.66-7.31-19.6-15.73-19.6-12.01,0-19.6,9.38-19.6,26.36v36.29h-12.14V50.51Z"/>
  <path class="cls-5" d="M391.25,157h41.85c15.74,0,29.14,9.11,29.14,26.1,0,10.22-6.08,17.13-12.98,20.58,8.56,3.31,15.88,10.63,15.88,22.93,0,17.26-15.19,27.07-31.49,27.07h-42.4v-96.68ZM431.03,198.84c10.08,0,17.82-3.59,17.82-15.05s-7.73-15.19-17.82-15.19h-26.66v30.25h26.66ZM432.68,242.07c10.77,0,19.06-4.14,19.06-16.02s-8.29-15.74-19.06-15.74h-28.31v31.76h28.31Z"/>
  <path class="cls-5" d="M476.88,226.6v-69.61h12.15v69.05c0,10.36,6.63,16.85,16.02,16.85h1.66v10.77h-3.87c-13.95,0-25.96-10.91-25.96-27.07Z"/>
  <path class="cls-5" d="M514.3,234.61c0-10.63,8.15-19.89,21.82-21.27,15.74-1.66,25.96-1.66,29.55-4.42v-2.21c0-9.81-7.32-15.61-17.95-15.61-9.94,0-18.37,5.39-18.64,16.16h-12.29c.28-16.16,13.95-27.35,31.21-27.35,15.88,0,29.55,9.94,29.83,27.35v27.07c0,5.8,2.9,8.56,8.56,8.56h1.66v10.77h-3.73c-7.32,0-13.81-3.04-16.85-10.36-4.97,7.46-15.19,12.29-27.9,12.29-14.09,0-25.27-6.77-25.27-20.99ZM540.54,244.69c13.4,0,25.14-8.42,25.14-19.2v-5.66c-3.04,2.21-12.02,2.35-26.93,3.73-7.18.69-11.88,3.87-11.88,10.63s5.39,10.5,13.67,10.5Z"/>
  <path class="cls-5" d="M593.58,217.62c0-24.03,16.43-37.7,35.49-37.7,17.82,0,32.04,9.11,33.7,28.17h-12.29c-1.93-12.71-10.77-16.99-21.68-16.99-12.29,0-22.65,8.15-22.65,26.65s10.22,26.65,22.79,26.65c11.05,0,19.75-6.35,21.54-19.06h12.29c-1.38,19.33-15.61,30.25-33.56,30.25-19.33,0-35.63-13.81-35.63-37.98Z"/>
  <path class="cls-5" d="M675.2,253.67v-96.68h12.15v59.8l35.08-34.94h15.88l-29,29c13.54,10.5,24.03,26.38,28.59,42.81h-12.57c-4.14-13.81-13.12-26.38-24.17-34.8l-13.81,13.81v20.99h-12.15Z"/>
  <path class="cls-5" d="M779.74,157h41.85c15.74,0,29.14,9.11,29.14,26.1,0,10.22-6.08,17.13-12.98,20.58,8.56,3.31,15.88,10.63,15.88,22.93,0,17.26-15.19,27.07-31.49,27.07h-42.4v-96.68ZM819.52,198.84c10.08,0,17.82-3.59,17.82-15.05s-7.73-15.19-17.82-15.19h-26.66v30.25h26.66ZM821.18,242.07c10.77,0,19.06-4.14,19.06-16.02s-8.29-15.74-19.06-15.74h-28.31v31.76h28.31Z"/>
  <path class="cls-5" d="M898.93,255.6c-19.06,0-35.63-13.81-35.63-37.98s16.57-37.7,35.63-37.7,35.63,13.53,35.63,37.7-16.57,37.98-35.63,37.98ZM898.93,244.42c12.43,0,23.06-8.84,23.06-26.65s-10.63-26.65-23.06-26.65-23.06,8.15-23.06,26.65,10.63,26.65,23.06,26.65Z"/>
  <path class="cls-5" d="M965.22,216.8l-25.27-34.94h14.78l18.23,25.27,18.09-25.27h14.36l-25.14,35.22,26.38,36.6h-14.92l-19.33-26.93-19.2,26.93h-14.5l26.52-36.87Z"/>
</svg>