<svg width="174" height="57" viewBox="0 0 174 57" fill="none" xmlns="http://www.w3.org/2000/svg">
<path d="M22.9249 56.1276H44.8428C46.5104 56.1276 48.0519 55.2293 48.889 53.7744L59.8479 34.6591C60.63 33.2953 59.654 31.5898 58.0866 31.5898H36.1687C34.5011 31.5898 32.9595 32.4849 32.1225 33.943L21.1636 53.0584C20.3815 54.4221 21.3607 56.1276 22.9249 56.1276Z" fill="#F5F4F3"/>
<path d="M15.1037 6.59801C14.3216 5.23426 12.3664 5.23426 11.5843 6.59801L0.625348 25.7133C-0.208449 27.1682 -0.208449 28.9616 0.625348 30.4165L11.5843 49.5318C12.3664 50.8988 14.3216 50.8988 15.1037 49.5318L26.0659 30.41C26.8997 28.9583 26.8997 27.1682 26.0659 25.7166L15.1037 6.59801Z" fill="#F5F4F3"/>
<path d="M59.8479 21.4685L48.889 2.3532C48.0552 0.898319 46.5136 0 44.8428 0H22.9249C21.3607 0 20.3815 1.7055 21.1636 3.06925L32.1225 22.1846C32.9563 23.6394 34.4979 24.5378 36.1687 24.5378H58.0866C59.6508 24.5378 60.63 22.8323 59.8479 21.4685Z" fill="#F5F4F3"/>
<path d="M103.935 24.9491C103.224 18.1922 98.968 15.5265 94.0622 15.5265C88.7718 15.5265 84.7062 18.2573 83.866 24.9491H103.932H103.935ZM77.8032 28.0021C77.8032 16.8903 84.8355 10.1334 94.1915 10.2636C104.966 10.3938 109.933 18.7097 109.933 27.0289C109.933 28.0021 109.869 28.9134 109.74 29.8866H83.7367C84.2505 37.3596 88.9625 40.6079 94.5114 40.6079C99.7372 40.6079 102.833 38.2677 103.932 34.5637H109.74C108.576 41.1286 102.901 45.8708 94.3822 45.8708C85.414 45.8708 77.7999 39.9569 77.7999 28.0021" fill="#F5F4F3"/>
<path d="M119.933 20.4626C119.933 22.8028 121.481 24.7524 124.771 24.7524H130.772C137.158 24.7524 142.129 28.5866 142.129 35.0212C142.129 41.4559 137.162 44.9646 130.772 44.9646H115.16V39.8969H130.578C134.385 39.8969 136.192 38.0124 136.192 35.1514C136.192 32.5541 134.385 30.4092 130.578 30.4092H124.448C118.64 30.4092 114.125 26.4449 114.125 20.5961C114.125 14.7472 118.64 11.1084 124.448 11.1084H140.193V16.1761H124.771C121.481 16.1761 119.933 18.1257 119.933 20.4659" fill="#F5F4F3"/>
<path d="M151.804 20.4626C151.804 22.8028 153.352 24.7524 156.642 24.7524H162.644C169.033 24.7524 174 28.5866 174 35.0212C174 41.4559 169.033 44.9646 162.644 44.9646H147.031V39.8969H162.453C166.26 39.8969 168.067 38.0124 168.067 35.1514C168.067 32.5541 166.26 30.4092 162.453 30.4092H156.322C150.515 30.4092 146 26.4449 146 20.5961C146 14.7472 150.515 11.1084 156.322 11.1084H172.064V16.1761H156.642C153.352 16.1761 151.804 18.1257 151.804 20.4659" fill="#F5F4F3"/>
</svg>
