<svg width="33" height="34" viewBox="0 0 33 34" fill="none" xmlns="http://www.w3.org/2000/svg">
<path d="M25.7587 33.757H7.07849C3.17524 33.757 0 30.5205 0 26.5419V7.46244C0 3.48384 3.17524 0.247314 7.07849 0.247314H25.7587C29.662 0.247314 32.8372 3.48384 32.8372 7.46244V26.5419C32.8372 30.5205 29.662 33.757 25.7587 33.757ZM7.07849 2.0243C4.13712 2.0243 1.74333 4.4637 1.74333 7.46244V26.5419C1.74333 29.5406 4.13654 31.98 7.07849 31.98H25.7587C28.7007 31.98 31.0939 29.5406 31.0939 26.5419V7.46244C31.0939 4.4637 28.7007 2.0243 25.7587 2.0243H7.07849Z" fill="#787878"/>
<path d="M6.70996 17.224L9.86566 18.4838C10.1897 18.6132 10.554 18.5793 10.8494 18.3919L21.2904 11.7812C21.5352 11.626 21.7938 11.958 21.5898 12.166L14.5969 19.3014C14.1263 19.7817 14.1775 20.5741 14.7061 20.9876L21.6662 26.4305C22.3144 26.9371 23.2596 26.5745 23.4187 25.7581L26.8089 8.37245C26.9399 7.70124 26.2883 7.14952 25.6649 7.40371L6.7019 15.1354C5.77393 15.5138 5.7791 16.8538 6.70938 17.2252L6.70996 17.224Z" fill="#787878"/>
</svg>
