<svg width="34" height="34" viewBox="0 0 34 34" fill="none" xmlns="http://www.w3.org/2000/svg">
<path d="M26.3798 33.7526H7.69959C3.79633 33.7526 0.621094 30.5161 0.621094 26.5375V7.45805C0.621094 3.47945 3.79633 0.24292 7.69959 0.24292H26.3798C30.2831 0.24292 33.4583 3.47945 33.4583 7.45805V26.5375C33.4583 30.5161 30.2831 33.7526 26.3798 33.7526ZM7.69959 2.01991C4.75764 2.01991 2.36443 4.45931 2.36443 7.45805V26.5375C2.36443 29.5362 4.75764 31.9756 7.69959 31.9756H26.3798C29.3218 31.9756 31.715 29.5362 31.715 26.5375V7.45805C31.715 4.45931 29.3218 2.01991 26.3798 2.01991H7.69959Z" fill="#787878"/>
<path d="M21.9276 13.3167V16.6211H26.2107L25.6258 21.2416H21.9276V32.8524H17.1619V21.2416H13.5586V16.6211H17.1619V12.8223C17.1619 9.87924 19.4477 7.458 22.3126 7.32914C22.5505 7.3186 22.8079 7.31274 23.0493 7.31274C23.5836 7.31274 24.1123 7.3391 24.6357 7.39123L26.344 7.55932V11.5262H23.5199C22.6028 11.5262 21.9271 12.3743 21.9271 13.3161L21.9276 13.3167Z" fill="#787878"/>
</svg>
