<svg width="34" height="34" viewBox="0 0 34 34" fill="none" xmlns="http://www.w3.org/2000/svg">
<path d="M12.3725 9.73526C12.3725 11.1116 11.2923 12.1588 10.0132 12.1594C8.74045 12.1588 7.65332 11.1175 7.65332 9.73526C7.65332 8.387 8.69678 7.31284 10.0132 7.31226C11.3267 7.31167 12.3725 8.38407 12.3725 9.73526Z" fill="#787878"/>
<path d="M26.6279 33.757H7.94763C4.04438 33.757 0.869141 30.5205 0.869141 26.5419V7.46244C0.869141 3.48384 4.04438 0.247314 7.94763 0.247314H26.6279C30.5311 0.247314 33.7064 3.48384 33.7064 7.46244V26.5419C33.7064 30.5205 30.5311 33.757 26.6279 33.757ZM7.94763 2.0243C5.00568 2.0243 2.61247 4.4637 2.61247 7.46244V26.5419C2.61247 29.5406 5.00568 31.98 7.94763 31.98H26.6279C29.5698 31.98 31.963 29.5406 31.963 26.5419V7.46244C31.963 4.4637 29.5698 2.0243 26.6279 2.0243H7.94763Z" fill="#787878"/>
<path d="M18.3765 15.4895C18.3765 14.9911 18.3765 13.9445 18.3765 13.4461H14.5508V26.6897H18.3765C18.3765 24.8577 18.3753 23.025 18.3776 21.193C18.3776 20.7204 18.3661 20.2477 18.3897 19.7756C18.4092 19.3938 18.4655 19.0189 18.5925 18.6581C18.7816 18.1211 19.0965 17.6865 19.6027 17.4176C19.9836 17.215 20.3939 17.1482 20.8197 17.1523C21.1116 17.1553 21.3954 17.1963 21.6666 17.3105C22.189 17.5307 22.5067 17.9424 22.7009 18.4672C22.8854 18.9645 22.9411 19.4857 22.9422 20.0105C22.9474 22.2367 22.9445 24.4635 22.9445 26.6897H26.9202C26.9202 24.0611 26.9202 21.4331 26.9196 18.8046C26.9196 18.4391 26.9058 18.0748 26.8645 17.7111C26.8041 17.1752 26.6892 16.6533 26.491 16.1525C26.1158 15.2055 25.5055 14.4693 24.6109 13.9914C23.9145 13.6194 23.164 13.4724 22.3866 13.4478C22.0533 13.4373 21.7224 13.4636 21.3937 13.5222C20.4284 13.6944 19.6119 14.1495 18.9298 14.8617C18.7241 15.0766 18.5425 15.3121 18.3765 15.5827V15.489V15.4895Z" fill="#787878"/>
<path d="M12.0276 13.447H8.03418V26.6907H12.0282V20.4044C12.0282 18.2684 12.0276 15.583 12.0276 13.447Z" fill="#787878"/>
</svg>
