<svg width="34" height="34" viewBox="0 0 34 34" fill="none" xmlns="http://www.w3.org/2000/svg">
<path d="M26.0039 33.757H7.32361C3.42035 33.757 0.245117 30.5205 0.245117 26.5419V7.46244C0.245117 3.48384 3.42035 0.247314 7.32361 0.247314H26.0039C29.9071 0.247314 33.0824 3.48384 33.0824 7.46244V26.5419C33.0824 30.5205 29.9071 33.757 26.0039 33.757ZM7.32361 2.0243C4.38166 2.0243 1.98846 4.4637 1.98846 7.46244V26.5419C1.98846 29.5406 4.38166 31.98 7.32361 31.98H26.0039C28.9458 31.98 31.339 29.5406 31.339 26.5419V7.46244C31.339 4.4637 28.9458 2.0243 26.0039 2.0243H7.32361Z" fill="#787878"/>
<path d="M28.2478 9.73034C27.8168 10.3687 27.3175 10.9456 26.7533 11.4646C26.5142 11.6842 26.266 11.8927 26.0051 12.0842C25.9523 12.1229 25.9356 12.1645 25.9402 12.2295C25.9626 12.5504 25.9557 12.8714 25.9454 13.1929C25.9345 13.5332 25.9126 13.8729 25.8753 14.2115C25.7943 14.9465 25.6592 15.671 25.4673 16.3844C24.9789 18.2018 24.1837 19.8669 23.0643 21.3668C21.7623 23.1116 20.1465 24.4657 18.1957 25.397C17.2919 25.8286 16.3501 26.1449 15.3739 26.3563C14.9797 26.4418 14.5832 26.511 14.1839 26.5613C13.8748 26.6006 13.5645 26.6293 13.253 26.6474C12.9916 26.6627 12.7301 26.6785 12.4693 26.6761C12.1481 26.6738 11.8269 26.6679 11.5057 26.6486C11.1942 26.6299 10.884 26.6023 10.5748 26.5625C10.1353 26.5051 9.69855 26.4254 9.26645 26.3247C7.90925 26.0079 6.63076 25.4901 5.42927 24.7738C5.30688 24.7006 5.1868 24.6239 5.06614 24.5483C5.05637 24.5419 5.042 24.5384 5.04544 24.5167C7.63861 24.7697 9.9715 24.0915 12.0481 22.4914C12.0332 22.4486 12.0079 22.4574 11.9883 22.4562C11.6959 22.4369 11.4045 22.4105 11.119 22.3414C9.75027 22.0129 8.70622 21.2327 7.99027 19.9981C7.84087 19.7404 7.72251 19.4674 7.62541 19.1846C7.61736 19.1605 7.60873 19.1359 7.60184 19.1113C7.60069 19.1061 7.60414 19.0996 7.60759 19.0856C7.8426 19.1242 8.07933 19.1506 8.31779 19.1629C8.55452 19.1752 8.79011 19.1582 9.02512 19.1318C9.26129 19.1049 9.49629 19.0668 9.72383 18.9848C8.16839 18.6006 7.02552 17.6946 6.33772 16.2169C6.0464 15.5908 5.83207 14.485 5.92459 14.1564C6.46586 14.4528 7.03931 14.6414 7.64781 14.7163C7.78112 14.7327 7.91442 14.7438 8.07358 14.7438C6.60031 13.6469 5.87747 12.1926 5.95849 10.3494C5.99124 9.59856 6.21188 8.89514 6.58135 8.2421C6.62559 8.2585 6.64112 8.29247 6.66238 8.31882C8.40859 10.4437 10.58 11.9179 13.1772 12.7396C13.7512 12.9212 14.3356 13.06 14.9297 13.1578C15.2187 13.2052 15.5083 13.2445 15.7991 13.2749C15.987 13.2949 16.1754 13.3036 16.3633 13.3241C16.388 13.3271 16.4139 13.3265 16.4392 13.3259C16.4668 13.3259 16.4794 13.3107 16.4748 13.2826C16.4651 13.2257 16.4547 13.1689 16.4444 13.1121C16.3582 12.6418 16.3404 12.1692 16.3892 11.6924C16.5616 10.0074 17.5959 8.51386 19.1254 7.78409C19.5351 7.58847 19.9644 7.45844 20.4114 7.38523C20.7556 7.32901 21.1021 7.31026 21.4474 7.33545C22.6575 7.42213 23.6993 7.89771 24.5571 8.77683C24.6267 8.84829 24.687 8.86176 24.7801 8.84126C25.7701 8.6269 26.7033 8.26143 27.5818 7.7507C27.6008 7.73958 27.6198 7.72786 27.6393 7.71732C27.6445 7.71439 27.6514 7.71381 27.6571 7.71205C27.6583 7.93402 27.217 8.77976 26.8693 9.22313C26.5148 9.67528 26.093 10.0513 25.6132 10.3664C26.0764 10.326 26.5263 10.2334 26.971 10.111C27.4181 9.98863 27.853 9.83108 28.2857 9.6419C28.2915 9.68348 28.265 9.70457 28.2489 9.72858L28.2478 9.73034Z" fill="#787878"/>
</svg>
