<?xml version="1.0" encoding="utf-8"?>
<!-- Generator: Adobe Illustrator 25.1.0, SVG Export Plug-In . SVG Version: 6.00 Build 0)  -->
<svg version="1.1" id="Layer_1" xmlns="http://www.w3.org/2000/svg" xmlns:xlink="http://www.w3.org/1999/xlink" x="0px" y="0px"
	 viewBox="0 0 900 300" style="enable-background:new 0 0 900 300;" xml:space="preserve">
<style type="text/css">
	.st0{fill:#4A4D4D;}
	.st1{fill:#BFBEBE;}
	.st2{fill:#14BEF0;}
	.st3{fill:#787A7A;}
	.st4{fill:#BFBFC0;}
	.st5{fill:#D3D4D6;}
	.st6{fill:#10BEF0;}
</style>
<g>
	<path class="st0" d="M435.1,217.2c-4-2.1-6.9-6.1-8.9-11.9c-2-5.8-3-14.2-3-25.3c0-10.5,1-18.6,3.1-24.4c2.1-5.8,5.1-9.8,9.2-12
		c4.1-2.2,9.4-3.4,16.1-3.4c3.7,0,7.7,0.3,12,0.9c4.3,0.6,8,1.3,11.3,2.2v8.1c-2.3-0.4-5.4-0.7-9.4-1.1c-4-0.4-8-0.5-12-0.5
		c-5.1,0-9,0.8-11.7,2.4c-2.7,1.6-4.8,4.6-6,8.9c-1.3,4.3-1.9,10.6-1.9,19c0,8.5,0.6,15,1.8,19.3c1.2,4.3,3.2,7.3,5.9,8.9
		c2.7,1.6,6.7,2.4,11.9,2.4c8.6,0,15.8-0.4,21.5-1.3v8.2c-7.1,1.8-15,2.7-23.7,2.7C444.4,220.3,439.1,219.3,435.1,217.2z"/>
	<path class="st0" d="M491.6,215.9c-2.8-2.6-4.3-6.8-4.3-12.8V141h10.8v60.5c0,3.2,0.7,5.4,2.2,6.6c1.5,1.2,3.6,1.8,6.2,1.8h27.2
		v9.8H504C498.6,219.7,494.4,218.4,491.6,215.9z"/>
	<path class="st0" d="M555,217.4c-4.3-2-7.6-5.8-9.9-11.5c-2.2-5.7-3.4-14.1-3.4-25.2c0-11.1,1.1-19.6,3.4-25.4
		c2.3-5.8,5.6-9.7,9.9-11.8c4.3-2.1,10.2-3.1,17.6-3.1c7.5,0,13.5,1,17.8,3.1c4.3,2.1,7.6,6,9.9,11.8c2.2,5.8,3.4,14.3,3.4,25.4
		c0,11.1-1.1,19.5-3.4,25.2c-2.2,5.7-5.5,9.5-9.9,11.5c-4.3,2-10.3,3-17.8,3C565.3,220.3,559.4,219.3,555,217.4z M585,208.5
		c2.8-1.5,4.9-4.4,6.2-8.7c1.3-4.3,1.9-10.7,1.9-19.2c0-8.9-0.6-15.5-1.9-19.9c-1.3-4.3-3.3-7.2-6.1-8.7c-2.8-1.4-6.9-2.1-12.2-2.1
		c-5.1,0-9.1,0.7-11.9,2.2c-2.8,1.5-4.9,4.4-6.3,8.7c-1.4,4.3-2.1,10.9-2.1,19.8c0,8.6,0.6,15,1.9,19.3c1.2,4.2,3.3,7.1,6.1,8.6
		c2.8,1.5,6.9,2.2,12.3,2.2C578,210.7,582.1,210,585,208.5z"/>
	<path class="st0" d="M623.9,214.7c-5-3.7-7.5-10.3-7.5-19.7V141h10.8v54c0,5.8,1.6,9.8,4.7,12.2c3.1,2.4,7.8,3.5,14,3.5
		c6.3,0,11-1.2,14.1-3.5c3.1-2.4,4.7-6.4,4.7-12.2v-54h10.8V195c0,9.4-2.5,16-7.6,19.7c-5.1,3.7-12.4,5.6-22,5.6
		S628.9,218.5,623.9,214.7z"/>
	<path class="st0" d="M690,141h31.8c9.5,0,16.2,3.3,20.3,9.9c4.1,6.6,6.1,16.5,6.1,29.5c0,12.8-2.2,22.5-6.7,29.2
		c-4.5,6.7-11,10.1-19.7,10.1H690V141z M720.8,210.1c11,0,16.6-9.9,16.6-29.7c0-7.5-0.6-13.4-1.8-17.7c-1.2-4.3-3-7.4-5.3-9.3
		c-2.4-1.9-5.5-2.8-9.5-2.8h-20.1v59.5H720.8z"/>
	<polygon class="st4" points="169,150.2 188,117.4 219.2,117.4 216,102.6 179.2,102.6 151.8,150.1 179.2,197.5 216.2,197.5 
		219.3,183 188,183 	"/>
	<polygon class="st3" points="328.7,177.3 344.2,204.2 325.3,237 287.4,237 272,210.4 261.8,220.3 279.9,251.7 334.7,251.7 
		362.1,204.2 343.7,173 	"/>
	<polygon class="st5" points="288.4,63.4 326.3,63.4 345.3,96.2 329.8,123 343.2,127.6 362.9,95.8 335.5,48.3 280.7,48.3 
		262.8,77.7 273.3,89.5 	"/>
	<polygon class="st6" points="260.5,128.1 260.5,182.4 272.9,182.4 272.9,128.1 289.1,144.3 297.4,136.1 267.1,105.8 267.1,105.8 
		267.1,105.8 237,135.9 244.8,143.8 	"/>
	<g>
		<path class="st0" d="M431.1,108.1c-1.8-1.7-2.8-4.1-2.8-7.2v-2.6c0-3.2,1-5.7,3.1-7.6c2.1-1.9,5.1-2.8,8.9-2.8h14.3v-5.4
			c0-2.8-0.8-5-2.3-6.4c-1.5-1.4-4.3-2.1-8.3-2.1h-12.3v-2.6c4.7-0.6,9.3-1,13.7-1c4.6,0,8.1,1,10.2,2.9c2.2,1.9,3.2,4.9,3.2,8.9v28
			h-3.2l-0.9-4.6c-0.3,0.2-1.5,0.8-3.4,1.6c-1.9,0.8-4.1,1.6-6.5,2.3c-2.4,0.7-4.7,1.1-6.8,1.1C435.3,110.7,432.9,109.8,431.1,108.1
			z M445.5,106.5c2.2-0.6,4.1-1.2,5.8-1.8c1.7-0.6,2.8-1,3.4-1.2V90.2L441,90.7c-2.9,0.1-5,0.8-6.4,2.2c-1.4,1.4-2.1,3.2-2.1,5.4
			v1.8c0,2.5,0.7,4.3,2.2,5.4c1.5,1.1,3.2,1.7,5.2,1.7C441.5,107.3,443.4,107.1,445.5,106.5z"/>
		<path class="st0" d="M473.1,107.5c-1.6-1.9-2.4-5.1-2.4-9.7V54.2h4.3v43.1c0,2.4,0.2,4.3,0.7,5.7c0.4,1.3,1.1,2.3,1.9,2.8
			c0.8,0.5,1.9,0.9,3.3,1l4.3,0.5v3h-4.8C477.1,110.3,474.7,109.4,473.1,107.5z"/>
		<path class="st0" d="M496.9,110.5c-3.5-0.2-5.7-0.4-6.9-0.6v-2.6h15.6c3,0,5.3-0.4,6.8-1.3c1.5-0.9,2.2-2.6,2.2-5.3v-1.9
			c0-2-0.7-3.5-2-4.6c-1.3-1.1-3.3-1.6-5.9-1.6h-5.3c-3.8,0-6.7-0.7-8.7-2.1c-2-1.4-3-3.8-3-7.3v-2c0-3.6,1.1-6.3,3.2-8
			c2.1-1.7,5.5-2.5,10-2.5c2.1,0,4.5,0.1,7.4,0.3c2.9,0.2,5.1,0.4,6.7,0.6v2.6h-14.7c-3,0-5.2,0.5-6.6,1.5c-1.4,1-2.2,2.8-2.2,5.4
			V83c0,2.4,0.7,4,2.1,4.8c1.4,0.8,3.5,1.2,6.4,1.2h5.4c3.5,0,6.2,0.8,8.2,2.5c2,1.6,3,4,3,7v2.5c0,3.7-1.2,6.2-3.5,7.6
			c-2.3,1.4-5.6,2.1-10,2.1C503.1,110.7,500.3,110.6,496.9,110.5z"/>
		<path class="st0" d="M528.3,63.5c-0.2-0.2-0.3-0.5-0.3-0.8v-5.2c0-0.7,0.4-1.1,1.1-1.1h2.9c0.6,0,1,0.4,1,1.1v5.2
			c0,0.7-0.3,1.1-1,1.1h-2.9C528.8,63.8,528.5,63.7,528.3,63.5z M528.4,71.1h4.3v39.1h-4.3V71.1z"/>
		<path class="st0" d="M544.6,71.1h3.2l1.1,4.4c5-3.4,10.1-5.1,15.1-5.1c2.4,0,4.4,0.5,6.2,1.6c1.8,1.1,3.1,2.5,4.1,4.3
			c2-1.5,4.6-2.9,7.7-4.1c3.1-1.2,6-1.8,8.7-1.8c4,0,7,1.2,9.1,3.7c2.1,2.5,3.2,5.6,3.2,9.4v26.7h-4.3V83.8c0-2.7-0.8-5-2.5-6.8
			c-1.6-1.8-3.9-2.7-6.6-2.7c-2.3,0-4.7,0.4-7.3,1.3c-2.5,0.9-5,2-7.3,3.4c0.6,1.6,1,3.2,1,4.8v26.4h-4.3V83.8c0-2.7-0.8-5-2.5-6.8
			c-1.6-1.8-3.8-2.7-6.6-2.7c-2.6,0-4.9,0.3-6.9,1s-4.3,1.7-6.9,3.1v31.8h-4.3V71.1z"/>
	</g>
</g>
</svg>
