<?xml version="1.0" encoding="UTF-8"?>
<svg id="Layer_1" xmlns="http://www.w3.org/2000/svg" version="1.1" viewBox="0 0 762.2 300">
  <!-- Generator: Adobe Illustrator 29.0.0, SVG Export Plug-In . SVG Version: 2.1.0 Build 186)  -->
  <defs>
    <style>
      .st0 {
        fill: #cdebfa;
      }

      .st1 {
        fill: #003966;
      }

      .st2 {
        fill: #d7d7d7;
      }

      .st3 {
        fill: #70706d;
      }

      .st4 {
        fill: #2d2d2d;
      }

      .st5 {
        fill: #0080ff;
      }
    </style>
  </defs>
  <g>
    <path class="st4" d="M436.8,175.9c-18.3,0-32.8,13.7-32.8,37.6s14.5,37.6,32.7,37.6,29.8-11.4,31.7-28.6h13c-1.8,23.5-18.3,40.4-44.6,40.4s-46.1-20.8-46.1-49.5,19.3-49.3,46.4-49.3,42.6,17.1,44.4,39.8h-13c-1.9-16.4-13.3-27.9-31.6-27.9Z"/>
    <path class="st4" d="M493,234.3v-68.4h11.9v67.8c0,10.2,6.5,16.6,15.7,16.6h1.6v10.6h-3.8c-13.7,0-25.5-10.7-25.5-26.6Z"/>
    <path class="st4" d="M560.7,262.8c-18.7,0-35-13.6-35-37.3s16.3-37,35-37,35,13.3,35,37-16.3,37.3-35,37.3ZM560.7,251.9c12.2,0,22.7-8.7,22.7-26.2s-10.4-26.2-22.7-26.2-22.7,8-22.7,26.2,10.4,26.2,22.7,26.2Z"/>
    <path class="st4" d="M668.5,260.9h-11.7v-11.5c-5.2,9.6-14.5,13.4-22.9,13.4-14.4,0-26.7-10.7-26.7-27.5v-44.9h11.9v41c0,15.3,8.1,20.6,16.8,20.6,12.9,0,20.6-9.9,20.6-27.3v-34.3h11.9v70.6Z"/>
    <path class="st4" d="M749.7,260.9h-11.7v-9.2c-5.3,6.9-14.4,11.1-24.3,11.1-17.4,0-33-13.2-33-37s15.7-37.3,33.1-37.3,17.9,3.8,23.9,11.1v-33.6h11.9v95ZM715.2,251.9c12.6,0,22.8-8.4,22.8-26.2s-11-26.2-22.8-26.2-21.8,9-21.8,26.5,9.9,25.9,21.8,25.9Z"/>
  </g>
  <g>
    <path class="st3" d="M390.7,96.1c0-23.2,14.8-37.3,34.5-37,22.7.3,33.1,17.6,33.1,35s-.1,3.9-.4,6h-54.7c1.1,15.6,11,22.4,22.7,22.4s17.5-4.9,19.8-12.6h12.2c-2.4,13.7-14.4,23.6-32.3,23.6s-34.9-12.3-34.9-37.3ZM445.6,89.7c-1.5-14.1-10.4-19.7-20.8-19.7s-19.7,5.7-21.4,19.7h42.2Z"/>
    <path class="st3" d="M479.3,80.3c0,4.9,3.3,9,10.2,9h12.6c13.4,0,23.9,8,23.9,21.4s-10.4,20.8-23.9,20.8h-32.8v-10.6h32.4c8,0,11.8-3.9,11.8-9.9s-3.8-9.9-11.8-9.9h-12.9c-12.2,0-21.7-8.3-21.7-20.5s9.5-19.8,21.7-19.8h33.1v10.6h-32.4c-6.9,0-10.2,4.1-10.2,9Z"/>
    <path class="st3" d="M546.3,80.3c0,4.9,3.3,9,10.2,9h12.6c13.4,0,23.9,8,23.9,21.4s-10.4,20.8-23.9,20.8h-32.8v-10.6h32.4c8,0,11.8-3.9,11.8-9.9s-3.8-9.9-11.8-9.9h-12.9c-12.2,0-21.7-8.3-21.7-20.5s9.5-19.8,21.7-19.8h33.1v10.6h-32.4c-6.9,0-10.2,4.1-10.2,9Z"/>
  </g>
  <g>
    <path class="st1" d="M318.5,139.7L250.8,22.4c-3.7-6.3-10.4-10.2-17.7-10.2H97.7c-7.3,0-14.1,3.9-17.7,10.2L12.2,139.7c-3.7,6.3-3.7,14.1,0,20.5l67.7,117.3c3.7,6.3,10.4,10.2,17.7,10.2h135.4c7.3,0,14.1-3.9,17.7-10.2l67.7-117.3c3.7-6.3,3.7-14.1,0-20.5Z"/>
    <path class="st0" d="M242.3,110.2c.1-1.3.2-2.6.2-3.9,0-23.2-18.8-42.1-42.1-42.1s-14.5,2-20.6,5.4c-10-9.1-23.3-14.7-37.9-14.7-31.1,0-56.3,25.1-56.5,56.2-14.9,5.3-25.7,19.5-25.7,36.2s17.2,38.5,38.5,38.5h134.2c21.3,0,38.5-17.2,38.5-38.5s-12.2-32.8-28.6-37.2Z"/>
    <rect class="st2" x="106.4" y="226.7" width="117.8" height="16.7"/>
    <path class="st5" d="M172.9,116.3c-4.3-4.3-10.4-4.3-14.7,0l-35.4,35.4,5.7,5.8,32.9-32.9v91.7h8.3v-91.7l32.8,32.8,5.7-5.8-35.2-35.2Z"/>
  </g>
</svg>