<?xml version="1.0" encoding="utf-8"?>
<!-- Generator: Adobe Illustrator 25.1.0, SVG Export Plug-In . SVG Version: 6.00 Build 0)  -->
<svg version="1.1" id="Layer_1" xmlns="http://www.w3.org/2000/svg" xmlns:xlink="http://www.w3.org/1999/xlink" x="0px" y="0px"
	 viewBox="0 0 900 300" style="enable-background:new 0 0 900 300;" xml:space="preserve">
<style type="text/css">
	.st0{fill:#4A4D4D;}
	.st1{fill:#BFBEBE;}
	.st2{fill:#14BEF0;}
	.st3{fill:#787A7A;}
	.st4{fill:#BFBFC0;}
	.st5{fill:#D3D4D6;}
	.st6{fill:#10BEF0;}
</style>
<g>
	<path class="st0" d="M358.6,148.6h32c6.1,0,11.1,1.8,15.1,5.3c4,3.6,6,10.4,6,20.4c0,10.1-2.1,17.1-6.2,20.8
		c-4.1,3.7-9.2,5.6-15.1,5.6c-2.2,0-5.5-0.1-10-0.4c-4.5-0.3-8.1-0.6-11.1-0.9v27.9h-10.8V148.6z M388.9,191.2c8,0,12-5.6,12-16.7
		c0-10.8-3.8-16.3-11.3-16.3h-20.2v32.9H388.9z"/>
	<path class="st0" d="M428,223.6c-2.9-2.6-4.3-6.8-4.3-12.8v-62.1h10.8v60.5c0,3.2,0.7,5.4,2.2,6.6c1.5,1.2,3.6,1.8,6.2,1.8h27.3
		v9.8h-29.8C435,227.5,430.8,226.2,428,223.6z"/>
	<path class="st0" d="M502.3,148.6H516l26.3,78.8h-11.2l-7-20.6H494l-6.8,20.6H476L502.3,148.6z M521.5,197.1L509,158l-12.5,39.1
		H521.5z"/>
	<path class="st0" d="M565.3,158.3h-23.5v-9.6h57.9v9.6h-23.5v69.2h-10.8V158.3z"/>
	<path class="st0" d="M608.1,165.1c0-5.8,1.6-10,4.7-12.6c3.1-2.6,6.9-3.9,11.3-3.9c13,0,24.2,0.4,33.6,1.2v8.8h-30.6
		c-2.6,0-4.7,0.7-6.1,2.2c-1.4,1.5-2.1,3.5-2.1,6.1v18.3l34,0.6v8.3l-34,0.6v32.6h-10.8V165.1z"/>
	<path class="st0" d="M680.6,225.1c-4.3-2-7.6-5.8-9.9-11.6c-2.2-5.7-3.4-14.1-3.4-25.2c0-11.1,1.1-19.6,3.4-25.4
		c2.3-5.8,5.6-9.7,9.9-11.8c4.3-2.1,10.2-3.1,17.6-3.1c7.6,0,13.5,1,17.9,3.1c4.3,2.1,7.6,6,9.9,11.8c2.2,5.8,3.4,14.3,3.4,25.4
		c0,11.1-1.1,19.5-3.4,25.2c-2.2,5.7-5.5,9.6-9.9,11.6c-4.4,2-10.3,3-17.9,3C690.9,228.1,685,227.1,680.6,225.1z M710.6,216.2
		c2.9-1.5,4.9-4.4,6.2-8.7s1.9-10.7,1.9-19.3c0-8.9-0.6-15.5-1.9-19.9c-1.3-4.3-3.3-7.2-6.2-8.7c-2.8-1.4-6.9-2.1-12.2-2.1
		c-5.1,0-9.1,0.7-11.9,2.2c-2.8,1.5-4.9,4.4-6.3,8.7c-1.4,4.3-2.1,10.9-2.1,19.8c0,8.6,0.6,15.1,1.9,19.3c1.2,4.2,3.3,7.1,6.1,8.6
		c2.8,1.5,6.9,2.2,12.4,2.2C703.6,218.5,707.7,217.7,710.6,216.2z"/>
	<path class="st0" d="M743.1,148.6h31.6c6.4,0,11.5,1.7,15.3,5.1c3.8,3.4,5.7,9.6,5.7,18.8c0,7.3-1.3,12.6-4,15.7
		c-2.7,3.1-6.1,5.3-10.2,6.4l15.7,32.8h-10.9l-14.5-31.3l-14.7-0.2c-0.8-0.1-1.9-0.1-3.2-0.1v31.7h-10.8V148.6z M772.9,187.5
		c3.9,0,6.8-1.1,8.9-3.2c2.1-2.1,3.2-6.1,3.2-11.8c0-5.5-1.1-9.2-3.2-11.2c-2.1-2-5.1-3-8.9-3h-19v29.2H772.9z"/>
	<path class="st0" d="M875.8,227.5l-7.2-61l-17.3,61h-9.9l-17.5-60.6l-6.8,60.6h-10.4l9-78.8h10.7l20.1,65.8l19.8-65.8H877l9.2,78.8
		H875.8z"/>
	<polygon class="st1" points="117.9,100.1 89.3,149.6 117.9,199 146.4,149.6 	"/>
	<polygon class="st2" points="216.7,142.1 188.1,92.6 130.9,92.6 159.4,142.1 	"/>
	<polygon class="st3" points="130.9,206.6 188.1,206.6 216.7,157.1 159.4,157.1 	"/>
	<polygon class="st4" points="31.9,150 60.4,100.6 51.4,84.9 13.8,150 51.4,215.1 60.4,199.4 	"/>
	<polygon class="st3" points="217.3,257 159.8,257 150.8,272.7 226.3,272.7 264,207.4 245.9,207.4 	"/>
	<polygon class="st5" points="217.3,43 245.9,92.6 264,92.6 226.3,27.3 150.7,27.3 159.8,43 	"/>
	<g>
		<path class="st0" d="M357.4,115.8c-1.8-1.7-2.8-4.1-2.8-7.2V106c0-3.2,1-5.7,3.1-7.6c2.1-1.9,5.1-2.8,8.9-2.8H381v-5.4
			c0-2.8-0.8-5-2.3-6.4c-1.5-1.4-4.3-2.1-8.3-2.1h-12.3v-2.6c4.7-0.6,9.3-1,13.7-1c4.6,0,8.1,1,10.2,2.9c2.2,1.9,3.2,4.9,3.2,8.9v28
			H382l-0.9-4.6c-0.3,0.2-1.5,0.8-3.4,1.6c-1.9,0.8-4.1,1.6-6.5,2.3c-2.4,0.7-4.7,1.1-6.8,1.1C361.6,118.5,359.2,117.6,357.4,115.8z
			 M371.8,114.2c2.2-0.6,4.1-1.2,5.8-1.8c1.7-0.6,2.8-1,3.4-1.2V98l-13.7,0.5c-2.9,0.1-5,0.8-6.4,2.2c-1.4,1.4-2.1,3.2-2.1,5.4v1.8
			c0,2.5,0.7,4.3,2.2,5.4c1.5,1.1,3.2,1.7,5.2,1.7C367.8,115.1,369.6,114.8,371.8,114.2z"/>
		<path class="st0" d="M399.4,115.3c-1.6-1.9-2.4-5.1-2.4-9.7V62h4.3v43.1c0,2.4,0.2,4.3,0.7,5.7c0.4,1.3,1.1,2.3,1.9,2.8
			c0.8,0.5,1.9,0.9,3.3,1l4.3,0.5v3h-4.8C403.4,118.1,401,117.1,399.4,115.3z"/>
		<path class="st0" d="M423.2,118.2c-3.5-0.2-5.7-0.4-6.9-0.6v-2.6h15.6c3,0,5.3-0.4,6.8-1.3c1.5-0.9,2.2-2.6,2.2-5.3v-1.9
			c0-2-0.7-3.5-2-4.6c-1.3-1.1-3.3-1.6-5.9-1.6h-5.3c-3.8,0-6.7-0.7-8.7-2.1c-2-1.4-3-3.8-3-7.3v-2c0-3.6,1.1-6.3,3.2-8
			c2.1-1.7,5.5-2.5,10-2.5c2.1,0,4.5,0.1,7.4,0.3c2.9,0.2,5.1,0.4,6.7,0.6V82h-14.7c-3,0-5.2,0.5-6.6,1.5c-1.4,1-2.2,2.8-2.2,5.4
			v1.7c0,2.4,0.7,4,2.1,4.8c1.4,0.8,3.5,1.2,6.4,1.2h5.4c3.5,0,6.2,0.8,8.2,2.5c2,1.6,3,4,3,7v2.5c0,3.7-1.2,6.2-3.5,7.6
			c-2.3,1.4-5.6,2.1-10,2.1C429.3,118.5,426.6,118.4,423.2,118.2z"/>
		<path class="st0" d="M454.6,71.2c-0.2-0.2-0.3-0.5-0.3-0.8v-5.2c0-0.7,0.4-1.1,1.1-1.1h2.9c0.6,0,1,0.4,1,1.1v5.2
			c0,0.7-0.3,1.1-1,1.1h-2.9C455.1,71.5,454.8,71.4,454.6,71.2z M454.7,78.9h4.3V118h-4.3V78.9z"/>
		<path class="st0" d="M470.9,78.9h3.2l1.1,4.4c5-3.4,10.1-5.1,15.1-5.1c2.4,0,4.4,0.5,6.2,1.6c1.8,1.1,3.1,2.5,4.1,4.3
			c2-1.5,4.6-2.9,7.7-4.1c3.1-1.2,6-1.8,8.7-1.8c4,0,7,1.2,9.1,3.7c2.1,2.5,3.2,5.6,3.2,9.4V118H525V91.6c0-2.7-0.8-5-2.5-6.8
			c-1.6-1.8-3.9-2.7-6.6-2.7c-2.3,0-4.7,0.4-7.3,1.3c-2.5,0.9-5,2-7.3,3.4c0.6,1.6,1,3.2,1,4.8V118h-4.3V91.6c0-2.7-0.8-5-2.5-6.8
			c-1.6-1.8-3.8-2.7-6.6-2.7c-2.6,0-4.9,0.3-6.9,1s-4.3,1.7-6.9,3.1V118h-4.3V78.9z"/>
	</g>
</g>
</svg>
