<?xml version="1.0" encoding="utf-8"?>
<!-- Generator: Adobe Illustrator 25.1.0, SVG Export Plug-In . SVG Version: 6.00 Build 0)  -->
<svg version="1.1" id="Layer_1" xmlns="http://www.w3.org/2000/svg" xmlns:xlink="http://www.w3.org/1999/xlink" x="0px" y="0px"
	 viewBox="0 0 900 300" style="enable-background:new 0 0 900 300;" xml:space="preserve">
<style type="text/css">
	.st0{fill:#4A4D4D;}
	.st1{fill:#BFBEBE;}
	.st2{fill:#14BEF0;}
	.st3{fill:#787A7A;}
	.st4{fill:#BFBFC0;}
	.st5{fill:#D3D4D6;}
	.st6{fill:#10BEF0;}
</style>
<g>
	<path class="st0" d="M363.2,219.3c-4.8-0.4-8.6-0.9-11.4-1.5v-8.3c5.9,0.6,13.8,0.9,23.6,0.9c5.1,0,9-0.8,11.7-2.3
		c2.8-1.5,4.2-4.3,4.2-8.4V195c0-6.6-3.5-9.9-10.6-9.9h-8c-7,0-12.4-1.5-16-4.6c-3.6-3.1-5.4-8.2-5.4-15.2v-4.4
		c0-7.3,2-12.6,5.9-15.9c4-3.3,9.8-5,17.7-5c3.4,0,7.3,0.3,11.7,0.7c4.4,0.5,8.2,1,11.3,1.6v8.3l-2.2-0.1c-9.1-0.6-15.7-1-19.7-1
		c-4.8,0-8.5,0.9-10.9,2.6c-2.4,1.7-3.6,4.8-3.6,9.3v3.2c0,3.7,1,6.3,2.9,7.9c2,1.6,4.9,2.3,8.8,2.3h8.7c6.4,0,11.3,1.7,14.6,5.2
		c3.3,3.5,5,8,5,13.7v5.6c0,7.8-2.2,13.1-6.7,16.1c-4.5,3-10.8,4.5-19,4.5C372.2,219.9,368,219.7,363.2,219.3z"/>
	<path class="st0" d="M420.2,216.5c-3.3-2.1-4.9-6.4-4.9-12.7V157c0-5.8,1.6-9.9,4.7-12.5c3.1-2.6,6.9-3.9,11.3-3.9
		c8.5,0,18,0.3,28.7,0.9l4.8,0.2v8.9h-30.3c-5.6,0-8.4,2.8-8.4,8.4v16.3l34,0.6v8.3l-34,0.7v16.1c0,3.3,0.8,5.6,2.3,6.8
		c1.6,1.2,3.7,1.8,6.3,1.8h30.1v8.9c-12.2,0.8-23.1,1.2-32.7,1.2C427.4,219.7,423.5,218.6,420.2,216.5z"/>
	<path class="st0" d="M478.3,140.6h31.5c6.4,0,11.5,1.7,15.3,5.1c3.8,3.4,5.7,9.6,5.7,18.7c0,7.3-1.3,12.6-4,15.7
		c-2.7,3.1-6.1,5.3-10.2,6.4l15.7,32.8h-10.9L506.9,188l-14.6-0.2c-0.8-0.1-1.9-0.1-3.2-0.1v31.6h-10.8V140.6z M508.1,179.3
		c3.8,0,6.8-1.1,8.9-3.2c2.1-2.1,3.2-6.1,3.2-11.7c0-5.5-1.1-9.2-3.2-11.2c-2.1-2-5.1-3-8.9-3h-19v29.2H508.1z"/>
	<path class="st0" d="M539.2,140.6h11.1l22,67.3l22.1-67.3h11l-26.3,78.7h-13.7L539.2,140.6z"/>
	<path class="st0" d="M616.3,140.6h10.8v78.7h-10.8V140.6z"/>
	<path class="st0" d="M652.6,216.8c-4-2.1-6.9-6.1-8.9-11.9c-2-5.8-3-14.2-3-25.3c0-10.5,1-18.6,3.1-24.4c2.1-5.8,5.1-9.8,9.2-12
		c4.1-2.2,9.4-3.4,16.1-3.4c3.7,0,7.7,0.3,12,0.9c4.3,0.6,8,1.3,11.3,2.2v8.1c-2.3-0.4-5.4-0.7-9.4-1.1c-4-0.4-8-0.5-12-0.5
		c-5.1,0-9,0.8-11.7,2.4c-2.7,1.6-4.8,4.6-6,8.9c-1.3,4.3-1.9,10.6-1.9,19c0,8.5,0.6,15,1.8,19.3c1.2,4.3,3.2,7.3,5.9,8.9
		c2.7,1.6,6.7,2.4,11.9,2.4c8.6,0,15.8-0.4,21.5-1.3v8.2c-7.1,1.8-15,2.7-23.7,2.7C661.9,219.9,656.6,218.9,652.6,216.8z"/>
	<path class="st0" d="M708.7,216.5c-3.3-2.1-4.9-6.4-4.9-12.7V157c0-5.8,1.6-9.9,4.7-12.5c3.1-2.6,6.9-3.9,11.3-3.9
		c8.5,0,18,0.3,28.7,0.9l4.8,0.2v8.9H723c-5.6,0-8.4,2.8-8.4,8.4v16.3l34,0.6v8.3l-34,0.7v16.1c0,3.3,0.8,5.6,2.3,6.8
		c1.6,1.2,3.7,1.8,6.3,1.8h30.1v8.9c-12.2,0.8-23.1,1.2-32.7,1.2C715.9,219.7,711.9,218.6,708.7,216.5z"/>
	<path class="st0" d="M776.8,219.3c-4.8-0.4-8.6-0.9-11.4-1.5v-8.3c5.9,0.6,13.8,0.9,23.6,0.9c5.1,0,9-0.8,11.7-2.3
		c2.8-1.5,4.2-4.3,4.2-8.4V195c0-6.6-3.5-9.9-10.6-9.9h-8c-7,0-12.4-1.5-16-4.6c-3.6-3.1-5.4-8.2-5.4-15.2v-4.4
		c0-7.3,2-12.6,5.9-15.9c4-3.3,9.8-5,17.7-5c3.4,0,7.3,0.3,11.7,0.7c4.4,0.5,8.2,1,11.3,1.6v8.3l-2.2-0.1c-9.1-0.6-15.7-1-19.7-1
		c-4.8,0-8.5,0.9-10.9,2.6c-2.4,1.7-3.6,4.8-3.6,9.3v3.2c0,3.7,1,6.3,2.9,7.9c2,1.6,4.9,2.3,8.8,2.3h8.7c6.4,0,11.3,1.7,14.6,5.2
		c3.3,3.5,5,8,5,13.7v5.6c0,7.8-2.2,13.1-6.7,16.1c-4.5,3-10.8,4.5-19,4.5C785.9,219.9,781.7,219.7,776.8,219.3z"/>
	<polygon class="st6" points="204.5,128.8 179,128.8 166.2,150.9 179,173 204.5,173 217.2,150.9 	"/>
	<polygon class="st3" points="289.7,160.9 282.4,160.9 273.9,165.8 270.9,167.5 269.1,170.5 248.3,206.7 246.5,209.7 246.5,213.2 
		246.5,227.1 231.2,235.9 220.5,229.8 217.5,228 214.1,228 169.5,228 166.1,228 163.1,229.8 154.8,234.5 147.1,247.8 152.4,250.9 
		169.5,241 214.1,241 231.2,250.9 259.4,234.6 259.4,213.2 280.3,177 298.9,166.3 298.9,160.9 289.7,160.9 	"/>
	<polygon class="st5" points="170,74.2 173,76 176.5,76 207.1,76 210.6,76 213.6,74.2 231.2,64.1 246.5,72.9 246.5,90.9 246.5,94.3 
		248.3,97.3 265.7,127.4 267.4,130.4 270.4,132.2 284.2,140.1 298.9,140.1 298.9,133.7 276.8,121 259.4,90.9 259.4,65.4 231.2,49.1 
		207.1,63.1 176.5,63.1 152.4,49.1 146.7,52.4 153.9,65 	"/>
	<polygon class="st4" points="137.1,212.4 137.1,208.9 135.4,205.9 115.2,170.9 113.4,167.9 110.4,166.2 97.7,158.8 97.7,141.2 
		113.9,131.8 116.9,130 118.7,127 135.4,98.1 137.1,95.1 137.1,91.7 137.1,74.5 129.9,62.1 124.2,65.4 124.2,91.7 107.5,120.6 
		84.8,133.7 84.8,166.3 104,177.4 124.2,212.4 124.2,234.6 130.4,238.1 137.1,226.5 	"/>
	<g>
		<path class="st0" d="M355.9,107.8c-1.8-1.7-2.8-4.1-2.8-7.2V98c0-3.2,1-5.7,3.1-7.6c2.1-1.9,5.1-2.8,8.9-2.8h14.3v-5.4
			c0-2.8-0.8-5-2.3-6.4c-1.5-1.4-4.3-2.1-8.3-2.1h-12.3v-2.6c4.7-0.6,9.3-1,13.7-1c4.7,0,8.1,1,10.2,2.9c2.2,1.9,3.2,4.9,3.2,8.9v28
			h-3.2l-0.9-4.6c-0.3,0.2-1.5,0.8-3.4,1.6c-1.9,0.8-4.1,1.6-6.5,2.3c-2.4,0.7-4.7,1.1-6.8,1.1C360.1,110.4,357.7,109.5,355.9,107.8
			z M370.3,106.2c2.2-0.6,4.1-1.2,5.8-1.8c1.7-0.6,2.8-1,3.4-1.2V89.9l-13.7,0.5c-2.9,0.1-5,0.8-6.4,2.2c-1.4,1.4-2.1,3.2-2.1,5.4
			v1.8c0,2.5,0.7,4.3,2.2,5.4c1.5,1.1,3.2,1.7,5.2,1.7C366.3,107,368.2,106.7,370.3,106.2z"/>
		<path class="st0" d="M397.9,107.2c-1.6-1.9-2.4-5.1-2.4-9.7V53.9h4.3V97c0,2.4,0.2,4.3,0.7,5.7s1.1,2.3,1.9,2.8
			c0.8,0.5,1.9,0.9,3.3,1l4.3,0.5v3h-4.8C401.9,110,399.5,109.1,397.9,107.2z"/>
		<path class="st0" d="M421.7,110.1c-3.5-0.2-5.7-0.4-6.9-0.6V107h15.6c3,0,5.3-0.4,6.8-1.3c1.5-0.9,2.2-2.6,2.2-5.3v-1.9
			c0-2-0.7-3.5-2-4.6c-1.3-1.1-3.3-1.6-5.9-1.6h-5.3c-3.8,0-6.7-0.7-8.7-2.1c-2-1.4-3-3.8-3-7.3v-2c0-3.6,1.1-6.3,3.2-8
			c2.1-1.7,5.5-2.5,10-2.5c2.1,0,4.5,0.1,7.4,0.3c2.9,0.2,5.1,0.4,6.7,0.6V74h-14.7c-3,0-5.2,0.5-6.6,1.5c-1.4,1-2.2,2.8-2.2,5.4
			v1.7c0,2.4,0.7,4,2.1,4.8c1.4,0.8,3.5,1.2,6.4,1.2h5.4c3.5,0,6.2,0.8,8.2,2.5c2,1.6,3,4,3,7v2.5c0,3.7-1.2,6.2-3.5,7.6
			c-2.3,1.4-5.6,2.1-10,2.1C427.9,110.4,425.1,110.3,421.7,110.1z"/>
		<path class="st0" d="M453.2,63.2c-0.2-0.2-0.3-0.5-0.3-0.8v-5.2c0-0.7,0.4-1.1,1.1-1.1h2.9c0.6,0,1,0.4,1,1.1v5.2
			c0,0.7-0.3,1.1-1,1.1H454C453.6,63.5,453.4,63.4,453.2,63.2z M453.2,70.8h4.3V110h-4.3V70.8z"/>
		<path class="st0" d="M469.5,70.8h3.2l1.1,4.4c5-3.4,10.1-5.1,15.1-5.1c2.4,0,4.4,0.5,6.2,1.6c1.8,1.1,3.1,2.5,4.1,4.3
			c2-1.5,4.6-2.9,7.7-4.1c3.1-1.2,6-1.8,8.7-1.8c4,0,7,1.2,9.1,3.7c2.1,2.5,3.2,5.6,3.2,9.4V110h-4.3V83.5c0-2.7-0.8-5-2.5-6.8
			c-1.6-1.8-3.9-2.7-6.6-2.7c-2.3,0-4.7,0.4-7.3,1.3c-2.5,0.9-5,2-7.3,3.4c0.6,1.6,1,3.2,1,4.8V110h-4.3V83.5c0-2.7-0.8-5-2.5-6.8
			c-1.6-1.8-3.8-2.7-6.6-2.7c-2.6,0-4.9,0.3-6.9,1c-2,0.7-4.3,1.7-6.9,3.1V110h-4.3V70.8z"/>
	</g>
</g>
</svg>
