<?xml version="1.0" encoding="UTF-8"?>
<svg id="Layer_1" data-name="Layer 1" xmlns="http://www.w3.org/2000/svg" xmlns:xlink="http://www.w3.org/1999/xlink" viewBox="0 0 500 130">
  <defs>
    <style>
      .cls-1 {
        fill: none;
      }

      .cls-2 {
        fill: #efe4f5;
      }

      .cls-3 {
        fill: #24282b;
      }

      .cls-4 {
        clip-path: url(#clippath-1);
      }

      .cls-5 {
        fill: #787878;
      }

      .cls-6 {
        clip-path: url(#clippath);
      }
    </style>
    <clipPath id="clippath">
      <rect class="cls-1" x="15.46" y="17.04" width="415.92" height="95.92"/>
    </clipPath>
    <clipPath id="clippath-1">
      <rect class="cls-1" x="15.46" y="17.04" width="415.92" height="95.92"/>
    </clipPath>
  </defs>
  <g id="Retain_Water" data-name="Retain Water">
    <g class="cls-6">
      <g class="cls-4">
        <path class="cls-2" d="M92.84,17.04h-46.4c-2.78,0-5.34,1.48-6.73,3.89l-23.2,40.18c-1.39,2.41-1.39,5.37,0,7.78l23.2,40.18c1.39,2.41,3.96,3.89,6.73,3.89h46.4c2.78,0,5.34-1.48,6.73-3.89l23.2-40.18c1.39-2.41,1.39-5.37,0-7.78l-23.2-40.18c-1.39-2.41-3.96-3.89-6.73-3.89"/>
        <path d="M157.86,88.53h-8.66v15.04h-4.7v-34.64h15.49c6.18,0,11.08,3.46,11.08,9.5s-4.16,8.51-7.42,9.3c4.26,3.02,7.27,9.55,8.46,15.83h-4.95c-.94-6.48-4.75-12.47-9.3-15.04M159.34,84.37c4.11,0,6.93-1.53,6.93-5.64s-2.92-5.64-6.93-5.64h-10.14v11.28h10.14Z"/>
        <path d="M175.33,90.66c0-8.46,5.39-13.61,12.57-13.51,8.26.1,12.07,6.43,12.07,12.77,0,.74-.05,1.43-.15,2.18h-19.94c.4,5.69,4.01,8.16,8.26,8.16,4.01,0,6.38-1.78,7.22-4.6h4.45c-.89,5-5.24,8.61-11.78,8.61-6.88,0-12.72-4.5-12.72-13.61M195.37,88.33c-.54-5.15-3.81-7.18-7.57-7.18-4.06,0-7.18,2.08-7.82,7.18h15.39Z"/>
        <path d="M206.41,93.63v-11.93h-4.7v-3.86h4.7v-5.79l4.35-2.37v8.16h6.63v3.86h-6.63v11.68c0,3.76,2.47,6.33,6.24,6.33h.74v3.86h-1.24c-5.24,0-10.09-3.61-10.09-9.95"/>
        <path d="M220.21,96.74c0-3.81,2.92-7.13,7.82-7.62,5.64-.59,9.3-.59,10.59-1.58v-.79c0-3.51-2.87-5.59-6.68-5.59s-6.78,1.93-6.88,5.79h-4.4c.1-5.79,5-9.8,11.38-9.8,5.69,0,10.84,3.56,10.94,9.8v9.7c0,2.08,1.04,3.07,3.07,3.07h.59v3.86h-1.34c-2.62,0-4.95-1.09-6.04-3.71-1.78,2.67-5.44,4.4-9.99,4.4-5.05,0-9.06-2.42-9.06-7.52M229.61,100.36c4.8,0,9.01-3.02,9.01-6.88v-2.03c-1.09.79-4.31.84-9.65,1.34-2.57.25-4.25,1.39-4.25,3.81s1.93,3.76,4.9,3.76"/>
        <path d="M252.58,68.69c1.53,0,2.92,1.34,2.92,2.97s-1.39,3.02-2.92,3.02-2.97-1.34-2.97-3.02,1.39-2.97,2.97-2.97M254.76,103.57h-4.35v-25.73h4.35v25.73Z"/>
        <path d="M260.45,77.84h4.26v4.06c2.03-3.32,5.49-4.75,8.46-4.75,5.34,0,9.85,3.91,9.85,10.04v16.38h-4.35v-14.94c0-5.59-2.97-7.52-6.24-7.52-4.55,0-7.62,3.36-7.62,9.45v13.01h-4.35v-25.73Z"/>
        <polygon points="298.11 68.94 303.15 68.94 311.62 97.29 319.24 68.94 324.08 68.94 332.05 97.39 340.31 68.94 345.26 68.94 335.07 103.57 329.18 103.57 321.71 77.2 314.49 103.57 308.55 103.57 298.11 68.94"/>
        <path d="M345.27,96.74c0-3.81,2.92-7.13,7.82-7.62,5.64-.59,9.3-.59,10.59-1.58v-.79c0-3.51-2.87-5.59-6.68-5.59s-6.78,1.93-6.88,5.79h-4.4c.1-5.79,5-9.8,11.38-9.8,5.69,0,10.84,3.56,10.94,9.8v9.7c0,2.08,1.04,3.07,3.07,3.07h.59v3.86h-1.34c-2.62,0-4.95-1.09-6.04-3.71-1.78,2.67-5.44,4.4-9.99,4.4-5.05,0-9.06-2.42-9.06-7.52M354.67,100.36c4.8,0,9.01-3.02,9.01-6.88v-2.03c-1.09.79-4.31.84-9.65,1.34-2.57.25-4.25,1.39-4.25,3.81s1.93,3.76,4.9,3.76"/>
        <path d="M376.15,93.63v-11.93h-4.7v-3.86h4.7v-5.79l4.35-2.37v8.16h6.63v3.86h-6.63v11.68c0,3.76,2.47,6.33,6.24,6.33h.74v3.86h-1.24c-5.24,0-10.09-3.61-10.09-9.95"/>
        <path d="M388.72,90.66c0-8.46,5.39-13.61,12.57-13.51,8.26.1,12.07,6.43,12.07,12.77,0,.74-.05,1.43-.15,2.18h-19.94c.4,5.69,4.01,8.16,8.26,8.16,4.01,0,6.38-1.78,7.22-4.6h4.45c-.89,5-5.24,8.61-11.78,8.61-6.88,0-12.72-4.5-12.72-13.61M408.76,88.33c-.54-5.15-3.81-7.18-7.57-7.18-4.06,0-7.18,2.08-7.82,7.18h15.39Z"/>
        <path d="M417.82,77.84h4.26v4.5c1.39-3.46,4.4-4.8,6.73-4.8h2.57v4.26h-3.17c-3.02,0-6.04,2.67-6.04,7.62v14.15h-4.35v-25.73Z"/>
        <path class="cls-3" d="M53.47,39.79s-3.53,4.52-3.53,7.46c0,1.95,1.58,3.53,3.53,3.53s3.53-1.58,3.53-3.53c0-2.94-3.53-7.46-3.53-7.46"/>
        <path class="cls-3" d="M57.97,58.79s-3.53,4.52-3.53,7.46c0,1.95,1.58,3.53,3.53,3.53s3.53-1.58,3.53-3.53c0-2.94-3.53-7.46-3.53-7.46"/>
        <path class="cls-3" d="M87.18,38.89s-3.53,4.52-3.53,7.46c0,1.95,1.58,3.53,3.53,3.53s3.53-1.58,3.53-3.53c0-2.94-3.53-7.46-3.53-7.46"/>
        <path class="cls-3" d="M81.34,54.53s-3.53,4.52-3.53,7.46c0,1.95,1.58,3.53,3.53,3.53s3.53-1.58,3.53-3.53c0-2.94-3.53-7.46-3.53-7.46"/>
        <path class="cls-3" d="M70.17,43.54s-3.53,4.52-3.53,7.46c0,1.95,1.58,3.53,3.53,3.53s3.53-1.58,3.53-3.53c0-2.94-3.53-7.46-3.53-7.46"/>
        <path class="cls-3" d="M51.48,93.91c.74,1.28,2.1,2.06,3.57,2.06h29.74c1.47,0,2.83-.79,3.57-2.06l8.64-14.97h-54.17l8.64,14.97Z"/>
        <path class="cls-3" d="M85.43,96.38h-30.22c-2.08,0-4.03-1.12-5.08-2.91l-12.53-21.41,2.99-1.75,12.53,21.41c.43.74,1.23,1.2,2.09,1.2h30.22c.86,0,1.66-.46,2.09-1.2l12.53-21.41,2.99,1.75-12.53,21.41c-1.05,1.8-3,2.91-5.08,2.91"/>
        <path class="cls-5" d="M143.19,51.89c0-3.65,2.79-6.82,7.48-7.29,5.4-.57,8.9-.57,10.13-1.51v-.76c0-3.36-2.75-5.35-6.39-5.35s-6.49,1.85-6.58,5.54h-4.21c.09-5.54,4.78-9.37,10.89-9.37,5.44,0,10.37,3.41,10.46,9.37v9.28c0,1.99.99,2.93,2.93,2.93h.57v3.69h-1.28c-2.51,0-4.73-1.04-5.78-3.55-1.71,2.56-5.21,4.21-9.56,4.21-4.83,0-8.66-2.32-8.66-7.2M152.19,55.35c4.59,0,8.62-2.89,8.62-6.58v-1.94c-1.04.76-4.12.81-9.23,1.28-2.46.24-4.07,1.33-4.07,3.64s1.85,3.6,4.69,3.6"/>
        <path class="cls-5" d="M171.54,49.15v-23.86h4.17v23.67c0,3.55,2.27,5.78,5.49,5.78h.57v3.69h-1.33c-4.78,0-8.9-3.74-8.9-9.28"/>
        <path class="cls-5" d="M187.68,40.58c0,1.7,1.14,3.12,3.55,3.12h4.4c4.68,0,8.33,2.79,8.33,7.48s-3.65,7.24-8.33,7.24h-11.46v-3.69h11.32c2.79,0,4.12-1.37,4.12-3.46,0-1.89-1.32-3.45-4.12-3.45h-4.5c-4.26,0-7.57-2.89-7.57-7.15s3.31-6.91,7.57-6.91h11.55v3.69h-11.32c-2.41,0-3.55,1.42-3.55,3.12"/>
        <path class="cls-5" d="M210.36,25.05c1.47,0,2.79,1.28,2.79,2.84s-1.32,2.89-2.79,2.89-2.84-1.28-2.84-2.89,1.32-2.84,2.84-2.84M212.44,58.43h-4.16v-24.62h4.16v24.62Z"/>
        <path class="cls-5" d="M217.88,33.81h4.07v3.88c1.99-3.17,4.92-4.54,7.53-4.54,3.31,0,6.25,1.75,7.77,4.88,2.23-3.6,5.54-4.88,8.43-4.88,4.88,0,8.81,3.88,8.81,9.61v15.67h-4.17v-14.77c0-4.69-2.46-6.72-5.35-6.72-4.12,0-6.63,3.22-6.63,9.04v12.45h-4.17v-14.77c0-4.69-2.51-6.72-5.4-6.72-4.12,0-6.72,3.22-6.72,9.04v12.45h-4.16v-24.62Z"/>
      </g>
    </g>
  </g>
</svg>