<?xml version="1.0" encoding="utf-8"?>
<!-- Generator: Adobe Illustrator 25.0.1, SVG Export Plug-In . SVG Version: 6.00 Build 0)  -->
<svg version="1.1" id="Layer_1" xmlns="http://www.w3.org/2000/svg" xmlns:xlink="http://www.w3.org/1999/xlink" x="0px" y="0px"
	 viewBox="0 0 900 300" style="enable-background:new 0 0 900 300;" xml:space="preserve">
<style type="text/css">
	.st0{fill:#5B266C;}
	.st1{fill:#895AA4;}
	.st2{fill:#9C66AA;}
	.st3{fill:#4C4D4E;}
	.st4{fill:#9D906F;}
	.st5{fill:#C2B98E;}
	.st6{fill:#D4CBA4;}
	.st7{fill:#AE7D36;}
	.st8{fill:#BE8B37;}
	.st9{fill:#EEAA32;}
	.st10{fill:#577D40;}
	.st11{fill:#78A94E;}
	.st12{fill:#A4D06E;}
	.st13{fill:#006654;}
	.st14{fill:#108673;}
	.st15{fill:#0EA285;}
	.st16{fill:#43888D;}
	.st17{fill:#68B2C6;}
	.st18{fill:#9AD9EB;}
	.st19{fill:#001D27;}
	.st20{fill:#294146;}
	.st21{fill:#52656E;}
	.st22{fill:#4A4D4D;}
	.st23{fill:#BFBEBE;}
	.st24{fill:#14BEF0;}
	.st25{fill:#787A7A;}
	.st26{fill:#BFBFC0;}
	.st27{fill:#D3D4D6;}
	.st28{fill:#10BEF0;}
	.st29{fill:#7B7B7B;}
</style>
<g>
	<polygon class="st7" points="84.1,239.2 176.9,239.2 223.3,158.9 130.5,158.9 	"/>
	<polygon class="st8" points="110,146.4 64.2,67 17.8,147.4 64.2,227.7 110.5,147.4 	"/>
	<polygon class="st9" points="223.3,135.8 176.9,55.5 84.1,55.5 130.5,135.8 	"/>
	<g>
		<g>
			<path class="st3" d="M344.3,222.9l-6.1-52.1l-14.8,52.1h-8.5l-15-51.8l-5.9,51.8h-8.9l7.7-67.4h9.1l17.2,56.2l16.9-56.2h9.2
				l7.9,67.4H344.3z"/>
			<path class="st3" d="M371,221.2c-3.1-1.5-5.4-4-6.9-7.6c-1.5-3.6-2.2-8.7-2.2-15.2c0-6.7,0.8-11.9,2.3-15.5
				c1.5-3.6,3.8-6.1,6.9-7.5c3.1-1.4,7.2-2.1,12.4-2.1c5.2,0,9.3,0.7,12.4,2.1c3.1,1.4,5.4,3.9,6.9,7.5c1.5,3.6,2.3,8.8,2.3,15.4
				c0,6.6-0.7,11.7-2.2,15.3c-1.5,3.6-3.8,6.2-6.9,7.6c-3.1,1.4-7.2,2.1-12.5,2.1C378.2,223.4,374.1,222.7,371,221.2z M390.6,214.7
				c1.7-0.8,3-2.5,3.9-5c0.9-2.5,1.3-6.3,1.3-11.4c0-5.1-0.4-8.9-1.3-11.4c-0.9-2.5-2.2-4.2-3.9-5c-1.7-0.8-4.1-1.2-7.2-1.2
				c-3.1,0-5.5,0.4-7.2,1.2c-1.7,0.8-3,2.5-3.8,5c-0.9,2.5-1.3,6.3-1.3,11.4c0,5.1,0.4,8.9,1.3,11.5c0.9,2.5,2.2,4.2,3.8,5
				c1.7,0.8,4.1,1.2,7.2,1.2C386.5,215.9,388.9,215.5,390.6,214.7z"/>
			<path class="st3" d="M425.3,218l-1.6,4.8h-7.5v-69.7h9.1v25c2.4-1.3,4.9-2.5,7.7-3.4c2.8-0.9,5.3-1.4,7.5-1.4
				c6.1,0,10.5,2,13.3,5.9c2.8,3.9,4.2,10.5,4.2,19.6c0,8-1.4,14.2-4.1,18.3c-2.7,4.2-7,6.3-12.9,6.3
				C435.5,223.4,430.2,221.6,425.3,218z M448.9,198.4c0-4.8-0.5-8.4-1.4-11c-0.9-2.6-2.2-4.3-3.8-5.2c-1.6-0.9-3.5-1.4-5.8-1.4
				c-2.3,0-4.4,0.3-6.4,1c-2,0.6-4,1.5-6.2,2.7v27.9c2,1,4,1.9,6,2.5c2,0.6,4.2,1,6.5,1C445.2,215.8,448.9,210,448.9,198.4z"/>
			<path class="st3" d="M469.3,165.3c-0.3-0.3-0.5-0.7-0.5-1.1v-7.7c0-1.1,0.5-1.6,1.6-1.6h6.8c0.5,0,0.9,0.2,1.1,0.5
				c0.2,0.3,0.4,0.7,0.4,1.2v7.7c0,1-0.5,1.6-1.5,1.6h-6.8C470,165.7,469.6,165.6,469.3,165.3z M469.2,174h9.1v48.9h-9.1V174z"/>
			<path class="st3" d="M494.4,219.3c-2.2-2.4-3.3-6.5-3.3-12.2v-54h9.1V206c0,3.6,0.5,6.1,1.5,7.4c1,1.3,2.6,2.2,4.8,2.5l4.6,0.5
				v6.6h-6.4C500.1,223,496.7,221.7,494.4,219.3z"/>
			<path class="st3" d="M518.6,165.3c-0.3-0.3-0.5-0.7-0.5-1.1v-7.7c0-1.1,0.5-1.6,1.6-1.6h6.8c0.5,0,0.9,0.2,1.1,0.5
				c0.2,0.3,0.4,0.7,0.4,1.2v7.7c0,1-0.5,1.6-1.5,1.6h-6.8C519.3,165.7,518.9,165.6,518.6,165.3z M518.5,174h9.1v48.9h-9.1V174z"/>
			<path class="st3" d="M546.3,219.1c-2.3-2.5-3.4-6.7-3.3-12.5l0.4-25.1h-7.8v-5.9l8-1.6l1.4-13.7h7.2V174h13.3v7.5h-13.3v25
				c0,3.3,0.6,5.6,1.9,6.9c1.2,1.3,2.8,2,4.7,2.2l6,0.5v6.8h-7.4C552.3,222.9,548.6,221.6,546.3,219.1z"/>
			<path class="st3" d="M594.4,222.9c-3.2-0.1-5.9-1-8.3-2.9s-4.1-4.9-5.3-9l-11-36.9h9.6l9.9,35c1.3,4.1,3.6,6.2,6.9,6.2l11.4-41.2
				h9.4l-16.8,61.5l-4.4,9h-7.3L594.4,222.9z"/>
		</g>
		<g>
			<path class="st3" d="M288.2,137.1c-1.6-1.5-2.4-3.6-2.4-6.2v-2.3c0-2.7,0.9-4.9,2.7-6.5c1.8-1.6,4.4-2.4,7.7-2.4h12.3V115
				c0-2.4-0.7-4.3-2-5.5c-1.3-1.2-3.7-1.8-7.2-1.8h-10.6v-2.2c4.1-0.5,8-0.8,11.8-0.8c4,0,6.9,0.8,8.8,2.5c1.9,1.7,2.8,4.2,2.8,7.7
				v24.1h-2.8l-0.8-3.9c-0.3,0.2-1.3,0.7-2.9,1.4c-1.6,0.7-3.5,1.4-5.6,2c-2.1,0.6-4,0.9-5.8,0.9
				C291.8,139.3,289.8,138.6,288.2,137.1z M300.6,135.7c1.9-0.5,3.5-1,5-1.5c1.5-0.5,2.4-0.9,2.9-1v-11.5l-11.8,0.4
				c-2.5,0.1-4.3,0.7-5.5,1.9c-1.2,1.2-1.8,2.7-1.8,4.7v1.6c0,2.2,0.6,3.7,1.9,4.7c1.3,1,2.8,1.5,4.5,1.5
				C297.2,136.4,298.8,136.2,300.6,135.7z"/>
			<path class="st3" d="M324.4,136.6c-1.4-1.6-2.1-4.4-2.1-8.4V90.6h3.7v37.2c0,2.1,0.2,3.7,0.6,4.9c0.4,1.1,0.9,1.9,1.6,2.4
				c0.7,0.5,1.7,0.8,2.8,0.9l3.7,0.4v2.6h-4.1C327.9,139,325.8,138.2,324.4,136.6z"/>
			<path class="st3" d="M344.9,139.1c-3-0.1-4.9-0.3-5.9-0.5v-2.2h13.5c2.6,0,4.6-0.4,5.9-1.1c1.3-0.7,1.9-2.3,1.9-4.6v-1.6
				c0-1.7-0.6-3-1.7-4c-1.1-0.9-2.8-1.4-5.1-1.4h-4.6c-3.3,0-5.8-0.6-7.5-1.8c-1.7-1.2-2.6-3.3-2.6-6.3v-1.7c0-3.1,0.9-5.4,2.8-6.9
				c1.8-1.5,4.7-2.2,8.6-2.2c1.8,0,3.9,0.1,6.4,0.2c2.5,0.1,4.4,0.3,5.8,0.5v2.3h-12.7c-2.6,0-4.5,0.4-5.7,1.3
				c-1.2,0.9-1.9,2.4-1.9,4.7v1.5c0,2.1,0.6,3.4,1.8,4.1c1.2,0.7,3,1,5.5,1h4.6c3,0,5.3,0.7,7.1,2.1c1.7,1.4,2.6,3.4,2.6,6v2.2
				c0,3.2-1,5.4-3,6.6c-2,1.2-4.9,1.8-8.6,1.8C350.2,139.3,347.9,139.2,344.9,139.1z"/>
			<path class="st3" d="M372,98.6c-0.2-0.2-0.3-0.4-0.3-0.7v-4.5c0-0.6,0.3-0.9,1-0.9h2.5c0.5,0,0.8,0.3,0.8,0.9v4.5
				c0,0.6-0.3,1-0.8,1h-2.5C372.4,98.9,372.2,98.8,372,98.6z M372.1,105.2h3.7v33.7h-3.7V105.2z"/>
			<path class="st3" d="M386.1,105.2h2.7l0.9,3.8c4.3-2.9,8.7-4.4,13-4.4c2,0,3.8,0.5,5.3,1.4s2.7,2.2,3.5,3.7
				c1.7-1.3,3.9-2.5,6.6-3.5c2.7-1.1,5.2-1.6,7.5-1.6c3.4,0,6,1.1,7.8,3.2c1.8,2.1,2.7,4.8,2.7,8.1v23h-3.7v-22.8
				c0-2.4-0.7-4.3-2.1-5.9c-1.4-1.5-3.3-2.3-5.7-2.3c-2,0-4.1,0.4-6.3,1.1c-2.2,0.7-4.3,1.7-6.3,2.9c0.5,1.4,0.8,2.7,0.8,4.1v22.8
				h-3.7v-22.8c0-2.4-0.7-4.3-2.1-5.9c-1.4-1.5-3.3-2.3-5.7-2.3c-2.2,0-4.2,0.3-5.9,0.9c-1.7,0.6-3.7,1.5-5.9,2.7v27.4h-3.7V105.2z"
				/>
		</g>
	</g>
</g>
</svg>
