<?xml version="1.0" encoding="utf-8"?>
<!-- Generator: Adobe Illustrator 25.0.1, SVG Export Plug-In . SVG Version: 6.00 Build 0)  -->
<svg version="1.1" id="Layer_1" xmlns="http://www.w3.org/2000/svg" xmlns:xlink="http://www.w3.org/1999/xlink" x="0px" y="0px"
	 viewBox="0 0 500 500" style="enable-background:new 0 0 500 500;" xml:space="preserve">
<style type="text/css">
	.st0{fill:#BFBEBE;}
	.st1{fill:#14BEF0;}
	.st2{fill:#787A7A;}
	.st3{fill:#BFBFC0;}
	.st4{fill:#D3D4D6;}
	.st5{fill:#10BEF0;}
</style>
<g>
	<polygon class="st5" points="278.7,202 220.9,202 192,252.1 220.9,302.1 278.7,302.1 307.6,252.1 	"/>
	<polygon class="st2" points="471.6,274.6 455.2,274.6 435.8,285.8 429,289.7 425.1,296.5 377.8,378.4 373.9,385.2 373.9,393 
		373.9,424.6 339.2,444.6 315,430.6 308.2,426.7 300.4,426.7 199.6,426.7 191.8,426.7 185,430.6 166.2,441.4 148.9,471.5 
		160.8,478.4 199.6,456 300.4,456 339.2,478.4 403.2,441.5 403.2,393 450.4,311.1 492.4,286.9 492.4,274.6 471.6,274.6 	"/>
	<polygon class="st4" points="200.7,78.5 207.5,82.4 215.3,82.4 284.7,82.4 292.5,82.4 299.3,78.5 339.2,55.4 373.9,75.4 
		373.9,116.1 373.9,123.9 377.8,130.7 417.2,198.9 421.1,205.7 427.9,209.6 459.2,227.7 492.4,227.7 492.4,213.1 442.5,184.3 
		403.2,116.1 403.2,58.5 339.2,21.6 284.7,53.1 215.3,53.1 160.8,21.6 147.9,29.1 164.3,57.4 	"/>
	<polygon class="st3" points="126.1,391.2 126.1,383.3 122.2,376.6 76.5,297.4 72.6,290.6 65.8,286.7 36.9,270 36.9,230 73.7,208.7 
		80.4,204.8 84.4,198 122.2,132.5 126.1,125.8 126.1,117.9 126.1,79.1 109.9,51 96.8,58.5 96.8,117.9 59,183.4 7.6,213.1 7.6,286.9 
		51.2,312 96.8,391.2 96.8,441.5 110.9,449.6 126.1,423.2 	"/>
</g>
</svg>
