<?xml version="1.0" encoding="utf-8"?>
<!-- Generator: Adobe Illustrator 25.0.1, SVG Export Plug-In . SVG Version: 6.00 Build 0)  -->
<svg version="1.1" id="Layer_1" xmlns="http://www.w3.org/2000/svg" xmlns:xlink="http://www.w3.org/1999/xlink" x="0px" y="0px"
	 viewBox="0 0 900 300" style="enable-background:new 0 0 900 300;" xml:space="preserve">
<style type="text/css">
	.st0{fill:#5B266C;}
	.st1{fill:#895AA4;}
	.st2{fill:#9C66AA;}
	.st3{fill:#4C4D4E;}
	.st4{fill:#9D906F;}
	.st5{fill:#C2B98E;}
	.st6{fill:#D4CBA4;}
	.st7{fill:#AE7D36;}
	.st8{fill:#BE8B37;}
	.st9{fill:#EEAA32;}
	.st10{fill:#577D40;}
	.st11{fill:#78A94E;}
	.st12{fill:#A4D06E;}
	.st13{fill:#006654;}
	.st14{fill:#108673;}
	.st15{fill:#0EA285;}
	.st16{fill:#43888D;}
	.st17{fill:#68B2C6;}
	.st18{fill:#9AD9EB;}
	.st19{fill:#001D27;}
	.st20{fill:#294146;}
	.st21{fill:#52656E;}
	.st22{fill:#4A4D4D;}
	.st23{fill:#BFBEBE;}
	.st24{fill:#14BEF0;}
	.st25{fill:#787A7A;}
	.st26{fill:#BFBFC0;}
	.st27{fill:#D3D4D6;}
	.st28{fill:#10BEF0;}
	.st29{fill:#7B7B7B;}
</style>
<g>
	<polygon class="st29" points="158.5,269.5 279.2,269.5 339.6,165 218.9,165 	"/>
	<polygon class="st26" points="192.1,148.7 132.5,45.5 72.2,150 132.5,254.5 192.9,150 	"/>
	<polygon class="st28" points="339.6,135 279.2,30.5 158.5,30.5 218.9,135 	"/>
	<path class="st22" d="M424.8,217.7c-9-4.5-15.4-12.2-19.3-22.9c-3.9-10.7-5.9-25.7-5.9-44.9c0-19.6,1.9-34.8,5.9-45.5
		c3.9-10.7,10.3-18.2,19.2-22.6c8.9-4.4,21.2-6.5,37-6.5c13.8,0,24.8,1.5,32.9,4.4c8.2,2.9,14.2,7.9,18,15
		c3.8,7.1,5.7,16.9,5.7,29.4c0,12.9-3.7,22.2-11.2,27.9c-7.4,5.7-18.1,8.6-32.1,8.6h-48.2c0.2,11.1,1.4,19.6,3.7,25.7
		c2.3,6.1,6.4,10.5,12.4,13.2c6,2.7,14.6,4.1,25.9,4.1h45.5v16.3c-10,1.5-18.8,2.6-26.4,3.4c-7.6,0.8-16.2,1.2-25.9,1.2
		C446.2,224.5,433.8,222.2,424.8,217.7z M472.6,143.4c7.4,0,12.8-1.4,16.2-4.2c3.4-2.8,5-7.8,5-14.8c0-10.9-2.4-18.4-7.2-22.6
		c-4.8-4.2-13.1-6.3-24.9-6.3c-9.3,0-16.4,1.4-21.4,4.1c-5,2.7-8.5,7.5-10.6,14.3c-2.1,6.8-3.1,16.7-3.1,29.5H472.6z"/>
	<path class="st22" d="M589.4,222.8c-11.7-0.9-20-2-24.9-3.5l0.1-16.3l61.2,0.2c8.7,0,15.2-1.2,19.3-3.6c4.2-2.4,6.3-7.4,6.3-14.8
		l0-6c0-11.6-7.7-17.5-23.3-17.5l-21.2-0.1c-14-0.1-24.8-3-32.4-8.7c-7.6-5.7-11.4-15.2-11.3-28.5l0-7.9c0.1-14,4.2-24.3,12.5-30.8
		c8.3-6.6,22-9.9,41-9.8c8,0,17.3,0.6,28,1.6c10.7,1,19,2.2,24.8,3.5L669.5,97l-57.7-0.2c-8.5,0-14.8,1.4-18.8,4.3
		c-4,2.9-6,8-6,15.2l0,5.4c0,6.9,1.9,11.4,5.8,13.6c3.9,2.2,10.2,3.3,18.9,3.3l21.8,0.1c13.6,0.1,24,3.3,31.1,9.6
		c7.1,6.4,10.7,15.5,10.6,27.3l0,11.2c-0.1,14-4.7,23.7-13.9,29.2c-9.2,5.5-22.8,8.2-40.7,8.1C611.5,224.1,601.1,223.7,589.4,222.8z
		"/>
	<path class="st22" d="M742,223.4c-11.7-0.9-20-2-24.9-3.5l0.1-16.3l61.2,0.2c8.7,0,15.2-1.2,19.3-3.6c4.2-2.4,6.3-7.4,6.3-14.8l0-6
		c0-11.6-7.7-17.5-23.3-17.5l-21.2-0.1c-14-0.1-24.8-3-32.4-8.7c-7.6-5.7-11.4-15.2-11.3-28.5l0-7.9c0.1-14,4.2-24.3,12.5-30.8
		c8.3-6.6,22-9.9,41-9.8c8,0,17.3,0.6,28,1.6c10.7,1,19,2.2,24.8,3.5l-0.1,16.3l-57.7-0.2c-8.5,0-14.8,1.4-18.8,4.3
		c-4,2.9-6,8-6,15.2l0,5.4c0,6.9,1.9,11.4,5.8,13.6c3.9,2.2,10.2,3.3,18.9,3.3l21.8,0.1c13.6,0.1,24,3.3,31.1,9.6
		c7.1,6.4,10.7,15.5,10.6,27.3l0,11.2c-0.1,14-4.7,23.7-13.9,29.2c-9.2,5.5-22.8,8.2-40.7,8.1C764.1,224.8,753.7,224.3,742,223.4z"
		/>
</g>
</svg>
