<?xml version="1.0" encoding="UTF-8"?>
<svg id="Layer_1" xmlns="http://www.w3.org/2000/svg" xmlns:xlink="http://www.w3.org/1999/xlink" version="1.1" viewBox="0 0 625.4 150">
  <!-- Generator: Adobe Illustrator 29.0.0, SVG Export Plug-In . SVG Version: 2.1.0 Build 186)  -->
  <defs>
    <style>
      .st0 {
        fill: none;
      }

      .st1 {
        clip-path: url(#clippath-1);
      }

      .st2 {
        fill: #5b266c;
      }

      .st3 {
        fill: #2d2d2d;
      }

      .st4 {
        fill: #787878;
      }

      .st5 {
        fill: #9c66aa;
      }

      .st6 {
        clip-path: url(#clippath);
      }

      .st7 {
        fill: #cf96e2;
      }
    </style>
    <clipPath id="clippath">
      <rect class="st0" x="0" width="625.4" height="150"/>
    </clipPath>
    <clipPath id="clippath-1">
      <rect class="st0" x="0" width="625.4" height="150"/>
    </clipPath>
  </defs>
  <g id="PaintShop">
    <g class="st6">
      <g class="st1">
        <path class="st2" d="M61.7,150h59c4.5,0,8.6-2.4,10.9-6.3l29.5-51.1c2.1-3.6-.5-8.2-4.7-8.2h-59c-4.5,0-8.6,2.4-10.9,6.3l-29.5,51.1c-2.1,3.6.5,8.2,4.7,8.2"/>
        <path class="st5" d="M40.7,17.6c-2.1-3.6-7.4-3.6-9.5,0L1.7,68.7c-2.2,3.9-2.2,8.7,0,12.6l29.5,51.1c2.1,3.6,7.4,3.6,9.5,0l29.5-51.1c2.2-3.9,2.2-8.7,0-12.5l-29.5-51.1Z"/>
        <path class="st7" d="M161.1,57.4l-29.5-51.1C129.3,2.4,125.2,0,120.7,0h-59C57.5,0,54.9,4.6,57,8.2l29.5,51.1c2.2,3.9,6.4,6.3,10.9,6.3h59c4.2,0,6.8-4.6,4.7-8.2"/>
        <path class="st3" d="M193.2,71.4h27.9c10.9,0,20,7.7,20,19.5s-9.1,19.5-20,19.5h-19.3v24.7h-8.6v-63.7ZM220.1,102.7c6.8,0,12.3-3.8,12.3-11.7s-5.5-11.9-12.3-11.9h-18.2v23.7h18.2Z"/>
        <path class="st3" d="M243.9,122.6c0-7,5.4-13.1,14.4-14,10.4-1.1,17.1-1.1,19.5-2.9v-1.5c0-6.5-5.3-10.3-12.3-10.3s-12.5,3.5-12.6,10.6h-8.1c.2-10.6,9.2-18,20.9-18s19.9,6.6,20.1,18v17.8c0,3.8,1.9,5.6,5.6,5.6h1.1v7.1h-2.5c-4.8,0-9.1-2-11.1-6.8-3.3,4.9-10,8.1-18.4,8.1s-16.7-4.5-16.7-13.8M261.2,129.2c8.8,0,16.6-5.6,16.6-12.6v-3.7c-2,1.5-7.9,1.5-17.7,2.5-4.7.5-7.8,2.5-7.8,7s3.5,6.9,9,6.9"/>
        <path class="st3" d="M303.4,71c2.8,0,5.4,2.5,5.4,5.5s-2.5,5.6-5.4,5.6-5.5-2.5-5.5-5.6,2.5-5.5,5.5-5.5M307.4,135.1h-8v-47.3h8v47.3Z"/>
        <path class="st3" d="M317.9,87.8h7.8v7.5c3.7-6.1,10.1-8.7,15.6-8.7,9.8,0,18.1,7.2,18.1,18.5v30.1h-8v-27.5c0-10.3-5.5-13.8-11.5-13.8s-14,6.2-14,17.4v23.9h-8v-47.3Z"/>
        <path class="st3" d="M372.1,116.8v-21.9h-8.6v-7.1h8.6v-10.6l8-4.4v15h12.2v7.1h-12.2v21.5c0,6.9,4.6,11.6,11.5,11.6h1.4v7.1h-2.3c-9.6,0-18.6-6.6-18.6-18.3"/>
        <path class="st3" d="M426.5,88.5c0,4.6,3.6,9.4,9.8,9.4h10.1c11.5,0,20.7,8.4,20.7,19s-9.3,18.2-20.7,18.2h-26.8v-7.6h26.5c7.7,0,12.4-4.1,12.4-10.3s-4.6-10.2-12.4-10.2h-10.2c-10,0-17.9-8.2-17.9-18.2s7.9-17.4,17.9-17.4h28.6v7.6h-28.1c-6.2,0-9.8,4.8-9.8,9.5"/>
        <path class="st3" d="M474.9,71.4h8v23.6c3.7-5.9,10-8.5,15.4-8.5,9.8,0,18.1,7.2,18.1,18.5v30.1h-8v-27.5c0-10.3-5.5-13.8-11.5-13.8s-14,6.2-14,17.4v23.9h-8v-63.7Z"/>
        <path class="st3" d="M547.6,136.4c-12.6,0-23.5-9.1-23.5-25s10.9-24.8,23.5-24.8,23.5,8.9,23.5,24.8-10.9,25-23.5,25M547.6,129c8.2,0,15.2-5.8,15.2-17.6s-7-17.6-15.2-17.6-15.2,5.4-15.2,17.6,7,17.6,15.2,17.6"/>
        <path class="st3" d="M579.2,87.8h7.8v6.4c4-5,9.6-7.6,16.2-7.6,11.6,0,22.2,9.1,22.2,25s-10.5,24.8-22.1,24.8-12.7-2.8-16.3-7.5v20.7h-7.8v-61.9ZM602.3,129c8,0,14.6-6.3,14.6-17.4s-5.7-17.7-14.6-17.7-15.3,5.5-15.3,17.6,6.8,17.6,15.3,17.6"/>
        <path class="st4" d="M193.6,42.4c0-5,3.8-9.3,10.2-9.9,7.4-.8,12.1-.8,13.8-2.1v-1c0-4.6-3.7-7.3-8.7-7.3s-8.8,2.5-9,7.5h-5.7c.1-7.5,6.5-12.8,14.8-12.8s14.1,4.6,14.3,12.8v12.6c0,2.7,1.4,4,4,4h.8v5h-1.7c-3.4,0-6.4-1.4-7.9-4.8-2.3,3.5-7.1,5.7-13,5.7s-11.8-3.2-11.8-9.8M205.8,47.1c6.3,0,11.7-3.9,11.7-9v-2.6c-1.4,1-5.6,1.1-12.6,1.7-3.4.3-5.5,1.8-5.5,5s2.5,4.9,6.4,4.9"/>
        <path class="st4" d="M232.2,38.7V6.2h5.7v32.2c0,4.8,3.1,7.9,7.5,7.9h.8v5h-1.8c-6.5,0-12.1-5.1-12.1-12.6"/>
        <path class="st4" d="M254.2,27c0,2.3,1.5,4.3,4.8,4.3h6c6.4,0,11.4,3.8,11.4,10.2s-5,9.9-11.4,9.9h-15.6v-5h15.4c3.8,0,5.6-1.9,5.6-4.7s-1.8-4.7-5.6-4.7h-6.1c-5.8,0-10.3-3.9-10.3-9.7s4.5-9.4,10.3-9.4h15.7v5h-15.4c-3.3,0-4.8,1.9-4.8,4.3"/>
        <path class="st4" d="M285.1,5.9c2,0,3.8,1.7,3.8,3.9s-1.8,3.9-3.8,3.9-3.9-1.7-3.9-3.9,1.8-3.9,3.9-3.9M287.9,51.3h-5.7V17.8h5.7v33.5Z"/>
        <path class="st4" d="M295.3,17.8h5.5v5.3c2.7-4.3,6.7-6.2,10.3-6.2s8.5,2.4,10.6,6.6c3-4.9,7.5-6.6,11.5-6.6,6.6,0,12,5.3,12,13.1v21.3h-5.7v-20.1c0-6.4-3.4-9.2-7.3-9.2-5.6,0-9,4.4-9,12.3v17h-5.7v-20.1c0-6.4-3.4-9.2-7.4-9.2-5.6,0-9.2,4.4-9.2,12.3v17h-5.7V17.8Z"/>
      </g>
    </g>
  </g>
</svg>