<?xml version="1.0" encoding="utf-8"?>
<!-- Generator: Adobe Illustrator 25.0.1, SVG Export Plug-In . SVG Version: 6.00 Build 0)  -->
<svg version="1.1" id="Layer_1" xmlns="http://www.w3.org/2000/svg" xmlns:xlink="http://www.w3.org/1999/xlink" x="0px" y="0px"
	 viewBox="0 0 900 300" style="enable-background:new 0 0 900 300;" xml:space="preserve">
<style type="text/css">
	.st0{fill:#5B266C;}
	.st1{fill:#895AA4;}
	.st2{fill:#9C66AA;}
	.st3{fill:#4C4D4E;}
	.st4{fill:#9D906F;}
	.st5{fill:#C2B98E;}
	.st6{fill:#D4CBA4;}
	.st7{fill:#AE7D36;}
	.st8{fill:#BE8B37;}
	.st9{fill:#EEAA32;}
	.st10{fill:#577D40;}
	.st11{fill:#78A94E;}
	.st12{fill:#A4D06E;}
	.st13{fill:#006654;}
	.st14{fill:#108673;}
	.st15{fill:#0EA285;}
	.st16{fill:#43888D;}
	.st17{fill:#68B2C6;}
	.st18{fill:#9AD9EB;}
	.st19{fill:#001D27;}
	.st20{fill:#294146;}
	.st21{fill:#52656E;}
	.st22{fill:#4A4D4D;}
	.st23{fill:#BFBEBE;}
	.st24{fill:#14BEF0;}
	.st25{fill:#787A7A;}
	.st26{fill:#BFBFC0;}
	.st27{fill:#D3D4D6;}
	.st28{fill:#10BEF0;}
	.st29{fill:#7B7B7B;}
</style>
<g>
	<polygon class="st13" points="84.1,238.8 176.9,238.8 223.3,158.5 130.5,158.5 	"/>
	<polygon class="st14" points="110,146 64.2,66.6 17.8,146.9 64.2,227.3 110.5,146.9 	"/>
	<polygon class="st15" points="223.3,135.4 176.9,55.1 84.1,55.1 130.5,135.4 	"/>
	<g>
		<path class="st3" d="M287,155.1h27.2c8.1,0,13.9,2.8,17.4,8.5c3.5,5.7,5.2,14.1,5.2,25.2c0,10.9-1.9,19.2-5.7,25
			c-3.8,5.8-9.4,8.6-16.9,8.6H287V155.1z M313.4,214.2c9.4,0,14.2-8.5,14.2-25.4c0-6.4-0.5-11.5-1.5-15.2s-2.5-6.4-4.6-8
			c-2-1.6-4.7-2.4-8.1-2.4h-17.2v50.9H313.4z"/>
		<path class="st3" d="M348.1,219.7c-2.3-2.2-3.5-5.2-3.5-9v-3.8c0-3.9,1.3-7,4-9.4c2.6-2.3,6.5-3.5,11.7-3.5h15.3v-5.1
			c0-2-0.3-3.6-1-4.9c-0.7-1.2-1.9-2.2-3.6-2.9c-1.7-0.7-4.2-1-7.4-1h-15v-5.4c5.4-1.2,11.4-1.9,18.1-1.9c6.2,0,10.8,1.2,13.8,3.6
			c3,2.4,4.4,6.4,4.4,11.8v34.2h-7.2L376,217c-0.5,0.5-1.8,1.2-3.9,2.2c-2,1-4.4,1.9-7.1,2.7c-2.7,0.8-5.3,1.2-7.9,1.2
			C353.4,223,350.5,221.9,348.1,219.7z M366.8,215.6c2.1-0.5,4-1.1,5.8-1.7c1.8-0.6,2.8-1,3-1.1v-14.1l-12.8,0.5
			c-5.9,0.4-8.9,3-8.9,7.9v2.2c0,2.5,0.7,4.3,2.2,5.4c1.5,1.1,3.3,1.7,5.4,1.7C363,216.3,364.7,216.1,366.8,215.6z"/>
		<path class="st3" d="M403.1,218.7c-2.3-2.5-3.4-6.7-3.3-12.5l0.4-25.1h-7.8v-5.9l8-1.6l1.4-13.7h7.2v13.7h13.3v7.5h-13.3v25
			c0,3.3,0.6,5.6,1.9,6.9c1.2,1.3,2.8,2,4.7,2.2l6,0.5v6.8h-7.4C409.1,222.5,405.4,221.2,403.1,218.7z"/>
		<path class="st3" d="M432.2,219.7c-2.3-2.2-3.5-5.2-3.5-9v-3.8c0-3.9,1.3-7,4-9.4c2.7-2.3,6.5-3.5,11.7-3.5h15.3v-5.1
			c0-2-0.3-3.6-1-4.9c-0.7-1.2-1.9-2.2-3.6-2.9c-1.7-0.7-4.2-1-7.5-1h-15v-5.4c5.4-1.2,11.4-1.9,18.1-1.9c6.2,0,10.8,1.2,13.8,3.6
			c3,2.4,4.4,6.4,4.4,11.8v34.2h-7.2l-1.6-5.5c-0.5,0.5-1.8,1.2-3.9,2.2c-2,1-4.4,1.9-7.1,2.7c-2.7,0.8-5.3,1.2-7.9,1.2
			C437.5,223,434.6,221.9,432.2,219.7z M450.9,215.6c2.1-0.5,4-1.1,5.8-1.7c1.8-0.6,2.8-1,3-1.1v-14.1l-12.8,0.5
			c-5.9,0.4-8.9,3-8.9,7.9v2.2c0,2.5,0.7,4.3,2.2,5.4c1.5,1.1,3.3,1.7,5.4,1.7C447,216.3,448.8,216.1,450.9,215.6z"/>
		<path class="st3" d="M514.5,220.3c-3.4-1.8-5.9-5.2-7.6-10.1c-1.7-5-2.6-12.2-2.6-21.6c0-9,0.9-15.9,2.7-20.8
			c1.8-4.9,4.4-8.4,7.9-10.3c3.5-1.9,8.1-2.9,13.8-2.9c3.2,0,6.6,0.3,10.2,0.8c3.7,0.5,6.9,1.1,9.7,1.9v6.9c-2-0.3-4.6-0.6-8-0.9
			c-3.4-0.3-6.8-0.5-10.2-0.5c-4.3,0-7.7,0.7-10,2.1c-2.3,1.4-4.1,3.9-5.2,7.6c-1.1,3.7-1.6,9.1-1.6,16.2c0,7.3,0.5,12.8,1.6,16.5
			c1,3.7,2.7,6.2,5,7.6c2.3,1.4,5.7,2.1,10.1,2.1c7.4,0,13.5-0.4,18.4-1.1v7c-6.1,1.5-12.9,2.3-20.3,2.3
			C522.5,223,517.9,222.1,514.5,220.3z"/>
		<path class="st3" d="M562.3,218.9c-2.2-2.4-3.3-6.5-3.3-12.2v-54h9.1v52.8c0,3.6,0.5,6.1,1.5,7.4c1,1.3,2.6,2.2,4.8,2.5l4.6,0.5
			v6.6h-6.4C567.9,222.6,564.5,221.3,562.3,218.9z"/>
		<path class="st3" d="M593.2,220.7c-3-1.5-5.2-4.1-6.5-7.7c-1.3-3.6-2-8.6-2-15.1c0-6.6,0.7-11.7,2-15.3c1.3-3.6,3.5-6.1,6.4-7.6
			c3-1.5,7.1-2.2,12.4-2.2c4.6,0,8.3,0.5,11.1,1.5c2.7,1,4.8,2.7,6,5c1.3,2.4,1.9,5.7,1.9,9.9c0,4.3-1.3,7.4-3.7,9.4
			c-2.5,1.9-6.1,2.9-10.8,2.9h-16.2c0.1,3.7,0.5,6.6,1.2,8.6c0.8,2,2.1,3.5,4.2,4.4c2,0.9,4.9,1.4,8.7,1.4h15.3v5.5
			c-3.4,0.5-6.3,0.9-8.9,1.1c-2.6,0.3-5.5,0.4-8.7,0.4C600.3,223,596.2,222.2,593.2,220.7z M609.2,195.8c2.5,0,4.3-0.5,5.4-1.4
			c1.1-0.9,1.7-2.6,1.7-5c0-3.7-0.8-6.2-2.4-7.6c-1.6-1.4-4.4-2.1-8.4-2.1c-3.1,0-5.5,0.5-7.2,1.4c-1.7,0.9-2.9,2.5-3.6,4.8
			c-0.7,2.3-1.1,5.6-1.1,9.9H609.2z"/>
		<path class="st3" d="M636.5,219.7c-2.3-2.2-3.5-5.2-3.5-9v-3.8c0-3.9,1.3-7,4-9.4c2.6-2.3,6.5-3.5,11.7-3.5h15.3v-5.1
			c0-2-0.3-3.6-1-4.9c-0.7-1.2-1.9-2.2-3.6-2.9c-1.7-0.7-4.2-1-7.4-1h-15v-5.4c5.4-1.2,11.4-1.9,18.1-1.9c6.2,0,10.8,1.2,13.8,3.6
			c3,2.4,4.4,6.4,4.4,11.8v34.2H666l-1.6-5.5c-0.5,0.5-1.8,1.2-3.9,2.2c-2,1-4.4,1.9-7.1,2.7c-2.7,0.8-5.3,1.2-7.9,1.2
			C641.8,223,638.8,221.9,636.5,219.7z M655.2,215.6c2.1-0.5,4-1.1,5.8-1.7c1.8-0.6,2.8-1,3-1.1v-14.1l-12.8,0.5
			c-5.9,0.4-8.9,3-8.9,7.9v2.2c0,2.5,0.7,4.3,2.2,5.4c1.5,1.1,3.3,1.7,5.4,1.7C651.3,216.3,653.1,216.1,655.2,215.6z"/>
		<path class="st3" d="M685.6,173.6h7.3l1.8,5.3c2.4-1.8,5.1-3.2,8.1-4.4c3-1.2,6-1.7,9.1-1.7c5.2,0,9,1.6,11.4,4.7
			c2.4,3.1,3.7,7.2,3.7,12.1v32.9h-9.1v-31.8c0-2.9-0.8-5.3-2.5-7c-1.6-1.7-3.9-2.6-6.8-2.6c-2.6,0-4.9,0.4-7,1.1
			c-2.1,0.7-4.4,1.8-6.9,3.3v37h-9.1V173.6z"/>
		<path class="st3" d="M739.6,164.9c-0.3-0.3-0.5-0.7-0.5-1.1v-7.7c0-1.1,0.5-1.6,1.6-1.6h6.8c0.5,0,0.9,0.2,1.1,0.5
			c0.2,0.3,0.4,0.7,0.4,1.2v7.7c0,1-0.5,1.6-1.5,1.6h-6.8C740.3,165.3,739.9,165.2,739.6,164.9z M739.5,173.6h9.1v48.9h-9.1V173.6z"
			/>
		<path class="st3" d="M761.5,173.6h7.3l1.8,5.3c2.4-1.8,5.1-3.2,8.1-4.4c3-1.2,6-1.7,9.1-1.7c5.2,0,9,1.6,11.4,4.7
			c2.4,3.1,3.7,7.2,3.7,12.1v32.9h-9.1v-31.8c0-2.9-0.8-5.3-2.5-7c-1.6-1.7-3.9-2.6-6.8-2.6c-2.6,0-4.9,0.4-7,1.1
			c-2.1,0.7-4.4,1.8-6.9,3.3v37h-9.1V173.6z"/>
		<path class="st3" d="M859.9,178.7l-10,1c1.6,1.2,3,2.7,4,4.3c1,1.6,1.5,4.1,1.5,7.5c0,4.3-1.4,7.9-4.2,10.7
			c-2.8,2.8-7.2,4.2-13.3,4.2h-8c-5,0-7.5,1.5-7.5,4.6c0,1.3,0.5,2.2,1.4,2.8c0.9,0.6,2.1,0.9,3.4,0.9h15.4c5.7,0,9.9,1.1,12.8,3.3
			c2.8,2.2,4.2,5.7,4.2,10.5v1.7c0,4.7-1.5,8.3-4.6,10.9c-3.1,2.6-7.6,3.8-13.6,3.8h-14c-4.8,0-8.7-1-11.7-3.1c-3-2.1-4.4-5-4.4-8.9
			v-2c0-2.6,0.7-4.8,2.1-6.7c1.4-1.9,3.3-3.3,5.7-4.4c-1.5-0.8-2.7-1.8-3.5-3.2c-0.8-1.3-1.2-2.8-1.2-4.3c0-2.4,0.7-4.3,2.1-5.8
			c1.4-1.5,3.5-2.6,6.1-3.1c-3-1.3-5.2-3.3-6.5-5.8c-1.3-2.5-2-5.3-2-8.4c0-10.5,6.4-15.8,19.3-15.8h26.3V178.7z M829.6,221.7
			c-2.7,0-4.9,0.6-6.7,1.9c-1.8,1.3-2.7,3.2-2.7,5.7v1.7c0,4.9,3.3,7.3,9.8,7.3h10.7c3.3,0,5.9-0.6,7.7-1.9c1.9-1.3,2.8-3.2,2.8-5.8
			V229c0-2.3-0.8-4.1-2.3-5.3c-1.5-1.2-4-1.9-7.5-1.9H829.6z M844.8,196.9c1.5-1.6,2.2-3.8,2.2-6.5c0-6.6-3.1-9.9-9.4-9.9h-5.1
			c-3.2,0-5.7,0.7-7.4,2.2c-1.7,1.5-2.5,3.8-2.5,7.1c0,6.3,3,9.5,9,9.5h5.4C840.7,199.3,843.4,198.5,844.8,196.9z"/>
	</g>
	<g>
		<path class="st3" d="M288.2,136.7c-1.6-1.5-2.4-3.6-2.4-6.2v-2.3c0-2.7,0.9-4.9,2.7-6.5c1.8-1.6,4.4-2.4,7.7-2.4h12.3v-4.7
			c0-2.4-0.7-4.3-2-5.5c-1.3-1.2-3.7-1.8-7.2-1.8h-10.6V105c4.1-0.5,8-0.8,11.8-0.8c4,0,6.9,0.8,8.8,2.5c1.9,1.7,2.8,4.2,2.8,7.7
			v24.1h-2.8l-0.8-3.9c-0.3,0.2-1.3,0.7-2.9,1.4s-3.5,1.4-5.6,2c-2.1,0.6-4,0.9-5.8,0.9C291.8,138.9,289.8,138.2,288.2,136.7z
			 M300.6,135.3c1.9-0.5,3.5-1,5-1.5c1.5-0.5,2.4-0.9,2.9-1v-11.5l-11.8,0.4c-2.5,0.1-4.3,0.7-5.5,1.9c-1.2,1.2-1.8,2.7-1.8,4.7v1.6
			c0,2.2,0.6,3.7,1.9,4.7c1.3,1,2.8,1.5,4.5,1.5C297.2,136,298.8,135.7,300.6,135.3z"/>
		<path class="st3" d="M324.4,136.1c-1.4-1.6-2.1-4.4-2.1-8.4V90.2h3.7v37.2c0,2.1,0.2,3.7,0.6,4.9c0.4,1.1,0.9,1.9,1.6,2.4
			c0.7,0.5,1.7,0.8,2.8,0.9l3.7,0.4v2.6h-4.1C327.9,138.6,325.8,137.8,324.4,136.1z"/>
		<path class="st3" d="M344.9,138.7c-3-0.1-4.9-0.3-5.9-0.5V136h13.5c2.6,0,4.6-0.4,5.9-1.1c1.3-0.7,1.9-2.3,1.9-4.6v-1.6
			c0-1.7-0.6-3-1.7-4c-1.1-0.9-2.8-1.4-5.1-1.4h-4.6c-3.3,0-5.8-0.6-7.5-1.8c-1.7-1.2-2.6-3.3-2.6-6.3v-1.7c0-3.1,0.9-5.4,2.8-6.9
			c1.8-1.5,4.7-2.2,8.6-2.2c1.8,0,3.9,0.1,6.4,0.2c2.5,0.1,4.4,0.3,5.8,0.5v2.3h-12.7c-2.6,0-4.5,0.4-5.7,1.3
			c-1.2,0.9-1.9,2.4-1.9,4.7v1.5c0,2.1,0.6,3.5,1.8,4.1c1.2,0.7,3,1,5.5,1h4.6c3,0,5.3,0.7,7.1,2.1c1.7,1.4,2.6,3.4,2.6,6v2.2
			c0,3.2-1,5.4-3,6.6c-2,1.2-4.9,1.8-8.6,1.8C350.2,138.9,347.9,138.8,344.9,138.7z"/>
		<path class="st3" d="M373.3,98.2c-0.2-0.2-0.3-0.4-0.3-0.7V93c0-0.6,0.3-0.9,0.9-0.9h2.5c0.5,0,0.8,0.3,0.8,0.9v4.5
			c0,0.6-0.3,0.9-0.8,0.9H374C373.7,98.5,373.5,98.4,373.3,98.2z M373.4,104.8h3.7v33.7h-3.7V104.8z"/>
		<path class="st3" d="M388.6,104.8h2.7l0.9,3.8c4.3-2.9,8.7-4.4,13-4.4c2,0,3.8,0.5,5.3,1.4c1.5,0.9,2.7,2.2,3.5,3.7
			c1.7-1.3,3.9-2.5,6.6-3.5c2.7-1.1,5.2-1.6,7.5-1.6c3.4,0,6,1.1,7.8,3.2c1.8,2.1,2.7,4.8,2.7,8.1v23h-3.7v-22.8
			c0-2.4-0.7-4.3-2.1-5.9c-1.4-1.5-3.3-2.3-5.7-2.3c-2,0-4.1,0.4-6.3,1.1c-2.2,0.7-4.3,1.7-6.3,2.9c0.5,1.4,0.8,2.7,0.8,4.1v22.8
			h-3.7v-22.8c0-2.4-0.7-4.3-2.1-5.9c-1.4-1.5-3.3-2.3-5.7-2.3c-2.2,0-4.2,0.3-5.9,0.9c-1.7,0.6-3.7,1.5-5.9,2.7v27.4h-3.7V104.8z"
			/>
	</g>
</g>
</svg>
