<?xml version="1.0" encoding="UTF-8"?>
<svg id="Layer_1" xmlns="http://www.w3.org/2000/svg" version="1.1" viewBox="0 0 500 130">
  <!-- Generator: Adobe Illustrator 29.0.0, SVG Export Plug-In . SVG Version: 2.1.0 Build 186)  -->
  <defs>
    <style>
      .st0 {
        fill: #cdebfa;
      }

      .st1 {
        fill: #003966;
      }

      .st2 {
        fill: #d7d7d7;
      }

      .st3 {
        fill: #70706d;
      }

      .st4 {
        fill: #2d2d2d;
      }

      .st5 {
        fill: #0080ff;
      }
    </style>
  </defs>
  <g>
    <path class="st4" d="M163,73.4c-6.3,0-11.3,4.7-11.3,13s5,13,11.3,13,10.3-3.9,11-9.9h4.5c-.6,8.1-6.3,14-15.4,14s-15.9-7.2-15.9-17.1,6.6-17,16-17,14.7,5.9,15.3,13.7h-4.5c-.7-5.7-4.6-9.6-10.9-9.6Z"/>
    <path class="st4" d="M182.4,93.6v-23.6h4.1v23.4c0,3.5,2.2,5.7,5.4,5.7h.6v3.7h-1.3c-4.7,0-8.8-3.7-8.8-9.2Z"/>
    <path class="st4" d="M205.7,103.4c-6.5,0-12.1-4.7-12.1-12.9s5.6-12.8,12.1-12.8,12.1,4.6,12.1,12.8-5.6,12.9-12.1,12.9ZM205.7,99.6c4.2,0,7.8-3,7.8-9s-3.6-9-7.8-9-7.8,2.8-7.8,9,3.6,9,7.8,9Z"/>
    <path class="st4" d="M242.9,102.8h-4v-4c-1.8,3.3-5,4.6-7.9,4.6-5,0-9.2-3.7-9.2-9.5v-15.5h4.1v14.1c0,5.3,2.8,7.1,5.8,7.1,4.4,0,7.1-3.4,7.1-9.4v-11.8h4.1v24.3Z"/>
    <path class="st4" d="M270.9,102.8h-4v-3.2c-1.8,2.4-5,3.8-8.4,3.8-6,0-11.4-4.5-11.4-12.8s5.4-12.9,11.4-12.9,6.2,1.3,8.2,3.8v-11.6h4.1v32.8ZM259,99.6c4.4,0,7.9-2.9,7.9-9s-3.8-9-7.9-9-7.5,3.1-7.5,9.1,3.4,8.9,7.5,8.9Z"/>
  </g>
  <g>
    <path class="st3" d="M147.1,45.9c0-8,5.1-12.9,11.9-12.8,7.8,0,11.4,6.1,11.4,12.1s0,1.4-.1,2.1h-18.9c.4,5.4,3.8,7.7,7.8,7.7s6-1.7,6.8-4.4h4.2c-.8,4.7-5,8.1-11.1,8.1s-12-4.3-12-12.9ZM166,43.7c-.5-4.9-3.6-6.8-7.2-6.8s-6.8,2-7.4,6.8h14.6Z"/>
    <path class="st3" d="M177.6,40.4c0,1.7,1.1,3.1,3.5,3.1h4.4c4.6,0,8.2,2.8,8.2,7.4s-3.6,7.2-8.2,7.2h-11.3v-3.7h11.2c2.8,0,4.1-1.4,4.1-3.4s-1.3-3.4-4.1-3.4h-4.4c-4.2,0-7.5-2.9-7.5-7.1s3.3-6.8,7.5-6.8h11.4v3.7h-11.2c-2.4,0-3.5,1.4-3.5,3.1Z"/>
    <path class="st3" d="M200.8,40.4c0,1.7,1.1,3.1,3.5,3.1h4.4c4.6,0,8.2,2.8,8.2,7.4s-3.6,7.2-8.2,7.2h-11.3v-3.7h11.2c2.8,0,4.1-1.4,4.1-3.4s-1.3-3.4-4.1-3.4h-4.4c-4.2,0-7.5-2.9-7.5-7.1s3.3-6.8,7.5-6.8h11.4v3.7h-11.2c-2.4,0-3.5,1.4-3.5,3.1Z"/>
  </g>
  <g>
    <path class="st1" d="M122.2,60.9l-23.4-40.5c-1.3-2.2-3.6-3.5-6.1-3.5h-46.7c-2.5,0-4.9,1.3-6.1,3.5l-23.4,40.5c-1.3,2.2-1.3,4.9,0,7.1l23.4,40.5c1.3,2.2,3.6,3.5,6.1,3.5h46.7c2.5,0,4.9-1.3,6.1-3.5l23.4-40.5c1.3-2.2,1.3-4.9,0-7.1Z"/>
    <path class="st0" d="M95.9,50.8c0-.4,0-.9,0-1.3,0-8-6.5-14.5-14.5-14.5s-5,.7-7.1,1.9c-3.5-3.1-8-5.1-13.1-5.1-10.7,0-19.4,8.7-19.5,19.4-5.2,1.8-8.9,6.7-8.9,12.5s5.9,13.3,13.3,13.3h46.3c7.3,0,13.3-5.9,13.3-13.3s-4.2-11.3-9.9-12.8Z"/>
    <rect class="st2" x="49" y="91" width="40.7" height="5.8"/>
    <path class="st5" d="M71.9,52.9c-1.5-1.5-3.6-1.5-5.1,0l-12.2,12.2,2,2,11.4-11.4v31.6h2.9v-31.6l11.3,11.3,2-2-12.2-12.2Z"/>
  </g>
</svg>