<?xml version="1.0" encoding="UTF-8"?>
<!-- Generator: Adobe Illustrator 25.0.1, SVG Export Plug-In . SVG Version: 6.00 Build 0)  -->
<svg version="1.1" id="Layer_1" xmlns="http://www.w3.org/2000/svg" xmlns:xlink="http://www.w3.org/1999/xlink" x="0px" y="0px" viewBox="0 0 500 500" style="enable-background:new 0 0 500 500;" xml:space="preserve">
<style type="text/css">
	.st0{fill:#BFBEBE;}
	.st1{fill:#14BEF0;}
	.st2{fill:#787A7A;}
	.st3{fill:#BFBFC0;}
	.st4{fill:#D3D4D6;}
	.st5{fill:#10BEF0;}
</style>
<g>
	<polygon class="st0" points="210.8,156.9 157.5,249.2 210.8,341.5 264.1,249.2  "/>
	<polygon class="st1" points="395.1,235.2 341.7,142.8 235,142.8 288.3,235.2  "/>
	<polygon class="st2" points="235,355.6 341.7,355.6 395.1,263.2 288.3,263.2  "/>
	<polygon class="st3" points="50.3,250 103.6,157.8 86.7,128.6 16.6,250 86.7,371.4 103.6,342.2  "/>
	<polygon class="st2" points="396.2,449.7 289,449.7 272.1,478.9 413.1,478.9 483.3,357.2 449.6,357.2  "/>
	<polygon class="st4" points="396.2,50.3 449.7,142.9 483.4,142.9 413.1,21.1 272.1,21.1 288.9,50.3  "/>
</g>
</svg>