<?xml version="1.0" encoding="UTF-8"?>
<svg id="Layer_1" data-name="Layer 1" xmlns="http://www.w3.org/2000/svg" xmlns:xlink="http://www.w3.org/1999/xlink" viewBox="0 0 500 130">
  <defs>
    <style>
      .cls-1 {
        fill: none;
      }

      .cls-2 {
        fill: #efe4f5;
      }

      .cls-3 {
        fill: #24282b;
      }

      .cls-4 {
        clip-path: url(#clippath-1);
      }

      .cls-5 {
        fill: #787878;
      }

      .cls-6 {
        clip-path: url(#clippath);
      }
    </style>
    <clipPath id="clippath">
      <rect class="cls-1" x="15.46" y="17.04" width="431.55" height="95.92"/>
    </clipPath>
    <clipPath id="clippath-1">
      <rect class="cls-1" x="15.46" y="17.04" width="431.55" height="95.92"/>
    </clipPath>
  </defs>
  <g id="Spray_Waxing" data-name="Spray Waxing">
    <g class="cls-6">
      <g class="cls-4">
        <path class="cls-2" d="M92.84,17.04h-46.4c-2.78,0-5.34,1.48-6.73,3.89l-23.2,40.18c-1.39,2.41-1.39,5.37,0,7.78l23.2,40.18c1.39,2.41,3.96,3.89,6.73,3.89h46.4c2.78,0,5.34-1.48,6.73-3.89l23.2-40.18c1.39-2.41,1.39-5.37,0-7.78l-23.2-40.18c-1.39-2.41-3.96-3.89-6.73-3.89"/>
        <path class="cls-3" d="M76.47,76.19l1.47-1.1c.38-.28.31-1.01-.14-1.63l-3.43-4.59c-.46-.62-1.14-.88-1.52-.6l-1.47,1.1c-.38.28-.31,1.01.14,1.63l3.43,4.59c.46.61,1.14.88,1.52.6"/>
        <path class="cls-3" d="M82.95,84.88l1.47-1.1c.38-.28.31-1.01-.14-1.63l-3.43-4.59c-.46-.62-1.14-.88-1.52-.6l-1.47,1.1c-.38.28-.31,1.01.14,1.63l3.43,4.59c.46.61,1.14.88,1.52.6"/>
        <path class="cls-3" d="M89.09,93.12l1.47-1.1c.38-.28.31-1.01-.14-1.63l-3.43-4.59c-.46-.62-1.14-.88-1.52-.6l-1.47,1.1c-.38.28-.31,1.01.14,1.63l3.43,4.59c.46.62,1.14.88,1.52.6"/>
        <path class="cls-3" d="M82.48,71.36l-1.29,1.3c-.33.34-1.04.17-1.59-.37l-4.07-4.03c-.55-.54-.72-1.25-.38-1.59l1.29-1.3c.33-.34,1.04-.17,1.59.37l4.07,4.03c.55.54.72,1.25.38,1.59"/>
        <path class="cls-3" d="M90.1,78.5l-1.29,1.3c-.33.34-1.04.17-1.59-.37l-4.07-4.03c-.55-.54-.72-1.25-.38-1.59l1.29-1.3c.33-.34,1.04-.17,1.59.37l4.07,4.03c.55.54.72,1.25.38,1.59"/>
        <path class="cls-3" d="M97.3,85.3l-1.29,1.3c-.33.34-1.04.17-1.59-.37l-4.07-4.03c-.55-.54-.72-1.25-.38-1.59l1.29-1.3c.33-.34,1.04-.17,1.59.37l4.07,4.03c.55.54.72,1.25.38,1.59"/>
        <path class="cls-3" d="M86.24,65.94l-.89,1.61c-.23.41-.96.45-1.63.08l-5.02-2.76c-.67-.37-1.03-1.01-.8-1.42l.89-1.61c.23-.41.96-.45,1.63-.08l5.02,2.76c.67.37,1.03,1.01.8,1.42"/>
        <path class="cls-3" d="M95.53,71l-.89,1.61c-.23.41-.96.45-1.63.08l-5.02-2.76c-.67-.37-1.03-1.01-.8-1.42l.89-1.61c.23-.41.96-.45,1.63-.08l5.02,2.76c.67.37,1.03,1.01.8,1.42"/>
        <path class="cls-3" d="M104.11,75.82l-.89,1.61c-.23.41-.96.45-1.63.08l-5.02-2.76c-.67-.37-1.03-1.01-.8-1.42l.89-1.61c.23-.41.96-.45,1.63-.08l5.02,2.76c.67.37,1.03,1.01.8,1.42"/>
        <path class="cls-3" d="M89.61,59.07l-.41,1.79c-.11.46-.8.7-1.55.52l-5.58-1.28c-.75-.17-1.27-.68-1.16-1.15l.41-1.79c.11-.46.8-.7,1.55-.52l5.58,1.28c.75.17,1.27.68,1.16,1.15"/>
        <path class="cls-3" d="M99.93,61.4l-.41,1.79c-.11.46-.8.7-1.55.52l-5.58-1.28c-.75-.17-1.27-.68-1.16-1.15l.41-1.79c.11-.46.8-.7,1.55-.52l5.58,1.28c.75.17,1.27.68,1.16,1.15"/>
        <path class="cls-3" d="M109.52,63.83l-.41,1.79c-.11.46-.8.69-1.55.52l-5.58-1.28c-.75-.17-1.27-.68-1.16-1.15l.41-1.79c.11-.46.8-.69,1.55-.52l5.58,1.28c.75.17,1.27.68,1.16,1.15"/>
        <path class="cls-3" d="M60.21,82.45l-1.84-.06c-.47-.02-.83-.65-.81-1.42l.19-5.73c.03-.77.43-1.38.9-1.36l1.84.06c.47.02.83.65.81,1.42l-.19,5.73c-.03.77-.43,1.38-.9,1.36"/>
        <path class="cls-3" d="M59.9,93.02l-1.84-.06c-.47-.02-.83-.65-.81-1.42l.19-5.73c.03-.77.43-1.38.9-1.36l1.84.06c.47.02.83.65.81,1.42l-.19,5.73c-.03.77-.43,1.38-.9,1.36"/>
        <path class="cls-3" d="M59.27,103.71l-1.84-.06c-.47-.02-.83-.65-.81-1.42l.19-5.73c.03-.77.43-1.38.9-1.36l1.84.06c.47.02.83.65.81,1.42l-.19,5.73c-.03.77-.43,1.38-.9,1.36"/>
        <path class="cls-3" d="M71.61,79.81l1.62-.87c.42-.22.46-.95.1-1.63l-2.71-5.05c-.36-.68-.99-1.04-1.41-.82l-1.62.87c-.42.22-.46.95-.1,1.63l2.71,5.05c.36.68.99,1.04,1.41.82"/>
        <path class="cls-3" d="M76.28,89.16l1.62-.87c.42-.22.46-.95.1-1.63l-2.71-5.05c-.36-.68-.99-1.04-1.41-.82l-1.62.87c-.42.22-.46.95-.1,1.63l2.71,5.05c.36.68.99,1.04,1.41.82"/>
        <path class="cls-3" d="M80.74,97.99l1.62-.87c.42-.22.46-.95.1-1.63l-2.71-5.05c-.36-.68-.99-1.04-1.41-.82l-1.62.87c-.42.22-.46.95-.1,1.63l2.71,5.05c.36.68.99,1.04,1.41.82"/>
        <path class="cls-3" d="M65.34,81.87l1.79-.39c.46-.1.7-.79.54-1.54l-1.22-5.6c-.16-.75-.67-1.28-1.13-1.18l-1.79.39c-.46.1-.7.79-.54,1.54l1.22,5.6c.16.75.67,1.28,1.13,1.18"/>
        <path class="cls-3" d="M67.54,92.22l1.79-.39c.46-.1.7-.79.54-1.54l-1.22-5.6c-.16-.75-.67-1.28-1.13-1.18l-1.79.39c-.46.1-.7.79-.54,1.54l1.22,5.6c.16.75.67,1.28,1.13,1.18"/>
        <path class="cls-3" d="M70.07,102.62l1.79-.39c.46-.1.7-.79.54-1.54l-1.22-5.6c-.16-.75-.67-1.28-1.13-1.18l-1.79.39c-.46.1-.7.79-.54,1.54l1.22,5.6c.16.75.67,1.28,1.13,1.18"/>
        <path class="cls-3" d="M52.9,70.37c-.53,0-1.05-.2-1.45-.6l-16.55-16.47c-.39-.39-.61-.91-.61-1.46,0-.55.22-1.07.6-1.46l9.19-9.19s0,0,.01-.01l13.24-13.03c.81-.79,2.11-.79,2.9.01l16.44,16.44c.81.8.81,2.11,0,2.92l-7.36,7.36,2.65,2.65c.81.8.81,2.11,0,2.92l-5.56,5.56c-.39.39-.86.64-1.47.6-.55,0-1.08-.23-1.46-.62l-2.64-2.7-6.48,6.48c-.4.4-.93.6-1.46.6M39.27,51.83l13.63,13.56,6.5-6.5c.39-.39.98-.62,1.47-.6.55,0,1.08.23,1.46.62l2.64,2.7,2.63-2.63-2.65-2.65c-.81-.8-.81-2.11,0-2.92l7.36-7.36-13.53-13.53-11.78,11.59-7.73,7.73Z"/>
        <rect class="cls-3" x="59.74" y="55.56" width="7.8" height="4.12" transform="translate(-22.1 61.88) rotate(-45)"/>
        <path d="M147.42,78.24c0,2.52,1.98,5.1,5.34,5.1h5.49c6.23,0,11.28,4.55,11.28,10.34s-5.05,9.9-11.28,9.9h-14.6v-4.16h14.4c4.21,0,6.73-2.23,6.73-5.59s-2.52-5.54-6.73-5.54h-5.54c-5.44,0-9.75-4.45-9.75-9.9s4.31-9.45,9.75-9.45h15.54v4.16h-15.29c-3.36,0-5.34,2.62-5.34,5.15"/>
        <path d="M173.74,77.84h4.26v3.46c2.18-2.72,5.2-4.16,8.81-4.16,6.33,0,12.07,4.95,12.07,13.61s-5.69,13.51-12.02,13.51c-3.61,0-6.93-1.53-8.86-4.06v11.28h-4.26v-33.65ZM186.31,100.26c4.35,0,7.97-3.41,7.97-9.45,0-6.38-3.12-9.65-7.97-9.65-4.31,0-8.31,2.97-8.31,9.55s3.71,9.55,8.31,9.55"/>
        <path d="M203.34,77.84h4.26v4.5c1.39-3.46,4.4-4.8,6.73-4.8h2.57v4.26h-3.17c-3.02,0-6.04,2.67-6.04,7.62v14.15h-4.35v-25.73Z"/>
        <path d="M218.63,96.74c0-3.81,2.92-7.13,7.82-7.62,5.64-.59,9.3-.59,10.59-1.58v-.79c0-3.51-2.87-5.59-6.68-5.59s-6.78,1.93-6.88,5.79h-4.4c.1-5.79,5-9.8,11.38-9.8,5.69,0,10.84,3.56,10.94,9.8v9.7c0,2.08,1.04,3.07,3.07,3.07h.59v3.86h-1.34c-2.62,0-4.95-1.09-6.04-3.71-1.78,2.67-5.44,4.4-9.99,4.4-5.05,0-9.06-2.42-9.06-7.52M228.03,100.36c4.8,0,9.01-3.02,9.01-6.88v-2.03c-1.09.79-4.31.84-9.65,1.34-2.57.25-4.25,1.39-4.25,3.81s1.93,3.76,4.9,3.76"/>
        <path d="M245.65,111.49v-3.86h.74c4.8,0,7.32-1.63,8.56-5l-10.64-24.79h4.8l8.16,19.35,8.07-19.35h4.7l-10.84,25.73c-2.13,5-5.59,7.92-12.12,7.92h-1.44Z"/>
        <polygon points="282.91 68.94 287.96 68.94 296.42 97.29 304.04 68.94 308.89 68.94 316.86 97.39 325.12 68.94 330.07 68.94 319.88 103.57 313.99 103.57 306.52 77.2 299.29 103.57 293.36 103.57 282.91 68.94"/>
        <path d="M330.08,96.74c0-3.81,2.92-7.13,7.82-7.62,5.64-.59,9.3-.59,10.59-1.58v-.79c0-3.51-2.87-5.59-6.68-5.59s-6.78,1.93-6.88,5.79h-4.4c.1-5.79,5-9.8,11.38-9.8,5.69,0,10.84,3.56,10.94,9.8v9.7c0,2.08,1.04,3.07,3.07,3.07h.59v3.86h-1.34c-2.62,0-4.95-1.09-6.04-3.71-1.78,2.67-5.44,4.4-9.99,4.4-5.05,0-9.06-2.42-9.06-7.52M339.48,100.36c4.8,0,9.01-3.02,9.01-6.88v-2.03c-1.09.79-4.31.84-9.65,1.34-2.57.25-4.25,1.39-4.25,3.81s1.93,3.76,4.9,3.76"/>
        <polygon points="367.24 90.36 358.19 77.84 363.48 77.84 370.01 86.9 376.49 77.84 381.64 77.84 372.63 90.46 382.09 103.57 376.74 103.57 369.81 93.92 362.94 103.57 357.74 103.57 367.24 90.36"/>
        <path d="M387.78,68.69c1.53,0,2.92,1.34,2.92,2.97s-1.39,3.02-2.92,3.02-2.97-1.34-2.97-3.02,1.39-2.97,2.97-2.97M389.96,103.57h-4.35v-25.73h4.35v25.73Z"/>
        <path d="M395.65,77.84h4.26v4.06c2.03-3.32,5.49-4.75,8.46-4.75,5.34,0,9.85,3.91,9.85,10.04v16.38h-4.35v-14.94c0-5.59-2.97-7.52-6.24-7.52-4.55,0-7.62,3.36-7.62,9.45v13.01h-4.35v-25.73Z"/>
        <path d="M425.39,111.49v-3.86h10.14c3.56,0,7.13-1.44,7.13-6.14v-2.87c-1.88,2.38-5,3.96-8.36,3.96-5.84,0-11.63-4.45-11.63-12.67s5.79-12.77,11.63-12.77c3.32,0,6.24,1.19,8.46,3.81v-3.12h4.26v23.9c0,6.83-5.59,9.75-11.48,9.75h-10.14ZM434.84,98.58c3.91,0,7.92-2.67,7.92-8.71s-4.21-8.71-7.92-8.71c-4.26,0-7.52,2.77-7.52,8.81,0,5.69,3.76,8.61,7.52,8.61"/>
        <path class="cls-5" d="M143.19,51.89c0-3.65,2.79-6.82,7.48-7.29,5.4-.57,8.9-.57,10.13-1.51v-.76c0-3.36-2.75-5.35-6.39-5.35s-6.49,1.85-6.58,5.54h-4.21c.09-5.54,4.78-9.37,10.89-9.37,5.44,0,10.37,3.41,10.46,9.37v9.28c0,1.99.99,2.93,2.93,2.93h.57v3.69h-1.28c-2.51,0-4.73-1.04-5.78-3.55-1.71,2.56-5.21,4.21-9.56,4.21-4.83,0-8.66-2.32-8.66-7.2M152.19,55.35c4.59,0,8.62-2.89,8.62-6.58v-1.94c-1.04.76-4.12.81-9.23,1.28-2.46.24-4.07,1.33-4.07,3.64s1.85,3.6,4.69,3.6"/>
        <path class="cls-5" d="M171.54,49.15v-23.86h4.17v23.67c0,3.55,2.27,5.78,5.49,5.78h.57v3.69h-1.33c-4.78,0-8.9-3.74-8.9-9.28"/>
        <path class="cls-5" d="M187.68,40.58c0,1.7,1.14,3.12,3.55,3.12h4.4c4.68,0,8.33,2.79,8.33,7.48s-3.65,7.24-8.33,7.24h-11.46v-3.69h11.32c2.79,0,4.12-1.37,4.12-3.46,0-1.89-1.32-3.45-4.12-3.45h-4.5c-4.26,0-7.57-2.89-7.57-7.15s3.31-6.91,7.57-6.91h11.55v3.69h-11.32c-2.41,0-3.55,1.42-3.55,3.12"/>
        <path class="cls-5" d="M210.36,25.05c1.47,0,2.79,1.28,2.79,2.84s-1.32,2.89-2.79,2.89-2.84-1.28-2.84-2.89,1.32-2.84,2.84-2.84M212.44,58.43h-4.16v-24.62h4.16v24.62Z"/>
        <path class="cls-5" d="M217.88,33.81h4.07v3.88c1.99-3.17,4.92-4.54,7.53-4.54,3.31,0,6.25,1.75,7.77,4.88,2.23-3.6,5.54-4.88,8.43-4.88,4.88,0,8.81,3.88,8.81,9.61v15.67h-4.17v-14.77c0-4.69-2.46-6.72-5.35-6.72-4.12,0-6.63,3.22-6.63,9.04v12.45h-4.17v-14.77c0-4.69-2.51-6.72-5.4-6.72-4.12,0-6.72,3.22-6.72,9.04v12.45h-4.16v-24.62Z"/>
      </g>
    </g>
  </g>
</svg>