<?xml version="1.0" encoding="UTF-8"?>
<svg id="Layer_1" data-name="Layer 1" xmlns="http://www.w3.org/2000/svg" xmlns:xlink="http://www.w3.org/1999/xlink" viewBox="0 0 500 130">
  <defs>
    <style>
      .cls-1 {
        fill: none;
      }

      .cls-2 {
        fill: #efe4f5;
      }

      .cls-3 {
        fill: #2f3234;
      }

      .cls-4 {
        fill: #757575;
      }

      .cls-5 {
        clip-path: url(#clippath-1);
      }

      .cls-6 {
        clip-path: url(#clippath);
      }
    </style>
    <clipPath id="clippath">
      <rect class="cls-1" x="15.46" y="17.04" width="303.47" height="95.92"/>
    </clipPath>
    <clipPath id="clippath-1">
      <rect class="cls-1" x="15.46" y="17.04" width="303.47" height="95.92"/>
    </clipPath>
  </defs>
  <g id="DipPaint">
    <g class="cls-6">
      <g class="cls-5">
        <path class="cls-2" d="M123.06,61.44l-23.58-40.83c-1.27-2.2-3.62-3.56-6.17-3.56h-47.15c-2.55,0-4.9,1.36-6.17,3.56l-23.58,40.83c-1.27,2.2-1.27,4.92,0,7.13l23.58,40.83c1.27,2.2,3.62,3.56,6.17,3.56h47.15c2.55,0,4.9-1.36,6.17-3.56l23.58-40.83c1.27-2.2,1.27-4.92,0-7.13"/>
        <path class="cls-3" d="M96.86,67.79c-2.95-2.06-6.71-4.27-9.94-5.82-.71-1.24-2.97-5.15-5.56-8.99-1.79-2.66-4.66-3.48-4.98-3.57l-15.08-4.18c-7.79-2.36-18.64,1.74-22.95,3.62-.85.37-1.49,1.1-1.75,1.99-.26.89-.11,1.85.4,2.62h0s-1.98,5.51-1.98,5.51c-.34.95-.15,2.01.5,2.77l2.47,2.9.13.1c.52.4,1.19.54,1.83.4.64-.14,1.18-.56,1.49-1.14,1.69-3.2,5.45-4.76,8.92-3.7,3.74,1.14,6.03,5.02,5.22,8.84-.25,1.17.43,2.32,1.57,2.67l19.03,5.79c1.02.31,2.12-.23,2.49-1.23,1.27-3.35,4.95-5.16,8.39-4.12,3.42,1.04,5.47,4.58,4.68,8.05-.24,1.07.39,2.15,1.43,2.46l1.68.5c1.82.55,2.91.84,3.76.84.17,0,.33-.01.48-.03,1.65-.24,2.08-1.67,2.31-2.43l.31-1c.43-1.42.2-2.35.04-3.03-.12-.48-.17-.7-.04-1.15.14-.46.21-.66.28-.86.1-.26.18-.51.36-1.14.57-2.06-2.31-4.42-5.51-6.66M51.2,57.55c-4.48-1.36-9.3.43-11.81,4.29l-1.63-1.92,2.46-6.83-.82-1.22c-.05-.08-.05-.16-.03-.21.02-.05.05-.12.14-.16,12.06-5.25,18.69-4.19,20.98-3.5l15.14,4.2h.03s2.1.58,3.33,2.4c1.86,2.77,3.56,5.58,4.6,7.35h-26.62c-1.3-2.04-3.3-3.64-5.76-4.39"/>
        <path class="cls-4" d="M142.96,51.75c0-3.66,2.8-6.84,7.5-7.31,5.41-.57,8.93-.57,10.16-1.52v-.76c0-3.37-2.52-5.37-6.17-5.37-3.42,0-6.32,1.85-6.41,5.56h-4.23c.1-5.56,4.8-9.4,10.73-9.4,5.46,0,10.16,3.42,10.26,9.4v9.31c0,1.99,1,2.94,2.94,2.94h.57v3.7h-1.28c-2.52,0-4.75-1.04-5.79-3.56-1.71,2.56-5.22,4.23-9.59,4.23-4.84,0-8.69-2.33-8.69-7.22M151.98,55.22c4.61,0,8.64-2.9,8.64-6.6v-1.95c-1.04.76-4.13.81-9.26,1.28-2.47.24-4.08,1.33-4.08,3.66s1.85,3.61,4.7,3.61"/>
        <path class="cls-4" d="M171.4,49v-23.93h4.18v23.74c0,3.56,2.28,5.79,5.51,5.79h.57v3.7h-1.33c-4.8,0-8.93-3.75-8.93-9.31"/>
        <path class="cls-4" d="M187.59,40.4c0,1.71,1.14,3.13,3.56,3.13h4.42c4.7,0,8.36,2.8,8.36,7.5s-3.66,7.27-8.36,7.27h-11.49v-3.7h11.35c2.8,0,4.13-1.38,4.13-3.47,0-1.9-1.33-3.47-4.13-3.47h-4.51c-4.27,0-7.6-2.9-7.6-7.17s3.32-6.93,7.6-6.93h11.59v3.7h-11.35c-2.42,0-3.56,1.42-3.56,3.13"/>
        <path class="cls-4" d="M210.34,24.83c1.47,0,2.8,1.28,2.8,2.85s-1.33,2.9-2.8,2.9-2.85-1.28-2.85-2.9,1.33-2.85,2.85-2.85M212.43,58.3h-4.18v-24.69h4.18v24.69Z"/>
        <path class="cls-4" d="M217.89,33.61h4.08v3.89c1.99-3.18,4.94-4.56,7.55-4.56,3.32,0,6.27,1.76,7.79,4.89,2.23-3.61,5.56-4.89,8.45-4.89,4.89,0,8.83,3.89,8.83,9.64v15.72h-4.18v-14.81c0-4.7-2.47-6.74-5.37-6.74-4.13,0-6.65,3.23-6.65,9.07v12.49h-4.18v-14.81c0-4.7-2.52-6.74-5.41-6.74-4.13,0-6.74,3.23-6.74,9.07v12.49h-4.18v-24.69Z"/>
        <path d="M171.64,87.02c0,10.4-6.32,16.71-15.76,16.71h-11.73v-33.24h11.73c9.45,0,15.76,6.13,15.76,16.52M155.54,99.74c6.65,0,11.44-4.18,11.44-12.63s-4.8-12.63-11.44-12.63h-6.89v25.26h6.89Z"/>
        <path d="M178.28,70.26c1.47,0,2.8,1.28,2.8,2.85s-1.33,2.9-2.8,2.9-2.85-1.28-2.85-2.9,1.33-2.85,2.85-2.85M180.37,103.73h-4.18v-24.69h4.18v24.69Z"/>
        <path d="M185.83,79.04h4.08v3.32c2.09-2.61,4.99-3.99,8.45-3.99,6.08,0,11.59,4.75,11.59,13.06s-5.46,12.96-11.54,12.96c-3.47,0-6.65-1.47-8.5-3.89v10.83h-4.08v-32.29ZM197.9,100.55c4.18,0,7.64-3.28,7.64-9.07,0-6.13-2.99-9.26-7.64-9.26-4.13,0-7.98,2.85-7.98,9.16s3.56,9.16,7.98,9.16"/>
        <path d="M214.71,70.49h14.58c5.7,0,10.45,4.04,10.45,10.16s-4.75,10.16-10.45,10.16h-10.07v12.92h-4.51v-33.24ZM228.71,86.83c3.56,0,6.41-1.99,6.41-6.12s-2.85-6.22-6.41-6.22h-9.5v12.35h9.5Z"/>
        <path d="M241.15,97.18c0-3.66,2.8-6.84,7.5-7.31,5.41-.57,8.93-.57,10.16-1.52v-.76c0-3.37-2.52-5.37-6.17-5.37-3.42,0-6.32,1.85-6.41,5.56h-4.23c.1-5.56,4.8-9.4,10.73-9.4,5.46,0,10.16,3.42,10.26,9.4v9.31c0,1.99,1,2.94,2.94,2.94h.57v3.7h-1.28c-2.52,0-4.75-1.05-5.79-3.56-1.71,2.56-5.22,4.23-9.59,4.23-4.84,0-8.69-2.33-8.69-7.22M250.18,100.64c4.61,0,8.64-2.9,8.64-6.6v-1.95c-1.04.76-4.13.81-9.26,1.28-2.47.24-4.08,1.33-4.08,3.66s1.85,3.61,4.7,3.61"/>
        <path d="M272.21,70.26c1.47,0,2.8,1.28,2.8,2.85s-1.33,2.9-2.8,2.9-2.85-1.28-2.85-2.9,1.33-2.85,2.85-2.85M274.3,103.73h-4.18v-24.69h4.18v24.69Z"/>
        <path d="M279.76,79.04h4.08v3.89c1.95-3.18,5.27-4.56,8.12-4.56,5.13,0,9.45,3.75,9.45,9.64v15.72h-4.18v-14.34c0-5.37-2.85-7.22-5.98-7.22-4.37,0-7.31,3.23-7.31,9.07v12.49h-4.18v-24.69Z"/>
        <path d="M308.06,94.19v-11.44h-4.51v-3.7h4.51v-5.56l4.18-2.28v7.83h6.36v3.7h-6.36v11.21c0,3.61,2.37,6.08,5.98,6.08h.71v3.7h-1.19c-5.03,0-9.69-3.47-9.69-9.54"/>
      </g>
    </g>
  </g>
</svg>