<?xml version="1.0" encoding="UTF-8"?>
<svg id="Layer_1" data-name="Layer 1" xmlns="http://www.w3.org/2000/svg" xmlns:xlink="http://www.w3.org/1999/xlink" viewBox="0 0 500 130">
  <defs>
    <style>
      .cls-1 {
        fill: none;
      }

      .cls-2 {
        fill: #1d1d1b;
      }

      .cls-3 {
        fill: #ebe0f1;
      }

      .cls-4 {
        clip-path: url(#clippath-1);
      }

      .cls-5 {
        fill: #787878;
      }

      .cls-6 {
        clip-path: url(#clippath);
      }
    </style>
    <clipPath id="clippath">
      <rect class="cls-1" x="15.46" y="17.12" width="395.34" height="95.77"/>
    </clipPath>
    <clipPath id="clippath-1">
      <rect class="cls-1" x="15.46" y="17.12" width="395.34" height="95.77"/>
    </clipPath>
  </defs>
  <g id="Top_Coating" data-name="Top Coating">
    <g class="cls-6">
      <polygon points="158.17 73.02 158.17 103.5 153.47 103.5 153.47 73.02 142.04 73.02 142.04 68.86 169.6 68.86 169.6 73.02 158.17 73.02"/>
      <g class="cls-4">
        <path d="M180.39,104.19c-6.83,0-12.77-4.95-12.77-13.61s5.94-13.51,12.77-13.51,12.77,4.85,12.77,13.51-5.94,13.61-12.77,13.61M180.39,100.18c4.45,0,8.26-3.17,8.26-9.55s-3.81-9.55-8.26-9.55-8.26,2.92-8.26,9.55,3.81,9.55,8.26,9.55"/>
        <path d="M197.61,77.77h4.26v3.46c2.18-2.72,5.2-4.16,8.81-4.16,6.33,0,12.07,4.95,12.07,13.61s-5.69,13.51-12.02,13.51c-3.61,0-6.93-1.53-8.86-4.06v11.28h-4.26v-33.65ZM210.18,100.18c4.35,0,7.97-3.41,7.97-9.45,0-6.38-3.12-9.65-7.97-9.65-4.31,0-8.31,2.97-8.31,9.55s3.71,9.55,8.31,9.55"/>
        <path d="M254.67,72.47c-6.68,0-11.97,5-11.97,13.71s5.29,13.71,11.92,13.71,10.89-4.16,11.58-10.44h4.75c-.64,8.56-6.68,14.75-16.28,14.75s-16.82-7.57-16.82-18.06,7.03-17.96,16.92-17.96c9.2,0,15.54,6.23,16.18,14.5h-4.75c-.69-5.99-4.85-10.19-11.53-10.19"/>
        <path d="M287.19,104.19c-6.83,0-12.77-4.95-12.77-13.61s5.94-13.51,12.77-13.51,12.77,4.85,12.77,13.51-5.94,13.61-12.77,13.61M287.19,100.18c4.45,0,8.26-3.17,8.26-9.55s-3.81-9.55-8.26-9.55-8.26,2.92-8.26,9.55,3.81,9.55,8.26,9.55"/>
        <path d="M303.67,96.67c0-3.81,2.92-7.13,7.82-7.62,5.64-.59,9.3-.59,10.59-1.58v-.79c0-3.51-2.87-5.59-6.68-5.59s-6.78,1.93-6.88,5.79h-4.4c.1-5.79,5-9.8,11.38-9.8,5.69,0,10.84,3.56,10.94,9.8v9.7c0,2.08,1.04,3.07,3.07,3.07h.59v3.86h-1.34c-2.62,0-4.95-1.09-6.04-3.71-1.78,2.67-5.44,4.4-9.99,4.4-5.05,0-9.06-2.42-9.06-7.52M313.07,100.28c4.8,0,9.01-3.02,9.01-6.88v-2.03c-1.09.79-4.31.84-9.65,1.34-2.57.25-4.25,1.39-4.25,3.81s1.93,3.76,4.9,3.76"/>
        <path d="M334.55,93.55v-11.93h-4.7v-3.86h4.7v-5.79l4.35-2.37v8.16h6.63v3.86h-6.63v11.68c0,3.76,2.47,6.33,6.24,6.33h.74v3.86h-1.24c-5.24,0-10.09-3.61-10.09-9.95"/>
        <path d="M351.57,68.61c1.53,0,2.92,1.34,2.92,2.97s-1.39,3.02-2.92,3.02-2.97-1.34-2.97-3.02,1.39-2.97,2.97-2.97M353.75,103.5h-4.36v-25.73h4.36v25.73Z"/>
        <path d="M359.44,77.77h4.26v4.06c2.03-3.32,5.49-4.75,8.46-4.75,5.34,0,9.85,3.91,9.85,10.04v16.38h-4.35v-14.94c0-5.59-2.97-7.52-6.24-7.52-4.55,0-7.62,3.36-7.62,9.45v13.01h-4.35v-25.73Z"/>
        <path d="M389.18,111.42v-3.86h10.14c3.56,0,7.13-1.44,7.13-6.14v-2.87c-1.88,2.38-5,3.96-8.36,3.96-5.84,0-11.63-4.45-11.63-12.67s5.79-12.77,11.63-12.77c3.32,0,6.24,1.19,8.46,3.81v-3.12h4.26v23.9c0,6.83-5.59,9.75-11.48,9.75h-10.14ZM398.63,98.5c3.91,0,7.92-2.67,7.92-8.71s-4.21-8.71-7.92-8.71c-4.26,0-7.52,2.77-7.52,8.81,0,5.69,3.76,8.61,7.52,8.61"/>
        <path class="cls-5" d="M143.21,51.82c0-3.65,2.79-6.82,7.48-7.29,5.4-.57,8.9-.57,10.13-1.51v-.76c0-3.36-2.75-5.35-6.39-5.35s-6.48,1.85-6.58,5.54h-4.21c.09-5.54,4.78-9.37,10.89-9.37,5.44,0,10.37,3.41,10.46,9.37v9.28c0,1.99.99,2.93,2.93,2.93h.57v3.69h-1.28c-2.51,0-4.73-1.04-5.78-3.55-1.71,2.56-5.21,4.21-9.56,4.21-4.83,0-8.66-2.32-8.66-7.2M152.2,55.27c4.59,0,8.62-2.89,8.62-6.58v-1.94c-1.04.76-4.12.81-9.23,1.28-2.46.24-4.07,1.33-4.07,3.64s1.85,3.6,4.69,3.6"/>
        <path class="cls-5" d="M171.56,49.07v-23.86h4.17v23.67c0,3.55,2.27,5.78,5.49,5.78h.57v3.69h-1.33c-4.78,0-8.9-3.74-8.9-9.28"/>
        <path class="cls-5" d="M187.7,40.5c0,1.7,1.14,3.12,3.55,3.12h4.4c4.68,0,8.33,2.79,8.33,7.48s-3.65,7.24-8.33,7.24h-11.46v-3.69h11.32c2.79,0,4.12-1.37,4.12-3.46,0-1.89-1.32-3.45-4.12-3.45h-4.5c-4.26,0-7.57-2.89-7.57-7.15s3.31-6.91,7.57-6.91h11.55v3.69h-11.32c-2.41,0-3.55,1.42-3.55,3.12"/>
        <path class="cls-5" d="M210.37,24.98c1.47,0,2.79,1.28,2.79,2.84s-1.32,2.89-2.79,2.89-2.84-1.28-2.84-2.89,1.32-2.84,2.84-2.84M212.45,58.35h-4.16v-24.62h4.16v24.62Z"/>
        <path class="cls-5" d="M217.9,33.73h4.07v3.88c1.99-3.17,4.92-4.54,7.53-4.54,3.31,0,6.25,1.75,7.76,4.88,2.23-3.6,5.54-4.88,8.43-4.88,4.88,0,8.81,3.88,8.81,9.61v15.67h-4.17v-14.77c0-4.69-2.46-6.72-5.35-6.72-4.12,0-6.63,3.22-6.63,9.04v12.45h-4.17v-14.77c0-4.69-2.51-6.72-5.4-6.72-4.12,0-6.72,3.22-6.72,9.04v12.45h-4.16v-24.62Z"/>
        <path class="cls-3" d="M122.89,61.44l-23.54-40.77c-1.27-2.2-3.62-3.56-6.16-3.56h-47.08c-2.54,0-4.89,1.36-6.16,3.56l-23.54,40.77c-1.27,2.2-1.27,4.91,0,7.11l23.54,40.77c1.27,2.2,3.62,3.56,6.16,3.56h47.08c2.54,0,4.89-1.36,6.16-3.56l23.54-40.77c1.27-2.2,1.27-4.91,0-7.11"/>
        <path class="cls-2" d="M69.13,74.5c1.26-.72,1.63-2.43.84-3.8-1.2-2.08-5.31-3.95-5.31-3.95,0,0-.43,4.5.76,6.58.79,1.37,2.45,1.9,3.71,1.18"/>
        <path class="cls-2" d="M78.1,69.26c1.26-.72,1.63-2.43.84-3.8-1.2-2.08-5.31-3.95-5.31-3.95,0,0-.43,4.5.76,6.58.79,1.37,2.45,1.9,3.71,1.18"/>
        <path class="cls-2" d="M70.68,87.55c1.26-.72,1.63-2.43.84-3.8-1.2-2.08-5.31-3.95-5.31-3.95,0,0-.43,4.5.76,6.58.79,1.37,2.46,1.9,3.71,1.18"/>
        <path class="cls-2" d="M79.66,82.32c1.26-.72,1.63-2.43.84-3.8-1.2-2.08-5.31-3.95-5.31-3.95,0,0-.43,4.5.76,6.58.79,1.37,2.45,1.9,3.71,1.18"/>
        <path class="cls-2" d="M88.63,77.13c1.26-.72,1.63-2.43.84-3.8-1.2-2.08-5.31-3.95-5.31-3.95,0,0-.43,4.5.76,6.58.79,1.37,2.45,1.9,3.71,1.18"/>
        <path class="cls-2" d="M67.76,92.86s-.43,4.5.76,6.58c.79,1.37,2.45,1.9,3.71,1.18,1.26-.72,1.63-2.43.84-3.8-1.2-2.08-5.31-3.95-5.31-3.95"/>
        <path class="cls-2" d="M76.73,87.62s-.43,4.5.76,6.58c.79,1.37,2.45,1.9,3.71,1.18,1.26-.72,1.63-2.43.84-3.8-1.2-2.08-5.31-3.95-5.31-3.95"/>
        <path class="cls-2" d="M85.71,82.44s-.43,4.5.76,6.58c.79,1.37,2.45,1.9,3.71,1.18,1.26-.72,1.63-2.43.84-3.8-1.2-2.08-5.31-3.95-5.31-3.95"/>
        <path class="cls-2" d="M100,81.2c-1.2-2.08-5.31-3.95-5.31-3.95,0,0-.43,4.5.76,6.58.79,1.37,2.45,1.9,3.71,1.18,1.26-.72,1.63-2.43.84-3.8"/>
        <path class="cls-2" d="M58.17,38.59c-1.74-1.11-4.05-.6-5.17,1.14-1.11,1.74-.6,4.05,1.14,5.17,1.74,1.11,4.05.6,5.17-1.14,1.11-1.74.6-4.05-1.14-5.17"/>
        <path class="cls-2" d="M70.9,55.62l-1.75-8.21,1.93-1c.66-.34,1.15-.93,1.38-1.64s.16-1.47-.19-2.13l-3.63-6.31c-3.4-6.52-11.47-9.07-18-5.69-3.17,1.64-5.51,4.42-6.59,7.82-1.08,3.4-.77,7.02.87,10.19l3.64,6.32c.5.94,1.47,1.47,2.47,1.47.43,0,.87-.1,1.28-.31l2.29-1.19,5.7,6.17c.38.41.91.62,1.46.62.33,0,.67-.08.98-.24l7.08-3.67c.83-.43,1.27-1.34,1.09-2.21M51.05,53.55l-3.6-6.24c-1.28-2.48-1.52-5.31-.67-7.97.85-2.67,2.68-4.85,5.17-6.14,5.14-2.66,11.48-.65,14.14,4.49l3.58,6.22-18.63,9.65ZM61.95,58.67l-4.7-5.09,9.25-4.79,1.45,6.78-6,3.11Z"/>
      </g>
    </g>
  </g>
</svg>