<?xml version="1.0" encoding="UTF-8"?>
<svg id="Layer_1" data-name="Layer 1" xmlns="http://www.w3.org/2000/svg" xmlns:xlink="http://www.w3.org/1999/xlink" viewBox="0 0 500 130">
  <defs>
    <style>
      .cls-1 {
        fill: none;
      }

      .cls-2 {
        fill: #efe4f5;
      }

      .cls-3 {
        fill: #757575;
      }

      .cls-4 {
        fill: #24282b;
      }

      .cls-5 {
        clip-path: url(#clippath-1);
      }

      .cls-6 {
        clip-path: url(#clippath);
      }
    </style>
    <clipPath id="clippath">
      <rect class="cls-1" x="15.46" y="17.13" width="345.69" height="95.74"/>
    </clipPath>
    <clipPath id="clippath-1">
      <rect class="cls-1" x="15.46" y="17.13" width="345.69" height="95.74"/>
    </clipPath>
  </defs>
  <g id="E-Coating">
    <g class="cls-6">
      <g class="cls-5">
        <path d="M168.05,103.86h-12.67c-7.03,0-11.88-4.35-11.88-11.88v-10.89c0-7.52,4.85-11.88,11.88-11.88h12.32v4.16h-11.58c-5.15,0-7.92,2.77-7.92,7.92v2.77h17.62v4.16h-17.62v3.56c0,5.15,2.77,7.92,7.92,7.92h11.92v4.16Z"/>
        <rect x="170.77" y="87.78" width="13.71" height="4.21"/>
        <path d="M205.02,72.83c-6.68,0-11.97,5-11.97,13.71s5.29,13.71,11.92,13.71,10.89-4.16,11.58-10.44h4.75c-.64,8.56-6.68,14.75-16.28,14.75s-16.82-7.57-16.82-18.06,7.03-17.96,16.92-17.96c9.2,0,15.54,6.23,16.18,14.5h-4.75c-.69-5.99-4.85-10.19-11.53-10.19"/>
        <path d="M237.53,104.55c-6.83,0-12.77-4.95-12.77-13.61s5.94-13.51,12.77-13.51,12.77,4.85,12.77,13.51-5.94,13.61-12.77,13.61M237.53,100.55c4.45,0,8.26-3.17,8.26-9.55s-3.81-9.55-8.26-9.55-8.26,2.92-8.26,9.55,3.81,9.55,8.26,9.55"/>
        <path d="M254.01,97.03c0-3.81,2.92-7.13,7.82-7.62,5.64-.59,9.3-.59,10.59-1.58v-.79c0-3.51-2.87-5.59-6.68-5.59s-6.78,1.93-6.88,5.79h-4.4c.1-5.79,5-9.8,11.38-9.8,5.69,0,10.84,3.56,10.94,9.8v9.7c0,2.08,1.04,3.07,3.07,3.07h.59v3.86h-1.34c-2.62,0-4.95-1.09-6.04-3.71-1.78,2.67-5.44,4.4-9.99,4.4-5.05,0-9.06-2.42-9.06-7.52M263.42,100.64c4.8,0,9.01-3.02,9.01-6.88v-2.03c-1.09.79-4.31.84-9.65,1.34-2.57.25-4.25,1.39-4.25,3.81s1.93,3.76,4.9,3.76"/>
        <path d="M284.89,93.91v-11.93h-4.7v-3.86h4.7v-5.79l4.35-2.37v8.16h6.63v3.86h-6.63v11.68c0,3.76,2.47,6.33,6.24,6.33h.74v3.86h-1.24c-5.24,0-10.09-3.61-10.09-9.95"/>
        <path d="M301.92,68.98c1.53,0,2.92,1.34,2.92,2.97s-1.39,3.02-2.92,3.02-2.97-1.34-2.97-3.02,1.39-2.97,2.97-2.97M304.09,103.86h-4.35v-25.73h4.35v25.73Z"/>
        <path d="M309.79,78.13h4.26v4.06c2.03-3.32,5.49-4.75,8.46-4.75,5.34,0,9.85,3.91,9.85,10.04v16.38h-4.35v-14.94c0-5.59-2.97-7.52-6.24-7.52-4.55,0-7.62,3.36-7.62,9.45v13.01h-4.35v-25.73Z"/>
        <path d="M339.53,111.78v-3.86h10.14c3.56,0,7.13-1.44,7.13-6.14v-2.87c-1.88,2.38-5,3.96-8.36,3.96-5.84,0-11.63-4.45-11.63-12.67s5.79-12.77,11.63-12.77c3.32,0,6.24,1.19,8.46,3.81v-3.12h4.26v23.9c0,6.83-5.59,9.75-11.48,9.75h-10.14ZM348.98,98.86c3.91,0,7.92-2.67,7.92-8.71s-4.21-8.71-7.92-8.71c-4.26,0-7.52,2.77-7.52,8.81,0,5.69,3.76,8.61,7.52,8.61"/>
        <path class="cls-3" d="M142.89,51.91c0-3.65,2.8-6.83,7.5-7.31,5.41-.57,8.92-.57,10.16-1.52v-.76c0-3.37-2.52-5.36-6.17-5.36-3.42,0-6.31,1.85-6.41,5.55h-4.22c.09-5.55,4.79-9.4,10.72-9.4,5.46,0,10.15,3.42,10.25,9.4v9.3c0,1.99,1,2.94,2.94,2.94h.57v3.7h-1.28c-2.52,0-4.74-1.04-5.79-3.56-1.71,2.56-5.22,4.22-9.59,4.22-4.84,0-8.68-2.33-8.68-7.21M151.91,55.37c4.6,0,8.64-2.89,8.64-6.6v-1.95c-1.04.76-4.13.81-9.25,1.28-2.47.24-4.08,1.33-4.08,3.65s1.85,3.61,4.7,3.61"/>
        <path class="cls-3" d="M171.32,49.16v-23.92h4.18v23.73c0,3.56,2.28,5.79,5.5,5.79h.57v3.7h-1.33c-4.79,0-8.92-3.75-8.92-9.3"/>
        <path class="cls-3" d="M187.5,40.57c0,1.71,1.14,3.13,3.56,3.13h4.41c4.7,0,8.35,2.8,8.35,7.5s-3.66,7.26-8.35,7.26h-11.48v-3.7h11.34c2.8,0,4.13-1.38,4.13-3.46,0-1.9-1.33-3.46-4.13-3.46h-4.51c-4.27,0-7.59-2.89-7.59-7.16s3.32-6.93,7.59-6.93h11.58v3.7h-11.34c-2.42,0-3.56,1.42-3.56,3.13"/>
        <path class="cls-3" d="M210.24,25c1.47,0,2.8,1.28,2.8,2.85s-1.33,2.89-2.8,2.89-2.85-1.28-2.85-2.89,1.33-2.85,2.85-2.85M212.33,58.46h-4.18v-24.68h4.18v24.68Z"/>
        <path class="cls-3" d="M217.79,33.78h4.08v3.89c1.99-3.18,4.94-4.56,7.54-4.56,3.32,0,6.26,1.76,7.78,4.89,2.23-3.61,5.55-4.89,8.45-4.89,4.89,0,8.83,3.89,8.83,9.63v15.71h-4.18v-14.81c0-4.7-2.47-6.74-5.36-6.74-4.13,0-6.64,3.23-6.64,9.06v12.48h-4.18v-14.81c0-4.7-2.51-6.74-5.41-6.74-4.13,0-6.74,3.23-6.74,9.06v12.48h-4.18v-24.68Z"/>
        <path class="cls-2" d="M122.86,61.44l-23.53-40.76c-1.27-2.2-3.62-3.56-6.16-3.56h-47.06c-2.54,0-4.89,1.36-6.16,3.56l-23.53,40.76c-1.27,2.2-1.27,4.91,0,7.11l23.53,40.76c1.27,2.2,3.62,3.56,6.16,3.56h47.06c2.54,0,4.89-1.36,6.16-3.56l23.53-40.76c1.27-2.2,1.27-4.91,0-7.11"/>
        <polygon class="cls-4" points="71.36 44.06 56.97 69.03 70.58 69.03 67.9 85.93 82.3 60.95 69.79 60.95 71.36 44.06"/>
        <path class="cls-4" d="M69.64,37.09c-14.82,0-26.87,12.3-26.87,27.41s12.05,27.41,26.87,27.41,26.87-12.3,26.87-27.41-12.05-27.41-26.87-27.41M69.64,89.04c-13.23,0-24-11.01-24-24.54s10.76-24.54,24-24.54,24,11.01,24,24.54-10.76,24.54-24,24.54"/>
      </g>
    </g>
  </g>
</svg>