<?xml version="1.0" encoding="UTF-8"?>
<svg id="Layer_1" data-name="Layer 1" xmlns="http://www.w3.org/2000/svg" xmlns:xlink="http://www.w3.org/1999/xlink" viewBox="0 0 500 130">
  <defs>
    <style>
      .cls-1 {
        fill: none;
      }

      .cls-2 {
        fill: #ede2f3;
      }

      .cls-3 {
        clip-path: url(#clippath-1);
      }

      .cls-4 {
        fill: #787878;
      }

      .cls-5 {
        clip-path: url(#clippath);
      }
    </style>
    <clipPath id="clippath">
      <rect class="cls-1" x="15.46" y="17.01" width="286.25" height="95.98"/>
    </clipPath>
    <clipPath id="clippath-1">
      <rect class="cls-1" x="15.46" y="17.01" width="286.25" height="95.98"/>
    </clipPath>
  </defs>
  <g id="Rinsing">
    <g class="cls-5">
      <g class="cls-3">
        <path d="M164.32,87.82c3.28-.79,7.45-3.53,7.45-9.33s-4.92-9.53-11.12-9.53h-15.54v34.76h4.72v-15.09h8.69c4.57,2.58,8.39,8.59,9.33,15.09h4.96c-1.19-6.31-4.22-12.86-8.49-15.89M160,84.44h-10.18v-11.32h10.18c4.02,0,6.95,1.54,6.95,5.66s-2.83,5.66-6.95,5.66"/>
        <path d="M179.51,68.71c1.54,0,2.93,1.34,2.93,2.98s-1.39,3.03-2.93,3.03-2.98-1.34-2.98-3.03,1.39-2.98,2.98-2.98"/>
        <rect x="177.33" y="77.89" width="4.37" height="25.82"/>
        <path d="M187.41,77.89h4.27v4.07c2.04-3.33,5.51-4.77,8.49-4.77,5.36,0,9.88,3.92,9.88,10.08v16.43h-4.37v-14.99c0-5.61-2.98-7.55-6.26-7.55-4.57,0-7.65,3.38-7.65,9.48v13.06h-4.37v-25.82Z"/>
        <path d="M218.49,84.99c0,1.79,1.19,3.28,3.72,3.28h4.62c4.92,0,8.74,2.93,8.74,7.85s-3.82,7.6-8.74,7.6h-12.02v-3.87h11.87c2.93,0,4.32-1.44,4.32-3.62,0-1.99-1.39-3.62-4.32-3.62h-4.72c-4.47,0-7.94-3.03-7.94-7.5s3.48-7.25,7.94-7.25h12.11v3.87h-11.87c-2.53,0-3.72,1.49-3.72,3.28"/>
        <path d="M242.28,68.71c1.54,0,2.93,1.34,2.93,2.98s-1.39,3.03-2.93,3.03-2.98-1.34-2.98-3.03,1.39-2.98,2.98-2.98"/>
        <rect x="240.09" y="77.89" width="4.37" height="25.82"/>
        <path d="M250.17,77.89h4.27v4.07c2.04-3.33,5.51-4.77,8.49-4.77,5.36,0,9.88,3.92,9.88,10.08v16.43h-4.37v-14.99c0-5.61-2.98-7.55-6.26-7.55-4.57,0-7.65,3.38-7.65,9.48v13.06h-4.37v-25.82Z"/>
        <path d="M297.44,77.89v3.13c-2.23-2.63-5.16-3.82-8.49-3.82-5.86,0-11.67,4.42-11.67,12.81s5.81,12.71,11.67,12.71c3.38,0,6.5-1.59,8.39-3.97v2.88c0,4.72-3.58,6.16-7.15,6.16h-10.18v3.87h10.18c5.91,0,11.52-2.93,11.52-9.78v-23.98h-4.27ZM289.5,98.69c-3.77,0-7.55-2.93-7.55-8.64,0-6.06,3.28-8.84,7.55-8.84,3.72,0,7.94,2.48,7.94,8.74s-4.02,8.74-7.94,8.74"/>
        <path class="cls-4" d="M143.19,51.86c0-3.65,2.79-6.82,7.48-7.29,5.4-.57,8.9-.57,10.13-1.51v-.76c0-3.36-2.75-5.35-6.39-5.35s-6.49,1.85-6.58,5.54h-4.21c.09-5.54,4.78-9.37,10.89-9.37,5.44,0,10.37,3.41,10.46,9.37v9.28c0,1.99.99,2.93,2.93,2.93h.57v3.69h-1.28c-2.51,0-4.73-1.04-5.78-3.55-1.71,2.56-5.21,4.21-9.56,4.21-4.83,0-8.66-2.32-8.66-7.2M152.19,55.32c4.59,0,8.62-2.89,8.62-6.58v-1.94c-1.04.76-4.12.81-9.23,1.28-2.46.24-4.07,1.33-4.07,3.64s1.85,3.6,4.69,3.6"/>
        <path class="cls-4" d="M171.54,49.12v-23.86h4.17v23.67c0,3.55,2.27,5.78,5.49,5.78h.57v3.69h-1.33c-4.78,0-8.9-3.74-8.9-9.28"/>
        <path class="cls-4" d="M187.68,40.55c0,1.7,1.14,3.12,3.55,3.12h4.4c4.68,0,8.33,2.79,8.33,7.48s-3.65,7.24-8.33,7.24h-11.46v-3.69h11.32c2.79,0,4.12-1.37,4.12-3.46,0-1.89-1.32-3.45-4.12-3.45h-4.5c-4.26,0-7.57-2.89-7.57-7.15s3.31-6.91,7.57-6.91h11.55v3.69h-11.32c-2.41,0-3.55,1.42-3.55,3.12"/>
        <path class="cls-4" d="M210.36,25.02c1.47,0,2.79,1.28,2.79,2.84s-1.32,2.89-2.79,2.89-2.84-1.28-2.84-2.89,1.32-2.84,2.84-2.84M212.44,58.39h-4.16v-24.62h4.16v24.62Z"/>
        <path class="cls-4" d="M217.88,33.78h4.07v3.88c1.99-3.17,4.92-4.54,7.53-4.54,3.31,0,6.25,1.75,7.77,4.88,2.23-3.6,5.54-4.88,8.43-4.88,4.88,0,8.81,3.88,8.81,9.61v15.67h-4.17v-14.77c0-4.69-2.46-6.72-5.35-6.72-4.12,0-6.63,3.22-6.63,9.04v12.45h-4.17v-14.77c0-4.69-2.51-6.72-5.4-6.72-4.12,0-6.72,3.22-6.72,9.04v12.45h-4.16v-24.62Z"/>
        <path class="cls-2" d="M123.13,61.44l-23.59-40.86c-1.27-2.21-3.63-3.56-6.17-3.56h-47.18c-2.55,0-4.9,1.36-6.17,3.56l-23.59,40.86c-1.27,2.21-1.27,4.92,0,7.13l23.59,40.86c1.27,2.21,3.63,3.56,6.17,3.56h47.18c2.55,0,4.9-1.36,6.17-3.56l23.59-40.86c1.27-2.21,1.27-4.92,0-7.13"/>
        <path d="M47.3,40.94s-3.5,4.91-3.5,8.11c0,2.12,1.57,3.83,3.5,3.83s3.5-1.72,3.5-3.83c0-3.2-3.5-8.11-3.5-8.11"/>
        <path d="M69.83,40.94s-3.5,4.91-3.5,8.11c0,2.12,1.57,3.83,3.5,3.83s3.5-1.72,3.5-3.83c0-3.2-3.5-8.11-3.5-8.11"/>
        <path d="M92.35,40.94s-3.5,4.91-3.5,8.11c0,2.12,1.57,3.83,3.5,3.83s3.5-1.72,3.5-3.83c0-3.2-3.5-8.11-3.5-8.11"/>
        <path d="M58.56,58.82s-3.5,4.91-3.5,8.11c0,2.12,1.57,3.83,3.5,3.83s3.5-1.72,3.5-3.83c0-3.2-3.5-8.11-3.5-8.11"/>
        <path d="M81.09,58.82s-3.5,4.91-3.5,8.11c0,2.12,1.57,3.83,3.5,3.83s3.5-1.72,3.5-3.83c0-3.2-3.5-8.11-3.5-8.11"/>
        <path d="M47.3,77.06s-3.5,4.91-3.5,8.11c0,2.12,1.57,3.83,3.5,3.83s3.5-1.72,3.5-3.83c0-3.2-3.5-8.11-3.5-8.11"/>
        <path d="M69.83,77.06s-3.5,4.91-3.5,8.11c0,2.12,1.57,3.83,3.5,3.83s3.5-1.72,3.5-3.83c0-3.2-3.5-8.11-3.5-8.11"/>
        <path d="M92.35,77.06s-3.5,4.91-3.5,8.11c0,2.12,1.57,3.83,3.5,3.83s3.5-1.72,3.5-3.83c0-3.2-3.5-8.11-3.5-8.11"/>
      </g>
    </g>
  </g>
</svg>