<?xml version="1.0" encoding="UTF-8"?>
<svg id="Layer_1" data-name="Layer 1" xmlns="http://www.w3.org/2000/svg" xmlns:xlink="http://www.w3.org/1999/xlink" viewBox="0 0 500 130">
  <defs>
    <style>
      .cls-1 {
        fill: none;
      }

      .cls-2 {
        fill: #efe4f5;
      }

      .cls-3 {
        clip-path: url(#clippath-1);
      }

      .cls-4 {
        fill: #787878;
      }

      .cls-5 {
        clip-path: url(#clippath);
      }
    </style>
    <clipPath id="clippath">
      <rect class="cls-1" x="15.46" y="17.04" width="291.04" height="95.92"/>
    </clipPath>
    <clipPath id="clippath-1">
      <rect class="cls-1" x="15.46" y="17.04" width="291.04" height="95.92"/>
    </clipPath>
  </defs>
  <g id="Sealing">
    <g class="cls-5">
      <g class="cls-3">
        <path d="M147.55,78.24c0,2.52,1.98,5.1,5.34,5.1h5.49c6.23,0,11.28,4.55,11.28,10.34s-5.05,9.9-11.28,9.9h-14.6v-4.16h14.4c4.21,0,6.73-2.23,6.73-5.59s-2.52-5.54-6.73-5.54h-5.54c-5.44,0-9.75-4.45-9.75-9.9s4.31-9.45,9.75-9.45h15.54v4.16h-15.29c-3.36,0-5.34,2.62-5.34,5.15"/>
        <path d="M172.89,90.66c0-8.46,5.39-13.61,12.57-13.51,8.26.1,12.07,6.43,12.07,12.77,0,.74-.05,1.43-.15,2.18h-19.94c.4,5.69,4.01,8.16,8.26,8.16,4.01,0,6.38-1.78,7.22-4.6h4.45c-.89,5-5.24,8.61-11.78,8.61-6.88,0-12.72-4.5-12.72-13.61M192.93,88.33c-.54-5.15-3.81-7.18-7.57-7.18-4.06,0-7.18,2.08-7.82,7.18h15.39Z"/>
        <path d="M201.24,96.75c0-3.81,2.92-7.13,7.82-7.62,5.64-.59,9.3-.59,10.59-1.58v-.79c0-3.51-2.87-5.59-6.68-5.59s-6.78,1.93-6.88,5.79h-4.4c.1-5.79,5-9.8,11.38-9.8,5.69,0,10.84,3.56,10.94,9.8v9.7c0,2.08,1.04,3.07,3.07,3.07h.59v3.86h-1.34c-2.62,0-4.95-1.09-6.04-3.71-1.78,2.67-5.44,4.4-9.99,4.4-5.05,0-9.06-2.42-9.06-7.52M210.65,100.36c4.8,0,9.01-3.02,9.01-6.88v-2.03c-1.09.79-4.31.84-9.65,1.34-2.57.25-4.25,1.39-4.25,3.81s1.93,3.76,4.9,3.76"/>
        <path d="M230.89,93.87v-24.94h4.35v24.74c0,3.71,2.37,6.04,5.74,6.04h.59v3.86h-1.39c-5,0-9.3-3.91-9.3-9.7"/>
        <path d="M247.27,68.69c1.53,0,2.92,1.34,2.92,2.97s-1.39,3.02-2.92,3.02-2.97-1.34-2.97-3.02,1.39-2.97,2.97-2.97M249.44,103.57h-4.35v-25.73h4.35v25.73Z"/>
        <path d="M255.14,77.84h4.26v4.06c2.03-3.32,5.49-4.75,8.46-4.75,5.34,0,9.85,3.91,9.85,10.04v16.38h-4.35v-14.94c0-5.59-2.97-7.52-6.24-7.52-4.55,0-7.62,3.36-7.62,9.45v13.01h-4.35v-25.73Z"/>
        <path d="M284.88,111.49v-3.86h10.14c3.56,0,7.13-1.44,7.13-6.14v-2.87c-1.88,2.38-5,3.96-8.36,3.96-5.84,0-11.63-4.45-11.63-12.67s5.79-12.77,11.63-12.77c3.32,0,6.24,1.19,8.46,3.81v-3.12h4.26v23.9c0,6.83-5.59,9.75-11.48,9.75h-10.14ZM294.33,98.58c3.91,0,7.92-2.67,7.92-8.71s-4.21-8.71-7.92-8.71c-4.26,0-7.52,2.77-7.52,8.81,0,5.69,3.76,8.61,7.52,8.61"/>
        <path class="cls-4" d="M143.33,51.89c0-3.65,2.79-6.82,7.48-7.29,5.4-.57,8.9-.57,10.13-1.51v-.76c0-3.36-2.75-5.35-6.39-5.35s-6.48,1.85-6.58,5.54h-4.21c.09-5.54,4.78-9.37,10.89-9.37,5.44,0,10.37,3.41,10.46,9.37v9.28c0,1.99.99,2.93,2.93,2.93h.57v3.69h-1.28c-2.51,0-4.73-1.04-5.78-3.55-1.71,2.56-5.21,4.21-9.56,4.21-4.83,0-8.66-2.32-8.66-7.2M152.32,55.35c4.59,0,8.62-2.89,8.62-6.58v-1.94c-1.04.76-4.12.81-9.23,1.28-2.46.24-4.07,1.33-4.07,3.64s1.85,3.6,4.69,3.6"/>
        <path class="cls-4" d="M171.68,49.15v-23.86h4.17v23.67c0,3.55,2.27,5.78,5.49,5.78h.57v3.69h-1.33c-4.78,0-8.9-3.74-8.9-9.28"/>
        <path class="cls-4" d="M187.82,40.58c0,1.7,1.14,3.12,3.55,3.12h4.4c4.68,0,8.33,2.79,8.33,7.48s-3.65,7.24-8.33,7.24h-11.46v-3.69h11.32c2.79,0,4.12-1.37,4.12-3.46,0-1.89-1.32-3.45-4.12-3.45h-4.5c-4.26,0-7.57-2.89-7.57-7.15s3.31-6.91,7.57-6.91h11.55v3.69h-11.32c-2.41,0-3.55,1.42-3.55,3.12"/>
        <path class="cls-4" d="M210.49,25.05c1.47,0,2.79,1.28,2.79,2.84s-1.32,2.89-2.79,2.89-2.84-1.28-2.84-2.89,1.32-2.84,2.84-2.84M212.57,58.43h-4.16v-24.62h4.16v24.62Z"/>
        <path class="cls-4" d="M218.02,33.81h4.07v3.88c1.99-3.17,4.92-4.54,7.53-4.54,3.31,0,6.25,1.75,7.77,4.88,2.23-3.6,5.54-4.88,8.43-4.88,4.88,0,8.81,3.88,8.81,9.61v15.67h-4.17v-14.77c0-4.69-2.46-6.72-5.35-6.72-4.12,0-6.63,3.22-6.63,9.04v12.45h-4.17v-14.77c0-4.69-2.51-6.72-5.4-6.72-4.12,0-6.72,3.22-6.72,9.04v12.45h-4.16v-24.62Z"/>
        <path class="cls-2" d="M123.06,61.44l-23.58-40.83c-1.27-2.2-3.62-3.56-6.17-3.56h-47.15c-2.55,0-4.9,1.36-6.17,3.56l-23.58,40.83c-1.27,2.2-1.27,4.92,0,7.13l23.58,40.83c1.27,2.2,3.62,3.56,6.17,3.56h47.15c2.55,0,4.9-1.36,6.17-3.56l23.58-40.83c1.27-2.2,1.27-4.92,0-7.13"/>
        <path d="M88.96,37.5h-18.68c-5.31-.82-10.82,1.61-13.66,6.53l-13.86,24.15c-.77,1.33-.3,3.04,1.03,3.81l1.02.59-4.11,12.41c-.33,1.01.05,2.07.93,2.57l7.91,4.57h0c.33.19.69.28,1.04.28.61,0,1.21-.26,1.65-.76l8.69-9.77,1.21.7h0c.43.25.91.38,1.39.38.24,0,.49-.03.73-.1.72-.19,1.33-.66,1.7-1.31l11.1-19.34h11.91c6.81,0,12.36-5.54,12.36-12.36s-5.54-12.36-12.36-12.36M50.43,89.34l-6.84-3.95,3.75-11.3,11.01,6.36-7.91,8.89ZM63.49,80.05l-18.2-10.51,13.82-24.08c2.9-5.02,9.34-6.74,14.35-3.85,5.02,2.9,6.74,9.34,3.84,14.36l-13.82,24.07ZM88.96,59.33h-10.26s1.1-1.92,1.1-1.92c3.32-5.75,1.87-12.96-3.1-17.04h12.26c5.23,0,9.48,4.25,9.48,9.48s-4.25,9.48-9.48,9.48"/>
        <path d="M89.66,46.43c-1.89,0-3.42,1.53-3.42,3.42s1.53,3.42,3.42,3.42,3.42-1.53,3.42-3.42-1.53-3.42-3.42-3.42"/>
        <path d="M68.52,46.03c-2.07,0-3.75,1.68-3.75,3.75s1.68,3.75,3.75,3.75,3.75-1.68,3.75-3.75-1.68-3.75-3.75-3.75"/>
      </g>
    </g>
  </g>
</svg>