<?xml version="1.0" encoding="UTF-8"?>
<svg id="Layer_1" data-name="Layer 1" xmlns="http://www.w3.org/2000/svg" xmlns:xlink="http://www.w3.org/1999/xlink" viewBox="0 0 500 130">
  <defs>
    <style>
      .cls-1 {
        fill: none;
      }

      .cls-2 {
        fill: #d4e8e1;
      }

      .cls-3 {
        fill: #24282b;
      }

      .cls-4 {
        clip-path: url(#clippath-1);
      }

      .cls-5 {
        fill: #787878;
      }

      .cls-6 {
        clip-path: url(#clippath);
      }
    </style>
    <clipPath id="clippath">
      <rect class="cls-1" x="15.46" y="16.97" width="380.91" height="96.05"/>
    </clipPath>
    <clipPath id="clippath-1">
      <rect class="cls-1" x="15.46" y="16.97" width="380.91" height="96.05"/>
    </clipPath>
  </defs>
  <g id="Merge">
    <g class="cls-6">
      <g class="cls-4">
        <path class="cls-2" d="M92.94,16.97h-46.47c-2.78,0-5.35,1.48-6.74,3.89l-23.23,40.24c-1.39,2.41-1.39,5.38,0,7.79l23.23,40.24c1.39,2.41,3.96,3.89,6.74,3.89h46.47c2.78,0,5.35-1.48,6.74-3.89l23.23-40.24c1.39-2.41,1.39-5.38,0-7.79l-23.23-40.24c-1.39-2.41-3.96-3.89-6.74-3.89"/>
        <polygon class="cls-3" points="69.91 64.94 69.91 38.26 46.8 51.6 69.91 64.94"/>
        <rect class="cls-3" x="52.59" y="29.67" width="5.89" height="20.74" transform="translate(-12.58 33.13) rotate(-30)"/>
        <polygon class="cls-3" points="69.91 65.35 46.8 78.7 69.91 92.04 69.91 65.35"/>
        <rect class="cls-3" x="45.33" y="87.02" width="20.74" height="5.89" transform="translate(-50.06 93.21) rotate(-60)"/>
        <polygon class="cls-3" points="93.3 78.52 93.3 51.83 70.19 65.18 93.3 78.52"/>
        <rect class="cls-3" x="91.13" y="62.23" width="20.74" height="5.89"/>
        <path class="cls-5" d="M147.02,45.72c0-3.22,2.47-6.02,6.61-6.44,4.77-.5,7.86-.5,8.95-1.34v-.67c0-2.97-2.43-4.72-5.65-4.72s-5.73,1.63-5.81,4.89h-3.72c.08-4.89,4.22-8.28,9.62-8.28,4.81,0,9.16,3.01,9.24,8.28v8.19c0,1.76.88,2.59,2.59,2.59h.5v3.26h-1.13c-2.22,0-4.18-.92-5.1-3.14-1.51,2.26-4.6,3.72-8.45,3.72-4.26,0-7.65-2.05-7.65-6.36M154.96,48.78c4.06,0,7.61-2.55,7.61-5.81v-1.71c-.92.67-3.64.71-8.15,1.13-2.18.21-3.6,1.17-3.6,3.22s1.63,3.18,4.14,3.18"/>
        <path class="cls-5" d="M172.06,43.3v-21.08h3.68v20.91c0,3.14,2.01,5.1,4.85,5.1h.5v3.26h-1.17c-4.22,0-7.86-3.3-7.86-8.2"/>
        <path class="cls-5" d="M186.31,35.73c0,1.5,1,2.76,3.14,2.76h3.89c4.14,0,7.36,2.47,7.36,6.61s-3.22,6.4-7.36,6.4h-10.12v-3.26h9.99c2.47,0,3.64-1.21,3.64-3.05,0-1.67-1.17-3.05-3.64-3.05h-3.97c-3.76,0-6.69-2.55-6.69-6.31s2.93-6.11,6.69-6.11h10.2v3.26h-9.99c-2.13,0-3.14,1.25-3.14,2.76"/>
        <path class="cls-5" d="M206.34,22.02c1.3,0,2.47,1.13,2.47,2.51s-1.17,2.55-2.47,2.55-2.51-1.13-2.51-2.55,1.17-2.51,2.51-2.51M208.18,51.5h-3.68v-21.74h3.68v21.74Z"/>
        <path class="cls-5" d="M212.99,29.75h3.59v3.43c1.76-2.8,4.35-4.02,6.65-4.02,2.93,0,5.52,1.55,6.86,4.31,1.97-3.18,4.89-4.31,7.44-4.31,4.31,0,7.78,3.43,7.78,8.49v13.84h-3.68v-13.05c0-4.14-2.18-5.94-4.72-5.94-3.64,0-5.85,2.84-5.85,7.99v11h-3.68v-13.05c0-4.14-2.21-5.94-4.77-5.94-3.64,0-5.94,2.84-5.94,7.99v11h-3.68v-21.74Z"/>
        <polygon points="149.7 62.14 157.21 62.14 171.25 95.81 185.17 62.14 192.51 62.14 192.51 102.91 186.98 102.91 186.98 71.81 173.93 102.91 168.46 102.91 155.23 71.63 155.23 102.91 149.7 102.91 149.7 62.14"/>
        <path d="M198.34,87.71c0-9.96,6.35-16.02,14.8-15.9,9.73.12,14.21,7.57,14.21,15.03,0,.87-.06,1.69-.17,2.56h-23.47c.47,6.7,4.72,9.61,9.73,9.61,4.72,0,7.51-2.1,8.5-5.42h5.24c-1.05,5.88-6.18,10.14-13.86,10.14-8.1,0-14.97-5.3-14.97-16.02M221.93,84.97c-.64-6.06-4.48-8.45-8.91-8.45-4.78,0-8.44,2.45-9.2,8.45h18.11Z"/>
        <path d="M232.59,72.62h5.01v5.3c1.63-4.08,5.18-5.65,7.92-5.65h3.03v5.01h-3.73c-3.55,0-7.11,3.14-7.11,8.97v16.66h-5.13v-30.29Z"/>
        <path d="M254.96,112.23v-4.54h11.94c4.19,0,8.39-1.69,8.39-7.22v-3.38c-2.21,2.8-5.88,4.66-9.85,4.66-6.87,0-13.69-5.24-13.69-14.91s6.82-15.03,13.69-15.03c3.9,0,7.34,1.4,9.96,4.48v-3.67h5.01v28.13c0,8.04-6.58,11.48-13.51,11.48h-11.94ZM266.08,97.03c4.6,0,9.32-3.15,9.32-10.25s-4.95-10.25-9.32-10.25c-5.01,0-8.85,3.26-8.85,10.37,0,6.7,4.43,10.13,8.85,10.13"/>
        <path d="M285.65,87.71c0-9.96,6.35-16.02,14.8-15.9,9.73.12,14.21,7.57,14.21,15.03,0,.87-.06,1.69-.17,2.56h-23.47c.47,6.7,4.72,9.61,9.73,9.61,4.72,0,7.51-2.1,8.5-5.42h5.24c-1.05,5.88-6.18,10.14-13.86,10.14-8.1,0-14.97-5.3-14.97-16.02M309.24,84.97c-.64-6.06-4.48-8.45-8.91-8.45-4.78,0-8.44,2.45-9.2,8.45h18.11Z"/>
      </g>
    </g>
  </g>
</svg>