<?xml version="1.0" encoding="UTF-8"?>
<svg id="Layer_1" data-name="Layer 1" xmlns="http://www.w3.org/2000/svg" xmlns:xlink="http://www.w3.org/1999/xlink" viewBox="0 0 500 130">
  <defs>
    <style>
      .cls-1 {
        fill: none;
      }

      .cls-2 {
        fill: #efe4f5;
      }

      .cls-3 {
        fill: #24282b;
      }

      .cls-4 {
        clip-path: url(#clippath-1);
      }

      .cls-5 {
        fill: #787878;
      }

      .cls-6 {
        clip-path: url(#clippath);
      }
    </style>
    <clipPath id="clippath">
      <rect class="cls-1" x="15.46" y="17.04" width="429.08" height="95.92"/>
    </clipPath>
    <clipPath id="clippath-1">
      <rect class="cls-1" x="15.46" y="17.04" width="429.08" height="95.92"/>
    </clipPath>
  </defs>
  <g id="Flood_Waxing" data-name="Flood Waxing">
    <g class="cls-6">
      <g class="cls-4">
        <path class="cls-2" d="M92.84,17.04h-46.4c-2.78,0-5.34,1.48-6.73,3.89l-23.2,40.18c-1.39,2.41-1.39,5.37,0,7.78l23.2,40.18c1.39,2.41,3.96,3.89,6.73,3.89h46.4c2.78,0,5.34-1.48,6.73-3.89l23.2-40.18c1.39-2.41,1.39-5.37,0-7.78l-23.2-40.18c-1.39-2.41-3.96-3.89-6.73-3.89"/>
        <path d="M155.88,68.94h11.68v4.16h-10.94c-5.15,0-7.92,2.77-7.92,7.92v2.77h16.82v4.16h-16.82v15.64h-4.7v-22.76c0-7.52,4.85-11.88,11.88-11.88"/>
        <path d="M170.03,93.87v-24.94h4.35v24.74c0,3.71,2.37,6.04,5.74,6.04h.59v3.86h-1.39c-5,0-9.3-3.91-9.3-9.7"/>
        <path d="M194.72,104.27c-6.83,0-12.77-4.95-12.77-13.61s5.94-13.51,12.77-13.51,12.77,4.85,12.77,13.51-5.94,13.61-12.77,13.61M194.72,100.26c4.45,0,8.26-3.17,8.26-9.55s-3.81-9.55-8.26-9.55-8.26,2.92-8.26,9.55,3.81,9.55,8.26,9.55"/>
        <path d="M223.73,104.27c-6.83,0-12.77-4.95-12.77-13.61s5.94-13.51,12.77-13.51,12.77,4.85,12.77,13.51-5.94,13.61-12.77,13.61M223.73,100.26c4.45,0,8.26-3.17,8.26-9.55s-3.81-9.55-8.26-9.55-8.26,2.92-8.26,9.55,3.81,9.55,8.26,9.55"/>
        <path d="M265.1,103.57h-4.26v-3.36c-1.93,2.52-5.24,4.06-8.86,4.06-6.33,0-12.02-4.8-12.02-13.51s5.74-13.61,12.07-13.61c3.56,0,6.53,1.39,8.71,4.06v-12.27h4.36v34.64ZM252.53,100.26c4.6,0,8.31-3.07,8.31-9.55s-4.01-9.55-8.31-9.55c-4.85,0-7.97,3.27-7.97,9.65,0,6.04,3.61,9.45,7.97,9.45"/>
        <polygon points="280.44 68.94 285.49 68.94 293.95 97.29 301.57 68.94 306.42 68.94 314.38 97.39 322.65 68.94 327.6 68.94 317.4 103.57 311.51 103.57 304.04 77.2 296.82 103.57 290.88 103.57 280.44 68.94"/>
        <path d="M327.6,96.74c0-3.81,2.92-7.13,7.82-7.62,5.64-.59,9.3-.59,10.59-1.58v-.79c0-3.51-2.87-5.59-6.68-5.59s-6.78,1.93-6.88,5.79h-4.4c.1-5.79,5-9.8,11.38-9.8,5.69,0,10.84,3.56,10.94,9.8v9.7c0,2.08,1.04,3.07,3.07,3.07h.59v3.86h-1.34c-2.62,0-4.95-1.09-6.04-3.71-1.78,2.67-5.44,4.4-9.99,4.4-5.05,0-9.06-2.42-9.06-7.52M337,100.36c4.8,0,9.01-3.02,9.01-6.88v-2.03c-1.09.79-4.31.84-9.65,1.34-2.57.25-4.25,1.39-4.25,3.81s1.93,3.76,4.9,3.76"/>
        <polygon points="364.77 90.36 355.71 77.84 361 77.84 367.54 86.9 374.02 77.84 379.17 77.84 370.16 90.46 379.61 103.57 374.27 103.57 367.34 93.92 360.46 103.57 355.27 103.57 364.77 90.36"/>
        <path d="M385.3,68.69c1.53,0,2.92,1.34,2.92,2.97s-1.39,3.02-2.92,3.02-2.97-1.34-2.97-3.02,1.39-2.97,2.97-2.97M387.48,103.57h-4.35v-25.73h4.35v25.73Z"/>
        <path d="M393.17,77.84h4.26v4.06c2.03-3.32,5.49-4.75,8.46-4.75,5.34,0,9.85,3.91,9.85,10.04v16.38h-4.35v-14.94c0-5.59-2.97-7.52-6.24-7.52-4.55,0-7.62,3.36-7.62,9.45v13.01h-4.35v-25.73Z"/>
        <path d="M422.92,111.49v-3.86h10.14c3.56,0,7.13-1.44,7.13-6.14v-2.87c-1.88,2.38-5,3.96-8.36,3.96-5.84,0-11.63-4.45-11.63-12.67s5.79-12.77,11.63-12.77c3.32,0,6.24,1.19,8.46,3.81v-3.12h4.26v23.9c0,6.83-5.59,9.75-11.48,9.75h-10.14ZM432.37,98.58c3.91,0,7.92-2.67,7.92-8.71s-4.21-8.71-7.92-8.71c-4.26,0-7.52,2.77-7.52,8.81,0,5.69,3.76,8.61,7.52,8.61"/>
        <path class="cls-3" d="M95.3,61.83h-51.02c-1.93,0-3.5-1.57-3.5-3.5v-5.17c-.12-5.11-.21-11.63.01-13.65.1-.95.45-1.72,1.02-2.29.66-.66,1.54-1.03,2.48-1.03h51.02c1.93,0,3.5,1.57,3.5,3.5v18.64c0,1.93-1.57,3.5-3.5,3.5M44.27,39.63s-.06.08-.08.25c-.15,1.41-.15,6.22,0,13.2v1.67s.01,3.58.01,3.58l51.09.07s.07-.03.07-.07v-18.64l-51.09-.07Z"/>
        <path class="cls-3" d="M96.84,60.11h-54.64v-10.75c18.32-9.88,25.82,8.57,54.64,0v10.75Z"/>
        <path class="cls-3" d="M51.39,65.87s-3.09,3.95-3.09,6.53c0,1.7,1.38,3.09,3.09,3.09s3.09-1.38,3.09-3.09c0-2.57-3.09-6.53-3.09-6.53"/>
        <path class="cls-3" d="M58.92,82.48s-3.09,3.95-3.09,6.53c0,1.7,1.38,3.09,3.09,3.09s3.09-1.38,3.09-3.09c0-2.57-3.09-6.53-3.09-6.53"/>
        <path class="cls-3" d="M70.29,69.89s-3.09,3.95-3.09,6.53c0,1.7,1.38,3.09,3.09,3.09s3.09-1.38,3.09-3.09c0-2.57-3.09-6.53-3.09-6.53"/>
        <path class="cls-3" d="M89.2,65.87s-3.09,3.95-3.09,6.53c0,1.7,1.38,3.09,3.09,3.09s3.09-1.38,3.09-3.09c0-2.57-3.09-6.53-3.09-6.53"/>
        <path class="cls-5" d="M143.19,51.89c0-3.65,2.79-6.82,7.48-7.29,5.4-.57,8.9-.57,10.13-1.51v-.76c0-3.36-2.75-5.35-6.39-5.35s-6.49,1.85-6.58,5.54h-4.21c.09-5.54,4.78-9.37,10.89-9.37,5.44,0,10.37,3.41,10.46,9.37v9.28c0,1.99.99,2.93,2.93,2.93h.57v3.69h-1.28c-2.51,0-4.73-1.04-5.78-3.55-1.71,2.56-5.21,4.21-9.56,4.21-4.83,0-8.66-2.32-8.66-7.2M152.19,55.35c4.59,0,8.62-2.89,8.62-6.58v-1.94c-1.04.76-4.12.81-9.23,1.28-2.46.24-4.07,1.33-4.07,3.64s1.85,3.6,4.69,3.6"/>
        <path class="cls-5" d="M171.54,49.15v-23.86h4.17v23.67c0,3.55,2.27,5.78,5.49,5.78h.57v3.69h-1.33c-4.78,0-8.9-3.74-8.9-9.28"/>
        <path class="cls-5" d="M187.68,40.58c0,1.7,1.14,3.12,3.55,3.12h4.4c4.68,0,8.33,2.79,8.33,7.48s-3.65,7.24-8.33,7.24h-11.46v-3.69h11.32c2.79,0,4.12-1.37,4.12-3.46,0-1.89-1.32-3.45-4.12-3.45h-4.5c-4.26,0-7.57-2.89-7.57-7.15s3.31-6.91,7.57-6.91h11.55v3.69h-11.32c-2.41,0-3.55,1.42-3.55,3.12"/>
        <path class="cls-5" d="M210.36,25.05c1.47,0,2.79,1.28,2.79,2.84s-1.32,2.89-2.79,2.89-2.84-1.28-2.84-2.89,1.32-2.84,2.84-2.84M212.44,58.43h-4.16v-24.62h4.16v24.62Z"/>
        <path class="cls-5" d="M217.88,33.81h4.07v3.88c1.99-3.17,4.92-4.54,7.53-4.54,3.31,0,6.25,1.75,7.77,4.88,2.23-3.6,5.54-4.88,8.43-4.88,4.88,0,8.81,3.88,8.81,9.61v15.67h-4.17v-14.77c0-4.69-2.46-6.72-5.35-6.72-4.12,0-6.63,3.22-6.63,9.04v12.45h-4.17v-14.77c0-4.69-2.51-6.72-5.4-6.72-4.12,0-6.72,3.22-6.72,9.04v12.45h-4.16v-24.62Z"/>
      </g>
    </g>
  </g>
</svg>