<?xml version="1.0" encoding="UTF-8"?>
<svg id="Layer_1" data-name="Layer 1" xmlns="http://www.w3.org/2000/svg" xmlns:xlink="http://www.w3.org/1999/xlink" viewBox="0 0 500 130">
  <defs>
    <style>
      .cls-1 {
        fill: none;
      }

      .cls-2 {
        fill: #efe4f5;
      }

      .cls-3 {
        clip-path: url(#clippath-1);
      }

      .cls-4 {
        fill: #787878;
      }

      .cls-5 {
        clip-path: url(#clippath);
      }
    </style>
    <clipPath id="clippath">
      <rect class="cls-1" x="15.46" y="17.04" width="241.21" height="95.92"/>
    </clipPath>
    <clipPath id="clippath-1">
      <rect class="cls-1" x="15.46" y="17.04" width="241.21" height="95.92"/>
    </clipPath>
  </defs>
  <g id="Oven">
    <g class="cls-5">
      <g class="cls-3">
        <path d="M143.14,86.2c0-10.49,7.18-17.96,17.02-17.96s17.02,7.47,17.02,17.96-7.17,18.06-17.02,18.06-17.02-7.57-17.02-18.06M160.17,99.96c6.63,0,12.17-5,12.17-13.71s-5.54-13.71-12.17-13.71-12.17,5-12.17,13.71,5.54,13.71,12.17,13.71"/>
        <polygon points="204.26 77.84 194.07 103.57 189.42 103.57 179.42 77.84 184.17 77.84 191.89 98.03 199.66 77.84 204.26 77.84"/>
        <path d="M205,90.66c0-8.46,5.39-13.61,12.57-13.51,8.26.1,12.07,6.43,12.07,12.77,0,.74-.05,1.43-.15,2.18h-19.94c.4,5.69,4.01,8.16,8.26,8.16,4.01,0,6.38-1.78,7.22-4.6h4.45c-.89,5-5.24,8.61-11.78,8.61-6.88,0-12.72-4.5-12.72-13.61M225.04,88.33c-.54-5.15-3.81-7.18-7.57-7.18-4.06,0-7.18,2.08-7.82,7.18h15.39Z"/>
        <path d="M234.1,77.84h4.26v4.06c2.03-3.32,5.49-4.75,8.46-4.75,5.34,0,9.85,3.91,9.85,10.04v16.38h-4.35v-14.94c0-5.59-2.97-7.52-6.24-7.52-4.55,0-7.62,3.36-7.62,9.45v13.01h-4.35v-25.73Z"/>
        <path class="cls-4" d="M143.33,51.89c0-3.65,2.79-6.82,7.48-7.29,5.4-.57,8.9-.57,10.13-1.51v-.76c0-3.36-2.75-5.35-6.39-5.35s-6.48,1.85-6.58,5.54h-4.21c.09-5.54,4.78-9.37,10.89-9.37,5.44,0,10.37,3.41,10.46,9.37v9.28c0,1.99.99,2.93,2.93,2.93h.57v3.69h-1.28c-2.51,0-4.73-1.04-5.78-3.55-1.71,2.56-5.21,4.21-9.56,4.21-4.83,0-8.66-2.32-8.66-7.2M152.32,55.35c4.59,0,8.62-2.89,8.62-6.58v-1.94c-1.04.76-4.12.81-9.23,1.28-2.46.24-4.07,1.33-4.07,3.64s1.85,3.6,4.69,3.6"/>
        <path class="cls-4" d="M171.68,49.15v-23.86h4.17v23.67c0,3.55,2.27,5.78,5.49,5.78h.57v3.69h-1.33c-4.78,0-8.9-3.74-8.9-9.28"/>
        <path class="cls-4" d="M187.82,40.58c0,1.7,1.14,3.12,3.55,3.12h4.4c4.68,0,8.33,2.79,8.33,7.48s-3.65,7.24-8.33,7.24h-11.46v-3.69h11.32c2.79,0,4.12-1.37,4.12-3.46,0-1.89-1.32-3.45-4.12-3.45h-4.5c-4.26,0-7.57-2.89-7.57-7.15s3.31-6.91,7.57-6.91h11.55v3.69h-11.32c-2.41,0-3.55,1.42-3.55,3.12"/>
        <path class="cls-4" d="M210.49,25.05c1.47,0,2.79,1.28,2.79,2.84s-1.32,2.89-2.79,2.89-2.84-1.28-2.84-2.89,1.32-2.84,2.84-2.84M212.57,58.43h-4.16v-24.62h4.16v24.62Z"/>
        <path class="cls-4" d="M218.02,33.81h4.07v3.88c1.99-3.17,4.92-4.54,7.53-4.54,3.31,0,6.25,1.75,7.77,4.88,2.23-3.6,5.54-4.88,8.43-4.88,4.88,0,8.81,3.88,8.81,9.61v15.67h-4.17v-14.77c0-4.69-2.46-6.72-5.35-6.72-4.12,0-6.63,3.22-6.63,9.04v12.45h-4.17v-14.77c0-4.69-2.51-6.72-5.4-6.72-4.12,0-6.72,3.22-6.72,9.04v12.45h-4.16v-24.62Z"/>
        <path class="cls-2" d="M123.06,61.44l-23.58-40.83c-1.27-2.2-3.62-3.56-6.17-3.56h-47.15c-2.55,0-4.9,1.36-6.17,3.56l-23.58,40.83c-1.27,2.2-1.27,4.92,0,7.13l23.58,40.83c1.27,2.2,3.62,3.56,6.17,3.56h47.15c2.55,0,4.9-1.36,6.17-3.56l23.58-40.83c1.27-2.2,1.27-4.92,0-7.13"/>
        <path d="M69.11,80.52v-36.5h-2.88v36.5c-2.93.66-5.12,3.27-5.12,6.4,0,3.62,2.94,6.56,6.56,6.56s6.56-2.94,6.56-6.56c0-3.13-2.19-5.74-5.12-6.4"/>
        <path d="M77.63,39.06c0-5.53-4.5-10.04-10.04-10.04s-10.04,4.5-10.04,10.04v38.2c-2.5,2.61-3.87,6.02-3.87,9.66,0,7.72,6.28,13.99,13.99,13.99s13.99-6.28,13.99-13.99c0-3.67-1.46-7.22-4.04-9.83v-38.03ZM78.79,86.92c0,6.13-4.99,11.11-11.11,11.11s-11.11-4.99-11.11-11.11c0-3.06,1.22-5.91,3.43-8.02l.44-.42v-39.41c0-3.95,3.21-7.16,7.16-7.16s7.16,3.21,7.16,7.16v39.27l.46.43c2.27,2.1,3.57,5.07,3.57,8.16"/>
        <rect x="83.16" y="60.56" width="12.96" height="2.88"/>
        <rect x="83.16" y="51.57" width="7.92" height="2.88"/>
        <rect x="83.16" y="33.59" width="7.92" height="2.88"/>
        <rect x="83.16" y="69.56" width="7.92" height="2.88"/>
        <rect x="83.16" y="42.58" width="12.96" height="2.88"/>
      </g>
    </g>
  </g>
</svg>