<?xml version="1.0" encoding="utf-8"?>
<!-- Generator: Adobe Illustrator 25.0.1, SVG Export Plug-In . SVG Version: 6.00 Build 0)  -->
<svg version="1.1" id="Layer_1" xmlns="http://www.w3.org/2000/svg" xmlns:xlink="http://www.w3.org/1999/xlink" x="0px" y="0px"
	 viewBox="0 0 900 300" style="enable-background:new 0 0 900 300;" xml:space="preserve">
<style type="text/css">
	.st0{fill:#5B266C;}
	.st1{fill:#895AA4;}
	.st2{fill:#9C66AA;}
	.st3{fill:#4C4D4E;}
	.st4{fill:#9D906F;}
	.st5{fill:#C2B98E;}
	.st6{fill:#D4CBA4;}
	.st7{fill:#AE7D36;}
	.st8{fill:#BE8B37;}
	.st9{fill:#EEAA32;}
	.st10{fill:#577D40;}
	.st11{fill:#78A94E;}
	.st12{fill:#A4D06E;}
	.st13{fill:#006654;}
	.st14{fill:#108673;}
	.st15{fill:#0EA285;}
	.st16{fill:#43888D;}
	.st17{fill:#68B2C6;}
	.st18{fill:#9AD9EB;}
	.st19{fill:#001D27;}
	.st20{fill:#294146;}
	.st21{fill:#52656E;}
	.st22{fill:#4A4D4D;}
	.st23{fill:#BFBEBE;}
	.st24{fill:#14BEF0;}
	.st25{fill:#787A7A;}
	.st26{fill:#BFBFC0;}
	.st27{fill:#D3D4D6;}
	.st28{fill:#10BEF0;}
	.st29{fill:#7B7B7B;}
</style>
<g>
	<polygon class="st19" points="84.1,241.9 176.9,241.9 223.3,161.5 130.5,161.5 	"/>
	<polygon class="st20" points="110,149 64.2,69.7 17.8,150 64.2,230.3 110.5,150 	"/>
	<polygon class="st21" points="223.3,138.5 176.9,58.1 84.1,58.1 130.5,138.5 	"/>
	<g>
		<path class="st3" d="M296.7,223.5c-3.7-1.7-6.5-5-8.5-9.9c-1.9-4.9-2.9-12.1-2.9-21.6c0-9.5,1-16.7,2.9-21.7
			c1.9-5,4.8-8.3,8.5-10.1c3.7-1.8,8.7-2.7,15.1-2.7c6.5,0,11.5,0.9,15.3,2.7c3.7,1.8,6.5,5.1,8.5,10.1c1.9,5,2.9,12.2,2.9,21.7
			c0,9.5-1,16.7-2.9,21.6c-1.9,4.9-4.7,8.2-8.5,9.9c-3.7,1.7-8.8,2.6-15.3,2.6C305.5,226.1,300.4,225.2,296.7,223.5z M322.3,215.9
			c2.4-1.3,4.2-3.7,5.3-7.4c1.1-3.7,1.6-9.1,1.6-16.5c0-7.6-0.5-13.3-1.6-17s-2.8-6.2-5.3-7.4c-2.4-1.2-5.9-1.8-10.5-1.8
			c-4.4,0-7.8,0.6-10.2,1.9c-2.4,1.2-4.2,3.7-5.4,7.4c-1.2,3.7-1.8,9.4-1.8,16.9c0,7.4,0.5,12.9,1.6,16.5c1.1,3.6,2.8,6.1,5.2,7.4
			c2.4,1.3,5.9,1.9,10.6,1.9C316.4,217.8,319.8,217.2,322.3,215.9z"/>
		<path class="st3" d="M349.9,168c-0.3-0.3-0.5-0.7-0.5-1.1v-7.7c0-1.1,0.5-1.6,1.6-1.6h6.8c0.5,0,0.9,0.2,1.1,0.5
			c0.2,0.3,0.4,0.7,0.4,1.2v7.7c0,1-0.5,1.6-1.5,1.6h-6.8C350.6,168.4,350.2,168.3,349.9,168z M349.8,176.6h9.1v48.9h-9.1V176.6z"/>
		<path class="st3" d="M375.1,222c-2.2-2.4-3.3-6.5-3.3-12.2v-54h9.1v52.8c0,3.6,0.5,6.1,1.5,7.4c1,1.3,2.6,2.2,4.8,2.5l4.6,0.5v6.6
			h-6.4C380.7,225.6,377.3,224.4,375.1,222z"/>
		<path class="st3" d="M429.3,223.8c-2.7-1.5-4.8-3.6-6.3-6.3c-1.5-2.7-2.3-5.8-2.3-9.4c0-6.6,2.8-12.4,8.5-17.3l5.8-4.9l-1.6-2.3
			c-1.7-2.5-2.9-4.8-3.5-6.8c-0.6-2-1-4-1-6c0-4.3,1.5-7.5,4.4-9.5c3-2,6.8-3,11.7-3c5.8,0,11.3,0.5,16.3,1.5v6.7h-14.6
			c-5.7,0-8.5,2.1-8.5,6.3c0,1.3,0.3,2.8,1.1,4.3c0.7,1.5,1.8,3.4,3.4,5.6l16.5,22.5l13.4-12.4l3.4,4l-6.2,8.8l-5.9,5.7l10.7,14.4
			h-9.7l-6.9-9l-3.2,2.7c-2.7,2.5-5.3,4.3-7.9,5.3s-5.4,1.6-8.4,1.6C435,226.1,432,225.3,429.3,223.8z M445.1,216.5
			c1.6-0.7,3.3-1.9,5.2-3.7l2.7-2.6l-13.3-18l-4.4,3.8c-2.1,1.8-3.5,3.5-4.4,5.3c-0.9,1.8-1.3,3.7-1.3,5.7c0,3.1,0.9,5.6,2.8,7.5
			c1.9,1.9,4.4,2.9,7.6,2.9C441.7,217.6,443.5,217.2,445.1,216.5z"/>
		<path class="st3" d="M517.1,222.2c-3.1-2.5-5.2-6.2-6.4-11.2c-1.2-4.9-1.8-11.4-1.8-19.4c0-7.9,0.7-14.3,2-19.2
			c1.3-4.9,3.7-8.6,7.1-11.1c3.4-2.5,8.2-3.7,14.3-3.7c7.4,0,14.7,0.8,22,2.5v7c-7-0.9-13.8-1.3-20.5-1.3c-4.3,0-7.5,0.8-9.8,2.5
			c-2.3,1.7-3.8,4.4-4.7,8c-0.9,3.7-1.3,8.8-1.3,15.4c0,6.9,0.4,12.2,1.3,15.8c0.9,3.7,2.4,6.2,4.5,7.7c2.1,1.5,5.1,2.2,9.1,2.2
			c4.7,0,9.8-1,15.4-3v-17.8h-15v-7c4-0.6,9-0.9,15.3-0.9c2.7,0,5.5,0.1,8.6,0.4v36.4h-6.9l-1.4-4.7c-2.5,1.3-5.4,2.5-8.7,3.6
			c-3.3,1-6.7,1.6-10.2,1.6C524.5,226,520.2,224.7,517.1,222.2z"/>
		<path class="st3" d="M571.1,222.8c-2.3-2.2-3.5-5.2-3.5-9V210c0-3.9,1.3-7,4-9.4c2.7-2.3,6.5-3.5,11.7-3.5h15.3V192
			c0-2-0.3-3.6-1-4.9c-0.7-1.2-1.9-2.2-3.6-2.9c-1.7-0.7-4.2-1-7.4-1h-15v-5.4c5.4-1.2,11.4-1.9,18.1-1.9c6.2,0,10.8,1.2,13.8,3.6
			c3,2.4,4.4,6.4,4.4,11.8v34.2h-7.2L599,220c-0.5,0.5-1.8,1.2-3.9,2.2c-2,1-4.4,1.9-7.1,2.7c-2.7,0.8-5.3,1.2-7.9,1.2
			C576.4,226.1,573.4,225,571.1,222.8z M589.7,218.6c2.1-0.5,4-1.1,5.8-1.7c1.8-0.6,2.8-1,3-1.1v-14.1l-12.8,0.5
			c-5.9,0.4-8.9,3-8.9,7.9v2.2c0,2.5,0.7,4.3,2.2,5.4s3.3,1.7,5.4,1.7C585.9,219.4,587.7,219.1,589.7,218.6z"/>
		<path class="st3" d="M626.8,225.7c-3.9-0.3-6.7-0.7-8.4-1.1V219H639c2.9,0,5.1-0.4,6.5-1.2c1.4-0.8,2.1-2.5,2.1-5v-2
			c0-3.9-2.6-5.9-7.9-5.9h-7.1c-4.7,0-8.3-1-10.9-2.9c-2.6-1.9-3.8-5.1-3.8-9.6v-2.7c0-4.7,1.4-8.1,4.2-10.4
			c2.8-2.2,7.4-3.3,13.8-3.3c2.7,0,5.8,0.2,9.4,0.5c3.6,0.3,6.4,0.7,8.3,1.1v5.5h-19.4c-2.9,0-5,0.5-6.3,1.5c-1.3,1-2,2.7-2,5.1v1.8
			c0,2.3,0.7,3.8,2,4.6c1.3,0.7,3.4,1.1,6.4,1.1h7.3c4.6,0,8.1,1.1,10.5,3.2c2.4,2.1,3.6,5.2,3.6,9.1v3.7c0,4.7-1.5,8-4.6,9.8
			c-3.1,1.9-7.6,2.8-13.7,2.8C634.2,226.1,630.7,225.9,626.8,225.7z"/>
	</g>
	<g>
		<path class="st3" d="M288.2,139.7c-1.6-1.5-2.4-3.6-2.4-6.2v-2.3c0-2.7,0.9-4.9,2.7-6.5c1.8-1.6,4.4-2.4,7.7-2.4h12.3v-4.7
			c0-2.4-0.7-4.3-2-5.5c-1.3-1.2-3.7-1.8-7.2-1.8h-10.6v-2.2c4.1-0.5,8-0.8,11.8-0.8c4,0,6.9,0.8,8.8,2.5c1.9,1.7,2.8,4.2,2.8,7.7
			v24.1h-2.8l-0.8-3.9c-0.3,0.2-1.3,0.7-2.9,1.4c-1.6,0.7-3.5,1.4-5.6,2c-2.1,0.6-4,0.9-5.8,0.9C291.8,142,289.8,141.2,288.2,139.7z
			 M300.6,138.3c1.9-0.5,3.5-1,5-1.5c1.5-0.5,2.4-0.9,2.9-1v-11.5l-11.8,0.4c-2.5,0.1-4.3,0.7-5.5,1.9c-1.2,1.2-1.8,2.7-1.8,4.7v1.6
			c0,2.2,0.6,3.7,1.9,4.7c1.3,1,2.8,1.5,4.5,1.5C297.2,139,298.8,138.8,300.6,138.3z"/>
		<path class="st3" d="M324.4,139.2c-1.4-1.6-2.1-4.4-2.1-8.4V93.3h3.7v37.2c0,2.1,0.2,3.7,0.6,4.9c0.4,1.1,0.9,1.9,1.6,2.4
			c0.7,0.5,1.7,0.8,2.8,0.9l3.7,0.4v2.6h-4.1C327.9,141.6,325.8,140.8,324.4,139.2z"/>
		<path class="st3" d="M344.9,141.7c-3-0.1-4.9-0.3-5.9-0.5V139h13.5c2.6,0,4.6-0.4,5.9-1.1c1.3-0.7,1.9-2.3,1.9-4.6v-1.6
			c0-1.7-0.6-3-1.7-4c-1.1-0.9-2.8-1.4-5.1-1.4h-4.6c-3.3,0-5.8-0.6-7.5-1.8c-1.7-1.2-2.6-3.3-2.6-6.3v-1.7c0-3.1,0.9-5.4,2.8-6.9
			c1.8-1.5,4.7-2.2,8.6-2.2c1.8,0,3.9,0.1,6.4,0.2c2.5,0.1,4.4,0.3,5.8,0.5v2.3h-12.7c-2.6,0-4.5,0.4-5.7,1.3
			c-1.2,0.9-1.9,2.4-1.9,4.7v1.5c0,2.1,0.6,3.4,1.8,4.1c1.2,0.7,3,1,5.5,1h4.6c3,0,5.3,0.7,7.1,2.1c1.7,1.4,2.6,3.4,2.6,6v2.2
			c0,3.2-1,5.4-3,6.6c-2,1.2-4.9,1.8-8.6,1.8C350.2,142,347.9,141.9,344.9,141.7z"/>
		<path class="st3" d="M372,101.3c-0.2-0.2-0.3-0.4-0.3-0.7v-4.5c0-0.6,0.3-0.9,1-0.9h2.5c0.5,0,0.8,0.3,0.8,0.9v4.5
			c0,0.6-0.3,1-0.8,1h-2.5C372.4,101.5,372.2,101.4,372,101.3z M372.1,107.8h3.7v33.7h-3.7V107.8z"/>
		<path class="st3" d="M386.1,107.8h2.7l0.9,3.8c4.3-2.9,8.7-4.4,13-4.4c2,0,3.8,0.5,5.3,1.4c1.5,0.9,2.7,2.2,3.5,3.7
			c1.7-1.3,3.9-2.5,6.6-3.5c2.7-1.1,5.2-1.6,7.5-1.6c3.4,0,6,1.1,7.8,3.2c1.8,2.1,2.7,4.8,2.7,8.1v23h-3.7v-22.8
			c0-2.4-0.7-4.3-2.1-5.9c-1.4-1.5-3.3-2.3-5.7-2.3c-2,0-4.1,0.4-6.3,1.1c-2.2,0.7-4.3,1.7-6.3,2.9c0.5,1.4,0.8,2.7,0.8,4.1v22.8
			h-3.7v-22.8c0-2.4-0.7-4.3-2.1-5.9c-1.4-1.5-3.3-2.3-5.7-2.3c-2.2,0-4.2,0.3-5.9,0.9c-1.7,0.6-3.7,1.5-5.9,2.7v27.4h-3.7V107.8z"
			/>
	</g>
</g>
</svg>
