<?xml version="1.0" encoding="utf-8"?>
<!-- Generator: Adobe Illustrator 25.0.1, SVG Export Plug-In . SVG Version: 6.00 Build 0)  -->
<svg version="1.1" id="Layer_1" xmlns="http://www.w3.org/2000/svg" xmlns:xlink="http://www.w3.org/1999/xlink" x="0px" y="0px"
	 viewBox="0 0 900 300" style="enable-background:new 0 0 900 300;" xml:space="preserve">
<style type="text/css">
	.st0{fill:#5B266C;}
	.st1{fill:#895AA4;}
	.st2{fill:#9C66AA;}
	.st3{fill:#4C4D4E;}
	.st4{fill:#9D906F;}
	.st5{fill:#C2B98E;}
	.st6{fill:#D4CBA4;}
	.st7{fill:#AE7D36;}
	.st8{fill:#BE8B37;}
	.st9{fill:#EEAA32;}
	.st10{fill:#577D40;}
	.st11{fill:#78A94E;}
	.st12{fill:#A4D06E;}
	.st13{fill:#006654;}
	.st14{fill:#108673;}
	.st15{fill:#0EA285;}
	.st16{fill:#43888D;}
	.st17{fill:#68B2C6;}
	.st18{fill:#9AD9EB;}
	.st19{fill:#001D27;}
	.st20{fill:#294146;}
	.st21{fill:#52656E;}
	.st22{fill:#4A4D4D;}
	.st23{fill:#BFBEBE;}
	.st24{fill:#14BEF0;}
	.st25{fill:#787A7A;}
	.st26{fill:#BFBFC0;}
	.st27{fill:#D3D4D6;}
	.st28{fill:#10BEF0;}
	.st29{fill:#7B7B7B;}
</style>
<g>
	<polygon class="st10" points="84.1,241.9 176.9,241.9 223.3,161.5 130.5,161.5 	"/>
	<polygon class="st11" points="110,149 64.2,69.7 17.8,150 64.2,230.3 110.5,150 	"/>
	<polygon class="st12" points="223.3,138.5 176.9,58.1 84.1,58.1 130.5,138.5 	"/>
	<g>
		<path class="st3" d="M291.2,223.1c-2.8-1.8-4.2-5.5-4.2-10.9v-40c0-4.9,1.3-8.5,4-10.7c2.7-2.2,5.9-3.3,9.7-3.3
			c7.3,0,15.4,0.2,24.6,0.7l4.1,0.2v7.6h-26c-4.8,0-7.2,2.4-7.2,7.2v14l29.1,0.6v7.1l-29.1,0.6V210c0,2.9,0.7,4.8,2,5.8
			c1.3,1,3.1,1.5,5.4,1.5h25.8v7.6c-10.5,0.7-19.8,1-28,1C297.4,225.9,294,225,291.2,223.1z"/>
		<path class="st3" d="M340.6,176.6h7.3l1.8,5.3c2.4-1.8,5.1-3.2,8.1-4.4c3-1.2,6-1.7,9.1-1.7c5.2,0,9,1.6,11.4,4.7
			c2.4,3.1,3.7,7.2,3.7,12.1v32.9h-9.1v-31.8c0-2.9-0.8-5.3-2.5-7c-1.6-1.7-3.9-2.6-6.8-2.6c-2.6,0-4.9,0.4-7,1.1
			c-2.1,0.7-4.4,1.8-6.9,3.3v37h-9.1V176.6z"/>
		<path class="st3" d="M389.7,176.6h9.4L413,217l14.2-40.4h9.3l-18.4,48.9h-10.6L389.7,176.6z"/>
		<path class="st3" d="M444.5,168c-0.3-0.3-0.5-0.7-0.5-1.1v-7.7c0-1.1,0.5-1.6,1.6-1.6h6.8c0.5,0,0.9,0.2,1.1,0.5
			c0.2,0.3,0.4,0.7,0.4,1.2v7.7c0,1-0.5,1.6-1.5,1.6h-6.8C445.2,168.4,444.8,168.3,444.5,168z M444.4,176.6h9.1v48.9h-9.1V176.6z"/>
		<path class="st3" d="M466.3,176.6h7l2.1,8.2c2.3-2.8,4.8-5,7.3-6.5c2.6-1.6,5.4-2.3,8.6-2.3c1.6,0,3.1,0.2,4.4,0.5v9.4
			c-1.9-0.3-3.8-0.5-5.5-0.5c-3,0-5.6,0.5-7.9,1.6c-2.3,1.1-4.6,2.8-6.9,5.1v33.4h-9.1V176.6z"/>
		<path class="st3" d="M511.8,223.9c-3.1-1.5-5.4-4-6.9-7.6c-1.5-3.6-2.2-8.7-2.2-15.2c0-6.7,0.8-11.9,2.3-15.5
			c1.5-3.6,3.8-6.1,6.9-7.5c3.1-1.4,7.2-2.1,12.4-2.1s9.3,0.7,12.4,2.1c3.1,1.4,5.4,3.9,6.9,7.5c1.5,3.6,2.3,8.8,2.3,15.4
			c0,6.6-0.7,11.7-2.2,15.3c-1.5,3.6-3.8,6.2-6.9,7.6c-3.1,1.4-7.2,2.1-12.5,2.1C519.1,226.1,515,225.3,511.8,223.9z M531.5,217.3
			c1.7-0.8,3-2.5,3.9-5c0.9-2.5,1.3-6.3,1.3-11.4c0-5.1-0.4-8.9-1.3-11.4c-0.9-2.5-2.2-4.2-3.9-5c-1.7-0.8-4.1-1.2-7.2-1.2
			c-3.1,0-5.5,0.4-7.2,1.2c-1.7,0.8-3,2.5-3.8,5c-0.9,2.5-1.3,6.3-1.3,11.4c0,5.1,0.4,8.9,1.3,11.5c0.9,2.5,2.2,4.2,3.8,5
			c1.7,0.8,4.1,1.2,7.2,1.2C527.3,218.6,529.7,218.2,531.5,217.3z"/>
		<path class="st3" d="M557,176.6h7.3l1.8,5.3c2.4-1.8,5.1-3.2,8.1-4.4c3-1.2,6-1.7,9.1-1.7c5.2,0,9,1.6,11.4,4.7
			c2.4,3.1,3.7,7.2,3.7,12.1v32.9h-9.1v-31.8c0-2.9-0.8-5.3-2.5-7c-1.6-1.7-3.9-2.6-6.8-2.6c-2.6,0-4.9,0.4-7,1.1
			c-2.1,0.7-4.4,1.8-6.9,3.3v37H557V176.6z"/>
		<path class="st3" d="M610.9,176.6h7.3l1.8,5.3c2.7-1.9,5.5-3.4,8.4-4.5c2.8-1.1,6-1.6,9.4-1.6c2.9,0,5.5,0.6,7.6,1.9
			c2.1,1.3,3.8,3,5,5.2c2.4-1.9,5.4-3.5,8.9-5c3.5-1.4,6.8-2.1,9.9-2.1c5.2,0,9.1,1.5,11.6,4.6c2.5,3.1,3.7,7.2,3.7,12.5v32.6h-9.1
			v-31.8c0-2.9-0.8-5.3-2.5-7s-3.9-2.6-6.8-2.6c-2.3,0-4.7,0.4-7.3,1.3c-2.5,0.9-5,2.1-7.3,3.5c0.5,1.6,0.7,3.3,0.7,4.8v31.7h-9.1
			v-31.8c0-2.9-0.8-5.3-2.5-7c-1.6-1.7-3.9-2.6-6.8-2.6c-2.6,0-4.9,0.4-7,1.1c-2.1,0.7-4.4,1.8-6.9,3.3v37h-9.1V176.6z"/>
		<path class="st3" d="M703.9,223.8c-3-1.5-5.2-4.1-6.5-7.7s-2-8.6-2-15.1c0-6.6,0.7-11.7,2-15.3c1.3-3.6,3.5-6.1,6.4-7.6
			c3-1.5,7.1-2.2,12.4-2.2c4.6,0,8.3,0.5,11.1,1.5c2.7,1,4.8,2.7,6,5c1.3,2.4,1.9,5.7,1.9,9.9c0,4.3-1.3,7.4-3.7,9.4
			c-2.5,1.9-6.1,2.9-10.8,2.9h-16.2c0.1,3.7,0.5,6.6,1.2,8.6c0.8,2,2.1,3.5,4.2,4.4c2,0.9,4.9,1.4,8.7,1.4H734v5.5
			c-3.4,0.5-6.3,0.9-8.9,1.1c-2.6,0.3-5.5,0.4-8.7,0.4C711.1,226.1,707,225.3,703.9,223.8z M720,198.8c2.5,0,4.3-0.5,5.4-1.4
			c1.1-0.9,1.7-2.6,1.7-5c0-3.7-0.8-6.2-2.4-7.6c-1.6-1.4-4.4-2.1-8.4-2.1c-3.1,0-5.5,0.5-7.2,1.4c-1.7,0.9-2.9,2.5-3.6,4.8
			c-0.7,2.3-1.1,5.6-1.1,9.9H720z"/>
		<path class="st3" d="M746.5,176.6h7.3l1.8,5.3c2.4-1.8,5.1-3.2,8.1-4.4c3-1.2,6-1.7,9.1-1.7c5.2,0,9,1.6,11.4,4.7
			c2.4,3.1,3.7,7.2,3.7,12.1v32.9h-9.1v-31.8c0-2.9-0.8-5.3-2.5-7c-1.6-1.7-3.9-2.6-6.8-2.6c-2.6,0-4.9,0.4-7,1.1
			c-2.1,0.7-4.4,1.8-6.9,3.3v37h-9.1V176.6z"/>
		<path class="st3" d="M806.3,221.8c-2.3-2.5-3.4-6.7-3.3-12.5l0.4-25.1h-7.8v-5.9l8-1.6l1.4-13.7h7.2v13.7h13.3v7.5h-13.3v25
			c0,3.3,0.6,5.6,1.9,6.9c1.2,1.3,2.8,2,4.7,2.2l6,0.5v6.8h-7.4C812.3,225.5,808.6,224.3,806.3,221.8z"/>
	</g>
	<g>
		<path class="st3" d="M288.2,139.7c-1.6-1.5-2.4-3.6-2.4-6.2v-2.3c0-2.7,0.9-4.9,2.7-6.5c1.8-1.6,4.4-2.4,7.7-2.4h12.3v-4.7
			c0-2.4-0.7-4.3-2-5.5c-1.3-1.2-3.7-1.8-7.2-1.8h-10.6v-2.2c4.1-0.5,8-0.8,11.8-0.8c4,0,6.9,0.8,8.8,2.5c1.9,1.7,2.8,4.2,2.8,7.7
			v24.1h-2.8l-0.8-3.9c-0.3,0.2-1.3,0.7-2.9,1.4c-1.6,0.7-3.5,1.4-5.6,2c-2.1,0.6-4,0.9-5.8,0.9C291.8,142,289.8,141.2,288.2,139.7z
			 M300.6,138.3c1.9-0.5,3.5-1,5-1.5c1.5-0.5,2.4-0.9,2.9-1v-11.5l-11.8,0.4c-2.5,0.1-4.3,0.7-5.5,1.9c-1.2,1.2-1.8,2.7-1.8,4.7v1.6
			c0,2.2,0.6,3.7,1.9,4.7c1.3,1,2.8,1.5,4.5,1.5C297.2,139,298.8,138.8,300.6,138.3z"/>
		<path class="st3" d="M324.4,139.2c-1.4-1.6-2.1-4.4-2.1-8.4V93.3h3.7v37.2c0,2.1,0.2,3.7,0.6,4.9c0.4,1.1,0.9,1.9,1.6,2.4
			c0.7,0.5,1.7,0.8,2.8,0.9l3.7,0.4v2.6h-4.1C327.9,141.6,325.8,140.8,324.4,139.2z"/>
		<path class="st3" d="M344.9,141.7c-3-0.1-4.9-0.3-5.9-0.5V139h13.5c2.6,0,4.6-0.4,5.9-1.1c1.3-0.7,1.9-2.3,1.9-4.6v-1.6
			c0-1.7-0.6-3-1.7-4c-1.1-0.9-2.8-1.4-5.1-1.4h-4.6c-3.3,0-5.8-0.6-7.5-1.8c-1.7-1.2-2.6-3.3-2.6-6.3v-1.7c0-3.1,0.9-5.4,2.8-6.9
			c1.8-1.5,4.7-2.2,8.6-2.2c1.8,0,3.9,0.1,6.4,0.2c2.5,0.1,4.4,0.3,5.8,0.5v2.3h-12.7c-2.6,0-4.5,0.4-5.7,1.3
			c-1.2,0.9-1.9,2.4-1.9,4.7v1.5c0,2.1,0.6,3.4,1.8,4.1c1.2,0.7,3,1,5.5,1h4.6c3,0,5.3,0.7,7.1,2.1c1.7,1.4,2.6,3.4,2.6,6v2.2
			c0,3.2-1,5.4-3,6.6c-2,1.2-4.9,1.8-8.6,1.8C350.2,142,347.9,141.9,344.9,141.7z"/>
		<path class="st3" d="M372,101.3c-0.2-0.2-0.3-0.4-0.3-0.7v-4.5c0-0.6,0.3-0.9,0.9-0.9h2.5c0.5,0,0.8,0.3,0.8,0.9v4.5
			c0,0.6-0.3,1-0.8,1h-2.5C372.4,101.5,372.2,101.4,372,101.3z M372.1,107.8h3.7v33.7h-3.7V107.8z"/>
		<path class="st3" d="M386.1,107.8h2.7l0.9,3.8c4.3-2.9,8.7-4.4,13-4.4c2,0,3.8,0.5,5.3,1.4s2.7,2.2,3.5,3.7
			c1.7-1.3,3.9-2.5,6.6-3.5c2.7-1.1,5.2-1.6,7.5-1.6c3.4,0,6,1.1,7.8,3.2c1.8,2.1,2.7,4.8,2.7,8.1v23h-3.7v-22.8
			c0-2.4-0.7-4.3-2.1-5.9c-1.4-1.5-3.3-2.3-5.7-2.3c-2,0-4.1,0.4-6.3,1.1c-2.2,0.7-4.3,1.7-6.3,2.9c0.5,1.4,0.8,2.7,0.8,4.1v22.8
			h-3.7v-22.8c0-2.4-0.7-4.3-2.1-5.9c-1.4-1.5-3.3-2.3-5.7-2.3c-2.2,0-4.2,0.3-5.9,0.9c-1.7,0.6-3.7,1.5-5.9,2.7v27.4h-3.7V107.8z"
			/>
	</g>
</g>
</svg>
