<?xml version="1.0" encoding="UTF-8"?>
<svg id="Layer_1" data-name="Layer 1" xmlns="http://www.w3.org/2000/svg" xmlns:xlink="http://www.w3.org/1999/xlink" viewBox="0 0 500 130">
  <defs>
    <style>
      .cls-1 {
        fill: none;
      }

      .cls-2 {
        fill: #efe4f5;
      }

      .cls-3 {
        clip-path: url(#clippath-1);
      }

      .cls-4 {
        fill: #2d2d2d;
      }

      .cls-5 {
        fill: #787878;
      }

      .cls-6 {
        clip-path: url(#clippath);
      }
    </style>
    <clipPath id="clippath">
      <rect class="cls-1" x="15.46" y="17.04" width="345.44" height="95.92"/>
    </clipPath>
    <clipPath id="clippath-1">
      <rect class="cls-1" x="15.46" y="17.04" width="345.44" height="95.92"/>
    </clipPath>
  </defs>
  <g id="Anodizing">
    <g class="cls-6">
      <g class="cls-3">
        <path class="cls-2" d="M92.84,17.04h-46.4c-2.78,0-5.34,1.48-6.73,3.89l-23.2,40.18c-1.39,2.41-1.39,5.37,0,7.78l23.2,40.18c1.39,2.41,3.96,3.89,6.73,3.89h46.4c2.78,0,5.34-1.48,6.73-3.89l23.2-40.18c1.39-2.41,1.39-5.37,0-7.78l-23.2-40.18c-1.39-2.41-3.96-3.89-6.73-3.89"/>
        <path class="cls-4" d="M88.87,72.84h-21.6c-.94,0-1.7-.76-1.7-1.7s.76-1.7,1.7-1.7h21.6c.94,0,1.7.76,1.7,1.7s-.76,1.7-1.7,1.7"/>
        <path class="cls-4" d="M78.07,83.65c-.94,0-1.7-.76-1.7-1.7v-21.6c0-.94.76-1.7,1.7-1.7s1.7.76,1.7,1.7v21.6c0,.94-.76,1.7-1.7,1.7"/>
        <path class="cls-4" d="M78.07,50.73c-2.25,0-4.4.38-6.42,1.05-2.68-6.12-8.8-10.41-15.9-10.41-9.57,0-17.36,7.79-17.36,17.36s7.79,17.36,17.36,17.36c.84,0,1.67-.08,2.48-.2-.1-.41-.18-.83-.24-1.26.07.42.15.84.24,1.26.57-.08,1.13-.19,1.68-.33-.55.14-1.11.24-1.68.33,2.14,8.98,10.21,15.68,19.84,15.68,11.26,0,20.42-9.16,20.42-20.42s-9.16-20.42-20.42-20.42M57.85,73.72h0s0,0,0,0ZM47.84,60.88c-.94,0-1.7-.76-1.7-1.7s.76-1.7,1.7-1.7h14.63c.94,0,1.7.76,1.7,1.7s-.76,1.7-1.7,1.7h-14.63ZM78.07,88.16c-8.03,0-14.77-5.6-16.54-13.1-.26-1.11-.42-2.27-.45-3.45,0-.16-.02-.31-.02-.47,0-6.26,3.41-11.73,8.46-14.68,1-.59,2.07-1.08,3.19-1.45-.12-.56-.27-1.11-.45-1.65.18.54.33,1.09.45,1.65,1.69-.56,3.49-.88,5.37-.88,9.38,0,17.02,7.63,17.02,17.02s-7.63,17.02-17.02,17.02"/>
        <path d="M155.43,68.94h4.8l14.45,34.64h-5l-3.56-8.86h-16.08l-3.36,8.86h-4.9l13.66-34.64ZM164.44,90.56l-6.58-16.38-6.23,16.38h12.82Z"/>
        <path d="M177.9,77.84h4.26v4.06c2.03-3.32,5.49-4.75,8.46-4.75,5.34,0,9.85,3.91,9.85,10.04v16.38h-4.35v-14.94c0-5.59-2.97-7.52-6.24-7.52-4.55,0-7.62,3.36-7.62,9.45v13.01h-4.35v-25.73Z"/>
        <path d="M217.44,104.27c-6.83,0-12.77-4.95-12.77-13.61s5.94-13.51,12.77-13.51,12.77,4.85,12.77,13.51-5.94,13.61-12.77,13.61M217.44,100.26c4.45,0,8.26-3.17,8.26-9.55s-3.81-9.55-8.26-9.55-8.26,2.92-8.26,9.55,3.81,9.55,8.26,9.55"/>
        <path d="M258.81,103.57h-4.26v-3.36c-1.93,2.52-5.24,4.06-8.86,4.06-6.33,0-12.02-4.8-12.02-13.51s5.74-13.61,12.07-13.61c3.56,0,6.53,1.39,8.71,4.06v-12.27h4.36v34.64ZM246.24,100.26c4.6,0,8.31-3.07,8.31-9.55s-4.01-9.55-8.31-9.55c-4.85,0-7.97,3.27-7.97,9.65,0,6.04,3.61,9.45,7.97,9.45"/>
        <path d="M266.73,68.69c1.53,0,2.92,1.34,2.92,2.97s-1.39,3.02-2.92,3.02-2.97-1.34-2.97-3.02,1.39-2.97,2.97-2.97M268.91,103.57h-4.36v-25.73h4.36v25.73Z"/>
        <polygon points="294.99 103.57 273.61 103.57 273.61 100.46 288.95 81.7 274.45 81.7 274.45 77.84 294.34 77.84 294.34 81.4 279.3 99.71 294.99 99.71 294.99 103.57"/>
        <path d="M301.67,68.69c1.53,0,2.92,1.34,2.92,2.97s-1.39,3.02-2.92,3.02-2.97-1.34-2.97-3.02,1.39-2.97,2.97-2.97M303.85,103.57h-4.35v-25.73h4.35v25.73Z"/>
        <path d="M309.54,77.84h4.26v4.06c2.03-3.32,5.49-4.75,8.46-4.75,5.34,0,9.85,3.91,9.85,10.04v16.38h-4.35v-14.94c0-5.59-2.97-7.52-6.24-7.52-4.55,0-7.62,3.36-7.62,9.45v13.01h-4.36v-25.73Z"/>
        <path d="M339.28,111.49v-3.86h10.14c3.56,0,7.13-1.44,7.13-6.14v-2.87c-1.88,2.38-5,3.96-8.36,3.96-5.84,0-11.63-4.45-11.63-12.67s5.79-12.77,11.63-12.77c3.32,0,6.24,1.19,8.46,3.81v-3.12h4.26v23.9c0,6.83-5.59,9.75-11.48,9.75h-10.14ZM348.73,98.57c3.91,0,7.92-2.67,7.92-8.71s-4.21-8.71-7.92-8.71c-4.26,0-7.52,2.77-7.52,8.81,0,5.69,3.76,8.61,7.52,8.61"/>
        <path class="cls-5" d="M143.19,51.89c0-3.65,2.79-6.82,7.48-7.29,5.4-.57,8.9-.57,10.13-1.51v-.76c0-3.36-2.75-5.35-6.39-5.35s-6.49,1.85-6.58,5.54h-4.21c.09-5.54,4.78-9.37,10.89-9.37,5.44,0,10.37,3.41,10.46,9.37v9.28c0,1.99.99,2.93,2.93,2.93h.57v3.69h-1.28c-2.51,0-4.73-1.04-5.78-3.55-1.71,2.56-5.21,4.21-9.56,4.21-4.83,0-8.66-2.32-8.66-7.2M152.19,55.35c4.59,0,8.62-2.89,8.62-6.58v-1.94c-1.04.76-4.12.81-9.23,1.28-2.46.24-4.07,1.33-4.07,3.64s1.85,3.6,4.69,3.6"/>
        <path class="cls-5" d="M171.54,49.15v-23.86h4.17v23.67c0,3.55,2.27,5.78,5.49,5.78h.57v3.69h-1.33c-4.78,0-8.9-3.74-8.9-9.28"/>
        <path class="cls-5" d="M187.68,40.58c0,1.7,1.14,3.12,3.55,3.12h4.4c4.68,0,8.33,2.79,8.33,7.48s-3.65,7.24-8.33,7.24h-11.46v-3.69h11.32c2.79,0,4.12-1.37,4.12-3.46,0-1.89-1.32-3.45-4.12-3.45h-4.5c-4.26,0-7.57-2.89-7.57-7.15s3.31-6.91,7.57-6.91h11.55v3.69h-11.32c-2.41,0-3.55,1.42-3.55,3.12"/>
        <path class="cls-5" d="M210.36,25.05c1.47,0,2.79,1.28,2.79,2.84s-1.32,2.89-2.79,2.89-2.84-1.28-2.84-2.89,1.32-2.84,2.84-2.84M212.44,58.43h-4.16v-24.62h4.16v24.62Z"/>
        <path class="cls-5" d="M217.88,33.81h4.07v3.88c1.99-3.17,4.92-4.54,7.53-4.54,3.31,0,6.25,1.75,7.77,4.88,2.23-3.6,5.54-4.88,8.43-4.88,4.88,0,8.81,3.88,8.81,9.61v15.67h-4.17v-14.77c0-4.69-2.46-6.72-5.35-6.72-4.12,0-6.63,3.22-6.63,9.04v12.45h-4.17v-14.77c0-4.69-2.51-6.72-5.4-6.72-4.12,0-6.72,3.22-6.72,9.04v12.45h-4.16v-24.62Z"/>
      </g>
    </g>
  </g>
</svg>