<?xml version="1.0" encoding="UTF-8"?>
<svg id="Layer_1" data-name="Layer 1" xmlns="http://www.w3.org/2000/svg" xmlns:xlink="http://www.w3.org/1999/xlink" viewBox="0 0 500 130">
  <defs>
    <style>
      .cls-1 {
        fill: none;
      }

      .cls-2 {
        fill: #efe4f5;
      }

      .cls-3 {
        fill: #24282b;
      }

      .cls-4 {
        clip-path: url(#clippath-1);
      }

      .cls-5 {
        fill: #787878;
      }

      .cls-6 {
        clip-path: url(#clippath);
      }
    </style>
    <clipPath id="clippath">
      <rect class="cls-1" x="15.46" y="17.04" width="364.74" height="95.92"/>
    </clipPath>
    <clipPath id="clippath-1">
      <rect class="cls-1" x="15.46" y="17.04" width="364.74" height="95.92"/>
    </clipPath>
  </defs>
  <g id="Bake_Drips" data-name="Bake Drips">
    <g class="cls-6">
      <g class="cls-4">
        <path class="cls-2" d="M92.84,17.04h-46.4c-2.78,0-5.34,1.48-6.73,3.89l-23.2,40.18c-1.39,2.41-1.39,5.37,0,7.78l23.2,40.18c1.39,2.41,3.96,3.89,6.73,3.89h46.4c2.78,0,5.34-1.48,6.73-3.89l23.2-40.18c1.39-2.41,1.39-5.37,0-7.78l-23.2-40.18c-1.39-2.41-3.96-3.89-6.73-3.89"/>
        <path d="M144.5,68.94h14.99c5.64,0,10.44,3.27,10.44,9.35,0,3.66-2.18,6.14-4.65,7.37,3.07,1.19,5.69,3.81,5.69,8.21,0,6.19-5.44,9.7-11.28,9.7h-15.19v-34.64ZM158.75,83.93c3.61,0,6.38-1.29,6.38-5.39s-2.77-5.44-6.38-5.44h-9.55v10.84h9.55ZM159.34,99.42c3.86,0,6.83-1.48,6.83-5.74s-2.97-5.64-6.83-5.64h-10.14v11.38h10.14Z"/>
        <path d="M174.68,96.74c0-3.81,2.92-7.13,7.82-7.62,5.64-.59,9.3-.59,10.59-1.58v-.79c0-3.51-2.87-5.59-6.68-5.59s-6.78,1.93-6.88,5.79h-4.4c.1-5.79,5-9.8,11.38-9.8,5.69,0,10.84,3.56,10.94,9.8v9.7c0,2.08,1.04,3.07,3.07,3.07h.59v3.86h-1.34c-2.62,0-4.95-1.09-6.04-3.71-1.78,2.67-5.44,4.4-9.99,4.4-5.05,0-9.06-2.42-9.06-7.52M184.09,100.36c4.8,0,9.01-3.02,9.01-6.88v-2.03c-1.09.79-4.31.84-9.65,1.34-2.57.25-4.25,1.39-4.25,3.81s1.93,3.76,4.9,3.76"/>
        <path d="M204.57,103.57v-34.64h4.36v21.43l12.57-12.52h5.69l-10.39,10.39c4.85,3.76,8.61,9.45,10.24,15.34h-4.5c-1.49-4.95-4.7-9.45-8.66-12.47l-4.95,4.95v7.52h-4.36Z"/>
        <path d="M228.68,90.66c0-8.46,5.39-13.61,12.57-13.51,8.26.1,12.07,6.43,12.07,12.77,0,.74-.05,1.43-.15,2.18h-19.94c.4,5.69,4.01,8.16,8.26,8.16,4.01,0,6.38-1.78,7.22-4.6h4.45c-.89,5-5.24,8.61-11.78,8.61-6.88,0-12.72-4.5-12.72-13.61M248.72,88.33c-.54-5.15-3.81-7.18-7.57-7.18-4.06,0-7.18,2.08-7.82,7.18h15.39Z"/>
        <path d="M298.55,86.16c0,10.84-6.58,17.42-16.43,17.42h-12.22v-34.64h12.22c9.85,0,16.43,6.38,16.43,17.22M281.77,99.42c6.93,0,11.93-4.35,11.93-13.16s-5-13.16-11.93-13.16h-7.18v26.32h7.18Z"/>
        <path d="M303,77.84h4.26v4.5c1.39-3.46,4.4-4.8,6.73-4.8h2.57v4.26h-3.17c-3.02,0-6.04,2.67-6.04,7.62v14.15h-4.35v-25.73Z"/>
        <path d="M322.5,68.69c1.53,0,2.92,1.34,2.92,2.97s-1.39,3.02-2.92,3.02-2.97-1.34-2.97-3.02,1.39-2.97,2.97-2.97M324.68,103.57h-4.35v-25.73h4.35v25.73Z"/>
        <path d="M330.37,77.84h4.26v3.46c2.18-2.72,5.2-4.16,8.81-4.16,6.33,0,12.07,4.95,12.07,13.61s-5.69,13.51-12.02,13.51c-3.61,0-6.93-1.53-8.86-4.06v11.28h-4.26v-33.65ZM342.94,100.26c4.35,0,7.97-3.41,7.97-9.45,0-6.38-3.12-9.65-7.97-9.65-4.31,0-8.31,2.97-8.31,9.55s3.71,9.55,8.31,9.55"/>
        <path d="M363.18,84.92c0,1.78,1.19,3.27,3.71,3.27h4.6c4.9,0,8.71,2.92,8.71,7.82s-3.81,7.57-8.71,7.57h-11.97v-3.86h11.83c2.92,0,4.31-1.44,4.31-3.61,0-1.98-1.39-3.61-4.31-3.61h-4.7c-4.45,0-7.92-3.02-7.92-7.47s3.46-7.22,7.92-7.22h12.07v3.86h-11.83c-2.52,0-3.71,1.48-3.71,3.27"/>
        <path class="cls-3" d="M52.16,63.96s-4.59,5.87-4.59,9.7c0,2.53,2.05,4.59,4.59,4.59s4.59-2.05,4.59-4.59c0-3.83-4.59-9.7-4.59-9.7"/>
        <path class="cls-3" d="M45.33,44.8h0c-.04,2.06-.17,4.36.66,6.25.83,1.89,2.78,3.45,4.82,3.15.99-.15,1.86-.7,2.76-1.13,4.22-2.04,10.17-1.05,12.33,3.11,1.1,2.12,1.07,4.63,1.56,6.97.49,2.34,1.88,4.84,4.24,5.24,1.57.27,3.12-.48,4.71-.54,3.77-.13,8.12,2.57,8.12,7.31,0,3.46-3.44,9.88-3.44,13.88,0,3.4,1.29,6.21,4.27,6.21s4.57-3,4.68-6.16c.15-4.09-6.81-24.25,3.95-44.3h-48.64Z"/>
        <path class="cls-3" d="M93.02,43.2c-.66-1.14-1.88-1.83-3.2-1.83h-40.34c-1.31,0-2.53.7-3.2,1.83l-.96,1.63h48.64l-.95-1.63Z"/>
        <path class="cls-5" d="M143.19,51.89c0-3.65,2.79-6.82,7.48-7.29,5.4-.57,8.9-.57,10.13-1.51v-.76c0-3.36-2.75-5.35-6.39-5.35s-6.49,1.85-6.58,5.54h-4.21c.09-5.54,4.78-9.37,10.89-9.37,5.44,0,10.37,3.41,10.46,9.37v9.28c0,1.99.99,2.93,2.93,2.93h.57v3.69h-1.28c-2.51,0-4.73-1.04-5.78-3.55-1.71,2.56-5.21,4.21-9.56,4.21-4.83,0-8.66-2.32-8.66-7.2M152.19,55.35c4.59,0,8.62-2.89,8.62-6.58v-1.94c-1.04.76-4.12.81-9.23,1.28-2.46.24-4.07,1.33-4.07,3.64s1.85,3.6,4.69,3.6"/>
        <path class="cls-5" d="M171.54,49.15v-23.86h4.17v23.67c0,3.55,2.27,5.78,5.49,5.78h.57v3.69h-1.33c-4.78,0-8.9-3.74-8.9-9.28"/>
        <path class="cls-5" d="M187.68,40.58c0,1.7,1.14,3.12,3.55,3.12h4.4c4.68,0,8.33,2.79,8.33,7.48s-3.65,7.24-8.33,7.24h-11.46v-3.69h11.32c2.79,0,4.12-1.37,4.12-3.46,0-1.89-1.32-3.45-4.12-3.45h-4.5c-4.26,0-7.57-2.89-7.57-7.15s3.31-6.91,7.57-6.91h11.55v3.69h-11.32c-2.41,0-3.55,1.42-3.55,3.12"/>
        <path class="cls-5" d="M210.36,25.05c1.47,0,2.79,1.28,2.79,2.84s-1.32,2.89-2.79,2.89-2.84-1.28-2.84-2.89,1.32-2.84,2.84-2.84M212.44,58.43h-4.16v-24.62h4.16v24.62Z"/>
        <path class="cls-5" d="M217.88,33.81h4.07v3.88c1.99-3.17,4.92-4.54,7.53-4.54,3.31,0,6.25,1.75,7.77,4.88,2.23-3.6,5.54-4.88,8.43-4.88,4.88,0,8.81,3.88,8.81,9.61v15.67h-4.17v-14.77c0-4.69-2.46-6.72-5.35-6.72-4.12,0-6.63,3.22-6.63,9.04v12.45h-4.17v-14.77c0-4.69-2.51-6.72-5.4-6.72-4.12,0-6.72,3.22-6.72,9.04v12.45h-4.16v-24.62Z"/>
      </g>
    </g>
  </g>
</svg>