<?xml version="1.0" encoding="UTF-8"?>
<!-- Generator: Adobe Illustrator 25.0.1, SVG Export Plug-In . SVG Version: 6.00 Build 0)  -->
<svg version="1.1" id="Layer_1" xmlns="http://www.w3.org/2000/svg" xmlns:xlink="http://www.w3.org/1999/xlink" x="0px" y="0px" viewBox="0 0 500 500" style="enable-background:new 0 0 500 500;" xml:space="preserve">
<style type="text/css">
	.st0{fill:#BFBEBE;}
	.st1{fill:#14BEF0;}
	.st2{fill:#787A7A;}
	.st3{fill:#BFBFC0;}
	.st4{fill:#D3D4D6;}
	.st5{fill:#10BEF0;}
</style>
<g>
	<polygon class="st3" points="51.5,250.5 94.1,176.7 164.3,176.7 157.1,143.4 74.3,143.4 12.7,250.1 74.3,356.8 157.6,356.8    164.4,324.2 94.1,324.2  "/>
	<polygon class="st2" points="410.3,311.3 445.3,371.9 402.7,445.6 317.5,445.6 282.9,385.8 260.1,408 300.7,478.6 423.8,478.6    485.4,371.9 444.1,301.7  "/>
	<polygon class="st4" points="319.9,55.3 405.1,55.3 447.7,129.1 412.9,189.4 443,199.7 487.3,128.1 425.7,21.4 302.5,21.4    262.3,87.5 286,114.1  "/>
	<polygon class="st5" points="257.2,200.7 257.2,322.8 284.9,322.8 284.9,200.7 321.4,237.2 340,218.7 272,150.7 271.9,150.7    271.9,150.7 204.2,218.3 221.9,236  "/>
</g>
</svg>