<?xml version="1.0" encoding="UTF-8"?>
<svg id="Layer_1" data-name="Layer 1" xmlns="http://www.w3.org/2000/svg" xmlns:xlink="http://www.w3.org/1999/xlink" viewBox="0 0 500 130">
  <defs>
    <style>
      .cls-1 {
        fill: none;
      }

      .cls-2 {
        fill: #ede2f3;
      }

      .cls-3 {
        fill: #757575;
      }

      .cls-4 {
        clip-path: url(#clippath-1);
      }

      .cls-5 {
        clip-path: url(#clippath);
      }
    </style>
    <clipPath id="clippath">
      <rect class="cls-1" x="15.46" y="17.1" width="467.44" height="95.8"/>
    </clipPath>
    <clipPath id="clippath-1">
      <rect class="cls-1" x="15.46" y="17.1" width="467.44" height="95.8"/>
    </clipPath>
  </defs>
  <g id="Powder_Coating" data-name="Powder Coating">
    <g class="cls-5">
      <g class="cls-4">
        <path class="cls-2" d="M122.93,61.44l-23.55-40.78c-1.27-2.2-3.62-3.56-6.16-3.56h-47.09c-2.54,0-4.89,1.36-6.16,3.56l-23.55,40.78c-1.27,2.2-1.27,4.91,0,7.12l23.55,40.78c1.27,2.2,3.62,3.56,6.16,3.56h47.09c2.54,0,4.89-1.36,6.16-3.56l23.55-40.78c1.27-2.2,1.27-4.91,0-7.12"/>
        <path d="M86.52,84.29c-.52,0-1.02-.27-1.29-.75-.41-.71-.17-1.62.54-2.04l4.56-2.63c.71-.41,1.62-.17,2.04.55.41.71.17,1.62-.54,2.04l-4.56,2.63c-.24.14-.49.2-.74.2"/>
        <path d="M96.91,78.29c-.52,0-1.02-.27-1.29-.75-.41-.71-.17-1.62.55-2.04l4.56-2.63c.71-.41,1.62-.17,2.04.55.41.71.17,1.62-.55,2.04l-4.56,2.63c-.23.14-.49.2-.74.2"/>
        <path d="M76.13,90.28c-.52,0-1.02-.27-1.29-.75-.41-.71-.17-1.62.54-2.04l4.56-2.63c.71-.41,1.62-.17,2.04.55.41.71.17,1.62-.54,2.04l-4.56,2.63c-.24.14-.49.2-.74.2"/>
        <path d="M65.74,96.28c-.52,0-1.02-.27-1.29-.75-.41-.71-.17-1.62.54-2.04l4.56-2.63c.71-.41,1.62-.17,2.04.55.41.71.17,1.62-.54,2.04l-4.56,2.63c-.24.14-.49.2-.74.2"/>
        <path d="M76.95,79.71c-.52,0-1.02-.27-1.29-.75-.41-.71-.17-1.62.54-2.04l4.56-2.63c.71-.41,1.62-.17,2.04.55.41.71.17,1.62-.54,2.04l-4.56,2.63c-.24.14-.49.2-.74.2"/>
        <path d="M87.34,73.71c-.52,0-1.02-.27-1.29-.75-.41-.71-.17-1.62.55-2.04l4.56-2.63c.71-.41,1.62-.17,2.04.55.41.71.17,1.62-.55,2.04l-4.56,2.63c-.23.14-.49.2-.74.2"/>
        <path d="M65.78,74.62c-.52,0-1.02-.27-1.29-.75-.41-.71-.17-1.62.54-2.04l4.56-2.63c.71-.41,1.62-.17,2.04.55.41.71.17,1.62-.54,2.04l-4.56,2.63c-.24.14-.49.2-.74.2"/>
        <path d="M76.17,68.62c-.52,0-1.02-.27-1.29-.75-.41-.71-.17-1.62.55-2.04l4.56-2.63c.71-.41,1.62-.17,2.04.55.41.71.17,1.62-.55,2.04l-4.56,2.63c-.23.14-.49.2-.74.2"/>
        <path d="M66.56,85.7c-.52,0-1.02-.27-1.29-.75-.41-.71-.17-1.62.54-2.04l4.56-2.63c.71-.41,1.62-.17,2.04.55.41.71.17,1.62-.54,2.04l-4.56,2.63c-.24.14-.49.2-.74.2"/>
        <path d="M86.52,84.29c-.52,0-1.02-.27-1.29-.75-.41-.71-.17-1.62.54-2.04l4.56-2.63c.71-.41,1.62-.17,2.04.55.41.71.17,1.62-.54,2.04l-4.56,2.63c-.24.14-.49.2-.74.2"/>
        <path d="M96.91,78.29c-.52,0-1.02-.27-1.29-.75-.41-.71-.17-1.62.55-2.04l4.56-2.63c.71-.41,1.62-.17,2.04.55.41.71.17,1.62-.55,2.04l-4.56,2.63c-.23.14-.49.2-.74.2"/>
        <path d="M76.13,90.28c-.52,0-1.02-.27-1.29-.75-.41-.71-.17-1.62.54-2.04l4.56-2.63c.71-.41,1.62-.17,2.04.55.41.71.17,1.62-.54,2.04l-4.56,2.63c-.24.14-.49.2-.74.2"/>
        <path d="M65.74,96.28c-.52,0-1.02-.27-1.29-.75-.41-.71-.17-1.62.54-2.04l4.56-2.63c.71-.41,1.62-.17,2.04.55.41.71.17,1.62-.54,2.04l-4.56,2.63c-.24.14-.49.2-.74.2"/>
        <path d="M76.95,79.71c-.52,0-1.02-.27-1.29-.75-.41-.71-.17-1.62.54-2.04l4.56-2.63c.71-.41,1.62-.17,2.04.55.41.71.17,1.62-.54,2.04l-4.56,2.63c-.24.14-.49.2-.74.2"/>
        <path d="M87.34,73.71c-.52,0-1.02-.27-1.29-.75-.41-.71-.17-1.62.55-2.04l4.56-2.63c.71-.41,1.62-.17,2.04.55.41.71.17,1.62-.55,2.04l-4.56,2.63c-.23.14-.49.2-.74.2"/>
        <path d="M65.78,74.62c-.52,0-1.02-.27-1.29-.75-.41-.71-.17-1.62.54-2.04l4.56-2.63c.71-.41,1.62-.17,2.04.55.41.71.17,1.62-.54,2.04l-4.56,2.63c-.24.14-.49.2-.74.2"/>
        <path d="M76.17,68.62c-.52,0-1.02-.27-1.29-.75-.41-.71-.17-1.62.55-2.04l4.56-2.63c.71-.41,1.62-.17,2.04.55.41.71.17,1.62-.55,2.04l-4.56,2.63c-.23.14-.49.2-.74.2"/>
        <path d="M66.56,85.7c-.52,0-1.02-.27-1.29-.75-.41-.71-.17-1.62.54-2.04l4.56-2.63c.71-.41,1.62-.17,2.04.55.41.71.17,1.62-.54,2.04l-4.56,2.63c-.24.14-.49.2-.74.2"/>
        <path d="M86.52,84.29c-.52,0-1.02-.27-1.29-.75-.41-.71-.17-1.62.54-2.04l4.56-2.63c.71-.41,1.62-.17,2.04.55.41.71.17,1.62-.54,2.04l-4.56,2.63c-.24.14-.49.2-.74.2"/>
        <path d="M96.91,78.29c-.52,0-1.02-.27-1.29-.75-.41-.71-.17-1.62.55-2.04l4.56-2.63c.71-.41,1.62-.17,2.04.55.41.71.17,1.62-.55,2.04l-4.56,2.63c-.23.14-.49.2-.74.2"/>
        <path d="M76.13,90.28c-.52,0-1.02-.27-1.29-.75-.41-.71-.17-1.62.54-2.04l4.56-2.63c.71-.41,1.62-.17,2.04.55.41.71.17,1.62-.54,2.04l-4.56,2.63c-.24.14-.49.2-.74.2"/>
        <path d="M65.74,96.28c-.52,0-1.02-.27-1.29-.75-.41-.71-.17-1.62.54-2.04l4.56-2.63c.71-.41,1.62-.17,2.04.55.41.71.17,1.62-.54,2.04l-4.56,2.63c-.24.14-.49.2-.74.2"/>
        <path d="M76.95,79.71c-.52,0-1.02-.27-1.29-.75-.41-.71-.17-1.62.54-2.04l4.56-2.63c.71-.41,1.62-.17,2.04.55.41.71.17,1.62-.54,2.04l-4.56,2.63c-.24.14-.49.2-.74.2"/>
        <path d="M87.34,73.71c-.52,0-1.02-.27-1.29-.75-.41-.71-.17-1.62.55-2.04l4.56-2.63c.71-.41,1.62-.17,2.04.55.41.71.17,1.62-.55,2.04l-4.56,2.63c-.23.14-.49.2-.74.2"/>
        <path d="M65.78,74.62c-.52,0-1.02-.27-1.29-.75-.41-.71-.17-1.62.54-2.04l4.56-2.63c.71-.41,1.62-.17,2.04.55.41.71.17,1.62-.54,2.04l-4.56,2.63c-.24.14-.49.2-.74.2"/>
        <path d="M76.17,68.62c-.52,0-1.02-.27-1.29-.75-.41-.71-.17-1.62.55-2.04l4.56-2.63c.71-.41,1.62-.17,2.04.55.41.71.17,1.62-.55,2.04l-4.56,2.63c-.23.14-.49.2-.74.2"/>
        <path d="M66.56,85.7c-.52,0-1.02-.27-1.29-.75-.41-.71-.17-1.62.54-2.04l4.56-2.63c.71-.41,1.62-.17,2.04.55.41.71.17,1.62-.54,2.04l-4.56,2.63c-.24.14-.49.2-.74.2"/>
        <path d="M72.29,42.63l-3.63-6.31c-3.4-6.52-11.47-9.08-18.01-5.69-3.17,1.64-5.51,4.42-6.59,7.83-1.08,3.4-.77,7.02.87,10.19l3.64,6.32c.5.94,1.47,1.47,2.47,1.47.43,0,.87-.1,1.28-.31l2.29-1.19,5.7,6.17c.38.41.91.62,1.46.62.33,0,.67-.08.98-.24l7.08-3.67c.83-.43,1.27-1.34,1.09-2.21l-1.76-8.21,1.94-1c.66-.34,1.15-.93,1.38-1.64.22-.71.16-1.47-.19-2.13M61.96,58.67l-4.7-5.09,9.25-4.8,1.45,6.78-6,3.11ZM51.06,53.54l-3.6-6.24c-1.28-2.48-1.52-5.31-.67-7.98.85-2.67,2.69-4.85,5.17-6.14,5.14-2.66,11.48-.65,14.15,4.49l3.58,6.22-18.63,9.66Z"/>
        <path d="M58.19,38.58c-1.74-1.11-4.06-.61-5.17,1.14-1.11,1.74-.61,4.06,1.14,5.17,1.74,1.11,4.06.61,5.17-1.14,1.11-1.74.61-4.06-1.14-5.17"/>
        <path class="cls-3" d="M142.96,51.89c0-3.66,2.8-6.84,7.5-7.31,5.41-.57,8.93-.57,10.16-1.52v-.76c0-3.37-2.52-5.37-6.17-5.37-3.42,0-6.32,1.85-6.41,5.56h-4.23c.1-5.56,4.8-9.4,10.73-9.4,5.46,0,10.16,3.42,10.26,9.4v9.31c0,1.99,1,2.94,2.94,2.94h.57v3.7h-1.28c-2.52,0-4.75-1.04-5.79-3.56-1.71,2.56-5.22,4.23-9.59,4.23-4.84,0-8.69-2.33-8.69-7.22M151.98,55.36c4.61,0,8.64-2.9,8.64-6.6v-1.95c-1.04.76-4.13.81-9.26,1.28-2.47.24-4.08,1.33-4.08,3.66s1.85,3.61,4.7,3.61"/>
        <path class="cls-3" d="M171.4,49.14v-23.93h4.18v23.74c0,3.56,2.28,5.79,5.51,5.79h.57v3.7h-1.33c-4.8,0-8.93-3.75-8.93-9.31"/>
        <path class="cls-3" d="M187.59,40.54c0,1.71,1.14,3.13,3.56,3.13h4.42c4.7,0,8.36,2.8,8.36,7.5s-3.66,7.27-8.36,7.27h-11.49v-3.7h11.35c2.8,0,4.13-1.38,4.13-3.47,0-1.9-1.33-3.47-4.13-3.47h-4.51c-4.27,0-7.6-2.9-7.6-7.17s3.32-6.93,7.6-6.93h11.59v3.7h-11.35c-2.42,0-3.56,1.42-3.56,3.13"/>
        <path class="cls-3" d="M210.34,24.97c1.47,0,2.8,1.28,2.8,2.85s-1.33,2.9-2.8,2.9-2.85-1.28-2.85-2.9,1.33-2.85,2.85-2.85M212.43,58.45h-4.18v-24.69h4.18v24.69Z"/>
        <path class="cls-3" d="M217.89,33.75h4.08v3.89c1.99-3.18,4.94-4.56,7.55-4.56,3.32,0,6.27,1.76,7.79,4.89,2.23-3.61,5.56-4.89,8.45-4.89,4.89,0,8.83,3.89,8.83,9.64v15.72h-4.18v-14.81c0-4.7-2.47-6.74-5.37-6.74-4.13,0-6.65,3.23-6.65,9.07v12.49h-4.18v-14.81c0-4.7-2.52-6.74-5.41-6.74-4.13,0-6.74,3.23-6.74,9.07v12.49h-4.18v-24.69Z"/>
        <path d="M144.14,70.63h14.58c5.7,0,10.45,4.04,10.45,10.16s-4.75,10.16-10.45,10.16h-10.07v12.92h-4.51v-33.24ZM158.15,86.97c3.56,0,6.41-1.99,6.41-6.12s-2.85-6.22-6.41-6.22h-9.5v12.35h9.5Z"/>
        <path d="M182.61,104.54c-6.55,0-12.25-4.75-12.25-13.06s5.7-12.96,12.25-12.96,12.25,4.65,12.25,12.96-5.7,13.06-12.25,13.06M182.61,100.69c4.27,0,7.93-3.04,7.93-9.16s-3.66-9.16-7.93-9.16-7.93,2.8-7.93,9.16,3.66,9.16,7.93,9.16"/>
        <polygon points="196.28 79.18 200.84 79.18 206.68 97.56 212.71 79.18 216.41 79.18 222.54 97.7 228.24 79.18 232.65 79.18 224.68 103.87 220.55 103.87 214.61 85.64 208.68 103.87 204.45 103.87 196.28 79.18"/>
        <path d="M258.2,103.87h-4.08v-3.23c-1.85,2.42-5.03,3.89-8.5,3.89-6.08,0-11.54-4.61-11.54-12.96s5.51-13.06,11.59-13.06c3.42,0,6.27,1.33,8.36,3.89v-11.78h4.18v33.24ZM246.14,100.69c4.42,0,7.98-2.94,7.98-9.16s-3.85-9.16-7.98-9.16c-4.65,0-7.64,3.13-7.64,9.26,0,5.79,3.47,9.07,7.64,9.07"/>
        <path d="M262.48,91.48c0-8.12,5.18-13.06,12.06-12.96,7.93.1,11.59,6.17,11.59,12.25,0,.71-.05,1.38-.14,2.09h-19.14c.38,5.46,3.85,7.83,7.93,7.83,3.85,0,6.13-1.71,6.93-4.42h4.27c-.86,4.8-5.03,8.26-11.3,8.26-6.6,0-12.2-4.32-12.2-13.06M281.71,89.25c-.52-4.94-3.66-6.88-7.26-6.88-3.89,0-6.89,1.99-7.5,6.88h14.77Z"/>
        <path d="M290.4,79.18h4.08v4.32c1.33-3.32,4.23-4.61,6.46-4.61h2.47v4.08h-3.04c-2.9,0-5.79,2.56-5.79,7.31v13.58h-4.18v-24.69Z"/>
        <path d="M333.08,74.1c-6.41,0-11.49,4.8-11.49,13.15s5.08,13.15,11.44,13.15,10.45-3.99,11.11-10.02h4.56c-.62,8.21-6.41,14.15-15.62,14.15s-16.14-7.26-16.14-17.33,6.74-17.24,16.24-17.24c8.83,0,14.91,5.98,15.53,13.91h-4.56c-.66-5.75-4.65-9.78-11.06-9.78"/>
        <path d="M364.28,104.54c-6.55,0-12.25-4.75-12.25-13.06s5.7-12.96,12.25-12.96,12.25,4.65,12.25,12.96-5.7,13.06-12.25,13.06M364.28,100.69c4.27,0,7.93-3.04,7.93-9.16s-3.66-9.16-7.93-9.16-7.93,2.8-7.93,9.16,3.66,9.16,7.93,9.16"/>
        <path d="M380.1,97.32c0-3.66,2.8-6.84,7.5-7.31,5.41-.57,8.93-.57,10.16-1.52v-.76c0-3.37-2.52-5.37-6.17-5.37-3.42,0-6.32,1.85-6.41,5.56h-4.23c.1-5.56,4.8-9.4,10.73-9.4,5.46,0,10.16,3.42,10.26,9.4v9.31c0,1.99,1,2.94,2.94,2.94h.57v3.7h-1.28c-2.52,0-4.75-1.04-5.79-3.56-1.71,2.56-5.22,4.23-9.59,4.23-4.84,0-8.69-2.33-8.69-7.22M389.12,100.79c4.61,0,8.64-2.9,8.64-6.6v-1.95c-1.04.76-4.13.81-9.26,1.28-2.47.24-4.08,1.33-4.08,3.66s1.85,3.61,4.7,3.61"/>
        <path d="M409.73,94.33v-11.44h-4.51v-3.7h4.51v-5.56l4.18-2.28v7.83h6.36v3.7h-6.36v11.21c0,3.61,2.37,6.08,5.98,6.08h.71v3.7h-1.19c-5.03,0-9.69-3.47-9.69-9.54"/>
        <path d="M426.06,70.4c1.47,0,2.8,1.28,2.8,2.85s-1.33,2.9-2.8,2.9-2.85-1.28-2.85-2.9,1.33-2.85,2.85-2.85M428.15,103.87h-4.18v-24.69h4.18v24.69Z"/>
        <path d="M433.61,79.18h4.08v3.89c1.95-3.18,5.27-4.56,8.12-4.56,5.13,0,9.45,3.75,9.45,9.64v15.72h-4.18v-14.34c0-5.37-2.85-7.22-5.98-7.22-4.37,0-7.31,3.23-7.31,9.07v12.49h-4.18v-24.69Z"/>
        <path d="M462.15,111.47v-3.7h9.73c3.42,0,6.84-1.38,6.84-5.89v-2.75c-1.8,2.28-4.8,3.8-8.02,3.8-5.6,0-11.16-4.27-11.16-12.16s5.56-12.25,11.16-12.25c3.18,0,5.98,1.14,8.12,3.66v-2.99h4.08v22.93c0,6.55-5.37,9.35-11.02,9.35h-9.73ZM471.22,99.08c3.75,0,7.6-2.56,7.6-8.36s-4.04-8.36-7.6-8.36c-4.08,0-7.22,2.66-7.22,8.45,0,5.46,3.61,8.26,7.22,8.26"/>
      </g>
    </g>
  </g>
</svg>