<?xml version="1.0" encoding="utf-8"?>
<!-- Generator: Adobe Illustrator 25.0.1, SVG Export Plug-In . SVG Version: 6.00 Build 0)  -->
<svg version="1.1" id="Layer_1" xmlns="http://www.w3.org/2000/svg" xmlns:xlink="http://www.w3.org/1999/xlink" x="0px" y="0px"
	 viewBox="0 0 900 300" style="enable-background:new 0 0 900 300;" xml:space="preserve">
<style type="text/css">
	.st0{fill:#5B266C;}
	.st1{fill:#895AA4;}
	.st2{fill:#9C66AA;}
	.st3{fill:#4C4D4E;}
	.st4{fill:#9D906F;}
	.st5{fill:#C2B98E;}
	.st6{fill:#D4CBA4;}
	.st7{fill:#AE7D36;}
	.st8{fill:#BE8B37;}
	.st9{fill:#EEAA32;}
	.st10{fill:#577D40;}
	.st11{fill:#78A94E;}
	.st12{fill:#A4D06E;}
	.st13{fill:#006654;}
	.st14{fill:#108673;}
	.st15{fill:#0EA285;}
	.st16{fill:#43888D;}
	.st17{fill:#68B2C6;}
	.st18{fill:#9AD9EB;}
	.st19{fill:#001D27;}
	.st20{fill:#294146;}
	.st21{fill:#52656E;}
	.st22{fill:#4A4D4D;}
	.st23{fill:#BFBEBE;}
	.st24{fill:#14BEF0;}
	.st25{fill:#787A7A;}
	.st26{fill:#BFBFC0;}
	.st27{fill:#D3D4D6;}
	.st28{fill:#10BEF0;}
	.st29{fill:#7B7B7B;}
</style>
<g>
	<polygon class="st16" points="84.1,238.8 176.9,238.8 223.3,158.5 130.5,158.5 	"/>
	<polygon class="st17" points="110,146 64.2,66.6 17.8,146.9 64.2,227.3 110.5,146.9 	"/>
	<polygon class="st18" points="223.3,135.4 176.9,55.1 84.1,55.1 130.5,135.4 	"/>
	<g>
		<g>
			<path class="st3" d="M283,155.1h9.5l13.3,54.3l15.4-54.3h8.9l15.3,54.3l13.4-54.3h9.4l-16.9,67.4h-9.7l-16-54.3l-16.1,54.3h-9.7
				L283,155.1z"/>
			<path class="st3" d="M375.4,219.7c-2.3-2.2-3.5-5.2-3.5-9v-3.8c0-3.9,1.3-7,4-9.4c2.7-2.3,6.5-3.5,11.7-3.5h15.3v-5.1
				c0-2-0.3-3.6-1-4.9c-0.7-1.2-1.9-2.2-3.6-2.9c-1.7-0.7-4.2-1-7.5-1h-15v-5.4c5.4-1.2,11.4-1.9,18.1-1.9c6.2,0,10.8,1.2,13.8,3.6
				c3,2.4,4.4,6.4,4.4,11.8v34.2h-7.2l-1.6-5.5c-0.5,0.5-1.8,1.2-3.9,2.2c-2,1-4.4,1.9-7.1,2.7c-2.7,0.8-5.3,1.2-7.9,1.2
				C380.7,223,377.7,221.9,375.4,219.7z M394,215.6c2.1-0.5,4-1.1,5.8-1.7c1.8-0.6,2.8-1,3-1.1v-14.1l-12.8,0.5
				c-5.9,0.4-8.9,3-8.9,7.9v2.2c0,2.5,0.7,4.3,2.2,5.4c1.5,1.1,3.3,1.7,5.4,1.7C390.2,216.3,392,216.1,394,215.6z"/>
			<path class="st3" d="M431.1,222.6c-3.9-0.3-6.7-0.7-8.4-1.1V216h20.6c2.9,0,5.1-0.4,6.5-1.2c1.4-0.8,2.1-2.5,2.1-5v-2
				c0-3.9-2.6-5.9-7.9-5.9h-7.1c-4.7,0-8.3-1-10.9-2.9c-2.6-1.9-3.8-5.1-3.8-9.6v-2.7c0-4.7,1.4-8.1,4.2-10.4
				c2.8-2.2,7.4-3.3,13.8-3.3c2.7,0,5.8,0.2,9.4,0.5c3.6,0.3,6.4,0.7,8.3,1.1v5.5h-19.4c-2.9,0-5,0.5-6.3,1.5c-1.3,1-2,2.7-2,5.1
				v1.8c0,2.3,0.7,3.8,2,4.6c1.3,0.7,3.4,1.1,6.4,1.1h7.3c4.6,0,8.1,1.1,10.5,3.2c2.4,2.1,3.6,5.2,3.6,9.1v3.7c0,4.7-1.5,8-4.6,9.8
				c-3.1,1.9-7.6,2.8-13.7,2.8C438.5,223,435,222.9,431.1,222.6z"/>
			<path class="st3" d="M470.3,152.7h9.1v26.1c2.3-1.7,5-3.2,8-4.3c3-1.2,6.1-1.8,9.1-1.8c5.1,0,8.8,1.5,11.3,4.6
				c2.5,3.1,3.7,7.1,3.7,12.1v33h-9.1v-31.9c0-2.9-0.8-5.2-2.5-6.9s-3.9-2.6-6.7-2.6c-2.6,0-4.9,0.4-7,1.1c-2.1,0.7-4.4,1.8-6.9,3.3
				v37h-9.1V152.7z"/>
			<path class="st3" d="M524.3,164.9c-0.3-0.3-0.5-0.7-0.5-1.1v-7.7c0-1.1,0.5-1.6,1.6-1.6h6.8c0.5,0,0.9,0.2,1.1,0.5
				c0.2,0.3,0.4,0.7,0.4,1.2v7.7c0,1-0.5,1.6-1.5,1.6h-6.8C525,165.3,524.6,165.2,524.3,164.9z M524.2,173.6h9.1v48.9h-9.1V173.6z"
				/>
			<path class="st3" d="M546.1,173.6h7.3l1.8,5.3c2.4-1.8,5.1-3.2,8.1-4.4c3-1.2,6-1.7,9.1-1.7c5.2,0,9,1.6,11.4,4.7
				c2.4,3.1,3.7,7.2,3.7,12.1v32.9h-9.1v-31.8c0-2.9-0.8-5.3-2.5-7c-1.6-1.7-3.9-2.6-6.8-2.6c-2.6,0-4.9,0.4-7,1.1
				c-2.1,0.7-4.4,1.8-6.9,3.3v37h-9.1V173.6z"/>
			<path class="st3" d="M644.6,178.7l-10,1c1.6,1.2,3,2.7,4,4.3c1,1.6,1.5,4.1,1.5,7.5c0,4.3-1.4,7.9-4.2,10.7
				c-2.8,2.8-7.2,4.2-13.3,4.2h-8c-5,0-7.5,1.5-7.5,4.6c0,1.3,0.5,2.2,1.4,2.8c0.9,0.6,2.1,0.9,3.4,0.9h15.4c5.7,0,9.9,1.1,12.8,3.3
				c2.8,2.2,4.2,5.7,4.2,10.5v1.7c0,4.7-1.5,8.3-4.6,10.9c-3.1,2.6-7.6,3.8-13.6,3.8h-14c-4.8,0-8.7-1-11.7-3.1
				c-3-2.1-4.4-5-4.4-8.9v-2c0-2.6,0.7-4.8,2.1-6.7c1.4-1.9,3.3-3.3,5.7-4.4c-1.5-0.8-2.7-1.8-3.5-3.2c-0.8-1.3-1.2-2.8-1.2-4.3
				c0-2.4,0.7-4.3,2.1-5.8c1.4-1.5,3.5-2.6,6.1-3.1c-3-1.3-5.2-3.3-6.5-5.8c-1.3-2.5-2-5.3-2-8.4c0-10.5,6.4-15.8,19.3-15.8h26.3
				V178.7z M614.2,221.7c-2.7,0-4.9,0.6-6.7,1.9c-1.8,1.3-2.7,3.2-2.7,5.7v1.7c0,4.9,3.3,7.3,9.8,7.3h10.7c3.3,0,5.9-0.6,7.7-1.9
				c1.9-1.3,2.8-3.2,2.8-5.8V229c0-2.3-0.8-4.1-2.3-5.3c-1.5-1.2-4-1.9-7.5-1.9H614.2z M629.5,196.9c1.5-1.6,2.2-3.8,2.2-6.5
				c0-6.6-3.1-9.9-9.4-9.9h-5.1c-3.2,0-5.7,0.7-7.4,2.2c-1.7,1.5-2.5,3.8-2.5,7.1c0,6.3,3,9.5,9,9.5h5.4
				C625.4,199.3,628,198.5,629.5,196.9z"/>
		</g>
		<g>
			<path class="st3" d="M288.2,136.7c-1.6-1.5-2.4-3.6-2.4-6.2v-2.3c0-2.7,0.9-4.9,2.7-6.5c1.8-1.6,4.4-2.4,7.7-2.4h12.3v-4.7
				c0-2.4-0.7-4.3-2-5.5c-1.3-1.2-3.7-1.8-7.2-1.8h-10.6V105c4.1-0.5,8-0.8,11.8-0.8c4,0,6.9,0.8,8.8,2.5c1.9,1.7,2.8,4.2,2.8,7.7
				v24.1h-2.8l-0.8-3.9c-0.3,0.2-1.3,0.7-2.9,1.4c-1.6,0.7-3.5,1.4-5.6,2c-2.1,0.6-4,0.9-5.8,0.9
				C291.8,138.9,289.8,138.2,288.2,136.7z M300.6,135.3c1.9-0.5,3.5-1,5-1.5c1.5-0.5,2.4-0.9,2.9-1v-11.5l-11.8,0.4
				c-2.5,0.1-4.3,0.7-5.5,1.9c-1.2,1.2-1.8,2.7-1.8,4.7v1.6c0,2.2,0.6,3.7,1.9,4.7c1.3,1,2.8,1.5,4.5,1.5
				C297.2,136,298.8,135.7,300.6,135.3z"/>
			<path class="st3" d="M324.4,136.1c-1.4-1.6-2.1-4.4-2.1-8.4V90.2h3.7v37.2c0,2.1,0.2,3.7,0.6,4.9c0.4,1.1,0.9,1.9,1.6,2.4
				c0.7,0.5,1.7,0.8,2.8,0.9l3.7,0.4v2.6h-4.1C327.9,138.6,325.8,137.8,324.4,136.1z"/>
			<path class="st3" d="M344.9,138.7c-3-0.1-4.9-0.3-5.9-0.5V136h13.5c2.6,0,4.6-0.4,5.9-1.1c1.3-0.7,1.9-2.3,1.9-4.6v-1.6
				c0-1.7-0.6-3-1.7-4c-1.1-0.9-2.8-1.4-5.1-1.4h-4.6c-3.3,0-5.8-0.6-7.5-1.8c-1.7-1.2-2.6-3.3-2.6-6.3v-1.7c0-3.1,0.9-5.4,2.8-6.9
				c1.8-1.5,4.7-2.2,8.6-2.2c1.8,0,3.9,0.1,6.4,0.2c2.5,0.1,4.4,0.3,5.8,0.5v2.3h-12.7c-2.6,0-4.5,0.4-5.7,1.3
				c-1.2,0.9-1.9,2.4-1.9,4.7v1.5c0,2.1,0.6,3.4,1.8,4.1c1.2,0.7,3,1,5.5,1h4.6c3,0,5.3,0.7,7.1,2.1c1.7,1.4,2.6,3.4,2.6,6v2.2
				c0,3.2-1,5.4-3,6.6c-2,1.2-4.9,1.8-8.6,1.8C350.2,138.9,347.9,138.8,344.9,138.7z"/>
			<path class="st3" d="M372,98.2c-0.2-0.2-0.3-0.4-0.3-0.7V93c0-0.6,0.3-0.9,0.9-0.9h2.5c0.5,0,0.8,0.3,0.8,0.9v4.5
				c0,0.6-0.3,1-0.8,1h-2.5C372.4,98.5,372.2,98.4,372,98.2z M372.1,104.8h3.7v33.7h-3.7V104.8z"/>
			<path class="st3" d="M386.1,104.8h2.7l0.9,3.8c4.3-2.9,8.7-4.4,13-4.4c2,0,3.8,0.5,5.3,1.4s2.7,2.2,3.5,3.7
				c1.7-1.3,3.9-2.5,6.6-3.5c2.7-1.1,5.2-1.6,7.5-1.6c3.4,0,6,1.1,7.8,3.2c1.8,2.1,2.7,4.8,2.7,8.1v23h-3.7v-22.8
				c0-2.4-0.7-4.3-2.1-5.9c-1.4-1.5-3.3-2.3-5.7-2.3c-2,0-4.1,0.4-6.3,1.1c-2.2,0.7-4.3,1.7-6.3,2.9c0.5,1.4,0.8,2.7,0.8,4.1v22.8
				h-3.7v-22.8c0-2.4-0.7-4.3-2.1-5.9c-1.4-1.5-3.3-2.3-5.7-2.3c-2.2,0-4.2,0.3-5.9,0.9c-1.7,0.6-3.7,1.5-5.9,2.7v27.4h-3.7V104.8z"
				/>
		</g>
	</g>
</g>
</svg>
