<?xml version="1.0" encoding="utf-8"?>
<!-- Generator: Adobe Illustrator 24.1.1, SVG Export Plug-In . SVG Version: 6.00 Build 0)  -->
<svg version="1.1" id="Layer_1" xmlns="http://www.w3.org/2000/svg" xmlns:xlink="http://www.w3.org/1999/xlink" x="0px" y="0px"
	 viewBox="0 0 200 200" style="enable-background:new 0 0 200 200;" xml:space="preserve">
<style type="text/css">
	.st0{fill:#464646;}
</style>
<path class="st0" d="M112,72l12-20.7l-12-20.7H88l-12,20.7L88,72H112z M88,79.3l-12,20.7l12,20.7H112l12-20.7l-12-20.7H88z
	 M130.2,96.4h23.9l12-20.7l-12-20.7h-23.9l-12,20.7L130.2,96.4z M69.7,96.4l12-20.7l-12-20.7H45.7l-12,20.7l12,20.7H69.7z
	 M69.7,103.6H45.7l-12,20.7l12,20.7h23.9l12-20.7L69.7,103.6z M149.5,14.3H50.5L1.1,100l49.5,85.7h98.9l49.5-85.7L149.5,14.3z
	 M146.4,180.3H53.6L7.2,100l46.4-80.3h92.8l46.4,80.3L146.4,180.3z M130.2,103.6l-12,20.7l12,20.7h23.9l12-20.7l-12-20.7H130.2z
	 M88,128l-12,20.7l12,20.7H112l12-20.7L112,128H88z"/>
</svg>
