<?xml version="1.0" standalone="no"?>
<!DOCTYPE svg PUBLIC "-//W3C//DTD SVG 1.1//EN" "http://www.w3.org/Graphics/SVG/1.1/DTD/svg11.dtd" >
<svg xmlns="http://www.w3.org/2000/svg">
<metadata>Generated by IcoMoon</metadata>
<defs>
<font id="icomoon" horiz-adv-x="1024">
<font-face units-per-em="1024" ascent="960" descent="-64" />
<missing-glyph horiz-adv-x="1024" />
<glyph unicode="&#x20;" horiz-adv-x="512" d="" />
<glyph unicode="&#xe900;" glyph-name="icon_calendar" d="M805.478 146.739h-586.957v546.611h587.162v-546.611zM269.312 197.734h485.376v444.621h-485.376v-444.621zM243.917 535.654h553.984v-50.79h-553.984v50.79zM307.405 444.109h50.79v-50.79h-50.79v50.79zM393.83 444.109h50.79v-50.79h-50.79v50.79zM480.256 444.109h50.79v-50.79h-50.79v50.79zM566.682 444.109h50.79v-50.79h-50.79v50.79zM653.107 444.109h50.79v-50.79h-50.79v50.79zM307.405 365.466h50.79v-50.79h-50.79v50.79zM393.83 365.466h50.79v-50.79h-50.79v50.79zM480.256 365.466h50.79v-50.79h-50.79v50.79zM566.682 365.466h50.79v-50.79h-50.79v50.79zM653.107 365.466h50.79v-50.79h-50.79v50.79zM307.405 286.618h50.79v-50.79h-50.79v50.79zM393.83 286.618h50.79v-50.79h-50.79v50.79zM480.256 286.618h50.79v-50.79h-50.79v50.79zM566.682 286.618h50.79v-50.79h-50.79v50.79zM653.107 286.618h50.79v-50.79h-50.79v50.79zM332.8 749.261h50.79v-147.456h-50.79v147.456zM637.747 749.261h50.79v-147.456h-50.79v147.456z" />
<glyph unicode="&#xe901;" glyph-name="icon_circle_arrow_bottom" d="M99.328 448c0 227.533 185.139 412.672 412.672 412.672s412.672-185.139 412.672-412.672-185.139-412.672-412.672-412.672c-227.533 0-412.672 185.139-412.672 412.672zM904.192 448c0 216.269-175.923 392.192-392.192 392.192s-392.192-175.923-392.192-392.192 175.923-392.192 392.192-392.192 392.192 175.923 392.192 392.192zM311.501 528.896l14.336 14.336 186.163-186.163 186.163 186.163 14.336-14.336-200.499-200.704z" />
<glyph unicode="&#xe902;" glyph-name="icon_circle_arrow_left" d="M512 860.672c227.533 0 412.672-185.139 412.672-412.672s-185.139-412.672-412.672-412.672-412.672 185.139-412.672 412.672c0 227.533 185.139 412.672 412.672 412.672zM512 55.808c216.269 0 392.192 175.923 392.192 392.192s-175.923 392.192-392.192 392.192-392.192-175.923-392.192-392.192 175.923-392.192 392.192-392.192zM591.667 649.728l14.336-14.336-185.958-186.163 185.958-186.163-14.336-14.541-200.704 200.704z" />
<glyph unicode="&#xe903;" glyph-name="icon_circle_arrow_right" d="M512 35.328c-227.533 0-412.672 185.139-412.672 412.672s185.139 412.672 412.672 412.672 412.672-185.139 412.672-412.672c0-227.533-185.139-412.672-412.672-412.672zM512 840.192c-216.269 0-392.192-175.923-392.192-392.192s175.923-392.192 392.192-392.192 392.192 175.923 392.192 392.192-175.923 392.192-392.192 392.192zM432.333 248.525l-14.336 14.541 185.958 186.163-185.958 186.163 14.336 14.336 200.704-200.499z" />
<glyph unicode="&#xe904;" glyph-name="icon_circle_arrow_top" d="M924.672 448c0-227.533-185.139-412.672-412.672-412.672s-412.672 185.139-412.672 412.672 185.139 412.672 412.672 412.672c227.533 0 412.672-185.139 412.672-412.672zM119.808 448c0-216.269 175.923-392.192 392.192-392.192s392.192 175.923 392.192 392.192-175.923 392.192-392.192 392.192-392.192-175.923-392.192-392.192zM712.499 369.562l-14.336-14.541-186.163 186.163-186.163-186.163-14.541 14.541 200.704 200.704z" />
<glyph unicode="&#xe905;" glyph-name="icon_cube" d="M639.386 297.062l56.525-96.256 144.179 250.266-141.926 246.784-145.203-252.723zM384.205 185.446l287.334 1.638-142.95 243.712h-287.334zM384.205 709.939l-143.155-251.29h287.13l144.179 251.29z" />
<glyph unicode="&#xe906;" glyph-name="icon_document_pdf" d="M797.082 529.715v86.426l-0.41 0.41c-0.205 2.253-1.024 4.506-2.662 6.349l-203.366 203.366c-1.638 1.638-3.686 2.458-5.734 2.662l-0.205 0.205h-357.786v-299.418h-57.344v-308.019h57.549v-152.371h569.958v152.371h57.549v308.019h-57.549zM593.51 791.040l164.864-165.478h-164.864v165.478zM247.398 808.653h325.632v-193.126c0-5.734 4.506-10.24 10.24-10.24h193.126v-75.571h-528.998v278.938zM776.602 89.6h-529.203v131.891h528.998v-131.891zM833.946 241.971h-643.891v267.264h644.096v-267.264zM325.222 340.48c5.939-0.819 13.107-1.638 21.299-2.662s15.155-1.434 20.48-1.434c33.997 0 50.79 21.299 50.79 63.898 0 24.576-4.915 41.165-14.746 49.562-9.83 8.602-22.323 12.698-37.683 12.698h-76.595v-181.862h36.454v59.802zM325.222 430.182h36.864c12.698 0 19.251-10.035 19.251-29.901 0-10.854-1.638-18.637-5.12-23.552-3.277-4.915-8.397-7.373-14.95-7.373h-36.045v60.826zM566.067 303.616c10.445 14.95 15.77 37.888 15.77 68.403 0 29.082-4.71 51.61-14.336 67.379s-25.805 23.552-49.152 23.552h-77.005v-181.862h77.005c21.299 0 37.274 7.373 47.718 22.528zM477.798 313.651v116.531h36.864c7.168 0 13.107-1.638 17.408-4.915s7.782-9.216 10.035-17.613c2.253-8.397 3.277-20.275 3.277-35.84 0-19.661-2.458-34.202-7.168-43.827s-12.698-14.336-23.552-14.336h-36.864zM644.915 350.925l72.090 2.048v28.672l-72.090 2.048v31.13c0 4.301 1.229 7.782 3.891 10.445s6.349 4.096 11.264 4.096h68.608v30.515c-19.866 2.048-46.080 3.277-78.643 3.277-11.469 0-21.299-3.277-29.286-9.626-8.192-6.554-12.083-16.998-12.083-31.744v-140.288h36.454v69.427z" />
<glyph unicode="&#xe907;" glyph-name="icon_document_text" d="M796.672 616.346c-0.205 2.253-1.024 4.506-2.662 6.349l-203.366 203.366c-1.638 1.638-3.686 2.458-5.734 2.662l-0.205 0.205h-357.786v-759.808h569.958v547.021l-0.205 0.205zM593.51 791.040l164.864-165.478h-164.864v165.478zM776.602 89.6h-529.203v719.053h325.632v-193.126c0-5.734 4.506-10.24 10.24-10.24h193.126v-515.686zM305.562 519.475v-10.24h419.635v20.48h-419.635v-10.24zM305.562 430.182v-10.24h419.635v20.48h-419.635v-10.24zM305.562 341.094v-10.24h419.635v20.48h-419.635v-10.24zM305.562 251.802v-10.24h419.635v20.48h-419.635v-10.24z" />
<glyph unicode="&#xe908;" glyph-name="icon_download" d="M512 350.31l-175.923 176.128 19.251 19.251 156.672-156.672 156.672 156.672 19.251-19.251zM700.211 327.578v-72.909h-376.422v72.909h-45.67v-118.579h467.763v118.579z" />
<glyph unicode="&#xe909;" glyph-name="icon_engineers" d="M670.72 369.357c-16.794 0-32.768-3.891-46.899-10.854l-174.899 174.899c6.554 13.926 10.445 29.491 10.445 45.875 0 58.573-47.514 106.291-106.291 106.291-1.843 0-3.482 0-5.325-0.205l-11.878-11.878 58.982-58.778-15.77-59.187-59.392-15.77-58.778 58.573-13.722-13.722c0-1.843-0.205-3.482-0.205-5.325 0-58.573 47.514-106.291 106.291-106.291 11.878 0 23.347 2.048 33.997 5.53l182.477-182.477c-3.277-10.445-5.12-21.299-5.12-32.768 0-58.163 46.899-105.472 104.858-106.086l15.36 15.36-55.706 55.501 15.77 59.187 59.392 15.77 55.501-55.296 17.203 17.203c-0.819 57.549-48.128 104.448-106.291 104.448zM669.286 543.437l60.416 20.89 39.526 79.053-29.491 29.491-79.053-39.322-20.89-60.621-88.474-88.269 29.696-29.491zM452.813 306.074l2.458-2.458-111.002-111.002-14.746 14.746 111.002 111.206 12.288-12.493 27.238 27.238-46.899 46.899-27.238-27.238 12.493-12.288-111.206-111.002-14.746 14.746 111.002 111.002 2.458-2.458 26.419 26.419-35.84 3.686-128.205-128.205 1.843-37.683 46.899-46.899 37.683-1.843 128.205 128.205-3.686 35.84z" />
<glyph unicode="&#xe90a;" glyph-name="icon_facebook" d="M553.574 286.822c0-38.502-0.41-77.005 0.205-115.712 0.205-17.203-6.758-24.371-23.552-23.962-22.938 0.41-45.875 0.614-69.018-0.205-18.842-0.614-26.419 6.349-26.214 25.805 0.614 74.138-0.41 148.275 0.614 222.413 0.41 21.094-5.53 28.467-27.238 27.853-48.128-1.434-44.237-3.482-44.442 44.032 0 2.253 0 4.506 0 6.758 0.819 18.432-4.915 42.189 4.301 53.658 8.192 10.24 33.587 5.53 50.79 9.83 6.349 1.638 14.95 9.626 15.36 15.565 2.048 19.866 0.614 39.936 0.819 60.006 0.41 74.138 49.357 128.41 123.29 134.963 26.419 2.253 53.248 0.41 80.077 0 16.179-0.205 24.166-7.168 22.323-25.19-2.048-20.685-1.638-41.37-1.843-62.259-0.205-14.746-7.373-21.914-21.709-21.914-17.818-0.205-35.635-0.819-53.248-0.614-19.661 0.41-28.672-10.035-29.491-28.262-0.819-18.432-0.205-37.069-0.614-55.501-0.41-13.926 6.554-18.022 19.251-17.613 21.504 0.41 43.008-0.41 64.512 0.205 18.022 0.41 25.6-6.349 23.757-25.19-2.048-22.118-2.048-44.442-2.867-66.56-0.614-15.155-7.987-22.733-23.962-22.323-19.251 0.614-38.502-0.614-57.754 0.205-16.998 0.819-23.757-4.71-23.142-22.733 0.614-37.683-0.205-75.571-0.205-113.254z" />
<glyph unicode="&#xe90b;" glyph-name="icon_fast" d="M320.717 137.523c-109.568 67.379-175.309 184.115-175.309 312.525 0 202.138 163.43 366.592 366.182 366.592v-33.792c-183.501 0-332.39-149.299-332.39-332.8 0-116.531 59.597-222.618 158.925-283.648l-17.408-28.877zM511.59 83.456v33.792c184.934 0 333.005 149.299 333.005 332.8 0 122.88-67.174 235.315-175.718 293.478l15.974 29.901c119.398-64.102 193.331-187.802 193.331-323.379 0.41-202.138-163.635-366.592-366.592-366.592zM513.434 875.418l103.629-80.077-103.629-80.282zM512.41 20.582l-103.629 80.077 103.629 80.282zM417.178 220.672l44.851 192.717h-93.798l220.57 268.902-44.646-192.717h93.798l-220.774-268.902zM407.962 432.845h77.619l-31.949-138.24 144.384 175.514h-77.619l31.949 138.24-144.384-175.514z" />
<glyph unicode="&#xe90c;" glyph-name="icon_gear" d="M411.443 16.077h-90.726v65.946c-27.648 5.734-54.272 16.794-77.824 32.358l-44.646-45.466-63.488 63.078 45.466 45.056c-15.565 23.552-26.419 49.766-32.154 76.8h-64.922v90.726h65.126c5.939 28.058 16.998 55.091 32.358 78.438l-45.875 46.285 63.078 63.283 45.466-45.875c23.552 15.565 49.971 26.624 77.414 32.358v63.078h90.726v-63.283c27.648-5.734 54.067-16.794 77.619-32.154l46.080 45.875 63.283-63.283-45.875-46.080c15.36-23.347 26.624-50.586 32.563-78.643h64.102v-90.726h-63.898c-5.734-27.034-16.794-53.248-32.358-76.8l45.67-44.442-63.488-63.283-45.67 45.466c-23.347-15.36-50.381-26.624-77.824-32.358v-66.355zM346.317 41.677h39.526v62.054l10.854 1.638c30.925 4.915 61.645 17.818 86.63 36.045l8.806 6.554 43.008-42.803 27.034 27.034-42.803 41.779 6.554 9.011c18.842 25.6 31.13 55.091 36.045 85.606l1.638 10.854h60.006v39.526h-60.006l-1.638 10.854c-4.915 31.334-17.818 62.464-36.045 87.245l-6.554 8.806 43.213 43.418-27.238 27.238-43.418-43.008-8.806 6.554c-25.19 18.432-55.091 30.925-86.221 35.84l-10.854 1.638v58.982h-39.526v-59.187l-10.854-1.638c-30.925-4.71-60.621-17.203-86.221-36.045l-8.806-6.554-42.598 43.008-27.034-27.034 43.213-43.622-6.554-8.806c-18.227-24.781-30.925-55.706-36.045-87.040l-1.843-10.65h-61.030v-39.526h61.030l1.638-10.854c4.71-30.515 17.203-60.006 35.84-85.606l6.554-8.806-42.598-42.189 27.034-26.829 41.984 42.803 9.011-6.554c25.395-18.637 55.296-31.13 86.63-36.045l10.854-1.638v-62.054zM366.592 177.869c-11.878 0-23.757 1.638-35.226 5.12-7.987 2.458-15.565 5.53-22.938 9.421-21.504 11.469-38.912 29.082-50.381 50.586-3.686 6.963-6.758 14.336-9.011 21.914-3.482 11.469-5.325 23.347-5.325 35.43 0 12.288 1.843 24.371 5.325 35.84 2.253 7.578 5.325 14.95 9.216 21.914 11.469 21.504 29.082 38.912 50.586 50.381 7.168 3.891 14.746 6.963 22.528 9.216 11.469 3.482 23.142 5.12 35.226 5.12 12.288 0 24.576-1.843 36.25-5.53 7.373-2.253 14.541-5.325 21.299-8.806 21.504-11.469 38.912-28.877 50.586-50.381 3.891-6.963 6.963-14.541 9.216-22.118 3.482-11.674 5.325-23.757 5.325-35.84s-1.843-23.962-5.325-35.43c-2.253-7.578-5.325-15.155-9.216-22.118-11.469-21.504-28.877-38.912-50.381-50.586-6.963-3.686-14.336-6.758-21.709-9.011-11.469-3.277-23.757-5.12-36.045-5.12zM366.592 397.619c-9.421 0-18.842-1.434-27.853-4.096-6.144-1.843-12.083-4.301-17.818-7.373-16.998-9.011-30.925-22.938-40.141-39.936-3.072-5.53-5.325-11.469-7.168-17.408-2.867-9.216-4.301-18.842-4.301-28.467s1.434-19.046 4.096-28.058c1.843-5.939 4.301-11.878 7.168-17.408 9.011-16.998 22.938-30.925 39.936-40.141 5.734-3.072 11.878-5.53 18.022-7.578 18.227-5.53 38.298-5.325 56.525 0.205 5.939 1.843 11.674 4.301 17.203 7.168 16.998 9.216 30.925 22.938 39.936 40.141 3.072 5.53 5.325 11.469 7.168 17.613v0c2.662 9.011 4.096 18.432 4.096 28.058s-1.434 19.251-4.301 28.467c-1.843 6.144-4.301 11.878-7.373 17.613-9.216 16.998-22.938 30.72-40.141 39.936-5.325 2.867-11.059 5.12-16.794 6.963-8.806 2.867-18.432 4.301-28.262 4.301zM695.501 409.088l-94.003 24.166 18.227 71.475c-20.89 12.902-38.707 30.106-52.224 50.79l-70.861-19.866-26.214 93.389 70.451 19.661c0.614 24.781 6.758 49.152 18.022 71.27l-52.019 50.995 67.789 69.427 51.814-50.79c21.914 12.083 46.285 18.842 71.27 20.070l18.022 70.246 94.003-24.166-18.022-70.246c21.299-13.107 39.117-30.72 52.634-51.814l70.042 19.661 26.214-93.389-70.451-19.661c-0.819-24.781-6.963-48.947-18.432-70.861l52.429-51.405-67.789-69.427-52.634 51.61c-21.504-11.674-45.466-18.432-70.042-19.661l-18.227-71.475zM632.627 451.482l44.646-11.469 16.794 65.946 10.65-0.205c0.41 0 0.614 0 1.024 0 26.010 0 51.405 7.168 73.318 20.89l8.602 5.325 48.538-47.514 32.154 32.973-48.538 47.309 5.12 8.602c12.902 21.504 19.866 46.285 19.866 71.475 0 1.434 0 2.867 0 4.301l-0.41 10.035 64.717 18.227-12.493 44.237-64.512-18.022-4.915 8.806c-13.107 23.552-32.563 42.598-56.32 55.296l-8.806 4.71 16.589 64.717-44.646 11.469-16.589-64.512-10.65 0.205c-0.41 0-0.819 0-1.229 0-26.214 0-52.019-7.373-74.138-21.504l-8.602-5.325-47.718 46.694-32.154-32.973 47.923-46.899-5.12-8.602c-12.698-21.299-19.456-45.875-19.456-70.861 0-1.638 0-3.482 0.205-5.53l0.41-10.035-64.922-18.227 12.493-44.237 65.126 18.227 4.915-8.602c13.107-23.142 32.563-41.984 56.115-54.477l8.806-4.71-16.794-65.741zM705.741 556.954c-22.118 0-43.213 8.192-59.597 23.347-1.024 1.024-2.048 2.048-3.277 3.072-16.384 16.589-25.395 38.502-25.395 61.85 0 6.144 0.614 12.493 2.048 18.637 0.41 1.638 0.819 3.482 1.229 5.12 7.987 28.672 29.696 51.2 58.163 60.211 1.843 0.614 3.686 1.229 5.734 1.638 6.963 1.638 13.926 2.662 21.094 2.662 22.323 0 43.622-8.397 60.006-23.552 1.229-1.229 2.662-2.662 4.096-3.891 15.565-16.384 24.166-37.888 24.166-60.621 0-6.758-0.819-13.517-2.253-20.275-0.41-1.638-0.819-3.277-1.229-4.71-8.397-28.467-30.515-50.79-58.982-59.392v0c-1.434-0.41-2.867-0.819-4.096-1.229-7.168-2.048-14.541-2.867-21.709-2.867zM705.741 707.686c-5.12 0-10.035-0.614-14.95-1.843-1.434-0.41-2.867-0.819-4.096-1.229-20.070-6.349-35.635-22.528-41.165-42.803-0.41-1.229-0.614-2.458-0.819-3.686-1.024-4.301-1.434-8.806-1.434-13.107 0-16.384 6.349-32.154 18.022-43.827 0.819-0.819 1.638-1.434 2.253-2.253 11.674-10.65 26.624-16.589 42.394-16.589 5.12 0 10.24 0.614 15.155 1.843 1.024 0.205 2.048 0.614 2.867 0.819v0c20.275 6.144 35.84 21.914 41.779 42.189 0.41 1.024 0.614 2.253 0.819 3.277 1.024 4.71 1.638 9.626 1.638 14.336 0 15.974-6.144 31.334-17.203 43.008-1.024 1.024-1.843 2.048-2.867 2.867-11.469 11.059-26.624 16.998-42.394 16.998z" />
<glyph unicode="&#xe90d;" glyph-name="icon_hamburger" d="M276.48 471.142v-46.899c1.638-0.41 3.277-1.024 5.12-1.024h457.933v48.947h-457.933c-1.843 0-3.482-0.614-5.12-1.024zM281.6 308.531c-1.843 0-3.482-0.614-5.12-1.024v-46.899c1.638-0.41 3.277-1.024 5.12-1.024h457.933v48.947h-457.933zM281.6 587.469h457.933v48.947h-457.933c-1.843 0-3.482-0.614-5.12-1.024v-46.899c1.638-0.205 3.277-1.024 5.12-1.024z" />
<glyph unicode="&#xe90e;" glyph-name="icon_home" d="M908.698-23.45h-793.805v578.15l397.107 364.749 397.107-364.749v-578.15h-0.41z" />
<glyph unicode="&#xe90f;" glyph-name="icon_home_outline" d="M732.774 165.171h-492.134v358.4l246.17 226.099 246.17-226.099v-358.4zM264.602 188.928h444.416v324.198l-222.208 204.186-222.208-204.186v-324.198z" />
<glyph unicode="&#xe910;" glyph-name="icon_home_outline-31" d="M732.774 165.171h-492.134v358.4l246.17 226.099 246.17-226.099v-358.4zM264.602 188.928h444.416v324.198l-222.208 204.186-222.208-204.186v-324.198z" />
<glyph unicode="&#xe911;" glyph-name="icon_home_outline-68" d="M732.774 165.171h-492.134v358.4l246.17 226.099 246.17-226.099v-358.4h-0.205zM264.602 188.928h444.416v324.198l-222.208 204.186-222.208-204.186c0 0 0-324.198 0-324.198z" />
<glyph unicode="&#xe912;" glyph-name="icon_link" d="M772.301 160.666h-527.974v527.77h263.987v-20.48h-243.507v-486.81h487.014v243.302h20.48zM823.501 476.877h-20.48v243.507h-243.507v20.48h263.987zM500.633 432.388l305.558 305.558 14.481-14.481-305.558-305.558-14.481 14.481z" />
<glyph unicode="&#xe913;" glyph-name="icon_linkedin" d="M250.88 372.429c0 49.152 0.614 98.099 0 147.046-0.41 20.275 7.168 29.082 27.648 28.467 26.010-0.819 52.224-0.614 78.234-0.41 18.432 0 27.034-7.373 27.034-27.034-0.614-98.918-0.614-197.632 0-296.55 0-18.842-7.987-25.19-25.805-24.576-26.829 0.819-53.862 1.024-80.691 0-19.456-0.819-27.034 6.349-26.624 26.010 0.819 48.947 0.205 98.099 0.205 147.046zM315.802 566.17c-36.454 0.41-64.922 28.672-64.717 64.512 0.41 37.274 29.696 66.355 66.56 65.946 34.202-0.41 65.331-31.949 65.126-65.946-0.205-37.069-28.877-64.922-66.97-64.512zM668.467 559.821c-88.883 0-109.158 0-188.211 0-40.55 0-54.886-14.131-55.091-54.067 0-91.955 0-183.706 0-275.661 0-29.491 1.434-30.72 30.925-30.72 23.757 0 47.514 0 71.27 0 29.286 0.205 31.334 2.048 31.539 30.72 0.205 61.030 0.614 122.061-0.205 182.886-0.205 21.299 12.083 33.382 28.672 38.912 10.854 3.686 28.467 3.277 36.454-3.277 9.216-7.578 15.565-23.757 15.77-36.454 1.638-60.211 0.614-120.422 0.819-180.634 0-30.925 1.638-32.358 31.949-32.358 26.214 0 52.224 0.41 78.438 0 14.541-0.205 22.323 4.71 22.323 20.275-0.205 73.728 0 147.251-0.41 220.979 0.205 13.517-15.36 119.398-104.243 119.398z" />
<glyph unicode="&#xe914;" glyph-name="icon_lock" d="M648.192 512.512h-35.43v107.11c0 56.525-46.080 102.4-103.014 102.4s-103.014-45.875-103.014-102.4v-107.11h-34.611v107.11c0 75.776 62.054 137.216 138.035 137.216s138.035-61.645 138.035-137.216v-107.11zM292.045 470.938v-331.776h439.706v331.776h-439.706zM558.899 201.626h-95.437l24.166 115.302c-16.179 8.602-27.238 25.805-27.238 45.466 0 28.467 23.142 51.61 51.61 51.61s51.61-23.142 51.61-51.61c0-20.275-11.674-37.683-28.672-46.080l23.962-114.688z" />
<glyph unicode="&#xe915;" glyph-name="icon_long_arrow_down" d="M678.093 213.914l-7.782 6.554-153.19-176.947v830.464h-10.24v-830.464l-153.19 176.947-7.782-6.554 166.093-191.898z" />
<glyph unicode="&#xe916;" glyph-name="icon_long_arrow_left" d="M277.914 281.907l6.554 7.782-176.947 153.19h830.464v10.24h-830.464l176.947 153.19-6.554 7.782-191.898-166.093z" />
<glyph unicode="&#xe917;" glyph-name="icon_long_arrow_right" d="M750.182 614.093l-6.758-7.782 176.947-153.19h-830.464v-10.24h830.464l-176.947-153.19 6.758-7.782 191.693 166.093z" />
<glyph unicode="&#xe918;" glyph-name="icon_long_arrow_up" d="M345.907 682.086l7.782-6.554 153.19 176.947v-830.464h10.24v830.464l153.19-176.947 7.782 6.554-166.093 191.898z" />
<glyph unicode="&#xe919;" glyph-name="icon_mail_outline" d="M822.272 212.89h-620.544v358.605h620.544v-358.605zM219.136 230.093h585.728v323.994h-585.728v-323.994zM205.961 229.376l603.502 340.769 8.56-15.159-603.502-340.769-8.56 15.159zM206.1 555.081l8.572 15.152 603.225-341.254-8.572-15.152-603.225 341.254z" />
<glyph unicode="&#xe91a;" glyph-name="icon_map" d="M512 707.072c-109.363 0-198.042-88.678-198.042-198.042s198.042-383.181 198.042-383.181 198.042 273.818 198.042 383.181-88.678 198.042-198.042 198.042zM512 377.344c-74.752 0-135.168 60.621-135.168 135.168s60.621 135.168 135.168 135.168 135.168-60.621 135.168-135.168-60.416-135.168-135.168-135.168z" />
<glyph unicode="&#xe91b;" glyph-name="icon_message" d="M151.347 733.491v-691.61l170.598 167.322h542.72v524.288h-713.318zM685.466 364.442h-350.413c-1.638 0-3.072 0.205-4.506 0.41v21.094c1.434 0.205 2.867 0.41 4.506 0.41h350.413v-21.914zM685.466 464.179h-350.413c-1.638 0-3.072 0.205-4.506 0.41v21.094c1.434 0.205 2.867 0.41 4.506 0.41h350.413v-21.914zM685.466 564.122h-350.413c-1.638 0-3.072 0.205-4.506 0.41v21.094c1.434 0.205 2.867 0.41 4.506 0.41h350.413v-21.914z" />
<glyph unicode="&#xe91c;" glyph-name="icon_message_outline" d="M141.107 17.51v726.221h734.003v-544.768h-548.864l-185.139-181.453zM161.587 723.251v-656.998l156.262 153.19h536.781v503.808h-693.043zM330.547 585.421h354.918v-20.48h-354.918v20.48zM330.547 485.478h354.918v-20.48h-354.918v20.48zM330.547 385.741h354.918v-20.48h-354.918v20.48z" />
<glyph unicode="&#xe91d;" glyph-name="icon_optimized" d="M862.822 504.32h-16.179c0.205-4.301 0.205-7.578 0.205-11.264 0-125.747-69.632-235.725-172.442-293.069l8.192-14.131 7.987-13.926c112.435 63.078 188.621 183.296 188.621 321.126 0 3.686 0 6.963-0.205 11.264h-16.179zM175.718 493.056c0 3.891 0 6.963 0.205 11.264h-32.358c-0.205-4.301-0.205-7.373-0.205-11.264 0-137.216 75.366-257.024 186.982-320.307l7.987 13.926 8.192 14.131c-101.786 57.754-170.803 167.117-170.803 292.25zM339.763 781.414c50.176 29.901 108.954 47.309 171.418 47.309 62.669 0 121.242-17.203 171.418-47.309l8.192 14.131 7.987 13.926c-54.886 32.768-119.194 51.61-187.597 51.61-68.608 0-132.71-18.842-187.597-51.61l7.987-13.926 8.192-14.131zM285.696 690.688c6.758 10.035 11.059 21.914 11.059 34.816v37.478c0 2.867-0.205 5.53-0.614 8.192-0.819 5.939-2.253 11.469-4.506 16.794-0.819 2.048-1.843 3.891-2.867 5.734-4.301 7.373-10.035 13.722-16.794 18.842-10.445 7.987-23.347 12.288-37.478 12.288h-5.12c-34.406 0-62.874-27.443-62.874-61.85v-37.478c0-14.131 4.301-27.034 12.083-37.478-42.189-9.83-78.029-38.707-78.029-84.992v-26.214l2.458-3.072c0.614-1.229 12.288-18.842 43.213-31.334 4.71-1.843 10.035-3.686 15.77-5.325 4.915-1.434 10.24-2.458 15.974-3.482 12.083-2.253 26.010-3.482 41.984-3.482h39.117c21.299 0 39.526 3.891 54.477 9.421 32.973 12.083 50.586 31.334 51.61 32.563l2.867 3.482v27.648c0.205 47.104-32.154 80.486-82.33 87.45zM190.669 762.982c0 20.48 18.022 37.478 38.502 37.478h4.915c17.613 0 32.154-12.698 36.045-29.286 0.614-2.662 0.614-5.53 0.614-8.192v-37.478c0-14.746-8.397-27.648-21.094-33.587-3.482-1.638-7.168-2.458-11.059-3.072-1.434-0.205-2.867 0-4.506 0h-4.71c-3.277 0-6.554 0.205-9.626 1.024-2.048 0.614-4.301 1.229-6.144 2.048-2.867 1.434-6.349 3.072-8.806 5.12-8.192 7.168-14.131 17.203-14.131 28.467v37.478zM342.426 585.626c-8.602-8.602-37.069-31.334-83.354-31.334h-39.117c-14.746 0-27.238 1.434-37.888 3.482-5.734 1.024-11.059 2.458-15.77 3.891-5.939 1.843-10.854 3.891-15.36 5.939s-8.602 4.301-11.878 6.349c-6.349 4.301-10.035 8.192-12.902 10.445v18.432c0 33.997 27.238 53.453 58.573 60.621 6.554 1.434 13.312 2.458 20.070 2.867 1.229 0 2.458 0.205 3.686 0.205 4.301-1.434 9.011-2.662 13.722-3.072 2.253-0.205 4.506-0.41 6.963-0.41h4.915c7.373 0 14.131 1.434 20.685 2.867h11.059c37.478 0 76.39-15.974 76.39-63.078v-17.203h0.205zM840.909 690.688c6.758 10.035 11.059 21.914 11.059 34.816v37.478c0 12.902-3.686 24.576-10.445 34.611-11.264 16.589-30.106 27.238-51.61 27.238h-4.915c-24.781 0-46.285-14.336-56.32-35.226-2.458-5.12-4.506-10.445-5.53-15.974-0.614-3.482-1.229-6.963-1.229-10.445v-37.478c0-14.131 4.915-27.034 12.902-37.478-42.189-9.83-77.21-38.707-77.21-84.992v-26.214l1.843-3.072c1.024-1.638 26.010-40.755 106.701-43.827 3.072-0.205 6.349 0 9.626 0h39.117c10.65 0 20.685 0.819 29.696 2.458 5.53 1.024 10.854 2.253 15.974 3.686 5.53 1.638 10.854 3.482 15.565 5.53 11.469 4.915 21.094 10.445 28.262 15.565 10.65 7.578 15.974 13.722 16.384 14.336l2.867 3.686v27.648c-0.205 47.309-32.358 80.691-82.739 87.654zM747.52 753.562v9.421c0 3.686 0.614 7.373 1.638 10.65 4.506 15.36 18.842 26.829 35.635 26.829h4.915c15.155 0 27.853-9.421 33.587-22.528 2.048-4.506 2.662-9.626 2.662-14.95v-37.478c0-10.24-3.891-19.661-10.65-26.419-3.072-2.867-6.144-5.325-10.035-7.168-1.024-0.614-2.048-0.614-3.277-1.024-3.891-1.434-7.987-1.843-12.493-1.843h-4.915c-0.41 0-0.614-0.205-1.024-0.205-5.325 0.205-10.445 1.229-14.95 3.482-4.71 2.253-9.011 5.325-12.288 9.216-5.53 6.554-9.216 14.95-9.216 24.166v27.853h0.41zM681.574 584.602v18.432c0 6.144 1.434 11.878 3.072 17.203 4.71 15.155 16.179 26.419 30.31 33.997 14.336 7.782 31.949 11.878 49.152 12.493 6.349-2.253 13.517-3.482 20.685-3.482h4.915c3.482 0 6.758 0 10.035 0.41 3.686 0.614 7.168 2.253 10.65 2.253h11.264c4.71 0 9.011 0 13.722-0.41 32.563-3.891 62.464-21.504 62.464-62.464v-17.408c-4.301-4.096-13.107-11.674-26.829-18.022-4.506-2.253-9.421-4.301-14.95-6.144-4.915-1.638-10.035-3.277-15.565-4.301-7.987-1.434-16.384-2.662-25.805-2.662h-39.117c-61.85 0-86.835 22.733-94.003 30.106zM637.542 164.762c-3.891 4.506-8.397 8.806-13.312 12.493-13.312 9.83-30.72 16.589-50.176 19.251 6.758 10.035 10.24 21.914 10.24 34.816v37.478c0 34.406-27.034 62.259-61.44 62.259h-4.915c-34.406 0-63.898-27.853-63.898-62.259v-37.478c0-14.131 5.325-27.034 13.312-37.478-18.432-4.301-35.021-12.083-48.333-23.552-4.71-3.891-8.806-8.397-12.493-13.312-3.277-4.301-6.758-9.011-9.011-14.131-4.71-10.035-7.782-21.504-7.782-34.202v-26.214l2.253-3.072c1.024-1.843 28.467-44.442 116.736-44.442h39.117c67.379 0 104.858 40.755 106.291 42.598l3.277 3.891v27.648c0 15.77-3.482 30.106-10.24 42.189-2.867 4.71-5.939 9.421-9.626 13.517zM479.846 268.8c0 20.48 17.613 36.454 38.093 36.454h4.915c20.48 0 37.069-15.974 37.069-36.454v-37.478c0-14.746-8.602-27.853-21.299-33.792-4.915-2.253-10.035-3.891-15.77-3.891h-4.915c-5.734 0-11.469 1.434-16.384 3.891-12.493 5.939-21.709 19.046-21.709 33.792v37.478zM631.603 91.443c-10.035-8.602-37.683-30.925-83.763-30.925h-39.117c-61.85 0-87.654 22.323-93.389 29.696v18.432c0 10.445 2.662 19.456 6.963 27.034 2.867 5.325 6.758 9.83 11.264 13.926 5.53 5.12 12.288 9.421 19.661 12.698 13.312 6.144 28.672 9.626 44.032 10.035 6.349-2.253 13.312-3.277 20.48-3.277h4.915c7.168 0 14.131 1.434 20.685 2.867h11.059c11.878 0 24.166-1.638 35.226-5.53 7.578-2.662 14.746-6.349 20.89-11.264 4.71-3.686 8.397-7.987 11.674-13.107 5.734-8.806 8.806-19.866 8.806-33.587v-16.998h0.614zM462.438 401.51c13.926-5.734 29.286-8.806 45.466-8.806 17.613 0 34.202 3.891 49.357 10.65 38.912 17.408 66.765 54.886 70.861 98.918 0 0.819 0.205 1.434 0.205 2.253 0.205 3.072 0.41 5.939 0.41 9.011 0 12.493-1.843 24.576-5.53 36.045-7.373 23.347-21.504 43.622-40.346 58.573-20.685 16.384-46.694 26.214-74.957 26.214-23.142 0-44.851-6.554-63.078-17.818-2.253-1.434-4.71-3.072-6.963-4.506-27.853-19.866-46.899-51.405-50.176-87.45-0.41-3.686-0.614-7.373-0.614-11.059 0-3.072 0.205-5.939 0.41-9.011 3.277-46.694 33.382-86.016 74.957-103.014zM415.744 513.536c0 1.843 0 3.482 0.205 5.325 1.638 27.648 15.565 52.224 36.25 67.994 3.686 2.867 7.578 5.325 11.878 7.578 13.107 7.168 27.853 11.059 43.827 11.059 23.142 0 44.237-8.602 60.416-22.733 17.203-14.95 28.877-36.25 31.13-60.211 0.205-2.867 0.41-5.939 0.41-9.011s-0.205-6.144-0.41-9.011c-0.205-2.867-0.614-5.53-1.229-8.192-5.939-30.72-27.238-56.115-55.501-67.789-10.854-4.506-22.528-6.963-34.816-6.963-10.854 0-21.094 1.843-30.72 5.325-32.973 11.674-57.139 41.779-60.826 77.619-0.41 2.867-0.614 5.939-0.614 9.011z" />
<glyph unicode="&#xe91e;" glyph-name="icon_phone_outline" d="M859.955 506.163c-13.107 72.090-59.187 108.749-61.030 110.182-63.898 54.477-228.762 66.355-286.925 66.355s-223.027-11.878-286.72-66.15c-2.048-1.434-48.128-38.298-61.235-110.387l-0.41-2.048 0.614-1.843c9.626-31.539 18.432-48.947 18.842-49.562l2.253-4.71h158.515l17.818 57.958-21.094 65.536c55.296 29.286 159.334 30.106 171.418 30.106s116.122-1.024 171.418-30.106l-21.094-65.536 17.818-57.958h158.515l2.253 4.506c0.41 0.819 9.216 18.227 18.842 49.562l0.614 1.843-0.41 2.253zM828.416 464.589h-136.192l-12.698 41.37 21.709 66.97 2.253 6.144-5.734 3.482c-57.344 34.611-172.646 35.635-185.549 35.635s-128.205-1.024-185.549-35.635l-5.734-3.482 2.253-6.144 21.709-66.97-12.698-41.37h-136.602c-3.072 6.758-8.806 20.685-14.95 40.55 12.493 64.307 54.477 98.099 55.091 98.714 53.453 45.466 197.837 62.464 276.275 62.464s222.822-16.998 276.685-62.669c0.41-0.41 42.394-33.997 54.886-98.509-6.349-20.070-12.083-33.997-15.155-40.55zM820.634 184.422h-617.267v122.88l197.632 131.072v128.614h221.798l0.205-128.614 197.632-131.072v-122.88zM220.774 201.83h582.451v96.256l-197.632 131.072-0.205 120.627h-186.982v-120.627l-197.632-131.072v-96.256zM512 258.97c-46.899 0-84.992 38.093-84.992 84.992s38.093 84.992 84.992 84.992 84.992-38.093 84.992-84.992-38.093-84.992-84.992-84.992zM512 411.546c-37.274 0-67.584-30.31-67.584-67.584s30.31-67.584 67.584-67.584 67.584 30.31 67.584 67.584-30.31 67.584-67.584 67.584z" />
<glyph unicode="&#xe91f;" glyph-name="icon_print" d="M761.037 612.864h-44.646v133.53h-412.877v-133.53h-44.646c-24.986 0-45.261-20.275-45.261-45.056v-237.158c0-24.986 20.275-45.056 45.261-45.056h38.502v-135.782h424.96v135.782h38.502c24.986 0 45.261 20.275 45.261 45.056v237.158c0 24.781-20.275 45.056-45.056 45.056zM337.306 712.602h345.293v-99.738h-345.293v99.738zM688.742 183.398h-357.581v183.296h357.581v-183.296zM772.506 330.65c0-6.349-5.12-11.469-11.469-11.469h-38.502v81.306h-424.96v-81.306h-38.502c-6.349 0-11.469 5.12-11.469 11.469v237.158c0 6.349 5.12 11.469 11.469 11.469h502.17c6.349 0 11.469-5.12 11.469-11.469v-237.158zM704.307 564.531c-27.443 0-49.971-22.323-49.971-49.971s22.323-49.971 49.971-49.971c27.443 0 49.971 22.323 49.971 49.971s-22.528 49.971-49.971 49.971zM704.307 498.381c-9.011 0-16.179 7.373-16.179 16.179s7.168 16.179 16.179 16.179 16.179-7.373 16.179-16.179-7.168-16.179-16.179-16.179zM367.821 323.277h281.395v-33.792h-281.395v33.792zM367.821 258.56h281.395v-33.792h-281.395v33.792z" />
<glyph unicode="&#xe920;" glyph-name="icon_reliable" d="M589.21 326.963h-97.485c-0.41 0-0.614 0-1.024 0-12.493 1.024-54.067 4.71-69.632 15.36-3.686 2.458-5.939 6.758-5.939 11.469v168.55c0 1.843 0.41 3.686 1.024 5.325 7.782 18.637 20.275 31.539 32.358 44.032 11.264 11.469 21.709 22.323 28.058 37.478 5.939 14.541 12.288 25.805 17.203 35.021 6.963 12.902 11.674 21.299 11.878 30.31 0 3.277 0 6.349 0 9.421 0 13.517 0 24.166 7.782 31.334 2.867 2.662 8.192 5.734 16.179 5.12 20.070-1.638 58.163-15.974 58.163-60.006 0-18.227-6.144-36.454-11.469-52.429-3.891-11.469-8.602-25.19-7.578-32.358 3.686 0.614 9.011 1.638 13.107 2.662 12.288 2.662 27.443 5.939 42.598 5.939 31.13 0 77.414-14.336 77.414-45.056 0-8.602-2.048-15.565-4.915-20.89 6.963-6.963 12.493-17.203 12.493-31.539 0-12.288-5.939-22.118-12.902-29.082 2.662-5.12 4.506-11.674 4.506-20.070 0-19.046-9.011-31.539-18.022-38.502 1.434-10.24 1.434-25.395-7.168-39.936-17.408-28.467-55.501-32.154-86.63-32.154zM492.339 354.611h96.87c35.021 0 55.091 5.939 62.874 18.842 7.578 12.493 2.253 27.443 2.253 27.648-1.229 3.482-1.434 7.373 0.41 10.854 1.638 3.277 4.301 5.734 7.987 6.963 2.048 0.819 10.854 5.325 10.854 18.842 0 6.963-2.867 9.83-3.686 10.445-4.71 2.253-7.373 6.554-7.373 11.878-0.205 5.325 3.482 10.035 8.397 12.493 0 0 11.264 5.939 11.264 14.336 0 12.902-10.035 15.974-10.24 16.179-5.939 1.843-10.65 7.168-10.445 13.312s3.482 11.059 9.216 12.698c1.024 0.819 3.686 3.277 3.686 10.65 0 5.12-21.504 17.613-49.971 17.613-12.288 0-26.010-2.867-36.864-5.325-17.818-3.891-30.72-6.554-38.707 3.072-14.131 16.589-6.349 39.731 1.229 62.259 4.915 14.746 10.035 29.901 10.035 43.622 0 22.528-17.408 29.491-27.034 31.539 0-2.458 0-5.53 0-8.192 0-3.072 0-6.349 0-10.035-0.41-15.565-7.168-28.262-15.36-43.008-4.915-9.011-10.445-19.251-15.974-32.358-8.397-20.070-21.709-33.997-33.587-46.285-10.035-10.445-19.661-20.275-25.6-32.973v-156.877c11.059-3.686 32.154-6.963 49.766-8.192zM569.958 572.109c0 0 0.205 0 0 0 0.205 0 0 0 0 0zM409.19 333.926h-60.006c-19.046 0-34.611 14.336-34.611 31.949v138.854c0 17.613 15.77 32.563 34.611 32.563h60.006c18.432 0 33.382-14.541 33.382-32.563v-138.854c0-17.818-14.541-31.949-33.382-31.949zM349.184 509.85c-3.686 0-6.963-2.867-6.963-5.12v-138.854c0-2.253 3.482-4.506 6.963-4.506h60.006c2.867 0 5.939 1.638 5.939 4.506v138.854c0 2.867-2.662 5.12-5.939 5.12h-60.006zM512 72.192c-2.867 0-5.734 0.614-8.192 2.048-3.072 1.638-77.824 43.008-153.395 114.483-44.646 42.394-80.486 86.426-106.086 131.277-32.563 56.73-49.152 114.893-49.152 172.442v239.206c0 7.782 5.325 14.746 13.107 16.589l299.622 74.957c2.662 0.614 5.53 0.614 8.397 0l299.622-74.957c7.578-1.843 13.107-8.806 13.107-16.589v-239.002c0-57.549-16.589-115.507-49.152-172.442-25.6-44.851-61.44-89.088-106.086-131.277-75.571-71.68-150.323-112.845-153.395-114.483-2.662-1.434-5.53-2.253-8.397-2.253zM229.581 718.131v-225.69c0-117.146 78.234-215.859 143.974-278.118 58.368-55.296 117.35-92.365 138.65-105.062 21.299 12.698 80.282 49.766 138.65 105.062 65.741 62.259 143.974 160.973 143.974 278.118v225.69l-282.829 70.861-282.419-70.861z" />
<glyph unicode="&#xe921;" glyph-name="icon_send" d="M630.374 116.019c-2.253 0-4.301 0.614-6.144 2.048l-180.634 133.734c-2.253 1.638-3.686 4.301-4.096 6.963s0.41 5.53 2.253 7.782l298.803 361.882-372.531-308.838c-3.686-3.072-9.011-3.072-12.698-0.205l-128.614 97.28c-2.867 2.048-4.301 5.53-4.096 9.011s2.458 6.554 5.53 8.192l597.197 298.598c3.686 1.843 8.192 1.229 11.264-1.434s4.301-6.963 3.072-11.059l-199.475-596.992c-1.024-3.072-3.482-5.53-6.554-6.554-1.229-0.205-2.253-0.41-3.277-0.41zM464.486 261.837l160.563-118.989 191.488 561.766-352.051-442.778zM252.109 423.014l109.158-82.534 451.174 365.158-560.333-282.624zM351.232 177.869v149.709h20.48v-110.182l72.090 50.995 11.878-16.589z" />
<glyph unicode="&#xe922;" glyph-name="icon_send_narrow-copy-6" d="M865.894 385.126c-1.229 4.096-1.024 7.987-0.205 9.216l0.205 0.614c3.686 6.349 8.806 15.155 6.144 23.347-1.024 3.072-3.482 7.168-9.626 9.83-33.178 14.131-82.125 12.083-144.179 9.626l-14.541-0.614c-54.886-2.253-56.115-1.229-87.859 23.962-5.939 4.71-12.902 10.24-21.299 16.589-53.862 40.96-86.426 38.093-103.834 36.454l-2.662-0.205c-16.794-1.434-112.435-12.083-159.949-23.552-46.899-11.469-100.966-56.32-158.31-105.062h-137.83l130.867-188.211h671.13l126.771 188.211h-94.822zM854.221 401.92l-0.41-0.614c-2.458-4.096-3.072-10.035-2.048-16.179h-660.685c51.405 43.622 99.942 81.92 140.493 91.955 46.694 11.469 141.312 21.914 157.901 23.347l2.867 0.205c15.565 1.434 44.646 4.096 94.413-33.587 8.397-6.349 15.155-11.674 21.094-16.384 34.202-27.238 38.093-29.286 96.87-26.829l14.541 0.614c60.211 2.458 107.93 4.506 138.24-8.602 0.614-0.205 1.843-0.819 2.048-1.434 0.41-2.867-3.482-9.421-5.325-12.493zM186.368 465.818l10.24 0.41c-0.819 17.613 12.698 32.768 30.31 33.587l-0.41 10.24c-23.347-1.024-41.37-20.89-40.141-44.237zM636.109 530.33l9.83 2.458c-9.011 37.274-46.694 60.211-83.968 51.2l2.458-9.83c31.744 7.578 63.898-12.083 71.68-43.827zM568.32 557.363l2.458-9.83c17.203 4.096 34.406-6.349 38.707-23.552l9.83 2.458c-5.325 22.528-28.262 36.454-50.995 30.925zM169.165 464.998c-1.638 32.768 23.757 60.621 56.32 62.259l-0.41 10.24c-38.298-1.843-67.994-34.611-66.15-72.909l10.24 0.41zM245.76 399.053c61.030 6.554 121.856 13.107 184.32 19.661-2.048 18.432-3.686 35.021-5.734 53.453-70.656-3.891-154.214-38.502-178.586-73.114zM446.054 474.624c1.638-16.179 3.686-35.226 5.734-53.658 45.875 4.915 90.112 9.626 139.878 14.95-61.235 45.875-72.909 48.742-145.613 38.707z" />
<glyph unicode="&#xe923;" glyph-name="icon_send_narrow" d="M230.195 214.733c-2.048 0-4.096 0.614-5.734 1.843-2.867 1.843-4.506 5.12-4.506 8.397l-0.819 181.248c0 5.325 4.096 9.83 9.421 10.24l456.704 31.334v3.482l-456.704 28.058c-5.325 0.41-9.421 4.915-9.421 10.24l0.819 181.248c0 3.482 1.638 6.554 4.506 8.397s6.349 2.253 9.421 1.024l564.429-222.003c3.891-1.638 6.554-5.325 6.554-9.421s-2.662-7.987-6.554-9.626l-564.224-223.642c-1.229-0.614-2.458-0.819-3.891-0.819zM239.821 396.8l0.614-156.877 523.674 198.861-524.288-41.984zM239.821 499.2l519.373-39.322-518.554 196.198-0.819-156.877z" />
<glyph unicode="&#xe924;" glyph-name="icon_share" d="M664.576 383.078c-40.141 0-75.776-19.456-98.304-49.152l-97.485 56.32c5.734 14.131 8.806 29.491 8.806 45.67s-3.277 31.539-8.806 45.67l99.738 57.549c22.733-28.058 57.344-46.080 96.051-46.080 67.994 0 123.494 55.296 123.494 123.494 0 67.994-55.296 123.494-123.494 123.494-67.994 0-123.494-55.296-123.494-123.494 0-16.589 3.277-32.563 9.421-46.899l-99.533-57.549c-22.528 28.672-57.549 47.104-96.87 47.104-67.994 0-123.494-55.296-123.494-123.494 0-67.994 55.296-123.494 123.494-123.494 39.322 0 74.138 18.432 96.87 47.104l98.099-56.73c-5.12-13.517-7.987-28.058-7.987-43.418 0-67.994 55.296-123.494 123.494-123.494 67.994 0 123.494 55.296 123.494 123.494s-55.501 123.904-123.494 123.904zM664.576 704.819c48.538 0 88.064-39.526 88.064-88.064s-39.526-88.064-88.064-88.064c-48.538 0-88.064 39.526-88.064 88.064-0.205 48.538 39.526 88.064 88.064 88.064zM354.099 347.853c-48.538 0-88.269 39.526-88.269 88.064s39.526 88.064 88.269 88.064c48.538 0 88.064-39.526 88.064-88.064s-39.322-88.064-88.064-88.064zM664.576 171.52c-48.538 0-88.064 39.526-88.064 88.064s39.526 88.064 88.064 88.064c48.538 0 88.064-39.526 88.064-88.064s-39.526-88.064-88.064-88.064z" />
<glyph unicode="&#xe925;" glyph-name="icon_simple_arrow_down" d="M512 294.195l-264.192 264.192 29.082 28.877 235.11-235.11 235.11 235.11 29.082-28.877z" />
<glyph unicode="&#xe926;" glyph-name="icon_simple_arrow_left" d="M622.387 183.808l-264.192 264.192 264.192 264.192 28.877-29.082-235.11-235.11 235.11-235.11z" />
<glyph unicode="&#xe927;" glyph-name="icon_simple_arrow_right" d="M401.613 183.808l-28.877 29.082 235.11 235.11-235.11 235.11 28.877 29.082 264.192-264.192z" />
<glyph unicode="&#xe928;" glyph-name="icon_simple_arrow_top" d="M747.11 308.736l-235.11 235.11-235.11-235.11-29.082 28.877 264.192 264.192 264.192-264.192z" />
<glyph unicode="&#xe929;" glyph-name="icon_smart" d="M323.584 302.182h-141.926v13.517c0 104.038-45.261 155.853-64.717 173.261-44.851 40.346-70.656 98.509-70.656 160.154 0 117.555 95.232 213.811 212.378 213.811 116.122 0 210.534-96.051 210.534-215.245h-28.467c0 104.243-81.715 186.778-182.067 186.778-101.376 0-183.91-83.149-183.91-185.139 0-53.453 22.323-103.424 61.235-138.445 21.299-19.251 69.837-74.342 73.933-179.814h113.664v-28.877zM185.549 283.341h170.803v-28.877h-170.803v28.877zM185.549 231.936h170.803v-27.648h-170.803v27.648zM256.819 603.034c-30.106 0-54.682 24.576-54.682 54.682s24.576 54.682 54.682 54.682 54.682-24.576 54.682-54.682c-0.205-30.31-24.576-54.682-54.682-54.682zM256.819 700.723c-23.757 0-43.008-19.251-43.008-43.008s19.251-43.008 43.008-43.008 43.008 19.251 43.008 43.008c0 23.552-19.456 43.008-43.008 43.008zM188.006 666.317h-50.176v-12.493h50.176v12.493zM191.078 556.544l11.059-6.349 25.395 43.827-11.059 6.349-25.395-43.827zM193.331 628.224l-43.827-25.395 6.349-11.059 43.827 25.395-6.349 11.059zM322.355 758.477l-11.059 6.349-25.395-43.827 11.059-6.349 25.395 43.827zM320.102 686.797l43.827 25.395-6.349 11.059-43.827-25.395 6.349-11.059zM199.68 697.856l-44.032 25.395-6.144-11.059 43.827-25.395 6.349 11.059zM313.754 617.37l43.827-25.395 6.349 11.059-43.827 25.395-6.349-11.059zM327.475 666.317v-12.493h50.176v12.493h-50.176zM286.106 594.022l25.395-43.827 11.059 6.349-25.395 43.827-11.059-6.349zM252.109 728.986h12.493v50.381h-12.493v-50.381zM252.109 539.546h12.493v50.176h-12.493v-50.176zM191.078 758.477l25.395-43.827 11.059 6.349-25.395 43.827-11.059-6.349zM647.168 174.797l-55.91 50.79-73.933-15.974-22.938 72.090-72.090 22.938 15.974 73.933-50.79 55.91 50.79 55.91-15.974 73.933 72.090 23.142 22.938 72.090 73.933-15.974 55.91 50.79 55.91-50.79 73.933 15.974 22.938-72.090 72.090-23.142-15.974-73.933 50.79-55.91-50.79-55.91 15.974-73.933-72.090-23.142-22.938-72.090-73.933 15.974-55.91-50.586zM599.45 256.512l47.718-43.213 47.718 43.213 62.874-13.722 19.661 61.235 61.235 19.661-13.722 62.874 43.213 47.718-43.213 47.718 13.722 62.874-61.235 19.661-19.661 61.235-62.874-13.722-47.718 43.213-47.718-43.213-62.874 13.722-19.661-61.235-61.235-19.661 13.722-62.874-43.213-47.718 43.213-47.718-13.722-62.874 61.235-19.661 19.661-61.235 62.874 13.722zM647.168 281.498c-84.378 0-152.986 68.608-152.986 152.986s68.608 152.986 152.986 152.986 152.986-68.608 152.986-152.986-68.813-152.986-152.986-152.986zM647.168 558.387c-68.403 0-123.904-55.706-123.904-123.904 0-68.403 55.706-123.904 123.904-123.904 68.403 0 123.904 55.706 123.904 123.904s-55.501 123.904-123.904 123.904zM650.65 490.598l12.288-24.781 3.686-7.373 8.192-1.229 27.443-3.891-25.805-24.986 1.434-8.192 4.71-27.238-31.949 16.794-7.373-3.891-24.576-12.902 4.71 27.238 1.434 8.192-5.939 5.734-19.866 19.251 27.443 3.891 8.192 1.229 3.686 7.373 12.288 24.781zM650.65 526.234l-26.419-53.658-59.187-8.602 42.803-41.779-10.035-58.982 52.838 27.853 52.838-27.853-10.035 58.982 42.803 41.779-59.187 8.602-26.419 53.658zM421.478 33.28l-5.53 92.365-92.57 5.734 144.998 144.998 11.059-11.264-120.013-120.013 71.475-4.506 4.301-71.27 120.013 120.013 11.264-11.059zM879.411 33.28l-144.794 144.998 11.059 11.059 120.218-120.013 4.301 71.27 71.27 4.506-120.013 120.013 11.264 11.264 144.794-144.998-92.365-5.734z" />
<glyph unicode="&#xe92a;" glyph-name="icon_star" d="M213.402 515.379l184.525-134.554-70.451-217.498 184.525 134.349 184.525-134.349-70.451 217.293 184.525 134.349-228.147 0.41-70.451 217.293-70.451-217.498z" />
<glyph unicode="&#xe92b;" glyph-name="icon_tb_ballmills" d="M795.853 306.483h-604.16v254.771h604.16v-254.771zM213.606 328.602h560.128v210.534h-560.128v-210.534zM982.016 361.779h-64.922v144.384h64.922v-144.384zM939.008 383.693h20.89v100.352h-20.89v-100.352zM819.61 423.219c0-9.626 0-15.77 0-27.443 31.539 0 38.912 0 70.656 0 0 11.674 0 17.818 0 27.443-31.744 0-38.912 0-70.656 0zM819.61 349.491c31.539 0 38.912 0 70.656 0 0 9.626 0 14.541 0 25.805-31.539 0-38.912 0-70.656 0 0-11.264 0-15.974 0-25.805zM819.61 308.531c31.539 0 38.912 0 70.656 0 0 9.626 0 14.541 0 24.166-31.539 0-38.912 0-70.656 0 0-9.626 0-14.541 0-24.166zM819.61 274.534c31.539 0 38.912 0 70.656 0 0 6.758 0 9.626 0 17.818-31.539 0-38.912 0-70.656 0 0-8.192 0-11.059 0-17.818zM819.61 241.971c31.539 0 38.912 0 70.656 0 0 5.53 0 11.264 0 19.661-31.539 0-38.912 0-70.656 0 0-8.192 0-14.131 0-19.661zM890.266 444.518c0 9.626 0 15.77 0 27.443-31.539 0-38.912 0-70.656 0 0-11.674 0-17.818 0-27.443 31.744 0 38.912 0 70.656 0zM890.266 518.246c-31.539 0-38.912 0-70.656 0 0-9.626 0-14.541 0-25.805 31.539 0 38.912 0 70.656 0 0 11.264 0 15.974 0 25.805zM890.266 559.206c-31.539 0-38.912 0-70.656 0 0-9.626 0-14.541 0-24.166 31.539 0 38.912 0 70.656 0 0 9.626 0 14.541 0 24.166zM890.266 593.408c-31.539 0-38.912 0-70.656 0 0-6.758 0-9.626 0-17.818 31.539 0 38.912 0 70.656 0 0 7.987 0 10.854 0 17.818zM890.266 625.766c-31.539 0-38.912 0-70.656 0 0-5.53 0-11.264 0-19.661 31.539 0 38.912 0 70.656 0 0 8.192 0 14.131 0 19.661zM257.638 440.832c0-8.397-6.963-15.36-15.36-15.36s-15.36 6.963-15.36 15.36c0 8.397 6.963 15.36 15.36 15.36 8.602 0 15.36-6.963 15.36-15.36zM303.718 440.832c0-8.397-6.963-15.36-15.36-15.36s-15.36 6.963-15.36 15.36c0 8.397 6.963 15.36 15.36 15.36s15.36-6.963 15.36-15.36zM395.674 440.832c0-8.397-6.963-15.36-15.36-15.36s-15.36 6.963-15.36 15.36c0 8.397 6.963 15.36 15.36 15.36s15.36-6.963 15.36-15.36zM671.744 440.832c0-8.397-6.963-15.36-15.36-15.36s-15.36 6.963-15.36 15.36c0 8.397 6.963 15.36 15.36 15.36 8.602 0 15.36-6.963 15.36-15.36zM717.824 440.832c0-8.397-6.963-15.36-15.36-15.36s-15.36 6.963-15.36 15.36c0 8.397 6.963 15.36 15.36 15.36s15.36-6.963 15.36-15.36zM763.699 440.832c0-8.397-6.963-15.36-15.36-15.36s-15.36 6.963-15.36 15.36c0 8.397 6.963 15.36 15.36 15.36 8.602 0 15.36-6.963 15.36-15.36zM257.638 398.029c0-8.397-6.963-15.36-15.36-15.36s-15.36 6.963-15.36 15.36c0 8.397 6.963 15.36 15.36 15.36 8.602 0 15.36-6.963 15.36-15.36zM303.718 398.029c0-8.397-6.963-15.36-15.36-15.36s-15.36 6.963-15.36 15.36c0 8.397 6.963 15.36 15.36 15.36s15.36-6.963 15.36-15.36zM349.798 398.029c0-8.397-6.963-15.36-15.36-15.36s-15.36 6.963-15.36 15.36c0 8.397 6.963 15.36 15.36 15.36s15.36-6.963 15.36-15.36zM395.674 398.029c0-8.397-6.963-15.36-15.36-15.36s-15.36 6.963-15.36 15.36c0 8.397 6.963 15.36 15.36 15.36s15.36-6.963 15.36-15.36zM441.754 398.029c0-8.397-6.963-15.36-15.36-15.36s-15.36 6.963-15.36 15.36c0 8.397 6.963 15.36 15.36 15.36 8.602 0 15.36-6.963 15.36-15.36zM579.789 398.029c0-8.397-6.963-15.36-15.36-15.36s-15.36 6.963-15.36 15.36c0 8.397 6.963 15.36 15.36 15.36s15.36-6.963 15.36-15.36zM625.869 398.029c0-8.397-6.963-15.36-15.36-15.36s-15.36 6.963-15.36 15.36c0 8.397 6.963 15.36 15.36 15.36s15.36-6.963 15.36-15.36zM671.744 398.029c0-8.397-6.963-15.36-15.36-15.36s-15.36 6.963-15.36 15.36c0 8.397 6.963 15.36 15.36 15.36 8.602 0 15.36-6.963 15.36-15.36zM717.824 398.029c0-8.397-6.963-15.36-15.36-15.36s-15.36 6.963-15.36 15.36c0 8.397 6.963 15.36 15.36 15.36s15.36-6.963 15.36-15.36zM763.699 398.029c0-8.397-6.963-15.36-15.36-15.36s-15.36 6.963-15.36 15.36c0 8.397 6.963 15.36 15.36 15.36 8.602 0 15.36-6.963 15.36-15.36zM257.638 355.226c0-8.397-6.963-15.36-15.36-15.36s-15.36 6.963-15.36 15.36c0 8.397 6.963 15.36 15.36 15.36 8.602 0 15.36-6.758 15.36-15.36zM303.718 355.226c0-8.397-6.963-15.36-15.36-15.36s-15.36 6.963-15.36 15.36c0 8.397 6.963 15.36 15.36 15.36s15.36-6.758 15.36-15.36zM349.798 355.226c0-8.397-6.963-15.36-15.36-15.36s-15.36 6.963-15.36 15.36c0 8.397 6.963 15.36 15.36 15.36s15.36-6.758 15.36-15.36zM395.674 355.226c0-8.397-6.963-15.36-15.36-15.36s-15.36 6.963-15.36 15.36c0 8.397 6.963 15.36 15.36 15.36s15.36-6.758 15.36-15.36zM441.754 355.226c0-8.397-6.963-15.36-15.36-15.36s-15.36 6.963-15.36 15.36c0 8.397 6.963 15.36 15.36 15.36 8.602 0 15.36-6.758 15.36-15.36zM487.834 355.226c0-8.397-6.963-15.36-15.36-15.36s-15.36 6.963-15.36 15.36c0 8.397 6.963 15.36 15.36 15.36s15.36-6.758 15.36-15.36zM533.709 355.226c0-8.397-6.963-15.36-15.36-15.36s-15.36 6.963-15.36 15.36c0 8.397 6.963 15.36 15.36 15.36 8.602 0 15.36-6.758 15.36-15.36zM579.789 355.226c0-8.397-6.963-15.36-15.36-15.36s-15.36 6.963-15.36 15.36c0 8.397 6.963 15.36 15.36 15.36s15.36-6.758 15.36-15.36zM625.869 355.226c0-8.397-6.963-15.36-15.36-15.36s-15.36 6.963-15.36 15.36c0 8.397 6.963 15.36 15.36 15.36s15.36-6.758 15.36-15.36zM671.744 355.226c0-8.397-6.963-15.36-15.36-15.36s-15.36 6.963-15.36 15.36c0 8.397 6.963 15.36 15.36 15.36 8.602 0 15.36-6.758 15.36-15.36zM717.824 355.226c0-8.397-6.963-15.36-15.36-15.36s-15.36 6.963-15.36 15.36c0 8.397 6.963 15.36 15.36 15.36s15.36-6.758 15.36-15.36zM763.699 355.226c0-8.397-6.963-15.36-15.36-15.36s-15.36 6.963-15.36 15.36c0 8.397 6.963 15.36 15.36 15.36 8.602 0 15.36-6.758 15.36-15.36zM175.514 343.757h-38.502l-68.198 46.080v71.475l68.198 46.080h38.298v-163.635zM143.77 365.67h9.626v119.603h-9.626l-53.043-35.84v-47.923l53.043-35.84zM244.531 218.829h-55.091v82.33h55.091v-82.33zM211.354 240.947h11.059v38.298h-11.059v-38.298zM795.853 218.829h-55.091v82.33h55.091v-82.33zM762.675 240.947h11.059v38.298h-11.059v-38.298zM901.325 240.742h-92.57v396.083h92.57v-396.083zM830.669 262.861h48.538v351.846h-48.538v-351.846z" />
<glyph unicode="&#xe92c;" glyph-name="icon_tb_filters" d="M323.584 531.763c0-11.059-9.011-19.866-19.866-19.866-11.059 0-19.866 9.011-19.866 19.866 0 11.059 9.011 19.866 19.866 19.866 11.059 0 19.866-8.806 19.866-19.866zM323.584 455.373c0-11.059-9.011-19.866-19.866-19.866-11.059 0-19.866 9.011-19.866 19.866 0 11.059 9.011 19.866 19.866 19.866 11.059 0 19.866-9.011 19.866-19.866zM323.584 378.778c0-11.059-9.011-19.866-19.866-19.866-11.059 0-19.866 9.011-19.866 19.866 0 11.059 9.011 19.866 19.866 19.866 11.059 0 19.866-8.806 19.866-19.866zM323.584 302.387c0-11.059-9.011-19.866-19.866-19.866-11.059 0-19.866 9.011-19.866 19.866 0 11.059 9.011 19.866 19.866 19.866 11.059 0 19.866-9.011 19.866-19.866zM270.95 560.845c0-11.059-9.011-19.866-19.866-19.866-11.059 0-19.866 9.011-19.866 19.866 0 11.059 9.011 19.866 19.866 19.866 11.059 0 19.866-8.806 19.866-19.866zM270.95 488.346c0-8.806-7.168-15.974-15.974-15.974s-15.974 7.168-15.974 15.974c0 8.806 7.168 15.974 15.974 15.974 9.011 0 15.974-7.168 15.974-15.974zM270.95 407.859c0-11.059-9.011-19.866-19.866-19.866-11.059 0-19.866 9.011-19.866 19.866 0 11.059 9.011 19.866 19.866 19.866 11.059 0 19.866-8.806 19.866-19.866zM270.95 333.107c0-11.878-9.626-21.504-21.504-21.504s-21.504 9.626-21.504 21.504c0 11.878 9.626 21.504 21.504 21.504s21.504-9.626 21.504-21.504zM343.654 586.65c0-11.059-9.011-19.866-19.866-19.866-11.059 0-19.866 9.011-19.866 19.866 0 11.059 9.011 19.866 19.866 19.866s19.866-9.011 19.866-19.866zM294.298 617.37c0-11.878-9.626-21.709-21.709-21.709-11.878 0-21.709 9.626-21.709 21.709 0 11.878 9.626 21.709 21.709 21.709 12.083-0.205 21.709-9.83 21.709-21.709zM421.069 621.466c0-12.902-10.445-23.142-23.142-23.142-12.902 0-23.142 10.445-23.142 23.142 0 12.902 10.445 23.142 23.142 23.142 12.902 0 23.142-10.445 23.142-23.142zM356.762 638.054c0-9.162-7.427-16.589-16.589-16.589s-16.589 7.427-16.589 16.589c0 9.162 7.427 16.589 16.589 16.589s16.589-7.427 16.589-16.589zM508.723 638.054c0-11.059-9.011-19.866-19.866-19.866-11.059 0-19.866 9.011-19.866 19.866 0 11.059 9.011 19.866 19.866 19.866s19.866-8.806 19.866-19.866zM450.765 668.774c0-11.878-9.626-21.709-21.709-21.709-11.878 0-21.709 9.626-21.709 21.709 0 11.878 9.626 21.709 21.709 21.709 11.878 0 21.709-9.626 21.709-21.709zM581.222 663.859c0-11.059-9.011-19.866-19.866-19.866-11.059 0-19.866 9.011-19.866 19.866 0 11.059 9.011 19.866 19.866 19.866 11.059 0 19.866-9.011 19.866-19.866zM514.253 693.76c0-11.469-9.421-20.89-20.89-20.89s-20.89 9.421-20.89 20.89c0 11.469 9.421 20.89 20.89 20.89s20.89-9.216 20.89-20.89zM720.896 551.629l79.872 26.214-158.106 69.222-312.73-87.245 71.68-41.37-71.68-19.866 71.68-41.37-71.68-19.866 71.68-41.37-71.68-19.866 71.475-41.37-71.68-19.866 71.68-41.37-71.68-19.866 150.733-87.040 320.102 104.858-79.872 35.021 79.872 26.214-79.872 35.021 79.872 26.214-79.872 35.021 79.872 26.214-79.872 35.021 79.872 26.214-79.667 35.226zM372.736 554.701l268.698 74.957 112.64-49.357-271.36-88.883-58.573 33.792-51.405 29.491zM754.074 273.92l-271.36-88.883-95.437 55.091 89.293-9.626 4.301-2.458 216.269 70.861 56.934-24.986zM754.074 335.155l-271.36-88.883-38.298 22.118-20.48 11.674-40.55 23.552 89.293-9.626 0.41-0.205 7.578-4.506 216.474 70.861 56.934-24.986zM754.074 396.39l-271.36-88.883-103.014 59.392 89.293-9.626 4.301-2.458 7.578-4.506 216.474 70.861 56.73-24.781zM754.074 457.626l-271.36-88.883-106.906 61.645 89.293-9.626 8.192-4.71 7.578-4.506 133.53 44.032 82.739 27.034 56.934-24.986zM697.958 500.429l-215.245-70.451-109.773 63.488 1.024 0.205 87.245-9.421 11.878-6.963 7.578-4.506 216.474 71.066 56.934-24.986-56.115-18.432z" />
<glyph unicode="&#xe92d;" glyph-name="icon_tb_floatationtank" d="M386.867 193.843c0-7.782-6.349-14.131-14.131-14.131s-14.131 6.349-14.131 14.131c0 7.782 6.349 14.131 14.131 14.131s14.131-6.349 14.131-14.131zM345.702 193.843c0-7.782-6.349-14.131-14.131-14.131s-14.131 6.349-14.131 14.131c0 7.782 6.349 14.131 14.131 14.131s14.131-6.349 14.131-14.131zM386.867 230.298c0-7.782-6.349-14.131-14.131-14.131s-14.131 6.349-14.131 14.131c0 7.782 6.349 14.131 14.131 14.131s14.131-6.349 14.131-14.131zM345.702 230.298c0-7.782-6.349-14.131-14.131-14.131s-14.131 6.349-14.131 14.131c0 7.782 6.349 14.131 14.131 14.131s14.131-6.349 14.131-14.131zM386.867 266.957c0-7.782-6.349-14.131-14.131-14.131s-14.131 6.349-14.131 14.131c0 7.782 6.349 14.131 14.131 14.131s14.131-6.349 14.131-14.131zM345.702 266.957c0-7.782-6.349-14.131-14.131-14.131s-14.131 6.349-14.131 14.131c0 7.782 6.349 14.131 14.131 14.131s14.131-6.349 14.131-14.131zM386.867 303.411c0-7.782-6.349-14.131-14.131-14.131s-14.131 6.349-14.131 14.131c0 7.782 6.349 14.131 14.131 14.131 7.782 0.205 14.131-6.144 14.131-14.131zM345.702 303.411c0-7.782-6.349-14.131-14.131-14.131s-14.131 6.349-14.131 14.131c0 7.782 6.349 14.131 14.131 14.131 7.782 0.205 14.131-6.144 14.131-14.131zM386.867 340.070c0-7.782-6.349-14.131-14.131-14.131s-14.131 6.349-14.131 14.131c0 7.782 6.349 14.131 14.131 14.131s14.131-6.349 14.131-14.131zM345.702 340.070c0-7.782-6.349-14.131-14.131-14.131s-14.131 6.349-14.131 14.131c0 7.782 6.349 14.131 14.131 14.131s14.131-6.349 14.131-14.131zM386.867 376.73c0-7.782-6.349-14.131-14.131-14.131s-14.131 6.349-14.131 14.131c0 7.782 6.349 14.131 14.131 14.131s14.131-6.349 14.131-14.131zM429.67 303.411c0-7.782-6.349-14.131-14.131-14.131s-14.131 6.349-14.131 14.131c0 7.782 6.349 14.131 14.131 14.131 7.782 0.205 14.131-6.144 14.131-14.131zM429.67 340.070c0-7.782-6.349-14.131-14.131-14.131s-14.131 6.349-14.131 14.131c0 7.782 6.349 14.131 14.131 14.131s14.131-6.349 14.131-14.131zM429.67 376.73c0-7.782-6.349-14.131-14.131-14.131s-14.131 6.349-14.131 14.131c0 7.782 6.349 14.131 14.131 14.131s14.131-6.349 14.131-14.131zM472.269 303.411c0-7.782-6.349-14.131-14.131-14.131s-14.131 6.349-14.131 14.131c0 7.782 6.349 14.131 14.131 14.131 7.782 0.205 14.131-6.144 14.131-14.131zM472.269 340.070c0-7.782-6.349-14.131-14.131-14.131s-14.131 6.349-14.131 14.131c0 7.782 6.349 14.131 14.131 14.131s14.131-6.349 14.131-14.131zM472.269 376.73c0-7.782-6.349-14.131-14.131-14.131s-14.131 6.349-14.131 14.131c0 7.782 6.349 14.131 14.131 14.131s14.131-6.349 14.131-14.131zM568.115 303.411c0-7.782-6.349-14.131-14.131-14.131s-14.131 6.349-14.131 14.131c0 7.782 6.349 14.131 14.131 14.131 7.782 0.205 14.131-6.144 14.131-14.131zM568.115 340.070c0-7.782-6.349-14.131-14.131-14.131s-14.131 6.349-14.131 14.131c0 7.782 6.349 14.131 14.131 14.131s14.131-6.349 14.131-14.131zM568.115 376.73c0-7.782-6.349-14.131-14.131-14.131s-14.131 6.349-14.131 14.131c0 7.782 6.349 14.131 14.131 14.131s14.131-6.349 14.131-14.131zM610.714 303.411c0-7.782-6.349-14.131-14.131-14.131s-14.131 6.349-14.131 14.131c0 7.782 6.349 14.131 14.131 14.131 7.782 0.205 14.131-6.144 14.131-14.131zM610.714 340.070c0-7.782-6.349-14.131-14.131-14.131s-14.131 6.349-14.131 14.131c0 7.782 6.349 14.131 14.131 14.131s14.131-6.349 14.131-14.131zM610.714 376.73c0-7.782-6.349-14.131-14.131-14.131s-14.131 6.349-14.131 14.131c0 7.782 6.349 14.131 14.131 14.131s14.131-6.349 14.131-14.131zM653.517 303.411c0-7.782-6.349-14.131-14.131-14.131s-14.131 6.349-14.131 14.131c0 7.782 6.349 14.131 14.131 14.131 7.782 0.205 14.131-6.144 14.131-14.131zM653.517 340.070c0-7.782-6.349-14.131-14.131-14.131s-14.131 6.349-14.131 14.131c0 7.782 6.349 14.131 14.131 14.131s14.131-6.349 14.131-14.131zM653.517 376.73c0-7.782-6.349-14.131-14.131-14.131s-14.131 6.349-14.131 14.131c0 7.782 6.349 14.131 14.131 14.131s14.131-6.349 14.131-14.131zM696.32 303.411c0-7.782-6.349-14.131-14.131-14.131s-14.131 6.349-14.131 14.131c0 7.782 6.349 14.131 14.131 14.131 7.782 0.205 14.131-6.144 14.131-14.131zM696.32 340.070c0-7.782-6.349-14.131-14.131-14.131s-14.131 6.349-14.131 14.131c0 7.782 6.349 14.131 14.131 14.131s14.131-6.349 14.131-14.131zM696.32 376.73c0-7.782-6.349-14.131-14.131-14.131s-14.131 6.349-14.131 14.131c0 7.782 6.349 14.131 14.131 14.131s14.131-6.349 14.131-14.131zM653.517 195.277c0-7.782-6.349-14.131-14.131-14.131s-14.131 6.349-14.131 14.131c0 7.782 6.349 14.131 14.131 14.131s14.131-6.349 14.131-14.131zM653.517 231.731c0-7.782-6.349-14.131-14.131-14.131s-14.131 6.349-14.131 14.131c0 7.782 6.349 14.131 14.131 14.131 7.782 0.205 14.131-6.349 14.131-14.131zM653.517 268.39c0-7.782-6.349-14.131-14.131-14.131s-14.131 6.349-14.131 14.131c0 7.782 6.349 14.131 14.131 14.131s14.131-6.349 14.131-14.131zM696.32 195.277c0-7.782-6.349-14.131-14.131-14.131s-14.131 6.349-14.131 14.131c0 7.782 6.349 14.131 14.131 14.131s14.131-6.349 14.131-14.131zM696.32 231.731c0-7.782-6.349-14.131-14.131-14.131s-14.131 6.349-14.131 14.131c0 7.782 6.349 14.131 14.131 14.131 7.782 0.205 14.131-6.349 14.131-14.131zM696.32 268.39c0-7.782-6.349-14.131-14.131-14.131s-14.131 6.349-14.131 14.131c0 7.782 6.349 14.131 14.131 14.131s14.131-6.349 14.131-14.131zM345.702 376.73c0-7.782-6.349-14.131-14.131-14.131s-14.131 6.349-14.131 14.131c0 7.782 6.349 14.131 14.131 14.131s14.131-6.349 14.131-14.131zM784.589 614.912h-547.84v44.851h547.84v-44.851zM257.024 635.392h507.085v4.096h-507.085v-4.096zM510.566 151.654h-223.437v358.605l42.394 40.755v52.224h20.275v-60.826l-42.189-40.755v-329.523h202.957zM456.909 688.23h100.966v-20.48h-100.966v20.48zM535.552 689.050h-51.61v106.701h51.61v-106.701zM504.218 709.325h10.854v65.946h-10.854v-65.946zM493.158 613.274h32.563v-326.246h-32.563v326.246zM439.91 171.725h-46.080v112.026h46.080v-112.026zM414.106 192.205h5.325v71.066h-5.325v-71.066zM619.11 171.725h-46.080v112.026h46.080v-112.026zM593.51 192.205h5.325v71.066h-5.325v-71.066zM449.741 282.112h20.48v-92.774h-20.48v92.774zM479.027 282.112h20.48v-92.774h-20.48v92.774zM508.314 282.112h20.48v-92.774h-20.48v92.774zM537.6 282.112h20.48v-92.774h-20.48v92.774zM725.811 151.654h-223.642v20.48h203.162v329.523l-42.394 40.755v60.826h20.48v-52.224l42.394-40.755z" />
<glyph unicode="&#xe92e;" glyph-name="icon_tb_heat" d="M767.59 518.451h-442.368c-60.211 0-109.363-49.152-109.363-109.363v-41.984c0-60.211 49.152-109.363 109.363-109.363h442.368c60.211 0 109.363 49.152 109.363 109.363v41.984c0 60.211-48.947 109.363-109.363 109.363zM859.546 367.104c0-50.79-41.37-91.955-91.955-91.955h-442.368c-50.79 0-91.955 41.37-91.955 91.955v41.984c0 50.79 41.37 91.955 91.955 91.955h442.368c50.79 0 91.955-41.37 91.955-91.955v-41.984zM693.043 552.243h74.957v-17.408h-74.957v17.408zM289.382 242.586h74.957v-17.408h-74.957v17.408zM133.325 450.253h17.408v-113.459h-17.408v113.459zM183.296 415.027h-14.131v-50.79h31.539v50.79h-14.131zM931.43 449.638h17.408v-113.459h-17.408v113.459zM902.554 422.605h-14.336v-50.79h31.539v50.79h-14.131zM367.002 475.443c-4.506 1.434-9.421-1.229-10.854-5.939l-44.646-152.166c-1.434-4.506 1.229-9.421 5.939-10.854 0.819-0.205 1.638-0.41 2.458-0.41 3.686 0 7.168 2.458 8.397 6.144l44.646 152.166c1.229 4.915-1.434 9.626-5.939 11.059zM406.938 475.443c-4.506 1.434-9.421-1.229-10.854-5.939l-44.646-152.166c-1.434-4.506 1.229-9.421 5.939-10.854 0.819-0.205 1.638-0.41 2.458-0.41 3.686 0 7.168 2.458 8.397 6.144l44.646 152.166c1.229 4.915-1.434 9.626-5.939 11.059zM446.874 475.443c-4.506 1.434-9.421-1.229-10.854-5.939l-44.646-152.166c-1.434-4.506 1.229-9.421 5.939-10.854 0.819-0.205 1.638-0.41 2.458-0.41 3.686 0 7.168 2.458 8.397 6.144l44.646 152.166c1.229 4.915-1.434 9.626-5.939 11.059zM486.81 475.443c-4.506 1.434-9.421-1.229-10.854-5.939l-44.646-152.166c-1.434-4.506 1.229-9.421 5.939-10.854 0.819-0.205 1.638-0.41 2.458-0.41 3.686 0 7.168 2.458 8.397 6.144l44.646 152.166c1.229 4.915-1.434 9.626-5.939 11.059zM526.746 475.443c-4.506 1.434-9.421-1.229-10.854-5.939l-44.646-152.166c-1.434-4.506 1.229-9.421 5.939-10.854 0.819-0.205 1.638-0.41 2.458-0.41 3.686 0 7.168 2.458 8.397 6.144l44.646 152.166c1.229 4.915-1.434 9.626-5.939 11.059zM566.682 475.443c-4.506 1.434-9.421-1.229-10.854-5.939l-44.646-152.166c-1.434-4.506 1.229-9.421 5.939-10.854 0.819-0.205 1.638-0.41 2.458-0.41 3.686 0 7.168 2.458 8.397 6.144l44.646 152.166c1.229 4.915-1.434 9.626-5.939 11.059zM606.618 475.443c-4.506 1.434-9.421-1.229-10.854-5.939l-44.646-152.166c-1.434-4.506 1.229-9.421 5.939-10.854 0.819-0.205 1.638-0.41 2.458-0.41 3.686 0 7.168 2.458 8.397 6.144l44.646 152.166c1.229 4.915-1.434 9.626-5.939 11.059zM646.554 475.443c-4.506 1.434-9.421-1.229-10.854-5.939l-44.646-152.166c-1.434-4.506 1.229-9.421 5.939-10.854 0.819-0.205 1.638-0.41 2.458-0.41 3.686 0 7.168 2.458 8.397 6.144l44.646 152.166c1.229 4.915-1.434 9.626-5.939 11.059zM686.49 475.443c-4.506 1.434-9.421-1.229-10.854-5.939l-44.646-152.166c-1.434-4.506 1.229-9.421 5.939-10.854 0.819-0.205 1.638-0.41 2.458-0.41 3.686 0 7.168 2.458 8.397 6.144l44.646 152.166c1.229 4.915-1.229 9.626-5.939 11.059zM726.426 475.443c-4.506 1.434-9.421-1.229-10.854-5.939l-44.646-152.166c-1.434-4.506 1.229-9.421 5.939-10.854 0.819-0.205 1.638-0.41 2.458-0.41 3.686 0 7.168 2.458 8.397 6.144l44.646 152.166c1.229 4.915-1.229 9.626-5.939 11.059zM766.362 475.443c-4.506 1.434-9.421-1.229-10.854-5.939l-44.646-152.166c-1.434-4.506 1.229-9.421 5.939-10.854 0.819-0.205 1.638-0.41 2.458-0.41 3.686 0 7.168 2.458 8.397 6.144l44.646 152.166c1.434 4.915-1.229 9.626-5.939 11.059z" />
<glyph unicode="&#xe92f;" glyph-name="icon_tb_merge_defeature" d="M421.478 442.47l-63.078 58.778c-1.229 1.024-2.867 1.434-4.301 0.819s-2.458-2.048-2.458-3.686v-31.334h-91.136c-2.253 0-3.891-1.843-3.891-3.891v-46.694c0-2.253 1.843-3.891 3.891-3.891h91.136v-31.334c0-1.638 1.024-3.072 2.458-3.686 0.41-0.205 1.024-0.41 1.638-0.41 1.024 0 2.048 0.41 2.662 1.024l63.078 58.778c0.819 0.819 1.229 1.843 1.229 2.867s-0.41 2.048-1.229 2.662zM359.834 390.042v26.214c0 2.253-1.843 3.891-3.891 3.891h-91.136v38.707h91.136c2.253 0 3.891 1.843 3.891 3.891v26.214l53.248-49.562-53.248-49.357zM539.034 263.68c-14.95 0-27.238-11.059-29.286-25.6h-102.605c-2.048 14.336-14.336 25.6-29.286 25.6-13.107 0-24.166-8.397-28.058-20.275l-78.234 14.746c0 0.41 0 1.024 0 1.434 0 16.179-13.312 29.491-29.491 29.491-6.758 0-12.902-2.253-17.818-6.144l-36.454 36.454c3.686 4.915 6.144 11.059 6.144 17.818 0 16.179-13.312 29.491-29.491 29.491-3.072 0-5.939-0.41-8.602-1.229l-26.624 57.344c8.192 5.325 13.722 14.336 13.722 24.781 0 14.95-11.059 27.238-25.6 29.286v146.637c14.336 2.048 25.6 14.336 25.6 29.286 0 16.179-13.312 29.491-29.491 29.491s-29.491-13.312-29.491-29.491c0-14.95 11.059-27.238 25.6-29.286v-146.637c-14.336-2.048-25.6-14.336-25.6-29.286 0-16.179 13.312-29.491 29.491-29.491 3.072 0 5.939 0.41 8.602 1.229l26.624-57.344c-8.192-5.325-13.722-14.336-13.722-24.781 0-16.179 13.312-29.491 29.491-29.491 6.758 0 12.902 2.253 17.818 6.144l36.454-36.454c-3.686-4.915-6.144-11.059-6.144-17.818 0-16.179 13.312-29.491 29.491-29.491 13.107 0 24.166 8.397 28.058 20.275l78.234-14.746c0-0.41 0-1.024 0-1.434 0-16.179 13.312-29.491 29.491-29.491 14.95 0 27.238 11.059 29.286 25.6h102.605c2.048-14.336 14.336-25.6 29.286-25.6 16.179 0 29.491 13.312 29.491 29.491 0.205 16.179-13.107 29.491-29.491 29.491zM92.16 653.005c0 11.878 9.626 21.504 21.504 21.504s21.504-9.626 21.504-21.504c0-10.445-7.578-19.251-17.613-21.094-1.229-0.205-2.662-0.41-3.891-0.41s-2.662 0.205-3.891 0.41c-10.035 1.843-17.613 10.65-17.613 21.094zM118.989 427.11c-1.638-0.41-3.482-0.819-5.325-0.819-11.878 0-21.504 9.626-21.504 21.504 0 10.445 7.578 19.251 17.613 21.094 1.229 0.205 2.662 0.41 3.891 0.41s2.662-0.205 3.891-0.41c10.035-1.843 17.613-10.65 17.613-21.094 0-7.168-3.686-13.517-9.011-17.613-2.048-1.434-4.506-2.458-7.168-3.072zM164.864 315.904c-11.878 0-21.504 9.626-21.504 21.504 0 7.168 3.686 13.517 9.011 17.613 2.048 1.638 4.506 2.662 7.168 3.277 1.638 0.41 3.482 0.819 5.325 0.819 11.878 0 21.504-9.626 21.504-21.504 0-4.506-1.434-8.602-3.686-12.083-1.434-2.253-3.482-4.096-5.53-5.53-3.686-2.662-7.782-4.096-12.288-4.096zM242.483 238.080c-11.878 0-21.504 9.626-21.504 21.504 0 4.506 1.434 8.602 3.686 12.083 1.434 2.253 3.482 4.096 5.53 5.53 3.482 2.458 7.578 3.686 12.083 3.686 11.878 0 21.504-9.626 21.504-21.504 0 0 0 0 0 0 0-2.662-0.614-5.325-1.434-7.782-2.867-7.782-10.65-13.517-19.866-13.517zM378.266 212.48c-11.878 0-21.504 9.626-21.504 21.504 0 0 0 0 0 0 0 2.662 0.614 5.325 1.434 7.782 3.072 7.987 10.854 13.722 20.070 13.722 10.445 0 19.251-7.578 21.094-17.613 0.205-1.229 0.41-2.662 0.41-3.891 0-1.434-0.205-2.662-0.41-3.891-1.843-9.83-10.65-17.613-21.094-17.613zM539.034 212.48c-10.445 0-19.251 7.578-21.094 17.613-0.205 1.229-0.41 2.662-0.41 3.891 0 1.434 0.205 2.662 0.41 3.891 1.843 10.035 10.65 17.613 21.094 17.613 11.878 0 21.504-9.626 21.504-21.504 0.205-11.674-9.421-21.504-21.504-21.504zM936.755 270.438c-14.95 0-27.238-11.059-29.286-25.6h-146.432c-2.048 14.336-14.336 25.6-29.286 25.6-6.758 0-12.902-2.253-17.818-6.144l-167.117 167.117c3.686 4.915 6.144 11.059 6.144 17.818 0 14.95-11.059 27.238-25.6 29.286v145.408c14.336 2.048 25.6 14.336 25.6 29.286 0 16.179-13.312 29.491-29.491 29.491s-29.491-13.312-29.491-29.491c0-14.95 11.059-27.238 25.6-29.286v-145.408c-14.336-2.048-25.6-14.336-25.6-29.286 0-16.179 13.312-29.491 29.491-29.491 6.758 0 12.902 2.253 17.818 6.144l167.117-167.117c-3.686-4.915-6.144-11.059-6.144-17.818 0-16.179 13.312-29.491 29.491-29.491 14.95 0 27.238 11.059 29.286 25.6h146.432c2.048-14.336 14.336-25.6 29.286-25.6 16.179 0 29.491 13.312 29.491 29.491s-13.107 29.491-29.491 29.491zM501.965 653.005c0 11.878 9.626 21.504 21.504 21.504s21.504-9.626 21.504-21.504c0-10.445-7.578-19.251-17.613-21.094-1.229-0.205-2.662-0.41-3.891-0.41-1.434 0-2.662 0.205-3.891 0.41-10.035 1.843-17.613 10.65-17.613 21.094zM523.469 427.725c-11.878 0-21.504 9.626-21.504 21.504 0 10.445 7.578 19.251 17.613 21.094 1.229 0.205 2.662 0.41 3.891 0.41 1.434 0 2.662-0.205 3.891-0.41 10.035-1.843 17.613-10.65 17.613-21.094 0-4.506-1.434-8.602-3.686-12.083-1.434-2.253-3.482-4.096-5.53-5.53-3.482-2.458-7.782-3.891-12.288-3.891zM731.955 219.443c-11.878 0-21.504 9.626-21.504 21.504 0 4.506 1.434 8.602 3.686 12.083 1.434 2.253 3.482 4.096 5.53 5.53 3.482 2.458 7.578 3.686 12.083 3.686 10.445 0 19.251-7.578 21.094-17.613 0.205-1.229 0.41-2.662 0.41-3.891s-0.205-2.662-0.41-3.891c-1.638-9.83-10.445-17.408-20.89-17.408zM936.755 219.443c-10.445 0-19.251 7.578-21.094 17.613-0.205 1.229-0.41 2.662-0.41 3.891s0.205 2.662 0.41 3.891c1.843 10.035 10.65 17.613 21.094 17.613 11.878 0 21.504-9.626 21.504-21.504s-9.626-21.504-21.504-21.504z" />
<glyph unicode="&#xe930;" glyph-name="icon_tb_merge_merge-copy-2" d="M767.59 518.451h-442.368c-60.211 0-109.363-49.152-109.363-109.363v-41.984c0-60.211 49.152-109.363 109.363-109.363h442.368c60.211 0 109.363 49.152 109.363 109.363v41.984c0 60.211-48.947 109.363-109.363 109.363zM859.546 367.104c0-50.79-41.37-91.955-91.955-91.955h-442.368c-50.79 0-91.955 41.37-91.955 91.955v41.984c0 50.79 41.37 91.955 91.955 91.955h442.368c50.79 0 91.955-41.37 91.955-91.955v-41.984zM693.043 552.243h74.957v-17.408h-74.957v17.408zM289.382 242.586h74.957v-17.408h-74.957v17.408zM133.325 450.253h17.408v-113.459h-17.408v113.459zM183.296 415.027h-14.131v-50.79h31.539v50.79h-14.131zM931.43 449.638h17.408v-113.459h-17.408v113.459zM902.554 422.605h-14.336v-50.79h31.539v50.79h-14.131zM367.002 475.443c-4.506 1.434-9.421-1.229-10.854-5.939l-44.646-152.166c-1.434-4.506 1.229-9.421 5.939-10.854 0.819-0.205 1.638-0.41 2.458-0.41 3.686 0 7.168 2.458 8.397 6.144l44.646 152.166c1.229 4.915-1.434 9.626-5.939 11.059zM406.938 475.443c-4.506 1.434-9.421-1.229-10.854-5.939l-44.646-152.166c-1.434-4.506 1.229-9.421 5.939-10.854 0.819-0.205 1.638-0.41 2.458-0.41 3.686 0 7.168 2.458 8.397 6.144l44.646 152.166c1.229 4.915-1.434 9.626-5.939 11.059zM446.874 475.443c-4.506 1.434-9.421-1.229-10.854-5.939l-44.646-152.166c-1.434-4.506 1.229-9.421 5.939-10.854 0.819-0.205 1.638-0.41 2.458-0.41 3.686 0 7.168 2.458 8.397 6.144l44.646 152.166c1.229 4.915-1.434 9.626-5.939 11.059zM486.81 475.443c-4.506 1.434-9.421-1.229-10.854-5.939l-44.646-152.166c-1.434-4.506 1.229-9.421 5.939-10.854 0.819-0.205 1.638-0.41 2.458-0.41 3.686 0 7.168 2.458 8.397 6.144l44.646 152.166c1.229 4.915-1.434 9.626-5.939 11.059zM526.746 475.443c-4.506 1.434-9.421-1.229-10.854-5.939l-44.646-152.166c-1.434-4.506 1.229-9.421 5.939-10.854 0.819-0.205 1.638-0.41 2.458-0.41 3.686 0 7.168 2.458 8.397 6.144l44.646 152.166c1.229 4.915-1.434 9.626-5.939 11.059zM566.682 475.443c-4.506 1.434-9.421-1.229-10.854-5.939l-44.646-152.166c-1.434-4.506 1.229-9.421 5.939-10.854 0.819-0.205 1.638-0.41 2.458-0.41 3.686 0 7.168 2.458 8.397 6.144l44.646 152.166c1.229 4.915-1.434 9.626-5.939 11.059zM606.618 475.443c-4.506 1.434-9.421-1.229-10.854-5.939l-44.646-152.166c-1.434-4.506 1.229-9.421 5.939-10.854 0.819-0.205 1.638-0.41 2.458-0.41 3.686 0 7.168 2.458 8.397 6.144l44.646 152.166c1.229 4.915-1.434 9.626-5.939 11.059zM646.554 475.443c-4.506 1.434-9.421-1.229-10.854-5.939l-44.646-152.166c-1.434-4.506 1.229-9.421 5.939-10.854 0.819-0.205 1.638-0.41 2.458-0.41 3.686 0 7.168 2.458 8.397 6.144l44.646 152.166c1.229 4.915-1.434 9.626-5.939 11.059zM686.49 475.443c-4.506 1.434-9.421-1.229-10.854-5.939l-44.646-152.166c-1.434-4.506 1.229-9.421 5.939-10.854 0.819-0.205 1.638-0.41 2.458-0.41 3.686 0 7.168 2.458 8.397 6.144l44.646 152.166c1.229 4.915-1.229 9.626-5.939 11.059zM726.426 475.443c-4.506 1.434-9.421-1.229-10.854-5.939l-44.646-152.166c-1.434-4.506 1.229-9.421 5.939-10.854 0.819-0.205 1.638-0.41 2.458-0.41 3.686 0 7.168 2.458 8.397 6.144l44.646 152.166c1.229 4.915-1.229 9.626-5.939 11.059zM766.362 475.443c-4.506 1.434-9.421-1.229-10.854-5.939l-44.646-152.166c-1.434-4.506 1.229-9.421 5.939-10.854 0.819-0.205 1.638-0.41 2.458-0.41 3.686 0 7.168 2.458 8.397 6.144l44.646 152.166c1.434 4.915-1.229 9.626-5.939 11.059z" />
<glyph unicode="&#xe931;" glyph-name="icon_tb_merge_merge-copy-3" d="M833.946 533.606v29.286h-31.334l-1.229 14.95h-117.76v-65.126h150.323v20.89zM726.835 533.606h-34.202v14.746h34.202v-14.746zM792.986 533.606h-34.202v14.746h34.202v-14.746zM883.302 446.362l24.781 24.781 14.95 34.406-13.722-0.614-577.741 1.229-24.781 10.445h-11.059l-46.694 46.694-5.53-2.662c-2.867-1.434-66.355-32.973-76.8-114.278h-134.554l88.474-173.67h722.33l116.941 173.67h-76.595zM245.76 542.208l25.395-25.395h-7.373v-53.248l29.901-16.998h-109.363c8.397 58.163 47.104 86.835 61.44 95.642zM121.446 290.099l-75.162 147.661h119.603c-0.41-4.71-0.614-9.421-0.614-14.541 0-63.898-7.373-108.954-43.827-133.12zM838.451 281.498h-699.392c35.84 29.082 43.622 76.39 43.622 141.722 0 4.915 0.205 9.83 0.614 14.541h760.422l-105.267-156.262zM863.846 538.112l-22.118-18.227v-14.336h81.51l7.578 35.226zM678.298 512.717v20.89h-91.341v112.64h-23.142v-112.64h-41.984v39.117l-19.046 23.757h-28.672l-19.046-23.757v-39.117h-12.698v69.018h-23.142v-69.018h-109.773v-13.107l26.624-7.782h342.221zM478.413 564.736l6.963 8.806h6.554l6.963-8.806v-19.661h-20.48v19.661z" />
<glyph unicode="&#xe932;" glyph-name="icon_tb_merge_merge-copy" d="M811.008 17.306l0.205 0.614-1.229 0.41-171.213 190.054h34.202v28.262h13.722v42.803h-130.662v164.864h130.662v42.803h-13.722v28.262h-39.117l142.336 157.901 0.41 0.205v0.205l22.118 25.19 2.048-0.614 1.638 4.71 0.41 0.41 4.915 1.638-0.819 2.662 16.179 18.022-29.901 29.901-5.734-5.12-5.734-1.843 0.819-2.458-24.576-22.118-0.614 0.205-0.41-1.229-6.349-5.734h-0.205v-0.205l-192.512-173.466v52.429h-57.139v-13.722h-59.597v-13.312h-77.414l23.962 114.893-12.083 3.277-37.888-118.17h-0.205v27.034h-45.261v-27.034h-60.826v-81.92h-35.43v-42.803h96.461v-164.864h-96.461v-42.803h35.635v-81.92h60.826v-27.034h45.261v27.034h0.205l37.888-118.17 12.083 3.277-23.962 114.893h77.414v-13.312h59.597v-13.722h57.139v47.514l235.315-211.763 34.816 34.816-17.203 19.046zM510.771 354.611v-74.957h-27.443v164.864h27.443v-89.907zM437.862 354.611v-74.957h-27.443v164.864h27.443v-89.907zM623.206 520.294l-13.722 33.587 32.154-13.107-18.432-20.48zM670.106 616.346l30.515-10.24-19.661-21.914-10.854 32.154zM731.546 649.523l-29.082 9.83 19.866 17.818 9.216-27.648zM732.979 679.219l25.6-8.602-16.589-18.432-9.011 27.034zM729.702 638.669l-18.637-20.48-10.035 30.106 28.672-9.626zM699.802 617.984l-31.539 10.65 21.504 19.456 10.035-30.106zM668.467 586.854l-33.178 11.878 22.323 20.275 10.854-32.154zM671.744 574.157l-19.866-22.118-13.722 34.202 33.587-12.083zM639.386 553.267l-35.84 14.746-0.41 0.819-0.819-0.41-0.41 0.205 23.142 20.89 14.336-36.25zM594.739 560.845l-0.41-0.819 0.819-0.41 14.746-35.84-39.936 16.179 24.371 21.914 0.41-1.024zM772.506 685.978l-8.192 24.576 23.347-7.782-15.155-16.794zM802.816 719.77l-5.53 16.179 10.65-10.65-5.12-5.53zM786.227 734.925l7.578-22.938-23.962 7.987 16.384 14.95zM762.675 680.858l-26.624 9.011 18.022 16.384 8.602-25.395zM337.715 444.518h27.443v-164.864h-27.443v164.864zM792.986-23.859l-8.192 7.373c0 0-0.205 0.205-0.205 0.205s-0.205 0.205-0.205 0.205l-220.365 198.451c-1.638 1.638-3.891 2.253-6.144 2.253-1.229 0-2.458-0.205-3.686-0.819-3.277-1.434-5.325-4.71-5.325-8.397v-38.502h-38.912v4.506c0 5.12-4.096 9.011-9.011 9.011h-50.381v4.301c0 5.12-4.096 9.011-9.011 9.011h-77.414c-2.662 0-5.325-1.229-6.963-3.277s-2.458-4.915-1.843-7.578l12.902-62.464-21.504 66.97c-1.229 3.686-4.71 6.349-8.602 6.349h-0.205c-5.12 0-9.011-4.096-9.011-9.011v-18.022h-27.034v18.022c0 5.12-4.096 9.011-9.011 9.011h-51.61v72.909c0 5.12-4.096 9.011-9.011 9.011h-26.624v24.576h87.45c5.12 0 9.011 4.096 9.011 9.011v74.957h27.034v-74.957c0-5.12 4.096-9.011 9.011-9.011h27.443c5.12 0 9.011 4.096 9.011 9.011v74.957h27.034v-74.957c0-5.12 4.096-9.011 9.011-9.011h27.443c5.12 0 9.011 4.096 9.011 9.011v74.957h27.034v-74.957c0-5.12 4.096-9.011 9.011-9.011h27.443c5.12 0 9.011 4.096 9.011 9.011v74.957h27.034v-74.957c0-5.12 4.096-9.011 9.011-9.011h121.651v-24.576h-4.506c-5.12 0-9.011-4.096-9.011-9.011v-19.251h-25.19c-3.686 0-6.758-2.048-8.397-5.325-1.434-3.277-0.819-7.168 1.638-9.83l171.213-190.054c0.205-0.205 0.41-0.41 0.614-0.614s0.41-0.41 0.41-0.614l11.264-12.493-22.323-22.323z" />
<glyph unicode="&#xe933;" glyph-name="icon_tb_merge_merge" d="M177.971 366.899c-1.638 0-3.072-1.024-3.686-2.458 0-0.41-0.205-1.024-0.205-1.638 0-1.024 0.41-2.048 1.024-2.662l55.706-60.006c0.819-0.819 1.843-1.229 2.867-1.229s2.253 0.41 2.867 1.229l55.706 60.006c1.024 1.229 1.434 2.867 0.819 4.301s-2.048 2.458-3.686 2.458h-29.696v72.704c0 2.253-1.843 3.891-3.891 3.891h-44.237c-2.253 0-3.891-1.843-3.891-3.891v-72.704h-29.696zM215.654 435.712h36.454v-72.704c0-2.253 1.843-3.891 3.891-3.891h24.371l-46.694-50.176-46.694 50.176h24.371c2.253 0 3.891 1.843 3.891 3.891v72.704zM642.253 366.899c-1.638 0-3.072-1.024-3.686-2.458-0.205-0.41-0.41-1.024-0.41-1.638 0-1.024 0.41-2.048 1.024-2.662l55.706-60.006c0.819-0.819 1.843-1.229 2.867-1.229s2.253 0.41 2.867 1.229l55.706 60.006c1.024 1.229 1.434 2.867 0.819 4.301s-2.048 2.458-3.686 2.458h-29.696v72.704c0 2.253-1.843 3.891-3.891 3.891h-44.032c-2.253 0-3.891-1.843-3.891-3.891v-72.704h-29.696zM679.731 435.712h36.454v-72.704c0-2.253 1.843-3.891 3.891-3.891h24.371l-46.694-50.176-46.694 50.176h24.781c2.253 0 3.891 1.843 3.891 3.891v72.704zM886.17 695.808c0 0.205-0.205 0.614-0.41 0.819 0 0 0 0.205-0.205 0.205-0.205 0.614-0.819 1.024-1.229 1.229 0 0 0 0.205-0.205 0.205 0 0-0.205 0-0.205 0-0.614 0.205-1.024 0.41-1.638 0.41v0c0 0 0 0 0 0l-126.976 3.277v156.467c0.41 0.819 0.41 1.638 0.205 2.662-0.41 1.638-1.843 3.072-3.686 3.072h-0.41c0 0 0 0 0 0l-117.146 5.12c-0.819 0-1.434-0.205-2.048-0.41l-66.355-35.84v29.901c0 0 0 0.205 0 0.205 0 0.205 0 0.41 0 0.614 0 0.41-0.205 0.614-0.41 0.819 0 0 0 0.205 0 0.205-0.205 0.614-0.819 1.024-1.229 1.229 0 0 0 0-0.205 0.205 0 0-0.205 0-0.205 0-0.41 0.205-1.024 0.41-1.638 0.41 0 0 0 0-0.205 0 0 0 0 0 0 0l-128.41 3.277c-0.614 0-1.229-0.205-1.843-0.41l-128.205-64.922c-0.205-0.205-0.614-0.41-0.819-0.614 0 0-0.205 0-0.205-0.205 0 0 0 0 0 0-0.41-0.41-0.614-0.819-0.819-1.229 0-0.205 0-0.205 0-0.41-0.205-0.41-0.205-0.614-0.205-1.024 0 0 0-0.205 0-0.205v-88.269l-117.35-59.392c-0.205 0-0.205-0.205-0.41-0.205-0.819-0.205-1.434-0.41-1.843-1.024-0.819-0.819-1.229-1.843-1.229-2.867v-150.938c0-2.048 1.638-3.891 3.891-3.891l241.254-10.24c0 0 0.205 0 0.205 0 0.614 0 1.024 0.205 1.638 0.41 0 0 0 0 0.205 0l70.656 33.587v-34.611c0-2.048 1.638-3.891 3.891-3.891l250.47-10.65c0 0 0.205 0 0.205 0 0.614 0 1.229 0.205 1.638 0.41 0 0 0.205 0 0.205 0l129.843 68.813c1.229 0.614 2.048 2.048 2.048 3.482v153.19c0 0 0 0.205 0 0.205-0.614 0.41-0.41 0.614-0.614 0.819zM564.019 822.579c0 0 0 0 0 0l71.27 38.502 101.786-4.506-116.122-62.464c-0.41-0.205-0.614-0.614-0.819-0.819l-57.754 2.048c0 0 0 0 0 0l-45.466 1.638 47.104 25.6zM747.52 853.094v-152.166l-120.627-62.054v146.842l120.627 67.379zM301.261 703.795v-54.272l-100.147 3.686 100.147 50.586zM421.888 492.237l-233.267 9.83v143.155l116.531-4.096c1.024-0.205 2.048 0.614 2.867 1.229 0.819 0.819 1.229 2.048 1.229 3.072v151.552l112.026-4.096v-152.371c0-0.614 0.205-1.229 0.41-1.638v-146.637zM425.574 800.666c0 0 0 0 0 0l-104.653 3.891 113.459 57.549 111.821-2.662-116.122-58.982-4.506 0.205zM500.326 797.184c-0.41-0.205-0.614-0.41-1.024-0.819 0 0-0.205-0.205-0.205-0.41-0.205-0.205-0.41-0.41-0.41-0.614s0-0.205-0.205-0.41c0-0.205-0.205-0.41-0.205-0.819 0-0.205 0-0.41 0-0.41 0-0.205 0-0.41 0-0.614s0-0.41 0-0.41v-265.83l-68.198-32.358 2.458 297.984 125.952 64.102v-27.853l-58.163-31.539zM750.182 528.486l-1.434-51.61-242.483 10.24v301.466l112.845-4.096v-152.166c0-0.205 0-0.205 0-0.41s0-0.41 0-0.614c0-0.205 0.205-0.205 0.205-0.41s0.205-0.41 0.205-0.614c0 0 0 0 0 0s0-0.205 0-0.205 0.205-0.41 0.41-0.41c0.205-0.205 0.205-0.205 0.41-0.41s0.41-0.205 0.41-0.41c0 0 0-0.205 0.205-0.205 0 0 0.205 0 0.205 0 0.205 0 0.205-0.205 0.41-0.205 0.41-0.205 0.819-0.41 1.434-0.41h0.205c0 0 0 0 0 0s0 0 0 0l129.843-4.71-2.867-94.822zM638.362 635.802l114.074 58.573 114.893-3.072-43.622-23.347-67.789-36.454-117.555 4.301zM878.387 544.051l-121.651-64.512 3.277 122.266 0.614 23.347 117.76 63.283v-144.384zM736.87 205.312c0 0.205 0 0.41 0 0.614s-0.205 0.614-0.41 0.819c0 0 0 0.205-0.205 0.205-0.205 0.614-0.819 1.024-1.229 1.229 0 0 0 0.205-0.205 0.205 0 0-0.205 0-0.205 0-0.614 0.205-1.024 0.41-1.638 0.41v0c0 0 0 0 0 0l-126.976 3.277v156.058c0.41 0.819 0.41 1.638 0.205 2.662-0.41 1.638-1.843 3.072-3.686 3.072l-117.555 5.12c-0.614 0-1.434-0.205-2.048-0.41l-131.686-71.27c0 0-0.205-0.205-0.205-0.205h-0.205c-0.205 0-0.205-0.205-0.41-0.205-0.205-0.205-0.41-0.205-0.41-0.41 0 0 0 0 0 0-0.41-0.41-0.614-0.819-0.819-1.229 0 0 0-0.205 0-0.205-0.205-0.41-0.205-0.819-0.205-1.229 0 0 0-0.205 0-0.205v-88.883l-119.603-60.621c-0.205 0-0.205-0.205-0.205-0.205-0.614-0.205-1.229-0.41-1.843-1.024-0.819-0.819-1.229-1.843-1.229-2.867v-150.938c0-2.048 1.638-3.891 3.891-3.891l373.35-16.384c0 0 0.205 0 0.205 0 0.614 0 1.229 0.205 1.638 0.41 0 0 0.205 0 0.205 0l129.843 68.813c1.229 0.614 2.048 2.048 2.048 3.482v153.19c-0.41 0.41-0.41 0.41-0.41 0.614zM485.786 371.2l101.786-4.506-115.098-62.054-104.858 2.662 118.17 63.898zM598.221 363.213v-152.166l-120.627-62.054v147.046l120.627 67.174zM348.774 205.926v-55.501l-102.195 3.686 102.195 51.814zM599.654-2.765l-0.205-10.24-365.568 15.974v143.155l118.784-4.096c1.024-0.205 2.048 0.41 2.867 1.229s1.229 1.843 1.229 3.072v153.395l112.845-4.096v-153.19c0-0.205 0-0.205 0-0.41s0-0.41 0-0.614c0-0.205 0.205-0.205 0.205-0.41s0.205-0.41 0.205-0.614c0 0 0 0 0 0s0-0.205 0-0.205c0.205-0.205 0.205-0.41 0.41-0.41 0.205-0.205 0.205-0.205 0.41-0.41s0.41-0.205 0.41-0.41c0 0 0-0.205 0.205-0.205 0 0 0.205 0 0.205 0 0.205 0 0.205-0.205 0.41-0.205 0.41-0.205 0.819-0.41 1.434-0.41h0.205c0 0 0 0 0 0s0 0 0 0l129.843-4.71-3.891-136.192zM488.858 145.92l114.074 58.573 114.893-3.072-111.411-59.802-117.555 4.301zM729.088 54.17l-121.651-64.512 3.891 145.613 117.555 63.283v-144.384z" />
<glyph unicode="&#xe934;" glyph-name="icon_tb_merge_prepare" d="M199.68 556.134c-30.72 0-55.706 24.986-55.706 55.706s24.986 55.706 55.706 55.706c30.72 0 55.706-24.986 55.706-55.706s-24.986-55.706-55.706-55.706zM199.68 659.558c-26.419 0-47.718-21.504-47.718-47.718 0-26.419 21.504-47.718 47.718-47.718 26.419 0 47.718 21.504 47.718 47.718s-21.299 47.718-47.718 47.718zM898.048 396.8c-2.048 0-4.096-0.205-6.144-0.41 6.349 9.011 10.035 20.070 10.035 31.949 0 30.72-24.986 55.706-55.706 55.706-8.397 0-16.589-2.048-23.757-5.325 16.589 9.626 27.648 27.648 27.648 48.128 0 30.72-24.986 55.706-55.706 55.706s-55.706-24.986-55.706-55.706c0-20.48 11.059-38.298 27.648-48.128-7.168 3.482-15.155 5.325-23.757 5.325-30.72 0-55.706-24.986-55.706-55.706 0-11.878 3.686-22.938 10.035-31.949-2.048 0.205-4.096 0.41-6.144 0.41-30.72 0-55.706-24.986-55.706-55.706s24.986-55.706 55.706-55.706c23.347 0 43.418 14.541 51.814 35.226 8.192-20.48 28.262-35.226 51.814-35.226 23.347 0 43.418 14.541 51.814 35.226 8.192-20.48 28.262-35.226 51.814-35.226 30.72 0 55.706 24.986 55.706 55.706s-24.986 55.706-55.706 55.706zM846.438 476.058c26.419 0 47.718-21.504 47.718-47.718 0-13.926-5.939-26.419-15.565-35.226-6.144-2.253-11.878-5.734-16.794-10.035-4.915-1.638-10.035-2.662-15.36-2.662s-10.445 1.024-15.36 2.662c-4.915 4.301-10.65 7.578-16.794 10.035-9.626 8.806-15.565 21.299-15.565 35.226 0 26.419 21.299 47.718 47.718 47.718zM800.768 396.39c-2.048 0.205-4.096 0.41-6.144 0.41s-4.096-0.205-6.144-0.41c2.458 3.482 4.506 7.373 6.144 11.469 1.638-4.096 3.686-7.987 6.144-11.469zM770.867 476.467c7.168-3.482 15.155-5.325 23.757-5.325 8.397 0 16.589 2.048 23.757 5.325-10.65-6.349-19.046-15.974-23.757-27.443-4.506 11.469-13.107 21.094-23.757 27.443zM746.906 526.643c0 26.419 21.504 47.718 47.718 47.718 26.419 0 47.718-21.504 47.718-47.718 0-26.419-21.504-47.718-47.718-47.718s-47.718 21.504-47.718 47.718zM695.091 428.339c0 26.419 21.504 47.718 47.718 47.718 26.419 0 47.718-21.504 47.718-47.718 0-13.926-5.939-26.419-15.565-35.226-6.144-2.253-11.878-5.734-16.794-10.035-4.915-1.638-10.035-2.662-15.36-2.662s-10.445 1.024-15.36 2.662c-4.915 4.301-10.65 7.578-16.794 10.035-9.421 8.806-15.565 21.299-15.565 35.226zM691.2 293.376c-26.419 0-47.718 21.504-47.718 47.718 0 26.419 21.504 47.718 47.718 47.718 5.325 0 10.445-1.024 15.36-2.662 4.915-4.301 10.65-7.578 16.794-10.035 9.626-8.806 15.565-21.299 15.565-35.226 0-26.214-21.299-47.514-47.718-47.514zM736.666 373.043c2.048-0.205 4.096-0.41 6.144-0.41s4.096 0.205 6.144 0.41c-2.458-3.482-4.506-7.373-6.144-11.469-1.434 4.096-3.482 7.987-6.144 11.469zM842.342 340.89c0-26.214-21.504-47.514-47.718-47.514-26.419 0-47.718 21.504-47.718 47.718 0 13.926 5.939 26.419 15.565 35.226 6.144 2.253 11.878 5.734 16.794 10.035 4.915 1.638 10.035 2.662 15.36 2.662s10.445-1.024 15.36-2.662c4.915-4.301 10.65-7.578 16.794-10.035 9.421-8.602 15.565-21.094 15.565-35.021 0-0.205 0-0.205 0-0.41 0 0.205 0 0 0 0zM840.294 373.043c2.048-0.205 4.096-0.41 6.144-0.41s4.096 0.205 6.144 0.41c-2.458-3.482-4.506-7.373-6.144-11.264-1.638 3.891-3.686 7.782-6.144 11.264zM898.048 293.376c-26.214 0-47.718 21.299-47.718 47.514 0 0 0 0.205 0 0.205s0 0.205 0 0.205c0 13.926 6.144 26.214 15.565 35.021 6.144 2.253 11.878 5.734 16.794 10.035 4.915 1.638 10.035 2.662 15.36 2.662 26.419 0 47.718-21.504 47.718-47.718 0-26.624-21.299-47.923-47.718-47.923zM418.816 506.778c-30.72 0-55.706 24.986-55.706 55.706s24.986 55.706 55.706 55.706c30.72 0 55.706-24.986 55.706-55.706s-24.986-55.706-55.706-55.706zM418.816 610.406c-26.419 0-47.718-21.504-47.718-47.718 0-26.419 21.504-47.718 47.718-47.718 26.419 0 47.718 21.504 47.718 47.718s-21.299 47.718-47.718 47.718zM303.104 403.968c-30.72 0-55.706 24.986-55.706 55.706s24.986 55.706 55.706 55.706 55.706-24.986 55.706-55.706c0-30.72-24.986-55.706-55.706-55.706zM303.104 507.597c-26.419 0-47.718-21.504-47.718-47.718 0-26.419 21.504-47.718 47.718-47.718s47.718 21.504 47.718 47.718c0 26.214-21.299 47.718-47.718 47.718zM398.746 300.544c-30.72 0-55.706 24.986-55.706 55.706s24.986 55.706 55.706 55.706c30.72 0 55.706-24.986 55.706-55.706s-24.986-55.706-55.706-55.706zM398.746 403.968c-26.419 0-47.718-21.504-47.718-47.718 0-26.419 21.504-47.718 47.718-47.718 26.419 0 47.718 21.504 47.718 47.718 0 26.419-21.504 47.718-47.718 47.718zM210.125 211.866c-30.72 0-55.706 24.986-55.706 55.706s24.986 55.706 55.706 55.706 55.706-24.986 55.706-55.706c0-30.72-24.986-55.706-55.706-55.706zM210.125 315.29c-26.419 0-47.718-21.504-47.718-47.718 0-26.419 21.504-47.718 47.718-47.718s47.718 21.504 47.718 47.718c0 26.214-21.504 47.718-47.718 47.718zM147.866 352.358c-30.72 0-55.706 24.986-55.706 55.706s24.986 55.706 55.706 55.706c30.72 0 55.706-24.986 55.706-55.706s-24.986-55.706-55.706-55.706zM147.866 455.782c-26.419 0-47.718-21.504-47.718-47.718 0-26.419 21.504-47.718 47.718-47.718 26.419 0 47.718 21.504 47.718 47.718 0.205 26.214-21.299 47.718-47.718 47.718zM617.267 445.952l-63.078 58.778c-1.229 1.024-2.867 1.434-4.301 0.819s-2.458-2.048-2.458-3.686v-31.334h-89.088c-2.253 0-3.891-1.843-3.891-3.891v-46.694c0-2.253 1.843-3.891 3.891-3.891h89.088v-31.334c0-1.638 1.024-3.072 2.458-3.686 0.41-0.205 1.024-0.41 1.638-0.41 1.024 0 2.048 0.41 2.662 1.024l63.078 58.778c0.819 0.819 1.229 1.843 1.229 2.867s-0.41 2.048-1.229 2.662zM555.418 393.523v26.214c0 2.253-1.843 3.891-3.891 3.891h-89.088v38.707h89.088c2.253 0 3.891 1.843 3.891 3.891v26.214l53.248-49.562-53.248-49.357z" />
<glyph unicode="&#xe935;" glyph-name="icon_tb_merge_reduce" d="M623.206 488.55c0 1.024-0.41 2.253-1.229 2.867l-63.078 58.778c-1.229 1.024-2.867 1.434-4.301 0.819s-2.458-2.048-2.458-3.686v-31.334h-70.042c-2.253 0-3.891-1.843-3.891-3.891v-46.694c0-2.253 1.843-3.891 3.891-3.891h70.042v-31.334c0-1.638 1.024-3.072 2.458-3.686 0.41-0.205 1.024-0.41 1.638-0.41 1.024 0 2.048 0.41 2.662 1.024l63.078 58.778c0.819 0.614 1.229 1.638 1.229 2.662zM560.128 438.989v26.214c0 2.253-1.843 3.891-3.891 3.891h-70.042v38.707h70.042c2.253 0 3.891 1.843 3.891 3.891v26.419l53.248-49.562-53.248-49.562zM100.147 293.171c-27.853 0-50.586 22.733-50.586 50.586s22.733 50.586 50.586 50.586 50.586-22.733 50.586-50.586-22.733-50.586-50.586-50.586zM100.147 386.355c-23.347 0-42.394-19.046-42.394-42.394s19.046-42.394 42.394-42.394c23.347 0 42.394 19.046 42.394 42.394s-19.046 42.394-42.394 42.394zM100.147 442.061c-27.853 0-50.586 22.733-50.586 50.586s22.733 50.586 50.586 50.586 50.586-22.733 50.586-50.586-22.733-50.586-50.586-50.586zM100.147 535.040c-23.347 0-42.394-19.046-42.394-42.394s19.046-42.394 42.394-42.394c23.347 0 42.394 19.046 42.394 42.394s-19.046 42.394-42.394 42.394zM100.147 590.95c-27.853 0-50.586 22.733-50.586 50.586s22.733 50.586 50.586 50.586 50.586-22.733 50.586-50.586-22.733-50.586-50.586-50.586zM100.147 683.93c-23.347 0-42.394-19.046-42.394-42.394s19.046-42.394 42.394-42.394c23.347 0 42.394 19.046 42.394 42.394s-19.046 42.394-42.394 42.394zM254.157 293.171c-27.853 0-50.586 22.733-50.586 50.586s22.733 50.586 50.586 50.586 50.586-22.733 50.586-50.586-22.733-50.586-50.586-50.586zM254.157 386.355c-23.347 0-42.394-19.046-42.394-42.394s19.046-42.394 42.394-42.394c23.347 0 42.394 19.046 42.394 42.394s-19.046 42.394-42.394 42.394zM254.157 442.061c-27.853 0-50.586 22.733-50.586 50.586s22.733 50.586 50.586 50.586 50.586-22.733 50.586-50.586-22.733-50.586-50.586-50.586zM254.157 535.040c-23.347 0-42.394-19.046-42.394-42.394s19.046-42.394 42.394-42.394c23.347 0 42.394 19.046 42.394 42.394s-19.046 42.394-42.394 42.394zM254.157 590.95c-27.853 0-50.586 22.733-50.586 50.586s22.733 50.586 50.586 50.586 50.586-22.733 50.586-50.586-22.733-50.586-50.586-50.586zM254.157 683.93c-23.347 0-42.394-19.046-42.394-42.394s19.046-42.394 42.394-42.394c23.347 0 42.394 19.046 42.394 42.394s-19.046 42.394-42.394 42.394zM408.166 293.171c-27.853 0-50.586 22.733-50.586 50.586s22.733 50.586 50.586 50.586 50.586-22.733 50.586-50.586-22.733-50.586-50.586-50.586zM408.166 386.355c-23.347 0-42.394-19.046-42.394-42.394s19.046-42.394 42.394-42.394c23.347 0 42.394 19.046 42.394 42.394s-19.046 42.394-42.394 42.394zM408.166 442.061c-27.853 0-50.586 22.733-50.586 50.586s22.733 50.586 50.586 50.586 50.586-22.733 50.586-50.586-22.733-50.586-50.586-50.586zM408.166 535.040c-23.347 0-42.394-19.046-42.394-42.394s19.046-42.394 42.394-42.394c23.347 0 42.394 19.046 42.394 42.394s-19.046 42.394-42.394 42.394zM408.166 590.95c-27.853 0-50.586 22.733-50.586 50.586s22.733 50.586 50.586 50.586 50.586-22.733 50.586-50.586-22.733-50.586-50.586-50.586zM408.166 683.93c-23.347 0-42.394-19.046-42.394-42.394s19.046-42.394 42.394-42.394c23.347 0 42.394 19.046 42.394 42.394s-19.046 42.394-42.394 42.394zM148.070 645.632h56.934v-8.192h-56.934v8.192zM302.49 645.632h56.934v-8.192h-56.934v8.192zM148.48 496.742h56.934v-8.192h-56.934v8.192zM302.899 496.742h56.934v-8.192h-56.934v8.192zM148.070 343.757h56.934v-8.192h-56.934v8.192zM302.49 343.757h56.934v-8.192h-56.934v8.192zM404.070 594.227h8.192v-56.934h-8.192v56.934zM404.070 446.157h8.192v-56.934h-8.192v56.934zM250.266 595.866h8.192v-56.934h-8.192v56.934zM640.41 293.171c-27.853 0-50.586 22.733-50.586 50.586s22.733 50.586 50.586 50.586c27.853 0 50.586-22.733 50.586-50.586s-22.733-50.586-50.586-50.586zM640.41 386.355c-23.347 0-42.394-19.046-42.394-42.394s19.046-42.394 42.394-42.394c23.347 0 42.394 19.046 42.394 42.394s-19.046 42.394-42.394 42.394zM640.41 590.95c-27.853 0-50.586 22.733-50.586 50.586s22.733 50.586 50.586 50.586c27.853 0 50.586-22.733 50.586-50.586s-22.733-50.586-50.586-50.586zM640.41 683.93c-23.347 0-42.394-19.046-42.394-42.394s19.046-42.394 42.394-42.394c23.347 0 42.394 19.046 42.394 42.394s-19.046 42.394-42.394 42.394zM915.456 293.171c-27.853 0-50.586 22.733-50.586 50.586s22.733 50.586 50.586 50.586 50.586-22.733 50.586-50.586-22.733-50.586-50.586-50.586zM915.456 386.355c-23.347 0-42.394-19.046-42.394-42.394s19.046-42.394 42.394-42.394c23.347 0 42.394 19.046 42.394 42.394s-19.046 42.394-42.394 42.394zM915.456 590.95c-27.853 0-50.586 22.733-50.586 50.586s22.733 50.586 50.586 50.586 50.586-22.733 50.586-50.586-22.733-50.586-50.586-50.586zM915.456 683.93c-23.347 0-42.394-19.046-42.394-42.394s19.046-42.394 42.394-42.394c23.347 0 42.394 19.046 42.394 42.394s-19.046 42.394-42.394 42.394zM686.899 645.632h177.971v-8.192h-177.971v8.192zM686.899 343.757h177.971v-8.192h-177.971v8.192zM636.314 595.866h8.192v-203.776h-8.192v203.776zM911.36 595.866h8.192v-203.776h-8.192v203.776zM250.266 448.819h8.192v-56.934h-8.192v56.934zM95.027 594.432h8.192v-56.934h-8.192v56.934zM95.027 446.157h8.192v-56.934h-8.192v56.934z" />
<glyph unicode="&#xe936;" glyph-name="icon_tb_merge_remesh" d="M458.957 570.47l-26.624 29.286c0 0 0 0-0.205 0.205 0 0 0 0 0 0s-0.205 0.205-0.205 0.205-0.41 0.205-0.614 0.41c0 0 0 0-0.205 0 0 0 0 0 0 0s0 0 0 0c-0.205 0-0.205 0-0.41 0s-0.41 0.205-0.614 0.205l-309.248 41.574c0 0-0.205 0-0.205 0-0.41 0-0.614 0-1.024 0 0 0-0.205 0-0.205 0-0.41 0-0.614-0.205-1.024-0.41 0 0 0 0 0 0-0.41-0.205-0.614-0.41-0.819-0.819l-36.045-47.309c0 0 0-0.205-0.205-0.41-0.205-0.41-0.41-0.614-0.41-1.024 0-0.205 0-0.41 0-0.614s0-0.41 0-0.41l7.373-116.941-7.373-120.218-14.541-88.678-13.312-41.37c0 0 0 0 0-0.205 0 0 0 0 0 0l-13.926-53.248c0 0 0-0.205 0-0.205 0-0.41 0-0.614 0-1.024 0-0.205 0-0.205 0-0.41s0.205-0.614 0.205-0.819c0-0.205 0.205-0.205 0.205-0.41 0 0 0-0.205 0.205-0.205 0 0 0.205-0.205 0.205-0.205 0.205-0.205 0.41-0.41 0.819-0.614 0.205-0.205 0.41-0.205 0.614-0.205s0.205-0.205 0.41-0.205c0.205 0 0.614-0.205 0.819-0.205 0 0 0 0 0 0s0 0 0 0 0 0 0 0c0.41 0 0.819 0 1.229 0.205 0 0 0 0 0 0l41.779 15.155 247.398 43.827h34.406c1.024 0 2.048 0.41 2.662 1.229s1.024 1.843 0.819 2.867l-7.373 71.066v96.051l11.878 53.658 57.549 87.245 26.419 28.467c0.819 1.024 0.819 3.072-0.41 4.506zM422.093 594.842l-43.418-44.442-224.87 80.282 268.288-35.84zM327.885 321.638l2.458 94.822 24.986-20.89-27.443-73.933zM356.147 376.73v-73.114h-27.238l27.238 73.114zM324.608 428.134l-165.274 22.733 184.934 37.274-19.661-60.006zM96.256 475.648l34.406 82.33 3.277-101.786-37.683 19.456zM133.939 448l-3.072-49.971-31.539 67.994 34.611-18.022zM129.024 384.717l-40.755-24.781 5.939 99.533 34.816-74.752zM128.205 375.91l-25.805-108.339-13.926 83.968 39.731 24.371zM136.192 378.368l175.923-77.21-205.619-46.899 29.696 124.109zM137.421 569.446l199.27-75.571-195.584-39.322-3.686 114.893zM305.971 423.219l-168.346-35.43 3.482 57.958 164.864-22.528zM145.408 382.259l177.766 37.478-3.072-114.074-174.694 76.595zM162.202 567.808l211.763-24.576-17.408-30.925-8.397-14.95-185.958 70.451zM348.57 553.267l-211.968 24.781-11.469 55.091 223.437-79.872zM118.374 630.272l10.445-50.176-38.707 13.107 28.262 37.069zM128.819 572.518l-34.611-82.739-5.939 96.461 40.55-13.722zM84.378 331.264l12.698-75.776-23.347 11.059 10.65 64.717zM71.885 259.379l22.118-10.445-31.334-18.432 9.216 28.877zM95.846 241.766l-5.325-19.456-23.347 2.867 28.672 16.589zM57.958 214.938l7.168-8.806-14.541-19.456 7.373 28.262zM52.429 176.845l16.998 22.938 9.216-13.312-26.214-9.626zM82.944 193.229l-10.24 14.95c0 0 0 0 0 0s0 0 0 0.205l-7.782 9.83 24.166-2.867-6.144-22.118zM89.293 189.338l15.155 56.32 200.704-18.022-215.859-38.298zM124.723 250.982l195.789 44.646 7.578-62.874-203.366 18.227zM327.68 296.448h26.624l-20.275-52.838-6.349 52.838zM337.51 232.346l20.070 52.224 5.325-52.224h-25.395zM357.376 403.354l-24.166 20.275 33.178 20.275-9.011-40.55zM333.619 432.23l16.998 51.2 16.384-30.925-33.382-20.275zM371.917 458.445l-17.613 32.973 63.693 37.069-46.080-70.042zM425.984 541.389l-66.765-38.912 7.782 13.722 15.565 27.648 43.418 44.646v-47.104zM433.357 548.557v39.526l18.227-20.070-18.227-19.456zM960.307 565.965l-25.805 28.877c0 0-0.205 0-0.205 0.205-0.205 0.205-0.614 0.41-0.819 0.614-0.205 0-0.205 0.205-0.41 0.205s-0.41 0.205-0.41 0.205l-77.414 14.336c0 0 0 0 0 0s0 0 0 0v0l-75.366 7.578-79.053 11.469-77.414 12.902c0 0-0.205 0-0.205 0-0.41 0-0.614 0-1.024 0-0.205 0-0.41 0-0.41-0.205-0.205 0-0.41-0.205-0.614-0.41-0.205 0-0.205-0.205-0.41-0.205-0.205-0.205-0.614-0.41-0.819-0.819v-0.205c0 0 0 0 0 0l-32.768-47.104c-0.205-0.205-0.205-0.41-0.205-0.614s-0.205-0.205-0.205-0.41c0 0 0-0.205 0-0.205 0-0.205 0-0.614-0.205-0.819 0-0.205 0-0.41 0-0.614 0 0 0 0 0-0.205l7.168-57.344-2.662-59.597c0 0 0 0 0 0s0 0 0 0v0l2.867-56.525-7.987-62.669-11.469-66.355-14.95-64.102-17.818-53.248c-0.41-1.229 0-2.867 0.819-3.686 0.614-0.614 1.638-1.024 2.458-1.024 0.41 0 0.819 0 1.229 0.205l40.55 15.155 80.486 15.36 118.374 18.637 49.971 9.83 34.816-5.939c0.205 0 0.41 0 0.614 0s0.205 0 0.41 0 0.614 0 0.819 0.205c0.205 0 0.41 0.205 0.41 0.205 0.205 0.205 0.41 0.205 0.614 0.41 0 0 0.205 0 0.205 0.205 0 0 0 0.205 0.205 0.205 0.205 0.205 0.41 0.614 0.614 1.024 0 0.205 0.205 0.41 0.205 0.614 0 0 0 0.205 0 0.205 0 0.41 0 0.614 0 0.819s0 0.205 0 0.41l-8.806 46.285-0.819 61.85v64.512l15.77 53.862 23.552 48.333 29.901 32.973 25.805 29.901c1.638 1.434 1.638 3.482 0.41 4.71zM924.672 590.131l-37.274-38.912-26.214 50.586 63.488-11.674zM858.112 323.482l0.614-46.080-26.419 22.733 25.805 23.347zM830.464 308.122v45.875l25.6-22.528-25.6-23.347zM858.112 339.661l-25.805 22.733 25.805 25.805v-48.538zM831.283 371.61l3.891 47.923 21.299-22.733-25.19-25.19zM829.85 432.23l-73.933 19.661 89.498 34.611-15.565-54.272zM623.616 309.965l51.814 10.65-64.307-60.211 12.493 49.562zM603.136 257.946l-19.866 28.262 31.744 19.251-11.878-47.514zM636.518 437.555l-6.144-46.694-27.034 25.6 33.178 21.094zM600.883 423.219l-2.662 44.032 36.25-22.528-33.587-21.504zM635.494 375.706l44.851-46.899-55.091-11.469 10.24 58.368zM641.434 380.006l82.739 2.458-37.069-50.176-45.67 47.718zM731.955 454.144l-87.245-5.734v55.501l87.245-49.766zM653.926 507.187l100.352 3.686-12.493-54.067-87.859 50.381zM739.738 447.59l-10.854-55.296-76.595 49.562 87.45 5.734zM731.955 380.826l39.526-36.25-75.981-12.902 36.454 49.152zM738.099 385.126l85.402 35.226-44.646-72.499-40.755 37.274zM736.256 392.090l10.854 54.682 73.933-19.661-84.787-35.021zM761.651 510.464l77.21-18.432-89.498-34.611 12.288 53.043zM766.566 516.608l44.237 38.707 32.768-57.139-77.005 18.432zM759.603 520.090l-29.491 43.418 72.909-5.53-43.418-37.888zM752.23 518.042l-99.123-3.686 68.813 48.128 30.31-44.442zM644.506 517.018l-3.072 53.862 71.27-5.939-68.198-47.923zM643.891 438.579l75.776-49.152-82.33-2.458 6.554 51.61zM600.474 474.419l37.274 28.672v-51.814l-37.274 23.142zM634.47 509.645l-36.454-28.058 2.048 46.285 34.406-18.227zM602.726 534.63l31.744 31.744 2.662-49.971-34.406 18.227zM600.269 409.498l27.034-25.6-33.178-22.528 6.144 48.128zM628.122 375.706l-9.421-53.862-23.757 31.334 33.178 22.528zM687.104 321.434l35.226-43.008-105.472-22.733 70.246 65.741zM694.067 324.096l76.8 12.902-42.394-55.296-34.406 42.394zM779.878 336.998l39.526-35.021-81.51-19.866 41.984 54.886zM786.022 341.094l37.274 15.565v-48.538l-37.274 32.973zM788.275 349.901l39.117 63.283-3.891-48.742-35.226-14.541zM818.995 555.725l61.44-13.107-29.286-43.213-32.154 56.32zM879.821 550.195l-61.030 12.902 34.816 37.478 26.214-50.381zM846.848 603.853l-34.406-37.069-26.624 43.008 61.030-5.939zM805.069 565.146l-72.909 5.53 45.875 38.298 27.034-43.827zM770.458 611.84l-45.875-38.298-19.046 47.718 64.922-9.421zM717.414 571.699l-70.656 5.939 51.61 42.394 19.046-48.333zM691.405 623.514l-51.61-42.394-12.493 53.043 64.102-10.65zM620.954 630.067l11.674-49.766-37.274 12.902 25.6 36.864zM593.92 586.035l37.069-12.902-31.539-31.744-5.53 44.646zM591.667 344.986l23.757-31.13-32.358-19.661 8.602 50.79zM579.789 278.63l19.866-28.058-31.13-19.866 11.264 47.923zM550.912 175.411l12.902 38.707 16.794-27.648-29.696-11.059zM584.909 193.638l-16.998 28.058 30.72 19.661-13.722-47.718zM591.258 189.338l15.36 53.862 51.814-40.96-67.174-12.902zM666.419 205.107l-53.453 42.394 106.496 22.938-53.043-65.331zM675.635 205.107l53.043 65.331 41.574-50.381-94.618-14.95zM735.232 273.92l84.173 20.48-42.598-70.861-41.574 50.381zM784.589 222.31h-0.41l40.346 66.97 7.168-57.754-47.104-9.216zM831.693 291.328l26.010-22.528-19.456-29.901-6.554 52.429zM866.918 227.226l-24.986 4.301 18.842 28.672 6.144-32.973zM859.955 403.763l-21.709 23.142 33.587 17.408-11.878-40.55zM838.042 434.893l14.131 49.152 20.275-31.334-34.406-17.818zM877.158 458.65l-20.275 31.334 38.298 5.939-18.022-37.274zM858.522 497.562l26.829 39.526 11.469-33.587-38.298-5.939zM903.168 507.392l-11.059 32.563 32.973-8.192-21.914-24.371zM928.154 538.317l-34.816 8.806 34.816 36.454v-45.261zM935.526 543.437v39.526l17.408-19.456-17.408-20.070zM494.387 465.613c-1.024 1.024-2.662 1.229-3.891 0.614s-2.253-1.843-2.253-3.277v-28.467h-90.726c-2.048 0-3.686-1.638-3.686-3.686v-42.394c0-2.048 1.638-3.686 3.686-3.686h90.726v-28.467c0-1.434 0.819-2.662 2.253-3.277 0.41-0.205 1.024-0.205 1.434-0.205 0.819 0 1.843 0.41 2.458 1.024l57.344 53.248c0.819 0.614 1.229 1.638 1.229 2.662s-0.41 2.048-1.229 2.662l-57.344 53.248zM495.411 364.646v23.757c0 2.048-1.638 3.686-3.686 3.686h-90.726v35.226h90.726c2.048 0 3.686 1.638 3.686 3.686v23.757l48.333-45.056-48.333-45.056z" />
</font>
</defs>
</svg>
