<?xml version="1.0" encoding="utf-8"?>
<!-- Generator: Adobe Illustrator 27.0.1, SVG Export Plug-In . SVG Version: 6.00 Build 0)  -->
<svg version="1.1" id="Layer_1" xmlns="http://www.w3.org/2000/svg" xmlns:xlink="http://www.w3.org/1999/xlink" x="0px" y="0px"
	 viewBox="0 0 150 150" style="enable-background:new 0 0 150 150;" xml:space="preserve">
<style type="text/css">
	.st0{fill:#6ED3FF;enable-background:new    ;}
	.st1{fill:#4A4D4D;enable-background:new    ;}
	.st2{fill:url(#SVGID_1_);}
	.st3{fill:none;}
	.st4{fill:#787A7A;enable-background:new    ;}
	.st5{fill:url(#SVGID_00000150086119024334609390000004317761155829203379_);}
</style>
<polygon class="st0" points="130.7,54.6 74.2,18.4 67,16.8 122.7,52.7 "/>
<polygon class="st1" points="122.7,52.7 67,112.9 77.7,112.9 85.1,104.7 130.7,54.6 "/>
<linearGradient id="SVGID_1_" gradientUnits="userSpaceOnUse" x1="-5601.8457" y1="65.0332" x2="-5499.1792" y2="65.0332" gradientTransform="matrix(-1 0 0 1 -5479.1777 0)">
	<stop  offset="0" style="stop-color:#14BEF0"/>
	<stop  offset="1" style="stop-color:#15A1FF"/>
</linearGradient>
<path class="st2" d="M67,86.2v26.6l55.6-60.2L67,16.8v23.4c0,0-47,12.3-47,25.8s0,47.1,0,47.1S21.1,94.6,67,86.2z"/>
<path class="st3" d="M32.3,114.6c0-0.2-0.1-0.4-0.1-0.6C32.2,114.2,32.2,114.4,32.3,114.6z"/>
<path class="st1" d="M32.3,114.6c0-0.2-0.1-0.4-0.1-0.6c0-7.4,17.1-17.3,34.8-19.7c0,0,0-1.7,0-3.5c0-1.8,0-3.7,0-4.6
	c-41.7,7.6-46.5,23.6-47,26.5c0,0.4-0.1,0.9-0.1,1.3c0,11.2,31,19.9,65,19.9c0.1-1.3,0.5-6,0.5-6C67.9,128.2,33.6,124.6,32.3,114.6z
	"/>
<path class="st4" d="M85.1,104.7l-7.4,8.1c0,0-4.8,0-10.7,0V94.3c-17.7,2.4-34.8,12.2-34.8,19.7c0,0.2,0,0.4,0.1,0.6
	c1.3,10,35.6,13.7,53.2,13.5L85.1,104.7z"/>
</svg>
