<?xml version="1.0" encoding="utf-8"?>
<!-- Generator: Adobe Illustrator 27.0.1, SVG Export Plug-In . SVG Version: 6.00 Build 0)  -->
<svg version="1.1" id="Layer_1" xmlns="http://www.w3.org/2000/svg" xmlns:xlink="http://www.w3.org/1999/xlink" x="0px" y="0px"
	 viewBox="0 0 150 150" style="enable-background:new 0 0 150 150;" xml:space="preserve">
<style type="text/css">
	.st0{fill:#6ED3FF;enable-background:new    ;}
	.st1{fill:#4A4D4D;enable-background:new    ;}
	.st2{fill:url(#SVGID_1_);}
	.st3{fill:none;}
	.st4{fill:#787A7A;enable-background:new    ;}
	.st5{fill:url(#SVGID_00000126287662113347044480000016298213419896938391_);}
</style>
<polygon class="st0" points="20,54.6 76.6,18.4 83.7,16.8 28.1,52.7 "/>
<polygon class="st1" points="28.1,52.7 83.7,112.9 73,112.9 65.6,104.7 20,54.6 "/>
<linearGradient id="SVGID_1_" gradientUnits="userSpaceOnUse" x1="-5998.459" y1="65.0332" x2="-5895.7925" y2="65.0332" gradientTransform="matrix(1 0 0 1 6026.5122 0)">
	<stop  offset="0" style="stop-color:#14BEF0"/>
	<stop  offset="1" style="stop-color:#15A1FF"/>
</linearGradient>
<path class="st2" d="M83.7,86.2v26.6L28.1,52.7l55.6-35.8v23.4c0,0,47,12.3,47,25.8s0,47.1,0,47.1S129.6,94.6,83.7,86.2z"/>
<path class="st3" d="M118.5,114.6c0-0.2,0.1-0.4,0.1-0.6C118.5,114.2,118.5,114.4,118.5,114.6z"/>
<path class="st1" d="M118.5,114.6c0-0.2,0.1-0.4,0.1-0.6c0-7.4-17.1-17.3-34.8-19.7c0,0,0-1.7,0-3.5c0-1.8,0-3.7,0-4.6
	c41.7,7.6,46.5,23.6,47,26.5c0,0.4,0.1,0.9,0.1,1.3c0,11.2-31,19.9-65,19.9c-0.1-1.3-0.5-6-0.5-6
	C82.9,128.2,117.2,124.6,118.5,114.6z"/>
<path class="st4" d="M65.6,104.7l7.4,8.1c0,0,4.8,0,10.7,0V94.3c17.7,2.4,34.8,12.2,34.8,19.7c0,0.2,0,0.4-0.1,0.6
	c-1.3,10-35.6,13.7-53.2,13.5L65.6,104.7z"/>
</svg>
