<?xml version="1.0" encoding="utf-8"?>
<!-- Generator: Adobe Illustrator 27.6.1, SVG Export Plug-In . SVG Version: 6.00 Build 0)  -->
<svg version="1.1" id="Layer_1" xmlns="http://www.w3.org/2000/svg" xmlns:xlink="http://www.w3.org/1999/xlink" x="0px" y="0px"
	 viewBox="0 0 10000 40" style="enable-background:new 0 0 10000 40;" xml:space="preserve">
<style type="text/css">
	.st0{fill:#FFFFFF;}
	.st1{fill:#968989;}
	.st2{fill:#F5F5F5;}
</style>
<g>
	<polygon class="st0" points="-97.9,39.5 -118.4,4.1 -97.9,-31.3 -57,-31.3 -36.5,4.1 -37.8,6.4 -59,6.4 -59,34.8 -54.3,34.8 
		-57,39.5 	"/>
	<path d="M-57.3-30.8l20.2,34.9l-1,1.8h-20.3h-1v1v27.4v1h1h3.3l-2.1,3.7h-40.3l-20.2-34.9l20.2-34.9H-57.3 M-56.7-31.8h-41.5
		L-119,4.1L-98.2,40h41.5l3.3-5.7h-5.1V6.9h20.9l1.6-2.8L-56.7-31.8L-56.7-31.8z"/>
</g>
<g>
	<polygon class="st0" points="-19.6,-7.6 -19.6,-34.1 -0.1,-34.1 -15.4,-7.6 	"/>
	<path d="M-1-33.6L-15.6-8.1h-3.5v-25.4H-1 M0.8-34.6h-20.9v27.4h5.1L0.8-34.6L0.8-34.6z"/>
</g>
<g>
	<path class="st1" d="M175-153.8c2.8,0,5-2.2,5-5V-184c0-2.8-2.2-5-5-5H-9.5c-2.8,0-5,2.2-5,5v65.2c0,2.8,2.2,5,5,5H56
		c2.8,0,6.1-1.9,7.5-4.3l18.1-31.3c1.4-2.4,4.7-4.3,7.5-4.3H175z"/>
</g>
<path class="st2" d="M0,40V0h9968.9c2.2,0,4.9,1.6,6,3.5l19.1,33.1c1.1,1.9,3.8,3.5,6,3.5H0z"/>
</svg>
