<?xml version="1.0" encoding="utf-8"?>
<!-- Generator: Adobe Illustrator 23.0.6, SVG Export Plug-In . SVG Version: 6.00 Build 0)  -->
<svg version="1.1" id="Vrstva_1" xmlns="http://www.w3.org/2000/svg" xmlns:xlink="http://www.w3.org/1999/xlink" x="0px" y="0px"
	 viewBox="0 0 2226 2000" style="enable-background:new 0 0 2226 2000;" xml:space="preserve">
<style type="text/css">
	.st0{fill:#724F4F;}
</style>
<path class="st0" d="M2196.83,1113.1c-21.3,27.89-595.52,798.08-602.87,807.97s-13.18,19.01-35.49,19.77
	c-22.31,0.76-1053.13,45.13-1053.13,45.13s-32.2,8.87-47.41-25.86C442.72,1925.38,12.24,954.39,12.24,954.39s-7.86-16.99,3.3-34.73
	c11.15-17.75,518.96-865.01,525.3-875.41s13.94-24.08,37.27-23.32c23.32,0.76,1068.72,54,1068.72,54
	c12.3,0.13,21.8,5.07,27.89,14.96s529.27,968.15,529.27,968.15s1.29,2.64,4.08,8.03C2210.84,1071.46,2218.13,1085.21,2196.83,1113.1
	z"/>
</svg>
