<?xml version="1.0" encoding="UTF-8"?>
<svg id="Layer_1" xmlns="http://www.w3.org/2000/svg" version="1.1" viewBox="0 0 120 40">
  <!-- Generator: Adobe Illustrator 30.1.0, SVG Export Plug-In . SVG Version: 2.1.1 Build 136)  -->
  <defs>
    <style>
      .st0 {
        fill: #dbdbdb;
      }

      .st1 {
        fill: #757575;
      }

      .st2 {
        fill: #fff;
      }

      .st3 {
        fill: #2187ff;
      }
    </style>
  </defs>
  <path class="st1" d="M15.8,39.2h15.1c1.2,0,2.2-.6,2.8-1.6l7.6-13.1c.5-.9,0-2.1-1.2-2.1h-15.2c-1.2,0-2.2.6-2.8,1.6l-7.6,13.1c-.4.9.2,2.1,1.3,2.1"/>
  <path class="st0" d="M10.4,5.3c-.5-.9-1.9-.9-2.4,0L.4,18.4c-.6,1-.6,2.2,0,3.2l7.6,13.1c.5.9,1.9.9,2.4,0l7.6-13.1c.6-1,.6-2.2,0-3.2l-7.6-13.1Z"/>
  <path class="st3" d="M41.3,15.5l-7.6-13.1c-.6-1-1.6-1.6-2.8-1.6h-15.1c-1.1,0-1.8,1.2-1.2,2.1l7.6,13.1c.6,1,1.6,1.6,2.8,1.6h15.1c1,0,1.7-1.2,1.2-2.1"/>
  <path class="st2" d="M71.7,17.9c-.5-4.6-3.4-6.5-6.8-6.5s-6.5,1.9-7,6.5h13.8ZM53.7,20c0-7.6,4.9-12.2,11.3-12.1,7.4,0,10.9,5.8,10.9,11.5s0,1.3,0,2h-18c.4,5.1,3.6,7.3,7.4,7.3s5.7-1.6,6.5-4.1h4c-.8,4.5-4.7,7.7-10.6,7.7-6.2,0-11.4-4.2-11.4-12.3"/>
  <path class="st2" d="M82.7,14.8c0,1.6,1.1,2.9,3.3,2.9h4.1c4.4,0,7.8,2.6,7.8,7s-3.4,6.8-7.8,6.8h-10.7v-3.5h10.6c2.6,0,3.9-1.3,3.9-3.2s-1.2-3.2-3.9-3.2h-4.2c-4,0-7.1-2.7-7.1-6.7s3.1-6.5,7.1-6.5h10.9v3.5h-10.6c-2.3,0-3.4,1.3-3.4,2.9"/>
  <path class="st2" d="M104.7,14.8c0,1.6,1.1,2.9,3.3,2.9h4.1c4.4,0,7.8,2.6,7.8,7s-3.4,6.8-7.8,6.8h-10.8v-3.5h10.7c2.6,0,3.9-1.3,3.9-3.2s-1.2-3.2-3.9-3.2h-4.2c-4,0-7.1-2.7-7.1-6.7s3.1-6.5,7.1-6.5h10.9v3.5h-10.7c-2.2,0-3.3,1.3-3.3,2.9"/>
</svg>