<?xml version="1.0" encoding="utf-8"?>
<!-- Generator: Adobe Illustrator 25.0.0, SVG Export Plug-In . SVG Version: 6.00 Build 0)  -->
<svg version="1.1" id="Layer_1" xmlns="http://www.w3.org/2000/svg" xmlns:xlink="http://www.w3.org/1999/xlink" x="0px" y="0px"
	 viewBox="0 0 1292 705" style="enable-background:new 0 0 1292 705;" xml:space="preserve">
<style type="text/css">
	.st0{fill:#7B7B7B;}
	.st1{fill:#BFBFC0;}
	.st2{fill:#10BEF0;}
	.st3{fill:#4A4D4D;}
</style>
<g id="background">
</g>
<g>
	<polygon class="st0" points="237.5,506.4 392.4,506.4 469.8,372.4 315,372.4 	"/>
	<polygon class="st1" points="280.7,351.5 204.2,219 126.8,353.1 204.2,487.2 281.6,353.1 	"/>
	<polygon class="st2" points="469.8,333.8 392.4,199.8 237.5,199.8 315,333.8 	"/>
	<path class="st3" d="M579.1,439.9c-11.5-5.8-19.8-15.6-24.8-29.3c-5-13.7-7.5-32.9-7.5-57.6c0-25.1,2.5-44.6,7.5-58.3
		c5-13.7,13.2-23.4,24.6-29c11.4-5.6,27.2-8.4,47.5-8.4c17.7,0,31.8,1.9,42.3,5.6c10.5,3.7,18.2,10.1,23,19.2
		c4.9,9.1,7.3,21.7,7.3,37.7c0,16.5-4.8,28.5-14.3,35.8c-9.5,7.3-23.3,11-41.2,11h-61.8c0.2,14.2,1.8,25.2,4.7,33
		c2.9,7.8,8.2,13.4,15.9,16.9c7.7,3.5,18.7,5.2,33.2,5.2h58.3v21c-12.8,1.9-24.1,3.3-33.9,4.4c-9.8,1-20.8,1.6-33.2,1.6
		C606.5,448.6,590.6,445.7,579.1,439.9z M640.4,344.6c9.5,0,16.5-1.8,20.8-5.4c4.3-3.6,6.5-10,6.5-19c0-14-3.1-23.6-9.3-29
		c-6.2-5.4-16.8-8-32-8c-11.9,0-21,1.7-27.4,5.2c-6.4,3.5-10.9,9.6-13.6,18.3c-2.7,8.7-4,21.4-4,37.9H640.4z"/>
	<path class="st3" d="M790.3,446.5c-15-1.1-25.7-2.6-31.9-4.5l0.1-21l78.6,0.3c11.2,0,19.4-1.5,24.8-4.6c5.4-3.1,8.1-9.5,8.1-19
		l0-7.7c0.1-14.9-9.9-22.4-29.9-22.5l-27.2-0.1c-17.9-0.1-31.8-3.8-41.5-11.2c-9.7-7.4-14.6-19.6-14.5-36.5l0-10.1
		c0.1-17.9,5.4-31.1,16-39.6c10.6-8.5,28.2-12.6,52.6-12.5c10.2,0,22.2,0.7,36,2.1c13.7,1.3,24.3,2.8,31.8,4.5l-0.1,21l-74-0.3
		c-10.9,0-19,1.8-24.1,5.5c-5.1,3.7-7.7,10.2-7.8,19.5l0,7c0,8.9,2.4,14.7,7.4,17.5c5,2.8,13.1,4.2,24.3,4.3l27.9,0.1
		c17.5,0.1,30.8,4.2,39.9,12.4c9.2,8.2,13.7,19.8,13.7,35l-0.1,14.3c-0.1,17.9-6,30.4-17.8,37.5c-11.8,7.1-29.2,10.5-52.2,10.4
		C818.6,448.2,805.3,447.6,790.3,446.5z"/>
	<path class="st3" d="M986.1,447.3c-15-1.1-25.7-2.6-31.9-4.5l0.1-21l78.6,0.3c11.2,0,19.4-1.5,24.8-4.6c5.4-3.1,8.1-9.5,8.1-19
		l0-7.7c0.1-14.9-9.9-22.4-29.9-22.5l-27.2-0.1c-17.9-0.1-31.8-3.8-41.5-11.2c-9.7-7.4-14.6-19.6-14.5-36.5l0-10.1
		c0.1-17.9,5.4-31.1,16-39.6c10.6-8.5,28.2-12.6,52.6-12.5c10.2,0,22.2,0.7,36,2.1c13.7,1.3,24.3,2.8,31.8,4.5l-0.1,21l-74-0.3
		c-10.9,0-19,1.8-24.1,5.5c-5.1,3.7-7.7,10.2-7.8,19.5l0,7c0,8.9,2.4,14.7,7.4,17.5c5,2.8,13.1,4.2,24.3,4.3l27.9,0.1
		c17.5,0.1,30.8,4.2,39.9,12.4c9.2,8.2,13.7,19.8,13.7,35l-0.1,14.3c-0.1,17.9-6,30.4-17.8,37.5c-11.8,7.1-29.2,10.5-52.2,10.4
		C1014.4,449,1001.1,448.4,986.1,447.3z"/>
</g>
</svg>
