<?xml version="1.0" encoding="utf-8"?>
<!-- Generator: Adobe Illustrator 26.3.1, SVG Export Plug-In . SVG Version: 6.00 Build 0)  -->
<svg version="1.1" id="Layer_1" xmlns="http://www.w3.org/2000/svg" xmlns:xlink="http://www.w3.org/1999/xlink" x="0px" y="0px"
	 viewBox="0 0 120 40" style="enable-background:new 0 0 120 40;" xml:space="preserve">
<style type="text/css">
	.st0{fill:#787A7A;}
	.st1{fill:#BFBFC0;}
	.st2{fill:#10BEF0;}
	.st3{fill:#4A4D4D;}
</style>
<g>
	<polygon class="st0" points="13.7,38.6 32.9,38.6 42.5,22.6 23.3,22.6 	"/>
	<polygon class="st1" points="19,20.1 9.6,4.2 0,20.3 9.6,36.3 19.2,20.3 	"/>
	<polygon class="st2" points="42.5,18 32.9,1.9 13.7,1.9 23.3,18 	"/>
	<path class="st3" d="M56,30.6c-1.4-0.7-2.4-1.9-3.1-3.5c-0.6-1.6-0.9-3.9-0.9-6.9c0-3,0.3-5.3,0.9-7c0.6-1.6,1.6-2.8,3-3.5
		c1.4-0.7,3.4-1,5.9-1c2.2,0,3.9,0.2,5.2,0.7c1.3,0.4,2.2,1.2,2.9,2.3c0.6,1.1,0.9,2.6,0.9,4.5c0,2-0.6,3.4-1.8,4.3
		c-1.2,0.9-2.9,1.3-5.1,1.3h-7.7c0,1.7,0.2,3,0.6,3.9c0.4,0.9,1,1.6,2,2c1,0.4,2.3,0.6,4.1,0.6h7.2V31c-1.6,0.2-3,0.4-4.2,0.5
		c-1.2,0.1-2.6,0.2-4.1,0.2C59.4,31.7,57.4,31.3,56,30.6z M63.6,19.2c1.2,0,2-0.2,2.6-0.6c0.5-0.4,0.8-1.2,0.8-2.3
		c0-1.7-0.4-2.8-1.1-3.5c-0.8-0.6-2.1-1-4-1c-1.5,0-2.6,0.2-3.4,0.6c-0.8,0.4-1.4,1.1-1.7,2.2c-0.3,1-0.5,2.6-0.5,4.5H63.6z"/>
	<path class="st3" d="M82.1,31.4c-1.9-0.1-3.2-0.3-4-0.5l0-2.5l9.7,0c1.4,0,2.4-0.2,3.1-0.6c0.7-0.4,1-1.1,1-2.3l0-0.9
		c0-1.8-1.2-2.7-3.7-2.7l-3.4,0c-2.2,0-3.9-0.5-5.1-1.3c-1.2-0.9-1.8-2.3-1.8-4.4l0-1.2c0-2.1,0.7-3.7,2-4.7c1.3-1,3.5-1.5,6.5-1.5
		c1.3,0,2.8,0.1,4.5,0.2c1.7,0.2,3,0.3,3.9,0.5l0,2.5l-9.2,0c-1.4,0-2.4,0.2-3,0.7c-0.6,0.4-1,1.2-1,2.3l0,0.8
		c0,1.1,0.3,1.8,0.9,2.1c0.6,0.3,1.6,0.5,3,0.5l3.5,0c2.2,0,3.8,0.5,4.9,1.5c1.1,1,1.7,2.4,1.7,4.2l0,1.7c0,2.1-0.7,3.6-2.2,4.5
		c-1.5,0.8-3.6,1.3-6.5,1.3C85.6,31.6,84,31.6,82.1,31.4z"/>
	<path class="st3" d="M106.4,31.5c-1.9-0.1-3.2-0.3-4-0.5l0-2.5l9.7,0c1.4,0,2.4-0.2,3.1-0.6c0.7-0.4,1-1.1,1-2.3l0-0.9
		c0-1.8-1.2-2.7-3.7-2.7l-3.4,0c-2.2,0-3.9-0.5-5.1-1.3c-1.2-0.9-1.8-2.3-1.8-4.4l0-1.2c0-2.1,0.7-3.7,2-4.7c1.3-1,3.5-1.5,6.5-1.5
		c1.3,0,2.8,0.1,4.5,0.2c1.7,0.2,3,0.3,3.9,0.5l0,2.5l-9.2,0c-1.4,0-2.4,0.2-3,0.7c-0.6,0.4-1,1.2-1,2.3l0,0.8
		c0,1.1,0.3,1.8,0.9,2.1c0.6,0.3,1.6,0.5,3,0.5l3.5,0c2.2,0,3.8,0.5,4.9,1.5c1.1,1,1.7,2.4,1.7,4.2l0,1.7c0,2.1-0.7,3.6-2.2,4.5
		c-1.5,0.8-3.6,1.3-6.5,1.3C109.9,31.7,108.2,31.7,106.4,31.5z"/>
</g>
</svg>
