<?xml version="1.0" encoding="utf-8"?>
<svg version="1.1" id="Layer_1" xmlns="http://www.w3.org/2000/svg" xmlns:xlink="http://www.w3.org/1999/xlink" x="0px" y="0px"
	 viewBox="0 0 120 40" style="enable-background:new 0 0 120 40;" xml:space="preserve">
<style type="text/css">
	.st0{clip-path:url(#SVGID_00000073689748057301222830000003536572860808431517_);}
	.st1{clip-path:url(#SVGID_00000093881813482078159130000000448960145156388023_);fill:#757575;}
	.st2{clip-path:url(#SVGID_00000093881813482078159130000000448960145156388023_);fill:#DBDBDB;}
	.st3{clip-path:url(#SVGID_00000093881813482078159130000000448960145156388023_);fill:#2187FF;}
	.st4{clip-path:url(#SVGID_00000093881813482078159130000000448960145156388023_);fill:#2D2D2D;}
</style>
<g id="ESS_Logo_00000121251130259017769760000014075556977121031836_">
	<g>
		<defs>
			<rect id="SVGID_1_" y="0.8" width="120" height="38.4"/>
		</defs>
		<clipPath id="SVGID_00000111912108620955657520000005555464973691578043_">
			<use xlink:href="#SVGID_1_"  style="overflow:visible;"/>
		</clipPath>
		<g style="clip-path:url(#SVGID_00000111912108620955657520000005555464973691578043_);">
			<defs>
				<rect id="SVGID_00000116918616471838450850000013689223307001747377_" y="0.8" width="120" height="38.4"/>
			</defs>
			<clipPath id="SVGID_00000080187668695689976940000004757720110432323220_">
				<use xlink:href="#SVGID_00000116918616471838450850000013689223307001747377_"  style="overflow:visible;"/>
			</clipPath>
			<path style="clip-path:url(#SVGID_00000080187668695689976940000004757720110432323220_);fill:#757575;" d="M15.8,39.2h15.1
				c1.2,0,2.2-0.6,2.8-1.6l7.6-13.1c0.5-0.9-0.1-2.1-1.2-2.1H24.9c-1.2,0-2.2,0.6-2.8,1.6l-7.6,13.1C14.1,38,14.7,39.2,15.8,39.2"/>
			<path style="clip-path:url(#SVGID_00000080187668695689976940000004757720110432323220_);fill:#DBDBDB;" d="M10.4,5.3
				C9.9,4.4,8.5,4.4,8,5.3L0.4,18.4c-0.6,1-0.6,2.2,0,3.2L8,34.7c0.5,0.9,1.9,0.9,2.4,0L18,21.6c0.6-1,0.6-2.2,0-3.2L10.4,5.3z"/>
			<path style="clip-path:url(#SVGID_00000080187668695689976940000004757720110432323220_);fill:#2187FF;" d="M41.3,15.5L33.7,2.4
				c-0.6-1-1.6-1.6-2.8-1.6H15.8c-1.1,0-1.8,1.2-1.2,2.1L22.2,16c0.6,1,1.6,1.6,2.8,1.6h15.1C41.1,17.6,41.8,16.4,41.3,15.5"/>
			<path style="clip-path:url(#SVGID_00000080187668695689976940000004757720110432323220_);fill:#2D2D2D;" d="M71.7,17.9
				c-0.5-4.6-3.4-6.5-6.8-6.5c-3.6,0-6.5,1.9-7,6.5H71.7z M53.7,20c0-7.6,4.9-12.2,11.3-12.1c7.4,0.1,10.9,5.8,10.9,11.5
				c0,0.7,0,1.3-0.1,2H57.8c0.4,5.1,3.6,7.3,7.4,7.3c3.6,0,5.7-1.6,6.5-4.1h4c-0.8,4.5-4.7,7.7-10.6,7.7
				C58.9,32.2,53.7,28.1,53.7,20"/>
			<path style="clip-path:url(#SVGID_00000080187668695689976940000004757720110432323220_);fill:#2D2D2D;" d="M82.7,14.8
				c0,1.6,1.1,2.9,3.3,2.9h4.1c4.4,0,7.8,2.6,7.8,7c0,4.4-3.4,6.8-7.8,6.8H79.4v-3.5h10.6c2.6,0,3.9-1.3,3.9-3.2
				c0-1.8-1.2-3.2-3.9-3.2h-4.2c-4,0-7.1-2.7-7.1-6.7c0-4,3.1-6.5,7.1-6.5h10.9v3.5H86.1C83.8,11.9,82.7,13.2,82.7,14.8"/>
			<path style="clip-path:url(#SVGID_00000080187668695689976940000004757720110432323220_);fill:#2D2D2D;" d="M104.7,14.8
				c0,1.6,1.1,2.9,3.3,2.9h4.1c4.4,0,7.8,2.6,7.8,7c0,4.4-3.4,6.8-7.8,6.8h-10.8v-3.5H112c2.6,0,3.9-1.3,3.9-3.2
				c0-1.8-1.2-3.2-3.9-3.2h-4.2c-4,0-7.1-2.7-7.1-6.7c0-4,3.1-6.5,7.1-6.5h10.9v3.5H108C105.8,11.9,104.7,13.2,104.7,14.8"/>
		</g>
	</g>
</g>
</svg>
