<?xml version="1.0" encoding="utf-8"?>
<!-- Generator: Adobe Illustrator 25.0.1, SVG Export Plug-In . SVG Version: 6.00 Build 0)  -->
<svg version="1.1" id="Layer_1" xmlns="http://www.w3.org/2000/svg" xmlns:xlink="http://www.w3.org/1999/xlink" x="0px" y="0px"
	 viewBox="0 0 400 400" style="enable-background:new 0 0 400 400;" xml:space="preserve">
<style type="text/css">
	.st0{fill:#787A7A;}
	.st1{fill:#BFBFC0;}
	.st2{fill:#10BEF0;}
	.st3{fill:#4A4D4D;}
</style>
<polygon class="st0" points="158.6,212.2 263.6,212.2 316.1,121.3 211.1,121.3 "/>
<polygon class="st1" points="187.8,107.1 136,17.3 83.5,108.2 136,199.1 188.5,108.2 "/>
<polygon class="st2" points="316.1,95.1 263.6,4.2 158.6,4.2 211.1,95.1 "/>
<path class="st3" d="M47.5,391.3c-7.4-3.7-12.7-10-16-18.9c-3.2-8.8-4.8-21.2-4.8-37.1c0-16.2,1.6-28.7,4.8-37.5
	c3.2-8.8,8.5-15.1,15.9-18.7c7.3-3.6,17.5-5.4,30.6-5.4c11.4,0,20.5,1.2,27.2,3.6c6.7,2.4,11.7,6.5,14.8,12.4
	c3.1,5.8,4.7,13.9,4.7,24.3c0,10.6-3.1,18.3-9.2,23c-6.1,4.7-15,7.1-26.5,7.1H49.2c0.1,9.1,1.2,16.2,3,21.2c1.9,5,5.3,8.7,10.2,10.9
	c4.9,2.2,12.1,3.4,21.4,3.4h37.5v13.5c-8.2,1.2-15.5,2.1-21.8,2.8c-6.3,0.7-13.4,1-21.4,1C65.2,396.9,55,395,47.5,391.3z M87,329.9
	c6.1,0,10.6-1.2,13.4-3.5c2.8-2.3,4.2-6.4,4.2-12.3c0-9-2-15.2-6-18.7c-4-3.4-10.8-5.2-20.6-5.2c-7.6,0-13.5,1.1-17.6,3.4
	c-4.1,2.2-7,6.2-8.8,11.8c-1.7,5.6-2.6,13.8-2.6,24.4H87z"/>
<path class="st3" d="M183.5,395.6c-9.7-0.7-16.5-1.7-20.6-2.9l0.1-13.5l50.6,0.2c7.2,0,12.5-1,16-3c3.5-2,5.2-6.1,5.2-12.2l0-4.9
	c0-9.6-6.4-14.4-19.3-14.5l-17.5-0.1c-11.5,0-20.5-2.4-26.7-7.2s-9.4-12.6-9.4-23.5l0-6.5c0-11.5,3.5-20,10.3-25.5
	c6.8-5.4,18.1-8.1,33.9-8.1c6.6,0,14.3,0.5,23.2,1.3c8.8,0.9,15.7,1.8,20.4,2.9l-0.1,13.5l-47.7-0.2c-7,0-12.2,1.2-15.5,3.5
	c-3.3,2.4-5,6.6-5,12.6l0,4.5c0,5.7,1.6,9.4,4.8,11.3c3.2,1.8,8.4,2.7,15.6,2.8l18,0.1c11.2,0,19.8,2.7,25.7,8
	c5.9,5.3,8.8,12.8,8.8,22.5l0,9.2c0,11.5-3.9,19.6-11.4,24.1c-7.6,4.5-18.8,6.8-33.6,6.7C201.8,396.6,193.2,396.3,183.5,395.6z"/>
<path class="st3" d="M309.6,396.1c-9.7-0.7-16.5-1.7-20.6-2.9l0.1-13.5l50.6,0.2c7.2,0,12.5-1,16-3c3.5-2,5.2-6.1,5.2-12.2l0-4.9
	c0-9.6-6.4-14.4-19.3-14.5l-17.5-0.1c-11.5,0-20.5-2.4-26.7-7.2s-9.4-12.6-9.4-23.5l0-6.5c0-11.5,3.5-20,10.3-25.5
	c6.8-5.4,18.1-8.1,33.9-8.1c6.6,0,14.3,0.5,23.2,1.3c8.8,0.9,15.7,1.8,20.4,2.9l-0.1,13.5l-47.7-0.2c-7,0-12.2,1.2-15.5,3.5
	c-3.3,2.4-5,6.6-5,12.6l0,4.5c0,5.7,1.6,9.4,4.8,11.3c3.2,1.8,8.4,2.7,15.6,2.8l18,0.1c11.2,0,19.8,2.7,25.7,8
	c5.9,5.3,8.8,12.8,8.8,22.5l0,9.2c0,11.5-3.9,19.6-11.4,24.1c-7.6,4.5-18.8,6.8-33.6,6.7C327.8,397.1,319.2,396.8,309.6,396.1z"/>
</svg>
