<svg preserveAspectRatio="none" width="100%" height="100%" overflow="visible" style="display: block;" viewBox="0 0 157.648 139" fill="none" xmlns="http://www.w3.org/2000/svg">
<g id="Group 311">
<path id="Vector" d="M59.3478 119.631C57.2412 119.631 55.3032 118.511 54.2439 116.68L34.7672 82.9212C33.72 81.1025 33.72 78.8503 34.7672 77.0317L44.7343 59.7607H25.3419C23.2353 59.7607 21.2973 60.8808 20.25 62.6994L0.785445 96.4345C-0.261815 98.2531 -0.261815 100.493 0.785445 102.324L20.25 136.047C21.2973 137.866 23.2474 138.986 25.3419 138.986H64.2591C66.3656 138.986 68.3037 137.866 69.3509 136.047L78.8244 119.631H59.3478Z" fill="var(--fill-0, #D3EBF9)"/>
<path id="Vector_2" d="M156.862 96.4367L137.398 62.7137C136.35 60.8951 134.4 59.775 132.306 59.775H112.913L122.88 77.046C123.928 78.8646 123.928 81.1168 122.88 82.9355L103.404 116.695C102.357 118.513 100.406 119.645 98.2999 119.645H78.8233L88.2968 136.061C89.344 137.88 91.2941 139 93.3886 139H132.306C134.412 139 136.35 137.88 137.398 136.061L156.862 102.338C157.91 100.52 157.91 98.2795 156.862 96.4488V96.4367Z" fill="var(--fill-0, #0F3963)"/>
<path id="Vector_3" d="M44.7448 59.75L54.2544 43.2739C55.3016 41.4552 57.2517 40.3352 59.3583 40.3352H98.3115C100.418 40.3352 102.356 41.4552 103.415 43.2739L112.925 59.75L122.856 42.5392C123.903 40.7206 123.903 38.4804 122.856 36.6497L103.379 2.93872C102.332 1.12009 100.382 0 98.2875 0H59.3703C57.2637 0 55.3257 1.12009 54.2784 2.93872L34.8138 36.6617C33.7666 38.4804 33.7666 40.7206 34.8138 42.5512L44.7448 59.762V59.75Z" fill="var(--fill-0, #2184FF)"/>
</g>
</svg>
