<svg preserveAspectRatio="none" width="100%" height="100%" overflow="visible" style="display: block;" viewBox="0 0 28.0188 24.7607" fill="none" xmlns="http://www.w3.org/2000/svg">
<g id="Group 27">
<path id="Vector" d="M27.7748 11.4599L21.6897 0.92048C21.3615 0.351885 20.7542 0 20.0977 0H7.92546C7.26889 0 6.66168 0.349739 6.33339 0.92048L0.246212 11.4599C-0.0820707 12.0285 -0.0820707 12.7301 0.246212 13.2987L6.33125 23.8402C6.65953 24.4088 7.26675 24.7607 7.92331 24.7607H20.0955C20.7521 24.7607 21.3593 24.4109 21.6876 23.8402L27.7726 13.2987C28.1009 12.7301 28.1009 12.0285 27.7726 11.4599H27.7748Z" fill="var(--fill-0, #363636)"/>
<path id="&#226;&#134;&#146;" d="M9.60057 12.9948V11.808H16.7755L13.6289 8.80253L14.4841 8.00108L17.8566 11.2223C18.5827 11.9159 18.5827 12.8869 17.8566 13.5804L14.4841 16.8017L13.6289 16.0002L16.7755 12.9948H9.60057Z" fill="var(--fill-0, #D5D4CF)"/>
</g>
</svg>
