<svg preserveAspectRatio="none" width="100%" height="100%" overflow="visible" style="display: block;" viewBox="0 0 28.0188 24.7607" fill="none" xmlns="http://www.w3.org/2000/svg">
<g id="Group 26">
<path id="Vector" d="M27.7748 11.4599L21.6897 0.92048C21.3615 0.351885 20.7542 0 20.0977 0H7.92546C7.26889 0 6.66168 0.349739 6.33339 0.92048L0.246212 11.4599C-0.0820707 12.0285 -0.0820707 12.7301 0.246212 13.2987L6.33125 23.8402C6.65953 24.4088 7.26675 24.7607 7.92331 24.7607H20.0955C20.7521 24.7607 21.3593 24.4109 21.6876 23.8402L27.7726 13.2987C28.1009 12.7301 28.1009 12.0285 27.7726 11.4599H27.7748Z" fill="var(--fill-0, #363636)"/>
<path id="&#226;&#134;&#146;" d="M9.60056 12.9947V11.8079H16.7754L13.6289 8.80244L14.4841 8.00098L17.8566 11.2222C18.5827 11.9158 18.5827 12.8868 17.8566 13.5803L14.4841 16.8016L13.6289 16.0001L16.7754 12.9947H9.60056Z" fill="var(--fill-0, #D5D4CF)"/>
</g>
</svg>
