<svg preserveAspectRatio="none" width="100%" height="100%" overflow="visible" style="display: block;" viewBox="0 0 44.0411 29.7592" fill="none" xmlns="http://www.w3.org/2000/svg">
<g id="Group 61">
<path id="Vector" d="M26.4941 17.2495H42.5488C42.999 17.2495 43.3081 17.4266 43.4473 17.602C43.515 17.6875 43.5395 17.7666 43.541 17.8295C43.5424 17.8888 43.5245 17.9683 43.4473 18.0659L35.4199 28.2006C34.9238 28.8245 33.9563 29.2592 32.8477 29.2592H16.792C16.3432 29.2591 16.034 29.0816 15.8945 28.9057C15.8268 28.8202 15.8024 28.742 15.8008 28.6791C15.7993 28.62 15.8173 28.5403 15.8945 28.4428L23.9209 18.3071L23.9219 18.308C24.4176 17.683 25.3848 17.2495 26.4941 17.2495Z" stroke="var(--stroke-0, #D5D4CF)"/>
<path id="Vector_2" d="M9.77441 3.45619C10.1252 3.45619 10.424 3.56863 10.6025 3.73451L10.6719 3.80873L18.7021 13.9455C19.1393 14.4963 19.1667 15.139 18.7842 15.7013L18.7021 15.8126L10.6719 25.9513C10.5086 26.1579 10.1752 26.3048 9.77441 26.3048C9.37378 26.3047 9.04116 26.1578 8.87793 25.9513L0.849609 15.8165C0.383012 15.2271 0.382991 14.5329 0.849609 13.9435L8.87793 3.80873C9.04111 3.60306 9.37357 3.45628 9.77441 3.45619Z" stroke="var(--stroke-0, #D5D4CF)"/>
<path id="Vector_3" d="M16.792 0.5H32.8477C33.9592 0.5 34.9265 0.9346 35.4199 1.55762L43.4473 11.6934C43.5244 11.7908 43.5425 11.8705 43.541 11.9297C43.5394 11.9925 43.5149 12.0708 43.4473 12.1562C43.3077 12.3322 42.9979 12.5098 42.5488 12.5098H26.4941C25.3827 12.5098 24.4153 12.0751 23.9219 11.4521V11.4512L15.8945 1.31641C15.8173 1.21886 15.7993 1.13924 15.8008 1.08008C15.8024 1.01724 15.8268 0.938988 15.8945 0.853516C16.034 0.67763 16.3432 0.500118 16.792 0.5Z" stroke="var(--stroke-0, #D5D4CF)"/>
</g>
</svg>
