<svg preserveAspectRatio="none" width="100%" height="100%" overflow="visible" style="display: block;" viewBox="0 0 43.0766 39.406" fill="none" xmlns="http://www.w3.org/2000/svg">
<g id="Group 63">
<path id="Vector" d="M24.6777 22.8618L38.5158 20.6444C39.1198 20.5479 39.4013 21.1472 39.0074 21.7335L30.1552 34.9098C29.5909 35.7477 28.7038 36.3487 27.8296 36.4888L13.9915 38.7061C13.3888 38.8025 13.1064 38.2027 13.4999 37.6171L22.3523 24.4398L22.3531 24.4406C22.9173 23.6015 23.803 23.0019 24.6777 22.8618Z" stroke="var(--stroke-0, #D5D4CF)"/>
<path id="Vector_2" d="M12.1499 9.25459C12.5389 8.67603 13.296 8.55474 13.5153 9.03581L18.5026 19.9974L18.5025 19.9984C18.799 20.6488 18.6849 21.5181 18.2069 22.3118L18.1065 22.4698L9.25055 35.6514L9.2504 35.6523C8.86101 36.2325 8.10406 36.3538 7.885 35.8711L7.88515 35.8702L2.90038 24.91C2.584 24.2139 2.7354 23.2687 3.29747 22.4319L12.1499 9.25459Z" stroke="var(--stroke-0, #D5D4CF)"/>
<path id="Vector_3" d="M19.512 4.25687L33.3501 2.03954C34.2266 1.8991 34.9617 2.24035 35.2781 2.936L40.2638 13.896C40.4855 14.383 39.9908 15.1073 39.3881 15.2041L25.55 17.4214C24.6735 17.5619 23.9384 17.2207 23.622 16.525L18.6363 5.56499C18.4147 5.07793 18.9092 4.35366 19.512 4.25687Z" stroke="var(--stroke-0, #D5D4CF)"/>
</g>
</svg>
