<svg preserveAspectRatio="none" width="100%" height="100%" overflow="visible" style="display: block;" viewBox="0 0 43.0729 39.4095" fill="none" xmlns="http://www.w3.org/2000/svg">
<g id="Group 64">
<path id="Vector" d="M24.672 22.8653L38.5102 20.648C39.1142 20.5515 39.3957 21.1508 39.0018 21.737L30.1495 34.9134C29.5852 35.7513 28.6982 36.3522 27.824 36.4923L13.9859 38.7097C13.3832 38.806 13.1007 38.2063 13.4942 37.6206L22.3466 24.4433L22.3474 24.4441C22.9117 23.6051 23.7973 23.0055 24.672 22.8653Z" stroke="var(--stroke-0, #D5D4CF)"/>
<path id="Vector_2" d="M12.1499 9.25275C12.5389 8.67419 13.296 8.55291 13.5153 9.03397L18.5026 19.9956L18.5025 19.9965C18.799 20.647 18.6849 21.5163 18.2069 22.31L18.1065 22.4679L9.25055 35.6495L9.2504 35.6505C8.86101 36.2306 8.10406 36.352 7.885 35.8693L7.88515 35.8683L2.90038 24.9082C2.584 24.2121 2.7354 23.2669 3.29747 22.43L12.1499 9.25275Z" stroke="var(--stroke-0, #D5D4CF)"/>
<path id="Vector_3" d="M19.5083 4.25687L33.3464 2.03954C34.2229 1.8991 34.958 2.24034 35.2744 2.936L40.2601 13.896C40.4818 14.383 39.9872 15.1073 39.3844 15.2041L25.5463 17.4214C24.6698 17.5619 23.9347 17.2207 23.6183 16.525L18.6326 5.56499C18.411 5.07793 18.9055 4.35366 19.5083 4.25687Z" stroke="var(--stroke-0, #D5D4CF)"/>
</g>
</svg>
