<svg preserveAspectRatio="none" width="100%" height="100%" overflow="visible" style="display: block;" viewBox="0 0 44.0411 29.7599" fill="none" xmlns="http://www.w3.org/2000/svg">
<g id="Group 62">
<path id="Vector" d="M9.77441 3.45675C10.1252 3.45675 10.424 3.56918 10.6025 3.73507L10.6719 3.80929L18.7021 13.946C19.1393 14.4969 19.1667 15.1396 18.7842 15.7019L18.7021 15.8132L10.6719 25.9519C10.5086 26.1584 10.1752 26.3054 9.77441 26.3054C9.37378 26.3053 9.04116 26.1584 8.87793 25.9519L0.849609 15.8171C0.383012 15.2277 0.382991 14.5335 0.849609 13.9441L8.87793 3.80929C9.04111 3.60361 9.37357 3.45684 9.77441 3.45675Z" stroke="var(--stroke-0, #D5D4CF)"/>
<path id="Vector_2" d="M16.792 0.5H32.8477C33.9592 0.5 34.9265 0.9346 35.4199 1.55762L43.4473 11.6934C43.5244 11.7908 43.5425 11.8705 43.541 11.9297C43.5394 11.9925 43.5149 12.0708 43.4473 12.1562C43.3077 12.3322 42.9979 12.5098 42.5488 12.5098H26.4941C25.3827 12.5098 24.4153 12.0751 23.9219 11.4521V11.4512L15.8945 1.31641C15.8173 1.21886 15.7993 1.13924 15.8008 1.08008C15.8024 1.01724 15.8268 0.938988 15.8945 0.853516C16.034 0.67763 16.3432 0.500118 16.792 0.5Z" stroke="var(--stroke-0, #D5D4CF)"/>
<path id="Vector_3" d="M26.4941 17.2502H42.5488C42.999 17.2502 43.3081 17.4273 43.4473 17.6027C43.515 17.6882 43.5395 17.7673 43.541 17.8303C43.5424 17.8895 43.5245 17.9691 43.4473 18.0666L35.4199 28.2014C34.9238 28.8253 33.9563 29.26 32.8477 29.26H16.792C16.3432 29.2598 16.034 29.0823 15.8945 28.9064C15.8268 28.821 15.8024 28.7427 15.8008 28.6799C15.7993 28.6207 15.8173 28.5411 15.8945 28.4436L23.9209 18.3078L23.9219 18.3088C24.4176 17.6837 25.3848 17.2502 26.4941 17.2502Z" stroke="var(--stroke-0, #D5D4CF)"/>
</g>
</svg>
