<svg preserveAspectRatio="none" width="100%" height="100%" overflow="visible" style="display: block;" viewBox="0 0 43.0717 39.4067" fill="none" xmlns="http://www.w3.org/2000/svg">
<g id="Group 68">
<path id="Vector" d="M25.5447 21.985L39.3829 24.2023C39.987 24.2994 40.4804 25.0229 40.2586 25.5105L35.2737 36.4696C34.9552 37.1661 34.2191 37.507 33.3449 37.3669L19.5068 35.1495C18.904 35.0528 18.4094 34.3285 18.631 33.8414L23.6158 22.8813L23.6169 22.8824C23.9349 22.1847 24.67 21.8448 25.5447 21.985Z" stroke="var(--stroke-0, #D5D4CF)"/>
<path id="Vector_2" d="M7.88483 3.53972C8.10405 3.05861 8.86119 3.17997 9.25022 3.7585L18.1058 16.9382L18.106 16.9392C18.6321 17.7214 18.7979 18.599 18.5558 19.2773L18.502 19.4106L13.5149 30.3741L13.5151 30.375C13.296 30.8577 12.5391 30.7364 12.1497 30.1562L12.1495 30.1553L3.29714 16.978C2.73513 16.1411 2.58361 15.1959 2.90006 14.4998L7.88483 3.53972Z" stroke="var(--stroke-0, #D5D4CF)"/>
<path id="Vector_3" d="M13.9869 0.69966L27.8251 2.91699C28.7015 3.05743 29.5876 3.65844 30.1495 4.49483L39.0029 17.6723C39.3964 18.2579 39.1139 18.8576 38.5112 18.7613L24.6731 16.544C23.7966 16.4035 22.9106 15.8026 22.3487 14.9661L13.4953 1.78869C13.1018 1.20306 13.3842 0.603299 13.9869 0.69966Z" stroke="var(--stroke-0, #D5D4CF)"/>
</g>
</svg>
