<svg preserveAspectRatio="none" width="100%" height="100%" overflow="visible" style="display: block;" viewBox="0 0 43.0692 39.4067" fill="none" xmlns="http://www.w3.org/2000/svg">
<g id="Group 67">
<path id="Vector" d="M25.5422 21.985L39.3804 24.2023C39.9845 24.2994 40.4779 25.0229 40.2561 25.5105L35.2712 36.4696C34.9527 37.1661 34.2166 37.507 33.3424 37.3669L19.5043 35.1495C18.9015 35.0528 18.4069 34.3285 18.6285 33.8414L23.6133 22.8813L23.6144 22.8824C23.9324 22.1847 24.6675 21.8448 25.5422 21.985Z" stroke="var(--stroke-0, #D5D4CF)"/>
<path id="Vector_2" d="M7.88483 3.54274C8.10405 3.06164 8.86119 3.18299 9.25022 3.76152L18.1058 16.9412L18.106 16.9422C18.6321 17.7245 18.7979 18.602 18.5558 19.2803L18.502 19.4136L13.5149 30.3771L13.5151 30.3781C13.296 30.8607 12.5391 30.7394 12.1497 30.1593L12.1495 30.1583L3.29714 16.981C2.73513 16.1442 2.58361 15.1989 2.90006 14.5029L7.88483 3.54274Z" stroke="var(--stroke-0, #D5D4CF)"/>
<path id="Vector_3" d="M13.9844 0.69966L27.8226 2.91699C28.699 3.05743 29.5851 3.65844 30.147 4.49483L39.0004 17.6723C39.3939 18.2579 39.1114 18.8576 38.5088 18.7613L24.6706 16.544C23.7941 16.4035 22.9081 15.8026 22.3462 14.9661L13.4928 1.78869C13.0993 1.20306 13.3818 0.603299 13.9844 0.69966Z" stroke="var(--stroke-0, #D5D4CF)"/>
</g>
</svg>
