<svg preserveAspectRatio="none" width="100%" height="100%" overflow="visible" style="display: block;" viewBox="0 0 31.8771 41.1151" fill="none" xmlns="http://www.w3.org/2000/svg">
<g id="Group 65">
<path id="Vector" d="M19.1767 23.6406L30.7968 23.6406C30.9314 23.6406 31.13 23.7459 31.2695 24.082C31.3867 24.3646 31.4154 24.7242 31.3183 25.0566L31.2695 25.1973L25.4589 39.1992C25.0635 40.1486 24.3911 40.6152 23.7754 40.6152L12.1552 40.6152C12.0218 40.6152 11.8234 40.5102 11.6836 40.1738C11.5494 39.8508 11.5298 39.4269 11.6826 39.0586L17.4931 25.0566C17.8883 24.1056 18.5605 23.6406 19.1767 23.6406Z" stroke="var(--stroke-0, #D5D4CF)"/>
<path id="Vector_2" d="M7.0752 4.57812C7.18421 4.57827 7.39423 4.65354 7.5459 5.01855L13.3584 19.0234L13.3584 19.0244C13.7248 19.9061 13.7475 20.9922 13.4268 21.8994L13.3584 22.0781L7.5459 36.0859C7.39392 36.453 7.18357 36.5282 7.0752 36.5283C6.98039 36.5283 6.80685 36.4708 6.66309 36.21L6.60352 36.0859L0.792969 22.083C0.401983 21.1401 0.401957 19.9644 0.792969 19.0215L6.60352 5.01855C6.75533 4.65309 6.96625 4.57812 7.0752 4.57812Z" stroke="var(--stroke-0, #D5D4CF)"/>
<path id="Vector_3" d="M12.155 0.5L23.7752 0.5C24.3928 0.5 25.0652 0.966517 25.4588 1.91504L31.2693 15.918C31.4221 16.2863 31.4025 16.7102 31.2683 17.0332C31.1285 17.3696 30.9301 17.4746 30.7966 17.4746L19.1765 17.4746C18.5589 17.4746 17.8865 17.0073 17.4929 16.0586L11.6824 2.05664L11.6336 1.91602C11.5366 1.58372 11.5659 1.22408 11.6834 0.941406C11.8232 0.604929 12.0216 0.5 12.155 0.5Z" stroke="var(--stroke-0, #D5D4CF)"/>
</g>
</svg>
