<svg preserveAspectRatio="none" width="100%" height="100%" overflow="visible" style="display: block;" viewBox="0 0 31.8771 41.1111" fill="none" xmlns="http://www.w3.org/2000/svg">
<g id="Group 66">
<path id="Vector" d="M19.1767 23.6367L30.7968 23.6367C30.9314 23.6367 31.13 23.742 31.2695 24.0781C31.3867 24.3607 31.4154 24.7203 31.3183 25.0527L31.2695 25.1934L25.4589 39.1953C25.0635 40.1447 24.3911 40.6113 23.7753 40.6113L12.1552 40.6113C12.0218 40.6113 11.8234 40.5063 11.6836 40.1699C11.5494 39.8469 11.5298 39.423 11.6826 39.0547L17.4931 25.0527C17.8883 24.1017 18.5605 23.6367 19.1767 23.6367Z" stroke="var(--stroke-0, #D5D4CF)"/>
<path id="Vector_2" d="M7.0752 4.58203C7.18421 4.58218 7.39423 4.65745 7.5459 5.02246L13.3584 19.0273L13.3584 19.0283C13.7248 19.91 13.7475 20.9961 13.4268 21.9033L13.3584 22.082L7.5459 36.0898C7.39392 36.4569 7.18357 36.5321 7.0752 36.5322C6.98039 36.5322 6.80685 36.4747 6.66309 36.2139L6.60352 36.0898L0.792969 22.0869C0.401983 21.144 0.401957 19.9683 0.792969 19.0254L6.60352 5.02246C6.75533 4.65699 6.96625 4.58203 7.0752 4.58203Z" stroke="var(--stroke-0, #D5D4CF)"/>
<path id="Vector_3" d="M12.1552 0.5L23.7753 0.5C24.393 0.5 25.0654 0.966517 25.4589 1.91504L31.2695 15.918C31.4223 16.2863 31.4027 16.7102 31.2685 17.0332C31.1287 17.3696 30.9303 17.4746 30.7968 17.4746L19.1767 17.4746C18.5591 17.4746 17.8866 17.0073 17.4931 16.0586L11.6826 2.05664L11.6337 1.91602C11.5368 1.58372 11.5661 1.22408 11.6836 0.941406C11.8234 0.604929 12.0218 0.5 12.1552 0.5Z" stroke="var(--stroke-0, #D5D4CF)"/>
</g>
</svg>
