<svg preserveAspectRatio="none" width="100%" height="100%" overflow="visible" style="display: block;" viewBox="0 0 24.7145 16.7009" fill="none" xmlns="http://www.w3.org/2000/svg">
<g id="Group 60">
<path id="Vector" d="M14.8672 9.90011H23.877C24.0639 9.90011 24.1673 9.96977 24.2031 10.0085L19.7051 15.6892C19.4781 15.9748 19.0054 16.2009 18.4326 16.2009H9.42285C9.23385 16.2008 9.13011 16.1292 9.0957 16.0905L13.5957 10.4109C13.794 10.1608 14.1798 9.95687 14.6572 9.90988L14.8672 9.90011Z" stroke="var(--stroke-0, #D5D4CF)"/>
<path id="Vector_2" d="M5.48535 2.15952C5.66657 2.15952 5.77897 2.2275 5.81641 2.27475L10.3232 7.96323C10.5215 8.21309 10.5215 8.48778 10.3232 8.73764V8.73862L5.81641 14.4281C5.77876 14.4756 5.66607 14.5433 5.48535 14.5433C5.3497 14.5433 5.2523 14.5052 5.19629 14.4662L5.1543 14.4281L0.649414 8.74057C0.450663 8.48956 0.450663 8.21228 0.649414 7.96127L5.1543 2.27475C5.19173 2.2275 5.30417 2.15953 5.48535 2.15952Z" stroke="var(--stroke-0, #D5D4CF)"/>
<path id="Vector_3" d="M9.42285 0.5H18.4326C19.0072 0.5 19.4788 0.726143 19.7041 1.01074L24.2031 6.69043C24.1681 6.72925 24.0649 6.80078 23.877 6.80078H14.8672C14.2927 6.80076 13.821 6.57462 13.5957 6.29004L9.0957 0.609375C9.13062 0.570602 9.23477 0.500045 9.42285 0.5Z" stroke="var(--stroke-0, #D5D4CF)"/>
</g>
</svg>
