<svg preserveAspectRatio="none" width="100%" height="100%" overflow="visible" style="display: block;" viewBox="0 0 90.8273 61.3732" fill="none" xmlns="http://www.w3.org/2000/svg">
<g id="Group 70">
<path id="Vector" d="M54.6387 35.0425H87.75C88.8104 35.0425 89.6142 35.4605 90.0195 35.9722C90.2203 36.2257 90.321 36.4964 90.3271 36.7574C90.3331 37.0146 90.249 37.2988 90.0195 37.5884L73.4639 58.4888C72.3165 59.9323 70.1495 60.8735 67.7432 60.8736H34.6309C33.5734 60.8735 32.7694 60.4559 32.3633 59.9439C32.1622 59.6903 32.0612 59.4196 32.0547 59.1587C32.0484 58.9015 32.1328 58.6173 32.3623 58.3277L48.918 37.4263C50.0651 35.98 52.2316 35.0425 54.6387 35.0425Z" stroke="var(--stroke-0, #D5D4CF)"/>
<path id="Vector_2" d="M20.1592 6.59567C21.0928 6.59572 21.9584 6.93446 22.4258 7.52438L38.9863 28.4297C40.0319 29.7471 40.0975 31.324 39.1826 32.6738L38.9863 32.9404L22.4258 53.8496H22.4248C21.9572 54.441 21.0924 54.7802 20.1592 54.7802C19.2844 54.7802 18.4692 54.4825 17.9854 53.958L17.8926 53.8496L1.33691 32.9472H1.33594C0.220881 31.5384 0.221478 29.8345 1.33691 28.4258L17.8926 7.52438C18.3601 6.93453 19.2255 6.59567 20.1592 6.59567Z" stroke="var(--stroke-0, #D5D4CF)"/>
<path id="Vector_3" d="M34.6309 0.5H67.7432C70.1548 0.500118 72.3207 1.44134 73.4629 2.88379H73.4639L90.0195 23.7852C90.2489 24.0747 90.3325 24.359 90.3262 24.6162C90.3196 24.8771 90.2196 25.1478 90.0186 25.4014C89.6124 25.9135 88.8077 26.3311 87.75 26.3311H54.6387C52.3775 26.3311 50.3316 25.504 49.1436 24.2119L48.918 23.9473L32.3623 3.0459C32.1328 2.7563 32.0484 2.4721 32.0547 2.21484C32.0611 1.95386 32.1621 1.68341 32.3633 1.42969C32.7694 0.917595 33.5732 0.500041 34.6309 0.5Z" stroke="var(--stroke-0, #D5D4CF)"/>
</g>
</svg>
