<svg preserveAspectRatio="none" width="100%" height="100%" overflow="visible" style="display: block;" viewBox="0 0 45.1065 30.4773" fill="none" xmlns="http://www.w3.org/2000/svg">
<g id="Group 59">
<path id="Vector" d="M27.1357 17.6532H43.5781C44.0425 17.6532 44.3627 17.8363 44.5078 18.0195C44.5785 18.1087 44.6048 18.1913 44.6064 18.2587C44.608 18.3225 44.5887 18.4076 44.5078 18.5097L36.2861 28.8886C35.7751 29.531 34.7806 29.9775 33.6426 29.9775H17.1992C16.7366 29.9774 16.4161 29.7948 16.2705 29.6113C16.1995 29.5218 16.1735 29.4385 16.1719 29.371C16.1703 29.3074 16.1898 29.2229 16.2705 29.121L24.4922 18.7411L24.4912 18.7402C25.0019 18.0969 25.9973 17.6532 27.1357 17.6532Z" stroke="var(--stroke-0, #D5D4CF)"/>
<path id="Vector_2" d="M10.0107 3.52726C10.424 3.52726 10.7694 3.67885 10.9395 3.89347L19.1631 14.2743V14.2753C19.614 14.8436 19.6426 15.5067 19.248 16.0868L19.1631 16.2021L10.9395 26.5849L10.9385 26.5859C10.7682 26.801 10.4235 26.9521 10.0107 26.9521C9.598 26.952 9.25322 26.8011 9.08301 26.5859V26.5849L0.861328 16.206C0.379804 15.5978 0.379804 14.8805 0.861328 14.2724L9.08301 3.89347C9.25305 3.67887 9.59751 3.5273 10.0107 3.52726Z" stroke="var(--stroke-0, #D5D4CF)"/>
<path id="Vector_3" d="M17.1992 0.5H33.6426C34.7836 0.5 35.778 0.946295 36.2861 1.58789L44.5078 11.9678C44.5885 12.0696 44.608 12.1541 44.6064 12.2178C44.6048 12.2852 44.5788 12.3685 44.5078 12.458C44.3622 12.6416 44.041 12.8242 43.5781 12.8242H27.1357C25.9948 12.8242 25.0004 12.3778 24.4922 11.7363V11.7354L16.2705 1.35645C16.1899 1.25471 16.1704 1.17008 16.1719 1.10645C16.1735 1.03901 16.1995 0.955694 16.2705 0.866211C16.4161 0.682672 16.7365 0.500093 17.1992 0.5Z" stroke="var(--stroke-0, #D5D4CF)"/>
</g>
</svg>
