<svg preserveAspectRatio="none" width="100%" height="100%" overflow="visible" style="display: block;" viewBox="0 0 66.1126 44.6731" fill="none" xmlns="http://www.w3.org/2000/svg">
<g id="Group 69">
<path id="Vector" d="M39.7715 25.6433H63.873C64.6112 25.6434 65.1533 25.9342 65.418 26.2683C65.5485 26.4331 65.6086 26.6022 65.6123 26.7586C65.6159 26.9112 65.5669 27.0871 65.418 27.2752V27.2762L53.3672 42.489C52.5638 43.4996 51.0305 44.1726 49.3096 44.1726H25.208C24.4718 44.1726 23.9293 43.8822 23.6641 43.5476C23.5333 43.3827 23.4726 43.2137 23.4688 43.0574C23.466 42.943 23.4929 42.8154 23.5693 42.6795L23.6631 42.5408L35.7139 27.3269C36.5169 26.3145 38.05 25.6433 39.7715 25.6433Z" stroke="var(--stroke-0, #D5D4CF)"/>
<path id="Vector_2" d="M14.6738 4.93709C15.3261 4.93717 15.9102 5.17508 16.2168 5.56209L28.2705 20.7779L28.2715 20.7789C29.0436 21.7521 29.0436 22.919 28.2715 23.8922L28.2705 23.8931L16.2168 39.1119H16.2158C15.909 39.5 15.3257 39.7378 14.6738 39.7379C14.1034 39.7379 13.585 39.556 13.2588 39.2506L13.1309 39.1119L1.08008 23.898C0.30723 22.922 0.307268 21.752 1.08008 20.776L13.1309 5.56209L13.1299 5.56112C13.4366 5.1741 14.0215 4.93709 14.6738 4.93709Z" stroke="var(--stroke-0, #D5D4CF)"/>
<path id="Vector_3" d="M25.208 0.5H49.3096C51.0346 0.5 52.5677 1.17392 53.3672 2.18359L65.418 17.3975C65.5669 17.5855 65.616 17.7615 65.6123 17.9141C65.6085 18.0704 65.5477 18.2394 65.417 18.4043C65.1517 18.7388 64.6092 19.0293 63.873 19.0293H39.7715C38.0465 19.0293 36.5134 18.3563 35.7139 17.3467L23.6631 2.13281V2.13184C23.5142 1.94379 23.465 1.76777 23.4688 1.61523C23.4727 1.45894 23.5333 1.28985 23.6641 1.125C23.9294 0.790529 24.4719 0.5 25.208 0.5Z" stroke="var(--stroke-0, #D5D4CF)"/>
</g>
</svg>
