<svg width="580" height="542" viewBox="0 0 580 542" fill="none" xmlns="http://www.w3.org/2000/svg">
<path d="M220.998 541.094H432.291C448.367 541.094 463.228 532.434 471.298 518.408L576.944 334.132C584.484 320.985 575.075 304.544 559.965 304.544H348.671C332.595 304.544 317.734 313.173 309.665 327.229L204.018 511.505C196.479 524.652 205.919 541.094 220.998 541.094Z" fill="#D5D4CF" fill-opacity="0.2"/>
<path d="M145.603 63.5994C138.064 50.4525 119.215 50.4525 111.675 63.5994L6.0285 247.875C-2.0095 261.901 -2.0095 279.189 6.0285 293.215L111.675 477.491C119.215 490.669 138.064 490.669 145.603 477.491L251.281 293.152C259.319 279.158 259.319 261.901 251.281 247.907L145.603 63.5994Z" fill="#D5D4CF" fill-opacity="0.2"/>
<path d="M576.944 206.961L471.298 22.6854C463.26 8.65999 448.399 0 432.291 0H220.998C205.919 0 196.479 16.4414 204.018 29.5883L309.665 213.864C317.703 227.89 332.564 236.55 348.671 236.55H559.965C575.044 236.55 584.484 220.108 576.944 206.961Z" fill="#D5D4CF" fill-opacity="0.2"/>
</svg>
