<svg width="195" height="66" viewBox="0 0 195 66" fill="none" xmlns="http://www.w3.org/2000/svg">
<g clip-path="url(#clip0_1688_464)">
<path d="M90.9297 37.0238H100.788C104.642 37.0238 107.852 39.7935 107.852 43.9963C107.852 48.1991 104.642 50.9687 100.788 50.9687H93.9796V59.8316H90.9297V37.0215V37.0238ZM100.402 48.2321C102.811 48.2321 104.737 46.8626 104.737 44.0293C104.737 41.196 102.811 39.7605 100.402 39.7605H93.9796V48.2321H100.402Z" fill="#2D2D2D"/>
<path d="M108.817 55.3366C108.817 52.8286 110.712 50.6435 113.89 50.3182C117.551 49.9269 119.927 49.927 120.761 49.2764V48.7554C120.761 46.4407 119.058 45.0736 116.587 45.0736C114.276 45.0736 112.315 46.3441 112.252 48.8851H109.395C109.46 45.0736 112.638 42.4336 116.652 42.4336C120.345 42.4336 123.523 44.7789 123.588 48.8851V55.273C123.588 56.6425 124.262 57.293 125.579 57.293H125.964V59.834H125.098C123.395 59.834 121.885 59.1174 121.179 57.3897C120.022 59.1504 117.646 60.2889 114.691 60.2889C111.416 60.2889 108.814 58.6932 108.814 55.3366H108.817ZM114.919 57.715C118.034 57.715 120.763 55.7279 120.763 53.1845V51.848C120.057 52.369 117.969 52.4019 114.501 52.7272C112.831 52.8899 111.739 53.6394 111.739 55.2376C111.739 56.8357 112.991 57.715 114.919 57.715Z" fill="#2D2D2D"/>
<path d="M129.816 36.8613C130.813 36.8613 131.712 37.7405 131.712 38.8154C131.712 39.8903 130.813 40.8025 129.816 40.8025C128.82 40.8025 127.891 39.9233 127.891 38.8154C127.891 37.7075 128.79 36.8613 129.816 36.8613ZM131.231 59.834H128.404V42.8885H131.231V59.834Z" fill="#2D2D2D"/>
<path d="M134.926 42.8885H137.688V45.5615C139.005 43.3788 141.254 42.4336 143.179 42.4336C146.647 42.4336 149.57 45.0076 149.57 49.0477V59.834H146.743V49.9929C146.743 46.3111 144.817 45.0406 142.696 45.0406C139.742 45.0406 137.751 47.2563 137.751 51.2634V59.834H134.924V42.8885H134.926Z" fill="#2D2D2D"/>
<path d="M154.064 53.2834V45.4294H151.014V42.8884H154.064V39.0769L156.891 37.5117V42.8884H161.193V45.4294H156.891V53.1207C156.891 55.5981 158.496 57.2929 160.937 57.2929H161.418V59.8339H160.614C157.211 59.8339 154.064 57.4555 154.064 53.2834Z" fill="#2D2D2D"/>
<path d="M168.378 59.8335H165.328V37.0234H168.378V59.8335Z" fill="#2D2D2D"/>
<path d="M182.636 36.5664C189.026 36.5664 193.683 41.4881 193.683 48.3945C193.683 51.4258 192.784 54.0965 191.242 56.1165C191.948 56.7035 192.719 57.0948 193.713 57.0948H194.998V59.8314H193.328C191.497 59.8314 190.213 59.1148 189.154 58.1696C187.388 59.5391 185.14 60.2887 182.636 60.2887C176.245 60.2887 171.588 55.3033 171.588 48.3945C171.588 41.4858 176.243 36.5664 182.636 36.5664ZM189.154 53.8372C190.02 52.437 190.536 50.6103 190.536 48.4275C190.536 42.6926 186.94 39.402 182.636 39.402C178.331 39.402 174.735 42.6926 174.735 48.4275C174.735 54.1625 178.331 57.453 182.636 57.453C184.306 57.453 185.878 56.9651 187.195 55.9869C186.039 54.6174 184.914 53.3799 183.149 53.3799H181.864L181.897 50.6433H183.535C186.264 50.6433 187.806 52.239 189.154 53.8372Z" fill="#2D2D2D"/>
<path d="M72.9598 30.5486L56.9736 2.45143C56.1095 0.933428 54.516 0 52.7901 0H20.8178C19.0919 0 17.496 0.933428 16.6342 2.45143L0.648087 30.5486C-0.216029 32.0666 -0.216029 33.9334 0.648087 35.4514L16.6342 63.5486C17.4984 65.0666 19.0919 66 20.8178 66H52.7901C54.516 66 56.1118 65.0666 56.9736 63.5486L72.9598 35.4514C73.8239 33.9334 73.8239 32.0666 72.9598 30.5486Z" fill="#003966"/>
<path d="M30.0156 41.7641C31.269 41.7641 32.285 40.733 32.285 39.4611C32.285 38.1893 31.269 37.1582 30.0156 37.1582C28.7622 37.1582 27.7461 38.1893 27.7461 39.4611C27.7461 40.733 28.7622 41.7641 30.0156 41.7641Z" fill="#0080FF"/>
<path d="M23.046 41.3229C24.0595 41.3229 24.8811 40.4892 24.8811 39.4608C24.8811 38.4323 24.0595 37.5986 23.046 37.5986C22.0325 37.5986 21.2109 38.4323 21.2109 39.4608C21.2109 40.4892 22.0325 41.3229 23.046 41.3229Z" fill="#CDEBFA"/>
<path d="M16.3025 40.8162C17.0401 40.8162 17.6381 40.2094 17.6381 39.4608C17.6381 38.7123 17.0401 38.1055 16.3025 38.1055C15.5648 38.1055 14.9668 38.7123 14.9668 39.4608C14.9668 40.2094 15.5648 40.8162 16.3025 40.8162Z" fill="#CDEBFA"/>
<path d="M43.6581 41.7641C44.9115 41.7641 45.9276 40.733 45.9276 39.4611C45.9276 38.1893 44.9115 37.1582 43.6581 37.1582C42.4047 37.1582 41.3887 38.1893 41.3887 39.4611C41.3887 40.733 42.4047 41.7641 43.6581 41.7641Z" fill="#0080FF"/>
<path d="M50.63 41.3229C51.6435 41.3229 52.4651 40.4892 52.4651 39.4608C52.4651 38.4323 51.6435 37.5986 50.63 37.5986C49.6165 37.5986 48.7949 38.4323 48.7949 39.4608C48.7949 40.4892 49.6165 41.3229 50.63 41.3229Z" fill="#CDEBFA"/>
<path d="M57.3747 40.8162C58.1124 40.8162 58.7104 40.2094 58.7104 39.4608C58.7104 38.7123 58.1124 38.1055 57.3747 38.1055C56.6371 38.1055 56.0391 38.7123 56.0391 39.4608C56.0391 40.2094 56.6371 40.8162 57.3747 40.8162Z" fill="#CDEBFA"/>
<path d="M30.0156 27.9203C31.269 27.9203 32.285 26.8893 32.285 25.6174C32.285 24.3455 31.269 23.3145 30.0156 23.3145C28.7622 23.3145 27.7461 24.3455 27.7461 25.6174C27.7461 26.8893 28.7622 27.9203 30.0156 27.9203Z" fill="#0080FF"/>
<path d="M23.046 27.4792C24.0595 27.4792 24.8811 26.6455 24.8811 25.617C24.8811 24.5886 24.0595 23.7549 23.046 23.7549C22.0325 23.7549 21.2109 24.5886 21.2109 25.617C21.2109 26.6455 22.0325 27.4792 23.046 27.4792Z" fill="#CDEBFA"/>
<path d="M16.3025 26.9724C17.0401 26.9724 17.6381 26.3656 17.6381 25.6171C17.6381 24.8685 17.0401 24.2617 16.3025 24.2617C15.5648 24.2617 14.9668 24.8685 14.9668 25.6171C14.9668 26.3656 15.5648 26.9724 16.3025 26.9724Z" fill="#CDEBFA"/>
<path d="M43.6581 27.9203C44.9115 27.9203 45.9276 26.8893 45.9276 25.6174C45.9276 24.3455 44.9115 23.3145 43.6581 23.3145C42.4047 23.3145 41.3887 24.3455 41.3887 25.6174C41.3887 26.8893 42.4047 27.9203 43.6581 27.9203Z" fill="#0080FF"/>
<path d="M50.63 27.4792C51.6435 27.4792 52.4651 26.6455 52.4651 25.617C52.4651 24.5886 51.6435 23.7549 50.63 23.7549C49.6165 23.7549 48.7949 24.5886 48.7949 25.617C48.7949 26.6455 49.6165 27.4792 50.63 27.4792Z" fill="#CDEBFA"/>
<path d="M57.3747 26.9724C58.1124 26.9724 58.7104 26.3656 58.7104 25.6171C58.7104 24.8685 58.1124 24.2617 57.3747 24.2617C56.6371 24.2617 56.0391 24.8685 56.0391 25.6171C56.0391 26.3656 56.6371 26.9724 57.3747 26.9724Z" fill="#CDEBFA"/>
<path d="M36.839 48.6587C37.9949 48.6587 38.932 47.7079 38.932 46.5349C38.932 45.362 37.9949 44.4111 36.839 44.4111C35.6831 44.4111 34.7461 45.362 34.7461 46.5349C34.7461 47.7079 35.6831 48.6587 36.839 48.6587Z" fill="#CDEBFA"/>
<path d="M30.0171 48.4491C31.0588 48.4491 31.9032 47.5922 31.9032 46.5351C31.9032 45.478 31.0588 44.6211 30.0171 44.6211C28.9753 44.6211 28.1309 45.478 28.1309 46.5351C28.1309 47.5922 28.9753 48.4491 30.0171 48.4491Z" fill="#CDEBFA"/>
<path d="M23.0937 48.1283C23.961 48.1283 24.664 47.4149 24.664 46.5348C24.664 45.6548 23.961 44.9414 23.0937 44.9414C22.2265 44.9414 21.5234 45.6548 21.5234 46.5348C21.5234 47.4149 22.2265 48.1283 23.0937 48.1283Z" fill="#CDEBFA"/>
<path d="M36.839 48.6587C37.9949 48.6587 38.932 47.7079 38.932 46.5349C38.932 45.362 37.9949 44.4111 36.839 44.4111C35.6831 44.4111 34.7461 45.362 34.7461 46.5349C34.7461 47.7079 35.6831 48.6587 36.839 48.6587Z" fill="#CDEBFA"/>
<path d="M43.6596 48.4491C44.7013 48.4491 45.5458 47.5922 45.5458 46.5351C45.5458 45.478 44.7013 44.6211 43.6596 44.6211C42.6179 44.6211 41.7734 45.478 41.7734 46.5351C41.7734 47.5922 42.6179 48.4491 43.6596 48.4491Z" fill="#CDEBFA"/>
<path d="M50.582 48.1283C51.4492 48.1283 52.1523 47.4149 52.1523 46.5348C52.1523 45.6548 51.4492 44.9414 50.582 44.9414C49.7148 44.9414 49.0117 45.6548 49.0117 46.5348C49.0117 47.4149 49.7148 48.1283 50.582 48.1283Z" fill="#CDEBFA"/>
<path d="M30.0171 20.4579C31.0588 20.4579 31.9032 19.601 31.9032 18.5439C31.9032 17.4868 31.0588 16.6299 30.0171 16.6299C28.9753 16.6299 28.1309 17.4868 28.1309 18.5439C28.1309 19.601 28.9753 20.4579 30.0171 20.4579Z" fill="#CDEBFA"/>
<path d="M23.0937 20.1371C23.961 20.1371 24.664 19.4236 24.664 18.5436C24.664 17.6636 23.961 16.9502 23.0937 16.9502C22.2265 16.9502 21.5234 17.6636 21.5234 18.5436C21.5234 19.4236 22.2265 20.1371 23.0937 20.1371Z" fill="#CDEBFA"/>
<path d="M36.839 20.6675C37.9949 20.6675 38.932 19.7166 38.932 18.5437C38.932 17.3708 37.9949 16.4199 36.839 16.4199C35.6831 16.4199 34.7461 17.3708 34.7461 18.5437C34.7461 19.7166 35.6831 20.6675 36.839 20.6675Z" fill="#CDEBFA"/>
<path d="M43.6596 20.4579C44.7013 20.4579 45.5458 19.601 45.5458 18.5439C45.5458 17.4868 44.7013 16.6299 43.6596 16.6299C42.6179 16.6299 41.7734 17.4868 41.7734 18.5439C41.7734 19.601 42.6179 20.4579 43.6596 20.4579Z" fill="#CDEBFA"/>
<path d="M50.582 20.1371C51.4492 20.1371 52.1523 19.4236 52.1523 18.5436C52.1523 17.6636 51.4492 16.9502 50.582 16.9502C49.7148 16.9502 49.0117 17.6636 49.0117 18.5436C49.0117 19.4236 49.7148 20.1371 50.582 20.1371Z" fill="#CDEBFA"/>
<path d="M36.8391 55.0255C37.6563 55.0255 38.3187 54.3532 38.3187 53.524C38.3187 52.6947 37.6563 52.0225 36.8391 52.0225C36.0219 52.0225 35.3594 52.6947 35.3594 53.524C35.3594 54.3532 36.0219 55.0255 36.8391 55.0255Z" fill="#CDEBFA"/>
<path d="M30.0158 54.9188C30.7753 54.9188 31.3909 54.294 31.3909 53.5234C31.3909 52.7527 30.7753 52.1279 30.0158 52.1279C29.2563 52.1279 28.6406 52.7527 28.6406 53.5234C28.6406 54.294 29.2563 54.9188 30.0158 54.9188Z" fill="#CDEBFA"/>
<path d="M36.8391 55.0255C37.6563 55.0255 38.3187 54.3532 38.3187 53.524C38.3187 52.6947 37.6563 52.0225 36.8391 52.0225C36.0219 52.0225 35.3594 52.6947 35.3594 53.524C35.3594 54.3532 36.0219 55.0255 36.8391 55.0255Z" fill="#CDEBFA"/>
<path d="M43.6584 54.9188C44.4178 54.9188 45.0335 54.294 45.0335 53.5234C45.0335 52.7527 44.4178 52.1279 43.6584 52.1279C42.8989 52.1279 42.2832 52.7527 42.2832 53.5234C42.2832 54.294 42.8989 54.9188 43.6584 54.9188Z" fill="#CDEBFA"/>
<path d="M30.0158 12.9481C30.7753 12.9481 31.3909 12.3233 31.3909 11.5527C31.3909 10.782 30.7753 10.1572 30.0158 10.1572C29.2563 10.1572 28.6406 10.782 28.6406 11.5527C28.6406 12.3233 29.2563 12.9481 30.0158 12.9481Z" fill="#CDEBFA"/>
<path d="M36.8391 13.0538C37.6563 13.0538 38.3187 12.3815 38.3187 11.5523C38.3187 10.723 37.6563 10.0508 36.8391 10.0508C36.0219 10.0508 35.3594 10.723 35.3594 11.5523C35.3594 12.3815 36.0219 13.0538 36.8391 13.0538Z" fill="#CDEBFA"/>
<path d="M43.6584 12.9481C44.4178 12.9481 45.0335 12.3233 45.0335 11.5527C45.0335 10.782 44.4178 10.1572 43.6584 10.1572C42.8989 10.1572 42.2832 10.782 42.2832 11.5527C42.2832 12.3233 42.8989 12.9481 43.6584 12.9481Z" fill="#CDEBFA"/>
<path d="M36.839 20.6675C37.9949 20.6675 38.932 19.7166 38.932 18.5437C38.932 17.3708 37.9949 16.4199 36.839 16.4199C35.6831 16.4199 34.7461 17.3708 34.7461 18.5437C34.7461 19.7166 35.6831 20.6675 36.839 20.6675Z" fill="#CDEBFA"/>
<path d="M36.8391 13.0538C37.6563 13.0538 38.3187 12.3815 38.3187 11.5523C38.3187 10.723 37.6563 10.0508 36.8391 10.0508C36.0219 10.0508 35.3594 10.723 35.3594 11.5523C35.3594 12.3815 36.0219 13.0538 36.8391 13.0538Z" fill="#CDEBFA"/>
<path d="M23.0461 34.6616C24.2019 34.6616 25.139 33.7108 25.139 32.5378C25.139 31.3649 24.2019 30.4141 23.0461 30.4141C21.8902 30.4141 20.9531 31.3649 20.9531 32.5378C20.9531 33.7108 21.8902 34.6616 23.0461 34.6616Z" fill="#CDEBFA"/>
<path d="M16.1574 34.0391C16.9746 34.0391 17.6371 33.3669 17.6371 32.5376C17.6371 31.7084 16.9746 31.0361 16.1574 31.0361C15.3402 31.0361 14.6777 31.7084 14.6777 32.5376C14.6777 33.3669 15.3402 34.0391 16.1574 34.0391Z" fill="#CDEBFA"/>
<path d="M50.63 34.6616C51.7859 34.6616 52.723 33.7108 52.723 32.5378C52.723 31.3649 51.7859 30.4141 50.63 30.4141C49.4741 30.4141 48.5371 31.3649 48.5371 32.5378C48.5371 33.7108 49.4741 34.6616 50.63 34.6616Z" fill="#CDEBFA"/>
<path d="M57.5187 34.0391C58.336 34.0391 58.9984 33.3669 58.9984 32.5376C58.9984 31.7084 58.336 31.0361 57.5187 31.0361C56.7015 31.0361 56.0391 31.7084 56.0391 32.5376C56.0391 33.3669 56.7015 34.0391 57.5187 34.0391Z" fill="#CDEBFA"/>
<path d="M89.6699 20.3229C89.6699 14.7554 93.1659 11.3705 97.8186 11.4365C103.175 11.5025 105.647 15.6676 105.647 19.835C105.647 20.3229 105.614 20.7802 105.552 21.2681H92.6223C92.8778 25.0113 95.2216 26.6401 97.9789 26.6401C100.578 26.6401 102.118 25.4686 102.662 23.6135H105.549C104.971 26.9017 102.149 29.2777 97.9139 29.2777C93.4539 29.2777 89.6699 26.3148 89.6699 20.3253V20.3229ZM102.664 18.7931C102.311 15.4083 100.195 14.0718 97.7559 14.0718C95.1241 14.0718 93.1032 15.4389 92.6874 18.7931H102.664Z" fill="#757575"/>
<path d="M110.62 16.5464C110.62 17.7179 111.389 18.6937 113.026 18.6937H116.009C119.184 18.6937 121.656 20.6148 121.656 23.837C121.656 27.0592 119.187 28.8176 116.009 28.8176H108.246V26.279H115.914C117.807 26.279 118.706 25.3338 118.706 23.903C118.706 22.6019 117.807 21.527 115.914 21.527H112.866C109.979 21.527 107.732 19.5423 107.732 16.6124C107.732 13.6824 109.979 11.8604 112.866 11.8604H120.694V14.399H113.026C111.391 14.399 110.62 15.3749 110.62 16.5487V16.5464Z" fill="#757575"/>
<path d="M126.467 16.5464C126.467 17.7179 127.236 18.6937 128.874 18.6937H131.857C135.032 18.6937 137.504 20.6148 137.504 23.837C137.504 27.0592 135.034 28.8176 131.857 28.8176H124.093V26.279H131.761C133.654 26.279 134.553 25.3338 134.553 23.903C134.553 22.6019 133.654 21.527 131.761 21.527H128.714C125.826 21.527 123.58 19.5423 123.58 16.6124C123.58 13.6824 125.826 11.8604 128.714 11.8604H136.542V14.399H128.874C127.239 14.399 126.467 15.3749 126.467 16.5487V16.5464Z" fill="#757575"/>
</g>
<defs>
<clipPath id="clip0_1688_464">
<rect width="195" height="66" fill="white"/>
</clipPath>
</defs>
</svg>
