<?xml version="1.0" encoding="utf-8"?>
<!-- Generator: Adobe Illustrator 16.0.0, SVG Export Plug-In . SVG Version: 6.00 Build 0)  -->
<!DOCTYPE svg PUBLIC "-//W3C//DTD SVG 1.1//EN" "http://www.w3.org/Graphics/SVG/1.1/DTD/svg11.dtd">
<svg version="1.1" id="Ebene_1" xmlns="http://www.w3.org/2000/svg" xmlns:xlink="http://www.w3.org/1999/xlink" x="0px" y="0px"
	 width="15px" height="15px" viewBox="0 0 15 15" enable-background="new 0 0 15 15" xml:space="preserve">
<polygon fill="#E5E5E5" points="4.795,12.285 2.029,7.55 4.771,2.748 10.236,2.748 12.951,7.421 10.223,12.251 "/>
<polygon fill="#D9D9D9" points="4.507,11.794 2.029,7.55 4.771,2.748 7.249,6.992 "/>
<polygon fill="#A5A2A0" points="4.941,11.035 2.896,7.534 5.204,3.491 7.249,6.992 "/>
<polygon fill="#E5E5E5" points="5.763,2.778 10.246,2.771 12.563,6.75 8.049,6.747 "/>
<polygon fill="#008D77" points="6.195,3.538 9.817,3.525 11.702,6.744 8.049,6.747 "/>
<polygon fill="#BDB9B8" points="5.318,12.285 10.223,12.251 12.951,7.421 7.953,7.421 "/>
<polygon fill="#636362" points="5.721,11.539 9.836,11.529 12.08,7.421 7.953,7.421 "/>
</svg>
