<?xml version="1.0" encoding="UTF-8"?>
<svg id="Layer_2" data-name="Layer 2" xmlns="http://www.w3.org/2000/svg" viewBox="0 0 500 160">
  <defs>
    <style>
      .cls-1 {
        fill: #cdebfa;
      }

      .cls-2 {
        fill: #003966;
      }

      .cls-3 {
        fill: #757575;
      }

      .cls-4 {
        fill: #0080ff;
      }
    </style>
  </defs>
  <g>
    <path d="M185.07,100.25c0,4.3,3.37,8.68,9.1,8.68h9.35c10.62,0,19.21,7.75,19.21,17.61s-8.6,16.85-19.21,16.85h-24.86v-7.08h24.52c7.16,0,11.46-3.79,11.46-9.52s-4.3-9.44-11.46-9.44h-9.44c-9.27,0-16.6-7.59-16.6-16.85s7.33-16.1,16.6-16.1h26.46v7.08h-26.04c-5.73,0-9.1,4.47-9.1,8.76Z"/>
    <path d="M228.2,121.4c0-14.41,9.18-23.17,21.4-23,14.07.17,20.56,10.95,20.56,21.74,0,1.26-.08,2.44-.25,3.71h-33.96c.67,9.69,6.82,13.9,14.07,13.9,6.83,0,10.87-3.03,12.3-7.84h7.58c-1.52,8.51-8.93,14.66-20.06,14.66-11.71,0-21.66-7.67-21.66-23.17ZM262.33,117.44c-.93-8.76-6.49-12.22-12.89-12.22-6.91,0-12.22,3.54-13.32,12.22h26.21Z"/>
    <path d="M277.74,99.58h7.25v7.67c2.36-5.9,7.5-8.17,11.46-8.17h4.38v7.25h-5.39c-5.14,0-10.28,4.55-10.28,12.98v24.1h-7.42v-43.82Z"/>
    <path d="M346.5,99.58l-17.36,43.82h-7.92l-17.02-43.82h8.09l13.15,34.38,13.23-34.38h7.84Z"/>
    <path d="M356.18,83.99c2.61,0,4.97,2.28,4.97,5.06s-2.36,5.14-4.97,5.14-5.06-2.28-5.06-5.14,2.36-5.06,5.06-5.06ZM359.89,143.39h-7.42v-43.82h7.42v43.82Z"/>
    <path d="M367.89,121.4c0-14.66,10.03-23,21.66-23,10.87,0,19.55,5.56,20.56,17.19h-7.5c-1.18-7.75-6.57-10.37-13.23-10.37-7.5,0-13.82,4.97-13.82,16.26s6.24,16.26,13.9,16.26c6.74,0,12.05-3.87,13.15-11.63h7.5c-.84,11.8-9.52,18.45-20.48,18.45-11.8,0-21.74-8.43-21.74-23.17Z"/>
    <path d="M416,121.4c0-14.41,9.19-23.17,21.4-23,14.07.17,20.56,10.95,20.56,21.74,0,1.26-.08,2.44-.25,3.71h-33.96c.67,9.69,6.83,13.9,14.07,13.9,6.82,0,10.87-3.03,12.3-7.84h7.58c-1.52,8.51-8.93,14.66-20.06,14.66-11.71,0-21.66-7.67-21.66-23.17ZM450.12,117.44c-.93-8.76-6.49-12.22-12.89-12.22-6.91,0-12.22,3.54-13.31,12.22h26.21Z"/>
    <path d="M471.01,111.63c0,3.03,2.02,5.56,6.32,5.56h7.84c8.34,0,14.83,4.97,14.83,13.32s-6.49,12.89-14.83,12.89h-20.39v-6.57h20.14c4.97,0,7.33-2.45,7.33-6.15,0-3.37-2.36-6.15-7.33-6.15h-8c-7.58,0-13.48-5.14-13.48-12.72s5.9-12.3,13.48-12.3h20.56v6.57h-20.14c-4.3,0-6.32,2.53-6.32,5.56Z"/>
  </g>
  <path class="cls-2" d="M61.07,112.49l17.26,29.9c.93,1.61,2.65,2.61,4.52,2.61h34.53c1.86,0,3.59-.99,4.52-2.61l17.26-29.9c.93-1.61.93-3.6,0-5.22l-17.26-29.9c-.93-1.61-2.65-2.61-4.52-2.61h-34.53c-1.86,0-3.59.99-4.52,2.61l-17.26,29.9c-.93,1.61-.93,3.6,0,5.22Z"/>
  <path class="cls-1" d="M.7,112.49l17.26,29.9c.93,1.61,2.65,2.61,4.52,2.61h34.53c1.86,0,3.59-.99,4.52-2.61l17.26-29.9c.93-1.61.93-3.6,0-5.22l-17.26-29.9c-.93-1.61-2.65-2.61-4.52-2.61H22.48c-1.86,0-3.59.99-4.52,2.61L.7,107.27c-.93,1.61-.93,3.6,0,5.22Z"/>
  <path class="cls-4" d="M30.79,59.48l17.26,29.9c.93,1.61,2.65,2.61,4.52,2.61h34.53c1.86,0,3.59-.99,4.52-2.61l17.26-29.9c.93-1.61.93-3.6,0-5.22l-17.26-29.9c-.93-1.61-2.65-2.61-4.52-2.61h-34.53c-1.86,0-3.59.99-4.52,2.61l-17.26,29.9c-.93,1.61-.93,3.6,0,5.22Z"/>
  <path class="cls-3" d="M208.23,34.35c-.96-9.03-6.69-12.6-13.29-12.6-7.12,0-12.6,3.65-13.73,12.6h27.02ZM173.05,38.43c0-14.85,9.47-23.89,22.06-23.71,14.51.17,21.19,11.29,21.19,22.41,0,1.3-.09,2.52-.26,3.82h-35.01c.69,9.99,7.03,14.33,14.51,14.33,7.03,0,11.2-3.13,12.68-8.08h7.82c-1.56,8.77-9.21,15.11-20.67,15.11-12.07,0-22.32-7.9-22.32-23.89"/>
  <path class="cls-3" d="M229.76,28.36c0,3.13,2.09,5.73,6.52,5.73h8.08c8.6,0,15.29,5.13,15.29,13.72s-6.69,13.29-15.29,13.29h-21.02v-6.77h20.76c5.13,0,7.56-2.52,7.56-6.34,0-3.47-2.43-6.34-7.56-6.34h-8.25c-7.82,0-13.9-5.3-13.9-13.12s6.08-12.68,13.9-12.68h21.2v6.77h-20.76c-4.43,0-6.52,2.61-6.52,5.73"/>
  <path class="cls-3" d="M272.67,28.36c0,3.13,2.08,5.73,6.51,5.73h8.08c8.6,0,15.29,5.13,15.29,13.72s-6.69,13.29-15.29,13.29h-21.02v-6.77h20.76c5.13,0,7.56-2.52,7.56-6.34,0-3.47-2.43-6.34-7.56-6.34h-8.25c-7.82,0-13.9-5.3-13.9-13.12s6.08-12.68,13.9-12.68h21.19v6.77h-20.76c-4.43,0-6.51,2.61-6.51,5.73"/>
</svg>