<svg preserveAspectRatio="none" width="100%" height="100%" overflow="visible" style="display: block;" viewBox="0 0 29.1476 24.544" fill="none" xmlns="http://www.w3.org/2000/svg">
<g id="Group 278">
<path id="Vector" d="M28.8936 11.3595L22.5634 0.912421C22.2219 0.348804 21.5902 0 20.9072 0H8.2447C7.56169 0 6.93001 0.346678 6.58851 0.912421L0.25613 11.3595C-0.0853766 11.9232 -0.0853766 12.6186 0.25613 13.1823L6.58627 23.6315C6.92778 24.1951 7.55946 24.5439 8.24247 24.5439H20.905C21.588 24.5439 22.2197 24.1972 22.5612 23.6315L28.8913 13.1823C29.2328 12.6186 29.2328 11.9232 28.8913 11.3595H28.8936Z" fill="var(--fill-0, #2D2D2D)"/>
<g id="Group 46">
<path id="Line 19 (Stroke)" d="M15.6017 18.3149L14.2588 18.3149L14.2588 6.22935L15.6017 6.22935L15.6017 18.3149Z" fill="var(--fill-0, #2D2D2D)"/>
<path id="Line 20 (Stroke)" d="M8.88722 12.9444V11.6016L20.9728 11.6016V12.9444L8.88722 12.9444Z" fill="var(--fill-0, #2D2D2D)"/>
</g>
</g>
</svg>
